<?xml version="1.0" encoding="iso-8859-1"?>
<!-- Generator: Adobe Illustrator 18.0.0, SVG Export Plug-In . SVG Version: 6.00 Build 0)  -->
<!DOCTYPE svg PUBLIC "-//W3C//DTD SVG 1.1//EN" "http://www.w3.org/Graphics/SVG/1.1/DTD/svg11.dtd">
<svg version="1.1" id="Capa_1" xmlns="http://www.w3.org/2000/svg" xmlns:xlink="http://www.w3.org/1999/xlink" x="0px" y="0px"
	 viewBox="0 0 60 60" style="enable-background:new 0 0 60 60;" xml:space="preserve">
<path d="M52.448,0H7.552H6v60h1.552h44.896H54V0H52.448z M8,4.002l8.114,11.572l0.111,0.133c0.217,0.217,0.496,0.335,0.79,0.335
	c0.01,0,0.02,0,0.029-0.001L17.438,16H29v34H17.314c-0.087-0.025-0.177-0.039-0.27-0.041l-0.516,0.03L8,56.838V4.002z M31,16h11.686
	c0.087,0.025,0.177,0.039,0.27,0.041l0.516-0.03l0.304-0.304L52,3.998v52.853l-8.31-6.634v0.001l-0.306-0.271L42.562,50H31V16z
	 M50.961,2l-8.414,12H17.453L9.039,2H50.961z M9.759,58l7.523-6h25.436l7.523,6H9.759z"/>
<g>
</g>
<g>
</g>
<g>
</g>
<g>
</g>
<g>
</g>
<g>
</g>
<g>
</g>
<g>
</g>
<g>
</g>
<g>
</g>
<g>
</g>
<g>
</g>
<g>
</g>
<g>
</g>
<g>
</g>
</svg>
