<svg height="512pt" viewBox="-26 0 512 512.00002" width="512pt" xmlns="http://www.w3.org/2000/svg" xmlns:xlink="http://www.w3.org/1999/xlink"><linearGradient id="a"><stop offset="0" stop-color="#2193b0"/><stop offset="1" stop-color="#6dd5ed"/></linearGradient><linearGradient id="b" gradientTransform="matrix(.600559 0 0 -.600559 -25.600021 509.256526)" gradientUnits="userSpaceOnUse" x1="-24.0984" x2="970.2742" xlink:href="#a" y1="421.7016" y2="421.7016"/><linearGradient id="c" gradientTransform="matrix(.600559 0 0 -.600559 -25.600021 509.256526)" gradientUnits="userSpaceOnUse" x1="-24.0984" x2="970.2742" xlink:href="#a" y1="634.8362" y2="634.8362"/><linearGradient id="d" gradientTransform="matrix(.600559 0 0 -.600559 -25.600021 509.256526)" gradientUnits="userSpaceOnUse" x1="-24.0984" x2="970.2742" xlink:href="#a" y1="293.8208" y2="293.8208"/><path d="m8.535156 460.800781c-4.714844 0-8.535156 3.820313-8.535156 8.53125v34.132813c0 4.714844 3.820312 8.535156 8.535156 8.535156h443.730469c4.714844 0 8.535156-3.820312 8.535156-8.535156v-34.132813c0-4.710937-3.820312-8.53125-8.535156-8.53125h-8.53125v-17.066406h8.53125c4.714844 0 8.535156-3.820313 8.535156-8.535156v-34.132813c0-4.710937-3.820312-8.535156-8.535156-8.535156h-25.597656v-179.199219c0-4.710937-3.820313-8.53125-8.535157-8.53125h-85.332031v-179.199219c0-4.714843-3.820312-8.535156-8.535156-8.535156h-59.734375v-8.53125c0-4.714844-3.816406-8.535156-8.53125-8.535156h-51.199219c-4.714843 0-8.535156 3.820312-8.535156 8.535156v8.53125h-59.734375c-4.710938 0-8.53125 3.820313-8.53125 8.535156v179.199219h-85.332031c-4.714844 0-8.535157 3.820313-8.535157 8.53125v179.199219h-25.597656c-4.714844 0-8.535156 3.824219-8.535156 8.535156v34.132813c0 4.714843 3.820312 8.535156 8.535156 8.535156h8.53125v17.066406zm341.332032-153.601562c1.121093.003906 2.230468-.214844 3.265624-.648438 3.191407-1.320312 5.269532-4.433593 5.265626-7.882812v-76.800781h51.203124v170.664062h-170.667968v-170.664062h51.199218v76.800781c0 4.710937 3.824219 8.53125 8.535157 8.53125 2.261719 0 4.433593-.898438 6.03125-2.5l19.566406-19.566407 19.566406 19.566407c1.601563 1.601562 3.773438 2.5 6.035157 2.5zm-8.535157-85.332031v56.199218l-11.03125-11.035156c-3.332031-3.328125-8.734375-3.328125-12.066406 0l-11.035156 11.035156v-56.199218zm-128-204.800782h34.132813v56.199219l-11.03125-11.03125c-3.332032-3.332031-8.734375-3.332031-12.066406 0l-11.035157 11.03125zm-68.265625 17.066406h51.199219v59.734376c.003906 4.710937 3.824219 8.53125 8.535156 8.53125 2.261719 0 4.433594-.898438 6.03125-2.5l19.566407-19.566407 19.570312 19.566407c3.332031 3.332031 8.734375 3.332031 12.066406 0 1.597656-1.601563 2.496094-3.769532 2.5-6.03125v-59.734376h51.199219v170.667969h-170.667969zm-25.597656 187.734376h34.132812v56.199218l-11.035156-11.035156c-3.332031-3.328125-8.734375-3.328125-12.066406 0l-11.03125 11.035156zm-68.269531 0h51.199219v76.800781c.003906 4.710937 3.824218 8.53125 8.535156 8.53125 2.265625 0 4.433594-.898438 6.03125-2.5l19.570312-19.566407 19.566406 19.566407c3.332032 3.332031 8.734376 3.332031 12.066407 0 1.601562-1.601563 2.5-3.769531 2.5-6.03125v-76.800781h51.199219v170.664062h-170.667969zm-34.132813 187.734374h426.667969v17.066407h-426.667969zm409.601563 34.132813v17.066406h-17.066407v-17.066406zm-34.136719 0v17.066406h-136.53125v-17.066406zm-153.597656 0v17.066406h-17.066406v-17.066406zm-34.132813 0v17.066406h-136.535156v-17.066406zm-153.601562 0v17.066406h-17.066407v-17.066406zm-25.597657 34.132813h418.132813v17.066406h-426.667969v-17.066406zm0 0" fill="url(#b)"/><path d="m213.332031 119.46875h34.132813v17.066406h-34.132813zm0 0" fill="url(#c)"/><g fill="url(#d)"><path d="m307.199219 324.265625h34.132812v17.066406h-34.132812zm0 0"/><path d="m119.46875 324.265625h34.132812v17.066406h-34.132812zm0 0"/></g></svg>