<?xml version="1.0"?>
<svg xmlns="http://www.w3.org/2000/svg" height="512px" viewBox="0 0 512 512" width="512px" class=""><g><path d="m435.199219 230.398438h-179.199219v-136.53125h179.199219zm0 0" fill="#a03600" data-original="#A03600"/><path d="m298.667969 221.867188h-119.46875v-128h119.46875zm0 0" fill="#be6e41" data-original="#BE6E41"/><path d="m264.535156 93.867188h-85.335937l-34.132813-34.132813h85.332032zm0 0" fill="#6c4127" data-original="#6C4127"/><path d="m341.332031 93.867188h85.335938l34.132812-34.132813h-85.335937zm0 0" fill="#6c4127" data-original="#6C4127"/><path d="m136.535156 213.332031h162.132813v110.933594h-162.132813zm0 0" fill="#6c4127" data-original="#6C4127"/><path d="m102.398438 315.734375v60.894531c20.753906 8.710938 36.59375 27.246094 42.265624 50.039063h154.003907v-110.933594zm0 0" fill="#541d00" data-original="#541D00"/><path d="m162.132812 315.734375h68.265626v51.199219h-68.265626zm0 0" fill="#f7e6a1" data-original="#F7E6A1"/><path d="m290.132812 213.332031h187.734376v213.335938h-187.734376zm0 0" fill="#8e380a" data-original="#8E380A" class=""/><path d="m349.867188 213.332031h68.265624v51.203125h-68.265624zm0 0" fill="#f7e6a1" data-original="#F7E6A1"/><path d="m298.667969 443.734375v8.53125h.679687c4.148438 28.9375 28.972656 51.199219 59.050782 51.199219 30.089843 0 54.90625-22.261719 59.050781-51.199219h.683593v-8.53125zm0 0" fill="#28384c" data-original="#28384C"/><path d="m34.132812 81.324219v325.640625c9.601563-7.699219 21.308594-12.828125 34.132813-14.429688v-311.210937l-28.773437-62.421875c-2.339844-6.238282-8.304688-10.367188-14.957032-10.367188-11.164062 0-18.886718 11.144532-14.96875 21.585938zm0 0" fill="#e7eced" data-original="#E7ECED" class=""/><path d="m117.230469 418.132812c1.410156 5.460938 2.234375 11.164063 2.234375 17.066407 0 5.90625-.824219 11.605469-2.234375 17.066406h369.167969c9.429687 0 17.066406-7.636719 17.066406-17.066406 0-9.429688-7.636719-17.066407-17.066406-17.066407zm0 0" fill="#e7eced" data-original="#E7ECED" class=""/><path d="m145.066406 435.199219c0 37.703125-30.5625 68.265625-68.265625 68.265625s-68.265625-30.5625-68.265625-68.265625 30.5625-68.265625 68.265625-68.265625 68.265625 30.5625 68.265625 68.265625zm0 0" fill="#28384c" data-original="#28384C"/><path d="m76.800781 460.800781c-14.140625 0-25.601562-11.460937-25.601562-25.601562s11.460937-25.597657 25.601562-25.597657 25.597657 11.457032 25.597657 25.597657-11.457032 25.601562-25.597657 25.601562zm0 0" fill="#e7eced" data-original="#E7ECED" class=""/><g fill="#4d007e"><path d="m76.800781 512c-42.34375 0-76.800781-34.457031-76.800781-76.800781 0-42.339844 34.457031-76.800781 76.800781-76.800781 42.339844 0 76.800781 34.460937 76.800781 76.800781 0 42.34375-34.460937 76.800781-76.800781 76.800781zm0-136.535156c-32.9375 0-59.734375 26.796875-59.734375 59.734375s26.796875 59.734375 59.734375 59.734375 59.734375-26.796875 59.734375-59.734375-26.796875-59.734375-59.734375-59.734375zm0 0" data-original="#000000" class="active-path" style="fill:#000000"/><path d="m76.800781 469.332031c-18.824219 0-34.132812-15.308593-34.132812-34.132812s15.308593-34.132813 34.132812-34.132813 34.132813 15.308594 34.132813 34.132813-15.308594 34.132812-34.132813 34.132812zm0-51.199219c-9.414062 0-17.066406 7.65625-17.066406 17.066407 0 9.414062 7.652344 17.066406 17.066406 17.066406 9.410157 0 17.066407-7.652344 17.066407-17.066406 0-9.410157-7.65625-17.066407-17.066407-17.066407zm0 0" data-original="#000000" class="active-path" style="fill:#000000"/><path d="m34.132812 390.484375c-1.253906 0-2.515624-.273437-3.695312-.84375-2.953125-1.40625-4.835938-4.402344-4.835938-7.6875v-298.683594l-23.722656-49.453125c-3.125-8.214844-2.074218-16.65625 2.5-23.261718 4.574219-6.613282 12.109375-10.554688 20.15625-10.554688 10.152344 0 19.378906 6.390625 22.945313 15.898438l28.535156 61.855468c.519531 1.121094.785156 2.339844.785156 3.570313v286.199219c0 4.300781-3.199219 7.933593-7.476562 8.464843-10.9375 1.363281-21.265625 5.726563-29.859375 12.621094-1.535156 1.246094-3.429688 1.875-5.332032 1.875zm-9.597656-373.417969c-2.484375 0-4.722656 1.167969-6.128906 3.199219-1.40625 2.039063-1.714844 4.539063-.851562 6.863281l24.265624 50.5c.554688 1.160156.847657 2.414063.847657 3.695313v285.113281c5.417969-2.6875 11.144531-4.726562 17.066406-6.066406v-277.171875l-27.992187-60.730469c-1.328126-3.457031-4.128907-5.402344-7.207032-5.402344zm0 0" data-original="#000000" class="active-path" style="fill:#000000"/><path d="m486.398438 460.800781h-343.566407c-2.636719 0-5.128906-1.222656-6.75-3.3125-1.613281-2.082031-2.175781-4.796875-1.519531-7.355469 1.304688-5.058593 1.972656-10.085937 1.972656-14.933593 0-4.847657-.667968-9.871094-1.964844-14.933594-.65625-2.550781-.101562-5.273437 1.519532-7.355469 1.613281-2.089844 4.105468-3.308594 6.742187-3.308594h343.566407c14.117187 0 25.601562 11.484376 25.601562 25.597657s-11.484375 25.601562-25.601562 25.601562zm-333.300782-17.066406h333.300782c4.703124 0 8.535156-3.832031 8.535156-8.535156 0-4.699219-3.832032-8.53125-8.535156-8.53125h-333.300782c.332032 2.867187.503906 5.714843.503906 8.53125 0 2.816406-.171874 5.667969-.503906 8.535156zm0 0" data-original="#000000" class="active-path" style="fill:#000000"/><path d="m358.398438 512c-33.695313 0-62.71875-25.15625-67.496094-58.523438-.359375-2.445312.375-4.929687 1.996094-6.800781 1.621093-1.867187 3.976562-2.941406 6.449218-2.941406h118.101563c2.476562 0 4.832031 1.074219 6.453125 2.941406 1.621094 1.871094 2.347656 4.355469 1.996094 6.800781-4.777344 33.367188-33.800782 58.523438-67.5 58.523438zm-48.203126-51.199219c7.109376 20.011719 26.34375 34.132813 48.203126 34.132813 21.863281 0 41.097656-14.121094 48.207031-34.132813zm0 0" data-original="#000000" class="active-path" style="fill:#000000"/><path d="m435.199219 221.867188h-256c-4.710938 0-8.53125-3.824219-8.53125-8.535157v-119.464843c0-4.710938 3.820312-8.535157 8.53125-8.535157h256c4.710937 0 8.535156 3.824219 8.535156 8.535157v119.464843c0 4.710938-3.824219 8.535157-8.535156 8.535157zm-247.464844-17.066407h238.933594v-102.402343h-238.933594zm0 0" data-original="#000000" class="active-path" style="fill:#000000"/><path d="m298.667969 221.867188h-119.46875c-4.710938 0-8.53125-3.824219-8.53125-8.535157v-119.464843c0-4.710938 3.820312-8.535157 8.53125-8.535157h119.46875c4.710937 0 8.53125 3.824219 8.53125 8.535157v119.464843c0 4.710938-3.820313 8.535157-8.53125 8.535157zm-110.933594-17.066407h102.398437v-102.402343h-102.398437zm0 0" data-original="#000000" class="active-path" style="fill:#000000"/><path d="m435.199219 179.199219h-76.800781c-4.707032 0-8.53125-3.820313-8.53125-8.53125 0-4.710938 3.824218-8.535157 8.53125-8.535157h76.800781c4.710937 0 8.535156 3.824219 8.535156 8.535157 0 4.710937-3.824219 8.53125-8.535156 8.53125zm0 0" data-original="#000000" class="active-path" style="fill:#000000"/><path d="m435.199219 145.066406h-42.664063c-4.710937 0-8.535156-3.824218-8.535156-8.53125 0-4.710937 3.824219-8.535156 8.535156-8.535156h42.664063c4.710937 0 8.535156 3.824219 8.535156 8.535156 0 4.707032-3.824219 8.53125-8.535156 8.53125zm0 0" data-original="#000000" class="active-path" style="fill:#000000"/><path d="m418.132812 273.066406h-68.265624c-4.710938 0-8.535157-3.824218-8.535157-8.53125v-51.203125c0-4.710937 3.824219-8.53125 8.535157-8.53125h68.265624c4.710938 0 8.535157 3.820313 8.535157 8.53125v51.203125c0 4.707032-3.824219 8.53125-8.535157 8.53125zm-59.734374-17.066406h51.203124v-34.132812h-51.203124zm0 0" data-original="#000000" class="active-path" style="fill:#000000"/><path d="m477.867188 426.667969h-187.734376c-4.710937 0-8.53125-3.824219-8.53125-8.535157v-204.800781c0-4.710937 3.820313-8.53125 8.53125-8.53125h187.734376c4.710937 0 8.53125 3.820313 8.53125 8.53125v204.800781c0 4.710938-3.820313 8.535157-8.53125 8.535157zm-179.199219-17.066407h170.664062v-187.734374h-170.664062zm0 0" data-original="#000000" class="active-path" style="fill:#000000"/><path d="m358.398438 392.535156h-34.132813c-4.710937 0-8.53125-3.824218-8.53125-8.535156v-34.132812c0-4.710938 3.820313-8.535157 8.53125-8.535157s8.535156 3.824219 8.535156 8.535157v25.597656h25.597657c4.710937 0 8.535156 3.824218 8.535156 8.535156s-3.824219 8.535156-8.535156 8.535156zm0 0" data-original="#000000" class="active-path" style="fill:#000000"/><path d="m443.734375 392.535156h-34.132813c-4.710937 0-8.535156-3.824218-8.535156-8.535156s3.824219-8.535156 8.535156-8.535156h25.597657v-25.597656c0-4.710938 3.824219-8.535157 8.535156-8.535157s8.53125 3.824219 8.53125 8.535157v34.132812c0 4.710938-3.820313 8.535156-8.53125 8.535156zm0 0" data-original="#000000" class="active-path" style="fill:#000000"/><path d="m230.398438 375.464844h-68.265626c-4.710937 0-8.53125-3.820313-8.53125-8.53125v-51.199219c0-4.710937 3.820313-8.535156 8.53125-8.535156h68.265626c4.710937 0 8.535156 3.824219 8.535156 8.535156v51.199219c0 4.710937-3.824219 8.53125-8.535156 8.53125zm-59.730469-17.066406h51.199219v-34.132813h-51.199219zm0 0" data-original="#000000" class="active-path" style="fill:#000000"/><path d="m290.132812 324.265625h-153.597656c-4.710937 0-8.535156-3.820313-8.535156-8.53125v-102.402344c0-4.710937 3.824219-8.53125 8.535156-8.53125h153.597656c4.710938 0 8.535157 3.820313 8.535157 8.53125v102.402344c0 4.710937-3.824219 8.53125-8.535157 8.53125zm-145.066406-17.066406h136.535156v-85.332031h-136.535156zm0 0" data-original="#000000" class="active-path" style="fill:#000000"/><path d="m290.132812 426.667969h-147.300781c-3.890625 0-7.289062-2.636719-8.261719-6.402344-4.710937-18.242187-17.929687-33.347656-35.371093-40.414063-3.226563-1.304687-5.332031-4.4375-5.332031-7.910156v-56.207031c0-4.710937 3.824218-8.535156 8.53125-8.535156h187.734374c4.710938 0 8.535157 3.824219 8.535157 8.535156v102.398437c0 4.710938-3.824219 8.535157-8.535157 8.535157zm-140.996093-17.066407h132.464843v-85.335937h-170.667968v42.164063c17.785156 8.867187 31.566406 24.441406 38.203125 43.171874zm0 0" data-original="#000000" class="active-path" style="fill:#000000"/><path d="m264.535156 102.398438h-85.335937c-2.261719 0-4.4375-.894532-6.03125-2.5l-34.132813-34.132813c-2.441406-2.441406-3.175781-6.109375-1.851562-9.300781 1.320312-3.183594 4.4375-5.265625 7.882812-5.265625h85.332032c2.261718 0 4.4375.898437 6.035156 2.5l34.132812 34.132812c2.441406 2.441407 3.175782 6.113281 1.851563 9.304688-1.324219 3.179687-4.4375 5.261719-7.882813 5.261719zm-81.800781-17.066407h61.199219l-17.066406-17.066406h-61.199219zm0 0" data-original="#000000" class="active-path" style="fill:#000000"/><path d="m426.667969 102.398438h-85.335938c-3.445312 0-6.5625-2.082032-7.882812-5.261719-1.324219-3.191407-.589844-6.863281 1.851562-9.304688l34.132813-34.132812c1.597656-1.601563 3.773437-2.5 6.03125-2.5h85.335937c3.445313 0 6.5625 2.082031 7.882813 5.265625 1.324218 3.191406.589844 6.859375-1.851563 9.300781l-34.132812 34.132813c-1.59375 1.605468-3.769531 2.5-6.03125 2.5zm-64.734375-17.066407h61.199218l17.066407-17.066406h-61.199219zm0 0" data-original="#000000" class="active-path" style="fill:#000000"/></g></g> </svg>
