<?xml version="1.0" encoding="UTF-8" standalone="no"?>
<svg
   xmlns:dc="http://purl.org/dc/elements/1.1/"
   xmlns:cc="http://creativecommons.org/ns#"
   xmlns:rdf="http://www.w3.org/1999/02/22-rdf-syntax-ns#"
   xmlns:svg="http://www.w3.org/2000/svg"
   xmlns="http://www.w3.org/2000/svg"
   viewBox="0 0 732.03064 219.536"
   height="219.536"
   width="732.03064"
   xml:space="preserve"
   id="svg2"
   version="1.1"><metadata
     id="metadata8"><rdf:RDF><cc:Work
         rdf:about=""><dc:format>image/svg+xml</dc:format><dc:type
           rdf:resource="http://purl.org/dc/dcmitype/StillImage" /></cc:Work></rdf:RDF></metadata><defs
     id="defs6"><clipPath
       id="clipPath18"
       clipPathUnits="userSpaceOnUse"><path
         id="path16"
         d="M 0,164.652 H 549.023 V 0 H 0 Z" /></clipPath></defs><g
     transform="matrix(1.3333333,0,0,-1.3333333,0,219.536)"
     id="g10"><g
       id="g12"><g
         clip-path="url(#clipPath18)"
         id="g14"><g
           transform="translate(179.8721,93.2116)"
           id="g20"><path
             id="path22"
             style="fill:#bb0000;fill-opacity:1;fill-rule:nonzero;stroke:none"
             d="m 0,0 c 0,7.625 5.766,12.834 13.02,12.834 5.654,0 8.816,-2.977 10.564,-6.064 L 19.047,4.539 C 18.004,6.547 15.771,8.146 13.02,8.146 8.705,8.146 5.43,4.687 5.43,0 c 0,-4.687 3.275,-8.146 7.59,-8.146 2.751,0 4.984,1.562 6.027,3.607 l 4.537,-2.195 c -1.785,-3.088 -4.91,-6.1 -10.564,-6.1 C 5.766,-12.834 0,-7.627 0,0" /></g><g
           transform="translate(212.5694,105.6374)"
           id="g24"><path
             id="path26"
             style="fill:#bb0000;fill-opacity:1;fill-rule:nonzero;stroke:none"
             d="M 0,0 H 17.559 V -4.539 H 5.283 v -5.395 h 12.016 v -4.539 H 5.283 v -5.765 h 12.276 v -4.576 H 0 Z" /></g><g
           transform="translate(249.9932,85.4733)"
           id="g28"><path
             id="path30"
             style="fill:#bb0000;fill-opacity:1;fill-rule:nonzero;stroke:none"
             d="m 0,0 c 4.912,0 7.775,3.535 7.775,7.738 0,4.389 -2.677,7.776 -7.775,7.776 H -4.5 V 0 Z M -9.783,20.164 H 0 c 7.775,0 13.17,-4.949 13.17,-12.426 C 13.17,0.26 7.775,-4.65 0,-4.65 h -9.783 z" /></g><g
           transform="translate(283.6964,101.0983)"
           id="g32"><path
             id="path34"
             style="fill:#bb0000;fill-opacity:1;fill-rule:nonzero;stroke:none"
             d="M 0,0 H -5.543 V -6.846 H 0 c 2.119,0 3.719,1.34 3.719,3.422 C 3.719,-1.34 2.119,0 0,0 m -1.674,-11.385 h -3.869 v -8.89 h -5.283 V 4.539 H 0.781 c 5.17,0 8.332,-3.387 8.332,-8 0,-4.389 -2.752,-6.732 -5.431,-7.365 l 5.58,-9.449 H 3.199 Z" /></g><path
           id="path36"
           style="fill:#bb0000;fill-opacity:1;fill-rule:nonzero;stroke:none"
           d="m 302.741,105.637 h 5.283 V 80.823 h -5.283 z" /><g
           transform="translate(317.6964,93.2116)"
           id="g38"><path
             id="path40"
             style="fill:#bb0000;fill-opacity:1;fill-rule:nonzero;stroke:none"
             d="m 0,0 c 0,7.625 5.766,12.834 13.02,12.834 5.654,0 8.816,-2.977 10.564,-6.064 L 19.047,4.539 C 18.004,6.547 15.771,8.146 13.02,8.146 8.705,8.146 5.43,4.687 5.43,0 c 0,-4.687 3.275,-8.146 7.59,-8.146 2.751,0 4.984,1.562 6.027,3.607 l 4.537,-2.195 c -1.785,-3.088 -4.91,-6.1 -10.564,-6.1 C 5.766,-12.834 0,-7.627 0,0" /></g><g
           transform="translate(387.4444,98.6804)"
           id="g42"><path
             id="path44"
             style="fill:#bb0000;fill-opacity:1;fill-rule:nonzero;stroke:none"
             d="M 0,0 -6.994,-17.857 H -9.299 L -16.293,0 v -17.857 h -5.283 V 6.957 h 7.402 L -8.146,-8.52 -2.119,6.957 H 5.32 V -17.857 H 0 Z" /></g><path
           id="path46"
           style="fill:#bb0000;fill-opacity:1;fill-rule:nonzero;stroke:none"
           d="m 403.626,105.637 h 5.283 V 80.823 h -5.283 z" /><g
           transform="translate(419.7706,105.6374)"
           id="g48"><path
             id="path50"
             style="fill:#bb0000;fill-opacity:1;fill-rule:nonzero;stroke:none"
             d="m 0,0 h 5.283 v -20.164 h 10.49 v -4.65 H 0 Z" /></g><g
           transform="translate(445.1788,105.6374)"
           id="g52"><path
             id="path54"
             style="fill:#bb0000;fill-opacity:1;fill-rule:nonzero;stroke:none"
             d="m 0,0 h 5.283 v -20.164 h 10.49 v -4.65 H 0 Z" /></g><g
           transform="translate(476.7257,89.6765)"
           id="g56"><path
             id="path58"
             style="fill:#bb0000;fill-opacity:1;fill-rule:nonzero;stroke:none"
             d="M 0,0 H 8.221 L 4.129,11.385 Z M 9.672,-4.574 H -1.414 l -1.563,-4.28 H -8.779 L 0.818,15.961 H 7.439 L 17,-8.854 h -5.766 z" /></g><g
           transform="translate(512.8096,101.0983)"
           id="g60"><path
             id="path62"
             style="fill:#bb0000;fill-opacity:1;fill-rule:nonzero;stroke:none"
             d="M 0,0 H -5.543 V -6.846 H 0 c 2.119,0 3.719,1.34 3.719,3.422 C 3.719,-1.34 2.119,0 0,0 m -1.674,-11.385 h -3.869 v -8.89 h -5.283 V 4.539 H 0.781 c 5.17,0 8.332,-3.387 8.332,-8 0,-4.389 -2.752,-6.732 -5.431,-7.365 l 5.58,-9.449 H 3.199 Z" /></g><path
           id="path64"
           style="fill:#bb0000;fill-opacity:1;fill-rule:nonzero;stroke:none"
           d="m 180.681,70.21 h 2.801 V 51.522 h -2.801 z" /><g
           transform="translate(191.546,65.8659)"
           id="g66"><path
             id="path68"
             style="fill:#bb0000;fill-opacity:1;fill-rule:nonzero;stroke:none"
             d="M 0,0 V -14.344 H -2.803 V 4.344 H 0.084 L 10.252,-9.664 V 4.344 h 2.803 v -18.688 h -2.719 z" /></g><g
           transform="translate(214.3936,67.7429)"
           id="g70"><path
             id="path72"
             style="fill:#bb0000;fill-opacity:1;fill-rule:nonzero;stroke:none"
             d="M 0,0 H -5.799 V 2.467 H 8.572 V 0 H 2.803 V -16.221 H 0 Z" /></g><g
           transform="translate(226.9639,70.2097)"
           id="g74"><path
             id="path76"
             style="fill:#bb0000;fill-opacity:1;fill-rule:nonzero;stroke:none"
             d="M 0,0 H 12.551 V -2.467 H 2.803 V -7.93 h 9.552 v -2.465 H 2.803 v -5.828 h 9.748 v -2.465 H 0 Z" /></g><g
           transform="translate(253.0089,70.5163)"
           id="g78"><path
             id="path80"
             style="fill:#bb0000;fill-opacity:1;fill-rule:nonzero;stroke:none"
             d="M 0,0 C 3.502,0 5.828,-1.596 7.396,-3.697 L 5.127,-5.014 C 4.063,-3.586 2.186,-2.492 0,-2.492 c -3.895,0 -6.809,-2.971 -6.809,-7.172 0,-4.176 2.914,-7.202 6.809,-7.202 2.072,0 3.838,1.01 4.734,1.85 v 3.362 H -1.26 v 2.466 h 8.797 v -6.865 C 5.744,-18.042 3.166,-19.358 0,-19.358 c -5.352,0 -9.693,3.866 -9.693,9.694 C -9.693,-3.838 -5.352,0 0,0" /></g><g
           transform="translate(272.7218,67.7429)"
           id="g82"><path
             id="path84"
             style="fill:#bb0000;fill-opacity:1;fill-rule:nonzero;stroke:none"
             d="M 0,0 H -4.707 V -6.555 H 0 c 2.016,0 3.473,1.317 3.473,3.278 C 3.473,-1.316 2.016,0 0,0 m -1.205,-9.02 h -3.502 v -7.201 H -7.51 V 2.467 h 7.873 c 3.559,0 5.996,-2.299 5.996,-5.744 0,-3.362 -2.269,-5.155 -4.65,-5.463 l 4.789,-7.481 h -3.25 z" /></g><g
           transform="translate(287.0831,57.8815)"
           id="g86"><path
             id="path88"
             style="fill:#bb0000;fill-opacity:1;fill-rule:nonzero;stroke:none"
             d="M 0,0 H 7.537 L 3.754,9.891 Z M 8.35,-2.492 H -0.812 L -2.324,-6.36 H -5.406 L 2.018,12.328 H 5.52 L 12.943,-6.36 H 9.861 Z" /></g><g
           transform="translate(306.0675,67.7429)"
           id="g90"><path
             id="path92"
             style="fill:#bb0000;fill-opacity:1;fill-rule:nonzero;stroke:none"
             d="M 0,0 H -5.799 V 2.467 H 8.574 V 0 H 2.803 V -16.221 H 0 Z" /></g><g
           transform="translate(318.6358,70.2097)"
           id="g94"><path
             id="path96"
             style="fill:#bb0000;fill-opacity:1;fill-rule:nonzero;stroke:none"
             d="M 0,0 H 12.551 V -2.467 H 2.803 V -7.93 h 9.552 v -2.465 H 2.803 v -5.828 h 9.748 v -2.465 H 0 Z" /></g><g
           transform="translate(342.4386,53.9865)"
           id="g98"><path
             id="path100"
             style="fill:#bb0000;fill-opacity:1;fill-rule:nonzero;stroke:none"
             d="m 0,0 c 4.314,0 6.809,3.083 6.809,6.866 0,3.838 -2.411,6.89 -6.809,6.89 H -3.865 V 0 Z M -6.668,16.223 H 0 c 5.828,0 9.693,-3.978 9.693,-9.357 C 9.693,1.458 5.828,-2.465 0,-2.465 h -6.668 z" /></g><g
           transform="translate(365.3683,56.3132)"
           id="g102"><path
             id="path104"
             style="fill:#bb0000;fill-opacity:1;fill-rule:nonzero;stroke:none"
             d="m 0,0 c 1.26,-1.4 3.277,-2.633 5.883,-2.633 3.025,0 4.09,1.541 4.09,2.885 0,1.961 -2.129,2.521 -4.51,3.139 -2.998,0.783 -6.471,1.652 -6.471,5.463 0,3.08 2.717,5.322 6.612,5.322 2.884,0 5.154,-0.924 6.806,-2.606 L 10.785,9.498 c -1.428,1.512 -3.389,2.184 -5.406,2.184 -2.072,0 -3.502,-1.065 -3.502,-2.633 0,-1.682 2.018,-2.213 4.342,-2.801 3.054,-0.812 6.611,-1.766 6.611,-5.744 0,-2.915 -2.016,-5.631 -7.059,-5.631 -3.333,0 -5.771,1.205 -7.369,2.97 z" /></g><g
           transform="translate(391.1593,68.0241)"
           id="g106"><path
             id="path108"
             style="fill:#bb0000;fill-opacity:1;fill-rule:nonzero;stroke:none"
             d="m 0,0 c -4.006,0 -6.527,-3.055 -6.527,-7.172 0,-4.09 2.521,-7.172 6.527,-7.172 3.951,0 6.527,3.082 6.527,7.172 C 6.527,-3.055 3.951,0 0,0 m 0,2.492 c 5.576,0 9.414,-4.117 9.414,-9.664 0,-5.547 -3.838,-9.666 -9.414,-9.666 -5.574,0 -9.412,4.119 -9.412,9.666 0,5.547 3.838,9.664 9.412,9.664" /></g><g
           transform="translate(405.0421,70.2097)"
           id="g110"><path
             id="path112"
             style="fill:#bb0000;fill-opacity:1;fill-rule:nonzero;stroke:none"
             d="m 0,0 h 2.803 v -16.223 h 8.488 v -2.465 H 0 Z" /></g><g
           transform="translate(419.7686,70.2097)"
           id="g114"><path
             id="path116"
             style="fill:#bb0000;fill-opacity:1;fill-rule:nonzero;stroke:none"
             d="m 0,0 h 2.83 v -11.291 c 0,-3.193 1.766,-5.239 5.043,-5.239 3.277,0 5.016,2.046 5.016,5.239 V 0 h 2.828 v -11.348 c 0,-4.651 -2.606,-7.676 -7.844,-7.676 -5.238,0 -7.873,3.055 -7.873,7.649 z" /></g><g
           transform="translate(445.3077,67.7429)"
           id="g118"><path
             id="path120"
             style="fill:#bb0000;fill-opacity:1;fill-rule:nonzero;stroke:none"
             d="M 0,0 H -5.799 V 2.467 H 8.574 V 0 H 2.803 V -16.221 H 0 Z" /></g><path
           id="path122"
           style="fill:#bb0000;fill-opacity:1;fill-rule:nonzero;stroke:none"
           d="m 457.878,70.21 h 2.803 V 51.522 h -2.803 z" /><g
           transform="translate(474.5714,68.0241)"
           id="g124"><path
             id="path126"
             style="fill:#bb0000;fill-opacity:1;fill-rule:nonzero;stroke:none"
             d="m 0,0 c -4.006,0 -6.527,-3.055 -6.527,-7.172 0,-4.09 2.521,-7.172 6.527,-7.172 3.951,0 6.527,3.082 6.527,7.172 C 6.527,-3.055 3.951,0 0,0 m 0,2.492 c 5.576,0 9.414,-4.117 9.414,-9.664 0,-5.547 -3.838,-9.666 -9.414,-9.666 -5.574,0 -9.412,4.119 -9.412,9.666 0,5.547 3.838,9.664 9.412,9.664" /></g><g
           transform="translate(491.2569,65.8659)"
           id="g128"><path
             id="path130"
             style="fill:#bb0000;fill-opacity:1;fill-rule:nonzero;stroke:none"
             d="M 0,0 V -14.344 H -2.803 V 4.344 H 0.084 L 10.254,-9.664 V 4.344 h 2.801 v -18.688 h -2.717 z" /></g><g
           transform="translate(509.9874,56.3132)"
           id="g132"><path
             id="path134"
             style="fill:#bb0000;fill-opacity:1;fill-rule:nonzero;stroke:none"
             d="m 0,0 c 1.26,-1.4 3.277,-2.633 5.883,-2.633 3.025,0 4.09,1.541 4.09,2.885 0,1.961 -2.129,2.521 -4.51,3.139 -2.998,0.783 -6.471,1.652 -6.471,5.463 0,3.08 2.717,5.322 6.611,5.322 2.885,0 5.155,-0.924 6.807,-2.606 L 10.785,9.498 c -1.428,1.512 -3.389,2.184 -5.406,2.184 -2.074,0 -3.502,-1.065 -3.502,-2.633 0,-1.682 2.018,-2.213 4.342,-2.801 3.054,-0.812 6.611,-1.766 6.611,-5.744 0,-2.915 -2.016,-5.631 -7.059,-5.631 -3.334,0 -5.771,1.205 -7.369,2.97 z" /></g><g
           transform="translate(103.2047,114.0109)"
           id="g136"><path
             id="path138"
             style="fill:#bb0000;fill-opacity:1;fill-rule:nonzero;stroke:none"
             d="m 0,0 c 12.293,-21.292 24.551,-42.602 36.83,-63.899 l -10.39,-17.96 c -12.277,21.298 -24.536,42.609 -36.828,63.9 L -18.613,-32.18 C -7.716,-51.092 3.183,-70.005 14.082,-88.918 H -6.649 c -10.903,18.919 -21.812,37.837 -32.713,56.757 16.083,27.805 16.662,28.803 32.817,56.73 L 22.421,24.544 55.143,-32.24 44.753,-50.203 C 33.845,-31.274 22.937,-12.346 12.031,6.585 L 3.813,6.591 Z" /></g><g
           transform="translate(48.0177,81.862)"
           id="g140"><path
             id="path142"
             style="fill:#002700;fill-opacity:1;fill-rule:evenodd;stroke:none"
             d="M 0,0 32.71,-56.769 H 11.974 L -20.75,0.017 12.069,56.749 32.816,56.731 C 21.878,37.821 10.94,18.911 0,0" /></g></g></g></g></svg>