<svg id="Layer_1" data-name="Layer 1" xmlns="http://www.w3.org/2000/svg" width="200" height="200" viewBox="0 0 200 200"><defs><style>.cls-1{fill:none;}.cls-13,.cls-15,.cls-2{fill:#26697a;}.cls-2{opacity:0.3;}.cls-15,.cls-2{isolation:isolate;}.cls-3{fill:#e58f00;}.cls-4{fill:#ffda00;}.cls-5{fill:#ffb000;}.cls-6{fill:#6a9304;}.cls-7{fill:#8cc004;}.cls-8{fill:#5f8403;}.cls-9{fill:#4b6a02;}.cls-10{fill:#fff;}.cls-11{fill:#bfbaad;}.cls-12{fill:#537703;}.cls-14{fill:#f2f2f2;}.cls-15{opacity:0.4;}.cls-16{fill:#e2e2e2;}.cls-17{fill:#f2d0b8;}.cls-18{fill:#394a63;}.cls-19{fill:#ffdec5;}.cls-20{fill:#753a13;}.cls-21{fill:#3f3f3f;}.cls-22{fill:#423d39;}.cls-23{fill:#637ea8;}.cls-24{fill:#332f2d;}.cls-25{fill:#635d5a;}.cls-26{fill:#4a6182;}.cls-27{fill:#ccc;}.cls-28{fill:#565656;}</style></defs><title>img-no-money-spent</title><rect class="cls-1" width="200" height="200"/><polygon class="cls-2" points="140 184.88 140.38 189.94 135.43 191.09 109.22 191.09 113.79 184.88 140 184.88"/><polygon class="cls-2" points="141.86 190.15 137.29 196.36 163.51 196.36 169.52 194.8 168.07 190.15 141.86 190.15"/><path class="cls-2" d="M82.28,189.29c0,1.1-2.66,2-5.94,2s-5.94-.9-5.94-2,2.66-2,5.94-2S82.28,188.19,82.28,189.29Z"/><path class="cls-2" d="M97.85,194.47c0,1.1-2.66,2-5.94,2s-5.94-.89-5.94-2,2.66-2,5.94-2S97.85,193.37,97.85,194.47Z"/><path class="cls-2" d="M114.1,192.35c0,1.1-2.66,2-5.94,2s-5.94-.89-5.94-2,2.66-2,5.94-2S114.1,191.25,114.1,192.35Z"/><path class="cls-2" d="M132.08,197c0,1.1-2.66,2-5.94,2s-5.94-.89-5.94-2,2.66-2,5.94-2S132.08,195.91,132.08,197Z"/><path class="cls-2" d="M154.86,179.88c0,1.1-2.66,2-5.94,2s-5.94-.89-5.94-2,2.66-2,5.94-2S154.86,178.78,154.86,179.88Z"/><path class="cls-2" d="M186.37,193.57c0,1.1-2.66,2-5.94,2s-5.94-.89-5.94-2,2.66-2,5.94-2S186.37,192.47,186.37,193.57Z"/><path class="cls-2" d="M111.7,183.6c0,1.11-2.66,2-5.94,2s-5.94-.89-5.94-2,2.66-2,5.94-2S111.7,182.5,111.7,183.6Z"/><path class="cls-3" d="M157.32,178.6c0,1.1-2.65,2-5.93,2s-5.94-.89-5.94-2v-1.22h11.87Z"/><path class="cls-4" d="M157.32,177.38c0,1.1-2.65,2-5.93,2s-5.94-.89-5.94-2,2.66-2,5.94-2S157.32,176.28,157.32,177.38Z"/><path class="cls-3" d="M151.39,175.65c-3.15,0-5.73.82-5.93,1.86.2,1,2.78,1.86,5.93,1.86s5.72-.82,5.92-1.86C157.11,176.47,154.54,175.65,151.39,175.65Zm4,2.82a14.6,14.6,0,0,1-8,0c-1-.33-1.32-.7-1.32-.83s.32-.49,1.32-.83a14.86,14.86,0,0,1,8,0c1,.34,1.33.71,1.33.83S156.39,178.14,155.39,178.47Z"/><path class="cls-5" d="M151.39,176a13,13,0,0,1,4,.55c1,.34,1.33.7,1.33.83s-.33.5-1.33.83a14.86,14.86,0,0,1-8,0c-1-.33-1.32-.7-1.32-.83s.32-.49,1.32-.83a13,13,0,0,1,4-.55m0-.61c-3.28,0-5.94.89-5.94,2s2.66,2,5.94,2,5.93-.89,5.93-2S154.67,175.39,151.39,175.39Z"/><path class="cls-5" d="M151.39,176.61a10.57,10.57,0,0,1,4.44.77,13.06,13.06,0,0,1-8.89,0,10.66,10.66,0,0,1,4.45-.77"/><path class="cls-3" d="M157.32,176.57c0,1.1-2.65,2-5.93,2s-5.94-.9-5.94-2v-1.21h11.87Z"/><path class="cls-4" d="M157.32,175.36c0,1.1-2.65,2-5.93,2s-5.94-.89-5.94-2,2.66-2,5.94-2S157.32,174.26,157.32,175.36Z"/><path class="cls-3" d="M151.39,173.62c-3.15,0-5.73.83-5.93,1.87.2,1,2.78,1.86,5.93,1.86s5.72-.82,5.92-1.86C157.11,174.45,154.54,173.62,151.39,173.62Zm4,2.83a14.86,14.86,0,0,1-8,0c-1-.34-1.32-.71-1.32-.83s.32-.5,1.32-.83a14.6,14.6,0,0,1,8,0c1,.33,1.33.7,1.33.83S156.39,176.11,155.39,176.45Z"/><path class="cls-5" d="M151.39,174a13.27,13.27,0,0,1,4,.55c1,.34,1.33.71,1.33.84s-.33.49-1.33.83a14.86,14.86,0,0,1-8,0c-1-.34-1.32-.71-1.32-.83s.32-.5,1.32-.84a13.3,13.3,0,0,1,4-.55m0-.61c-3.28,0-5.94.9-5.94,2s2.66,2,5.94,2,5.93-.89,5.93-2S154.67,173.39,151.39,173.39Z"/><path class="cls-5" d="M151.39,174.58a10.52,10.52,0,0,1,4.44.78,13.21,13.21,0,0,1-8.89,0,10.62,10.62,0,0,1,4.45-.78"/><path class="cls-3" d="M157.32,174.55c0,1.1-2.65,2-5.93,2s-5.94-.89-5.94-2v-1.22h11.87Z"/><path class="cls-4" d="M157.32,173.33c0,1.1-2.65,2-5.93,2s-5.94-.89-5.94-2,2.66-2,5.94-2S157.32,172.23,157.32,173.33Z"/><path class="cls-3" d="M151.39,171.6c-3.15,0-5.73.82-5.93,1.86.2,1,2.78,1.86,5.93,1.86s5.72-.82,5.92-1.86C157.11,172.42,154.54,171.6,151.39,171.6Zm4,2.82a14.6,14.6,0,0,1-8,0c-1-.33-1.32-.7-1.32-.83s.32-.49,1.32-.83a14.86,14.86,0,0,1,8,0c1,.34,1.33.71,1.33.83s-.33.5-1.33.83Z"/><path class="cls-5" d="M151.39,172a13,13,0,0,1,4,.55c1,.33,1.33.7,1.33.83s-.33.5-1.33.83a14.86,14.86,0,0,1-8,0c-1-.33-1.32-.7-1.32-.83s.32-.5,1.32-.83a13,13,0,0,1,4-.55m0-.61c-3.28,0-5.94.89-5.94,2s2.66,2,5.94,2,5.93-.89,5.93-2S154.67,171.39,151.39,171.39Z"/><path class="cls-5" d="M151.39,172.56a10.57,10.57,0,0,1,4.44.77,13.06,13.06,0,0,1-8.89,0,10.66,10.66,0,0,1,4.45-.77"/><path class="cls-3" d="M157.32,172.52c0,1.1-2.65,2-5.93,2s-5.94-.9-5.94-2v-1.21h11.87Z"/><path class="cls-4" d="M157.32,171.31c0,1.1-2.65,2-5.93,2s-5.94-.89-5.94-2,2.66-2,5.94-2S157.32,170.2,157.32,171.31Z"/><path class="cls-3" d="M151.39,169.57c-3.15,0-5.73.83-5.93,1.87.2,1,2.78,1.86,5.93,1.86s5.72-.82,5.92-1.86C157.11,170.4,154.54,169.57,151.39,169.57Zm4,2.83a14.86,14.86,0,0,1-8,0c-1-.34-1.32-.71-1.32-.83s.32-.5,1.32-.84a14.86,14.86,0,0,1,8,0c1,.34,1.33.71,1.33.84s-.33.49-1.33.83Z"/><path class="cls-5" d="M151.39,169.92a13.27,13.27,0,0,1,4,.55c1,.34,1.33.71,1.33.84s-.33.49-1.33.83a14.86,14.86,0,0,1-8,0c-1-.34-1.32-.71-1.32-.83s.32-.5,1.32-.84a13.3,13.3,0,0,1,4-.55m0-.61c-3.28,0-5.94.89-5.94,2s2.66,2,5.94,2,5.93-.89,5.93-2S154.67,169.31,151.39,169.31Z"/><path class="cls-5" d="M151.39,170.53a10.52,10.52,0,0,1,4.44.78,13.21,13.21,0,0,1-8.89,0,10.62,10.62,0,0,1,4.45-.78"/><path class="cls-3" d="M157.32,170.5c0,1.1-2.65,2-5.93,2s-5.94-.89-5.94-2v-1.22h11.87Z"/><path class="cls-4" d="M157.32,169.28c0,1.1-2.65,2-5.93,2s-5.94-.89-5.94-2,2.66-2,5.94-2S157.32,168.18,157.32,169.28Z"/><path class="cls-3" d="M151.39,167.55c-3.15,0-5.73.82-5.93,1.86.2,1,2.78,1.86,5.93,1.86s5.72-.82,5.92-1.86C157.11,168.37,154.54,167.55,151.39,167.55Zm4,2.82a14.86,14.86,0,0,1-8,0c-1-.33-1.32-.7-1.32-.83s.32-.49,1.32-.83a14.86,14.86,0,0,1,8,0c1,.34,1.33.7,1.33.83s-.33.46-1.33.83Z"/><path class="cls-5" d="M151.39,167.9a13,13,0,0,1,4,.55c1,.33,1.33.7,1.33.83s-.33.5-1.33.83a14.86,14.86,0,0,1-8,0c-1-.33-1.32-.7-1.32-.83s.32-.5,1.32-.83a13,13,0,0,1,4-.55m0-.61c-3.28,0-5.94.89-5.94,2s2.66,2,5.94,2,5.93-.89,5.93-2S154.67,167.29,151.39,167.29Z"/><path class="cls-5" d="M151.39,168.51a10.57,10.57,0,0,1,4.44.77,13.21,13.21,0,0,1-8.89,0,10.66,10.66,0,0,1,4.45-.77"/><path class="cls-3" d="M157.32,168.47c0,1.1-2.65,2-5.93,2s-5.94-.9-5.94-2v-1.22h11.87Z"/><path class="cls-4" d="M157.32,167.25c0,1.11-2.65,2-5.93,2s-5.94-.89-5.94-2,2.66-2,5.94-2S157.32,166.15,157.32,167.25Z"/><path class="cls-3" d="M151.39,165.52c-3.15,0-5.73.83-5.93,1.87.2,1,2.78,1.86,5.93,1.86s5.72-.83,5.92-1.86C157.11,166.35,154.54,165.52,151.39,165.52Zm4,2.83a14.86,14.86,0,0,1-8,0c-1-.34-1.32-.71-1.32-.83s.32-.5,1.32-.84a14.86,14.86,0,0,1,8,0c1,.34,1.33.71,1.33.84S156.39,168,155.39,168.35Z"/><path class="cls-5" d="M151.39,165.87a13.27,13.27,0,0,1,4,.55c1,.34,1.33.71,1.33.83s-.33.5-1.33.84a14.86,14.86,0,0,1-8,0c-1-.34-1.32-.71-1.32-.84s.32-.49,1.32-.83a13.3,13.3,0,0,1,4-.55m0-.61c-3.28,0-5.94.89-5.94,2s2.66,2,5.94,2,5.93-.89,5.93-2S154.67,165.26,151.39,165.26Z"/><path class="cls-5" d="M151.39,166.48a10.74,10.74,0,0,1,4.44.77,13.06,13.06,0,0,1-8.89,0,10.83,10.83,0,0,1,4.45-.77"/><path class="cls-3" d="M157.32,166.45c0,1.1-2.65,2-5.93,2s-5.94-.89-5.94-2v-1.22h11.87Z"/><path class="cls-4" d="M157.32,165.23c0,1.1-2.65,2-5.93,2s-5.94-.89-5.94-2,2.66-2,5.94-2S157.32,164.13,157.32,165.23Z"/><path class="cls-3" d="M151.39,163.5c-3.15,0-5.73.82-5.93,1.86.2,1,2.78,1.86,5.93,1.86s5.72-.82,5.92-1.86C157.11,164.32,154.54,163.5,151.39,163.5Zm4,2.82a14.86,14.86,0,0,1-8,0c-1-.33-1.32-.7-1.32-.83s.32-.5,1.32-.83a14.86,14.86,0,0,1,8,0c1,.33,1.33.7,1.33.83S156.39,166,155.39,166.32Z"/><path class="cls-5" d="M151.39,163.85a13,13,0,0,1,4,.55c1,.33,1.33.7,1.33.83s-.33.5-1.33.83a14.86,14.86,0,0,1-8,0c-1-.33-1.32-.7-1.32-.83s.32-.5,1.32-.83a13,13,0,0,1,4-.55m0-.61c-3.28,0-5.94.89-5.94,2s2.66,2,5.94,2,5.93-.89,5.93-2S154.67,163.24,151.39,163.24Z"/><path class="cls-5" d="M151.39,164.45a10.52,10.52,0,0,1,4.44.78,13.21,13.21,0,0,1-8.89,0,10.62,10.62,0,0,1,4.45-.78"/><path class="cls-3" d="M159.37,164.42c0,1.1-2.66,2-5.94,2s-5.93-.89-5.93-2V163.2h11.87Z"/><path class="cls-4" d="M159.37,163.2c0,1.1-2.66,2-5.94,2s-5.93-.9-5.93-2,2.65-2,5.93-2S159.37,162.1,159.37,163.2Z"/><path class="cls-3" d="M153.43,161.47c-3.15,0-5.72.83-5.92,1.86.2,1,2.77,1.87,5.92,1.87s5.73-.83,5.93-1.87C159.16,162.3,156.58,161.47,153.43,161.47Zm4,2.83a14.86,14.86,0,0,1-8,0c-1-.34-1.33-.71-1.33-.83s.33-.5,1.33-.84a14.86,14.86,0,0,1,8,0c1,.34,1.32.71,1.32.84s-.31.53-1.31.83Z"/><path class="cls-5" d="M153.43,161.82a13.34,13.34,0,0,1,4,.55c1,.34,1.32.71,1.32.83s-.32.5-1.32.84a14.86,14.86,0,0,1-8,0c-1-.34-1.33-.71-1.33-.84s.33-.49,1.33-.83a13.27,13.27,0,0,1,4-.55m0-.61c-3.28,0-5.93.89-5.93,2s2.65,2,5.93,2,5.94-.9,5.94-2S156.71,161.21,153.43,161.21Z"/><path class="cls-5" d="M153.43,162.43a10.83,10.83,0,0,1,4.45.77,13.06,13.06,0,0,1-8.89,0,10.77,10.77,0,0,1,4.44-.77"/><path class="cls-3" d="M114.1,181.79c0,1.1-2.66,2-5.94,2s-5.94-.9-5.94-2v-1.22H114.1Z"/><path class="cls-4" d="M114.1,180.57c0,1.11-2.66,2-5.94,2s-5.94-.89-5.94-2,2.66-2,5.94-2S114.1,179.47,114.1,180.57Z"/><path class="cls-3" d="M108.16,178.84c-3.15,0-5.72.83-5.92,1.87.2,1,2.77,1.86,5.92,1.86s5.72-.82,5.92-1.86C113.88,179.67,111.31,178.84,108.16,178.84Zm4,2.83a14.86,14.86,0,0,1-8,0c-1-.34-1.33-.71-1.33-.83s.33-.5,1.33-.84a14.86,14.86,0,0,1,8,0c1,.34,1.32.71,1.32.84s-.31.49-1.31.83Z"/><path class="cls-5" d="M108.16,179.19a13.34,13.34,0,0,1,4,.55c1,.34,1.32.71,1.32.83s-.32.5-1.32.84a14.86,14.86,0,0,1-8,0c-1-.34-1.33-.71-1.33-.84s.33-.49,1.33-.83a13.27,13.27,0,0,1,4-.55m0-.61c-3.28,0-5.94.89-5.94,2s2.66,2,5.94,2,5.94-.89,5.94-2S111.44,178.58,108.16,178.58Z"/><path class="cls-5" d="M108.16,179.8a10.74,10.74,0,0,1,4.44.77,13,13,0,0,1-8.88,0,10.74,10.74,0,0,1,4.44-.77"/><path class="cls-3" d="M114.1,179.77c0,1.1-2.66,2-5.94,2s-5.94-.89-5.94-2v-1.22H114.1Z"/><path class="cls-4" d="M114.1,178.55c0,1.1-2.66,2-5.94,2s-5.94-.89-5.94-2,2.66-2,5.94-2S114.1,177.45,114.1,178.55Z"/><path class="cls-3" d="M108.16,176.82c-3.15,0-5.72.82-5.92,1.86.2,1,2.77,1.86,5.92,1.86s5.72-.82,5.92-1.86C113.88,177.64,111.31,176.82,108.16,176.82Zm4,2.82a14.86,14.86,0,0,1-8,0c-1-.33-1.33-.7-1.33-.83s.33-.5,1.33-.83a14.86,14.86,0,0,1,8,0c1,.33,1.32.7,1.32.83s-.31.5-1.31.83Z"/><path class="cls-5" d="M108.16,177.17a13,13,0,0,1,4,.55c1,.33,1.32.7,1.32.83s-.32.5-1.32.83a14.86,14.86,0,0,1-8,0c-1-.33-1.33-.7-1.33-.83s.33-.5,1.33-.83a13,13,0,0,1,4-.55m0-.61c-3.28,0-5.94.89-5.94,2s2.66,2,5.94,2,5.94-.89,5.94-2S111.44,176.56,108.16,176.56Z"/><path class="cls-5" d="M108.16,177.78a10.57,10.57,0,0,1,4.44.77,13.19,13.19,0,0,1-8.88,0,10.57,10.57,0,0,1,4.44-.77"/><path class="cls-3" d="M114.1,177.74c0,1.1-2.66,2-5.94,2s-5.94-.9-5.94-2v-1.22H114.1Z"/><path class="cls-4" d="M114.1,176.52c0,1.1-2.66,2-5.94,2s-5.94-.9-5.94-2,2.66-2,5.94-2S114.1,175.42,114.1,176.52Z"/><path class="cls-3" d="M108.16,174.79c-3.15,0-5.72.83-5.92,1.86.2,1,2.77,1.87,5.92,1.87s5.72-.83,5.92-1.87C113.88,175.62,111.31,174.79,108.16,174.79Zm4,2.83a14.86,14.86,0,0,1-8,0c-1-.34-1.33-.71-1.33-.83s.33-.5,1.33-.84a14.86,14.86,0,0,1,8,0c1,.34,1.32.71,1.32.84s-.31.49-1.31.83Z"/><path class="cls-5" d="M108.16,175.14a13.34,13.34,0,0,1,4,.55c1,.34,1.32.71,1.32.83s-.32.5-1.32.84a14.86,14.86,0,0,1-8,0c-1-.34-1.33-.71-1.33-.84s.33-.49,1.33-.83a13.27,13.27,0,0,1,4-.55m0-.61c-3.28,0-5.94.89-5.94,2s2.66,2,5.94,2,5.94-.9,5.94-2S111.44,174.53,108.16,174.53Z"/><path class="cls-5" d="M108.16,175.75a10.74,10.74,0,0,1,4.44.77,13,13,0,0,1-8.88,0,10.74,10.74,0,0,1,4.44-.77"/><path class="cls-3" d="M111.7,175.72c0,1.1-2.66,2-5.94,2s-5.94-.89-5.94-2V174.5H111.7Z"/><path class="cls-4" d="M111.7,174.5c0,1.1-2.66,2-5.94,2s-5.94-.89-5.94-2,2.66-2,5.94-2S111.7,173.4,111.7,174.5Z"/><path class="cls-3" d="M105.76,172.77c-3.15,0-5.72.82-5.92,1.86.2,1,2.77,1.86,5.92,1.86s5.72-.82,5.92-1.86C111.48,173.59,108.91,172.77,105.76,172.77Zm4,2.82a14.86,14.86,0,0,1-8,0c-1-.33-1.32-.7-1.32-.83s.32-.5,1.32-.83a14.86,14.86,0,0,1,8,0c1,.33,1.33.7,1.33.83s-.33.5-1.33.83Z"/><path class="cls-5" d="M105.76,173.12a13,13,0,0,1,4,.55c1,.33,1.33.7,1.33.83s-.33.49-1.33.83a14.86,14.86,0,0,1-8,0c-1-.34-1.32-.7-1.32-.83s.32-.5,1.32-.83a13,13,0,0,1,4-.55m0-.61c-3.28,0-5.94.89-5.94,2s2.66,2,5.94,2,5.94-.89,5.94-2S109,172.51,105.76,172.51Z"/><path class="cls-5" d="M105.76,173.72a10.52,10.52,0,0,1,4.44.78,13.19,13.19,0,0,1-8.88,0,10.52,10.52,0,0,1,4.44-.78"/><path class="cls-3" d="M109.3,173.69c0,1.1-2.66,2-5.94,2s-5.94-.89-5.94-2v-1.22H109.3Z"/><path class="cls-4" d="M109.3,172.47c0,1.1-2.66,2-5.94,2s-5.94-.9-5.94-2,2.66-2,5.94-2S109.3,171.37,109.3,172.47Z"/><path class="cls-3" d="M103.36,170.74c-3.15,0-5.73.82-5.93,1.86.2,1,2.78,1.87,5.93,1.87s5.72-.83,5.92-1.87C109.08,171.56,106.51,170.74,103.36,170.74Zm4,2.83a14.86,14.86,0,0,1-8,0c-1-.34-1.32-.71-1.32-.84s.32-.49,1.32-.83a14.86,14.86,0,0,1,8,0c1,.34,1.33.71,1.33.83S108.36,173.23,107.36,173.57Z"/><path class="cls-5" d="M103.36,171.09a13.27,13.27,0,0,1,4,.55c1,.34,1.33.71,1.33.83s-.33.5-1.33.84a14.86,14.86,0,0,1-8,0c-1-.34-1.32-.71-1.32-.84s.32-.49,1.32-.83a13.34,13.34,0,0,1,4-.55m0-.61c-3.28,0-5.94.89-5.94,2s2.66,2,5.94,2,5.94-.9,5.94-2S106.64,170.48,103.36,170.48Z"/><path class="cls-5" d="M103.36,171.7a10.74,10.74,0,0,1,4.44.77,13,13,0,0,1-8.88,0,10.74,10.74,0,0,1,4.44-.77"/><path class="cls-3" d="M176.89,186.69c0,1.1-2.66,2-5.94,2s-5.94-.89-5.94-2v-1.22h11.88Z"/><path class="cls-4" d="M176.89,185.47c0,1.1-2.66,2-5.94,2s-5.94-.9-5.94-2,2.66-2,5.94-2S176.89,184.37,176.89,185.47Z"/><path class="cls-3" d="M171,183.74c-3.15,0-5.73.82-5.93,1.86.2,1,2.78,1.87,5.93,1.87s5.72-.83,5.92-1.87C176.67,184.56,174.1,183.74,171,183.74Zm4,2.83a14.86,14.86,0,0,1-8,0c-1-.34-1.32-.71-1.32-.84s.32-.49,1.32-.83a14.86,14.86,0,0,1,8,0c1,.34,1.33.71,1.33.83S176,186.23,175,186.57Z"/><path class="cls-5" d="M171,184.09a13.27,13.27,0,0,1,4,.55c1,.34,1.33.71,1.33.83s-.33.5-1.33.83a14.6,14.6,0,0,1-8,0c-1-.33-1.32-.7-1.32-.83s.32-.49,1.32-.83a13.34,13.34,0,0,1,4-.55m0-.61c-3.28,0-5.94.89-5.94,2s2.66,2,5.94,2,5.94-.9,5.94-2S174.28,183.48,171,183.48Z"/><path class="cls-5" d="M171,184.7a10.74,10.74,0,0,1,4.44.77,13,13,0,0,1-8.88,0,10.74,10.74,0,0,1,4.44-.77"/><path class="cls-3" d="M176.89,184.67c0,1.1-2.66,2-5.94,2s-5.94-.89-5.94-2v-1.22h11.88Z"/><path class="cls-4" d="M176.89,183.45c0,1.1-2.66,2-5.94,2s-5.94-.89-5.94-2,2.66-2,5.94-2S176.89,182.35,176.89,183.45Z"/><path class="cls-3" d="M171,181.72c-3.15,0-5.73.82-5.93,1.86.2,1,2.78,1.86,5.93,1.86s5.72-.82,5.92-1.86C176.67,182.54,174.1,181.72,171,181.72Zm4,2.82a14.86,14.86,0,0,1-8,0c-1-.34-1.32-.71-1.32-.83s.32-.5,1.32-.83a14.6,14.6,0,0,1,8,0c1,.33,1.33.7,1.33.83s-.33.49-1.33.83Z"/><path class="cls-5" d="M171,182.06a12.94,12.94,0,0,1,4,.56c1,.33,1.33.7,1.33.83s-.33.49-1.33.83a14.86,14.86,0,0,1-8,0c-1-.34-1.32-.71-1.32-.83s.32-.5,1.32-.83a13,13,0,0,1,4-.56m0-.61c-3.28,0-5.94.9-5.94,2s2.66,2,5.94,2,5.94-.89,5.94-2S174.28,181.45,171,181.45Z"/><path class="cls-5" d="M171,182.67a10.52,10.52,0,0,1,4.44.78,13.19,13.19,0,0,1-8.88,0,10.52,10.52,0,0,1,4.44-.78"/><path class="cls-3" d="M176.89,182.64c0,1.1-2.66,2-5.94,2s-5.94-.89-5.94-2v-1.22h11.88Z"/><path class="cls-4" d="M176.89,181.42c0,1.1-2.66,2-5.94,2s-5.94-.89-5.94-2,2.66-2,5.94-2S176.89,180.32,176.89,181.42Z"/><path class="cls-3" d="M171,179.69c-3.15,0-5.73.82-5.93,1.86.2,1,2.78,1.86,5.93,1.86s5.72-.82,5.92-1.86C176.67,180.51,174.1,179.69,171,179.69Zm4,2.82a14.6,14.6,0,0,1-8,0c-1-.33-1.32-.7-1.32-.83s.32-.49,1.32-.83a14.86,14.86,0,0,1,8,0c1,.34,1.33.71,1.33.83s-.33.5-1.33.83Z"/><path class="cls-5" d="M171,180a13,13,0,0,1,4,.55c1,.34,1.33.71,1.33.83s-.33.5-1.33.83a14.6,14.6,0,0,1-8,0c-1-.33-1.32-.7-1.32-.83s.32-.49,1.32-.83a13,13,0,0,1,4-.55m0-.61c-3.28,0-5.94.89-5.94,2s2.66,2,5.94,2,5.94-.89,5.94-2S174.28,179.39,171,179.39Z"/><path class="cls-5" d="M171,180.65a10.57,10.57,0,0,1,4.44.77,13,13,0,0,1-8.88,0,10.57,10.57,0,0,1,4.44-.77"/><path class="cls-3" d="M176.89,180.61c0,1.11-2.66,2-5.94,2s-5.94-.89-5.94-2V179.4h11.88Z"/><path class="cls-4" d="M176.89,179.4c0,1.1-2.66,2-5.94,2s-5.94-.89-5.94-2,2.66-2,5.94-2S176.89,178.3,176.89,179.4Z"/><path class="cls-3" d="M171,177.66c-3.15,0-5.73.83-5.93,1.87.2,1,2.78,1.86,5.93,1.86s5.72-.82,5.92-1.86C176.67,178.49,174.1,177.66,171,177.66Zm4,2.83a14.86,14.86,0,0,1-8,0c-1-.34-1.32-.71-1.32-.83s.32-.5,1.32-.83a14.6,14.6,0,0,1,8,0c1,.33,1.33.7,1.33.83S176,180.15,175,180.49Z"/><path class="cls-5" d="M171,178a12.94,12.94,0,0,1,4,.56c1,.33,1.33.7,1.33.83s-.33.49-1.33.83a14.86,14.86,0,0,1-8,0c-1-.34-1.32-.71-1.32-.83s.32-.5,1.32-.83a13,13,0,0,1,4-.56m0-.61c-3.28,0-5.94.9-5.94,2s2.66,2,5.94,2,5.94-.89,5.94-2S174.28,177.39,171,177.39Z"/><path class="cls-5" d="M171,178.62a10.52,10.52,0,0,1,4.44.78,13.19,13.19,0,0,1-8.88,0,10.52,10.52,0,0,1,4.44-.78"/><path class="cls-3" d="M176.89,178.59c0,1.1-2.66,2-5.94,2s-5.94-.89-5.94-2v-1.22h11.88Z"/><path class="cls-4" d="M176.89,177.37c0,1.1-2.66,2-5.94,2s-5.94-.89-5.94-2,2.66-2,5.94-2S176.89,176.27,176.89,177.37Z"/><path class="cls-3" d="M171,175.64c-3.15,0-5.73.82-5.93,1.86.2,1,2.78,1.86,5.93,1.86s5.72-.82,5.92-1.86C176.67,176.46,174.1,175.64,171,175.64Zm4,2.82a14.6,14.6,0,0,1-8,0c-1-.33-1.32-.7-1.32-.83s.32-.49,1.32-.83a14.86,14.86,0,0,1,8,0c1,.34,1.33.71,1.33.83S176,178.13,175,178.46Z"/><path class="cls-5" d="M171,176a13,13,0,0,1,4,.55c1,.34,1.33.7,1.33.83s-.33.5-1.33.83a14.86,14.86,0,0,1-8,0c-1-.33-1.32-.7-1.32-.83s.32-.49,1.32-.83a13,13,0,0,1,4-.55m0-.61c-3.28,0-5.94.89-5.94,2s2.66,2,5.94,2,5.94-.89,5.94-2S174.28,175.39,171,175.39Z"/><path class="cls-5" d="M171,176.6a10.57,10.57,0,0,1,4.44.77,13,13,0,0,1-8.88,0,10.57,10.57,0,0,1,4.44-.77"/><path class="cls-3" d="M176.89,176.56c0,1.1-2.66,2-5.94,2s-5.94-.9-5.94-2v-1.21h11.88Z"/><path class="cls-4" d="M176.89,175.35c0,1.1-2.66,2-5.94,2s-5.94-.89-5.94-2,2.66-2,5.94-2S176.89,174.25,176.89,175.35Z"/><path class="cls-3" d="M171,173.61c-3.15,0-5.73.83-5.93,1.87.2,1,2.78,1.86,5.93,1.86s5.72-.82,5.92-1.86C176.67,174.44,174.1,173.61,171,173.61Zm4,2.83a14.86,14.86,0,0,1-8,0c-1-.34-1.32-.71-1.32-.83s.32-.5,1.32-.83a14.6,14.6,0,0,1,8,0c1,.33,1.33.7,1.33.83S176,176.1,175,176.44Z"/><path class="cls-5" d="M171,174a13.27,13.27,0,0,1,4,.55c1,.34,1.33.71,1.33.84s-.33.49-1.33.83a14.86,14.86,0,0,1-8,0c-1-.34-1.32-.71-1.32-.83s.32-.5,1.32-.84a13.34,13.34,0,0,1,4-.55m0-.61c-3.28,0-5.94.9-5.94,2s2.66,2,5.94,2,5.94-.89,5.94-2S174.28,173.39,171,173.39Z"/><path class="cls-5" d="M171,174.57a10.52,10.52,0,0,1,4.44.78,13.19,13.19,0,0,1-8.88,0,10.52,10.52,0,0,1,4.44-.78"/><path class="cls-3" d="M176.89,174.54c0,1.1-2.66,2-5.94,2s-5.94-.89-5.94-2v-1.22h11.88Z"/><path class="cls-4" d="M176.89,173.32c0,1.1-2.66,2-5.94,2s-5.94-.89-5.94-2,2.66-2,5.94-2S176.89,172.22,176.89,173.32Z"/><path class="cls-3" d="M171,171.59c-3.15,0-5.73.82-5.93,1.86.2,1,2.78,1.86,5.93,1.86s5.72-.82,5.92-1.86C176.67,172.41,174.1,171.59,171,171.59Zm4,2.82a14.6,14.6,0,0,1-8,0c-1-.33-1.32-.7-1.32-.83s.32-.49,1.32-.83a14.86,14.86,0,0,1,8,0c1,.34,1.33.71,1.33.83S176,174.08,175,174.41Z"/><path class="cls-5" d="M171,171.94a13,13,0,0,1,4,.55c1,.34,1.33.7,1.33.83s-.33.5-1.33.83a14.86,14.86,0,0,1-8,0c-1-.33-1.32-.7-1.32-.83s.32-.49,1.32-.83a13,13,0,0,1,4-.55m0-.61c-3.28,0-5.94.89-5.94,2s2.66,2,5.94,2,5.94-.89,5.94-2S174.28,171.33,171,171.33Z"/><path class="cls-5" d="M171,172.55a10.57,10.57,0,0,1,4.44.77,13,13,0,0,1-8.88,0,10.57,10.57,0,0,1,4.44-.77"/><path class="cls-3" d="M178.93,172.51c0,1.1-2.66,2-5.94,2s-5.93-.9-5.93-2V171.3h11.87Z"/><path class="cls-4" d="M178.93,171.3c0,1.1-2.66,2-5.94,2s-5.93-.89-5.93-2,2.65-2,5.93-2S178.93,170.2,178.93,171.3Z"/><path class="cls-3" d="M173,169.56c-3.15,0-5.72.83-5.92,1.87.2,1,2.77,1.86,5.92,1.86s5.73-.82,5.93-1.86C178.72,170.39,176.14,169.56,173,169.56Zm4,2.83a14.86,14.86,0,0,1-8,0c-1-.34-1.33-.71-1.33-.83s.33-.5,1.33-.84a14.86,14.86,0,0,1,8,0c1,.34,1.32.71,1.32.84S178,172.05,177,172.39Z"/><path class="cls-5" d="M173,169.91a13.3,13.3,0,0,1,4,.55c1,.34,1.32.71,1.32.84s-.32.49-1.32.83a14.86,14.86,0,0,1-8,0c-1-.34-1.33-.71-1.33-.83s.33-.5,1.33-.84a13.27,13.27,0,0,1,4-.55m0-.61c-3.28,0-5.93.9-5.93,2s2.65,2,5.93,2,5.94-.89,5.94-2S176.28,169.3,173,169.3Z"/><path class="cls-5" d="M173,170.52a10.62,10.62,0,0,1,4.45.78,13.21,13.21,0,0,1-8.89,0,10.56,10.56,0,0,1,4.44-.78"/><path class="cls-3" d="M180.43,169.91c0,1.1-2.66,2-5.94,2s-5.94-.89-5.94-2v-1.22h11.88Z"/><path class="cls-4" d="M180.43,168.69c0,1.1-2.66,2-5.94,2s-5.94-.9-5.94-2,2.66-2,5.94-2S180.43,167.59,180.43,168.69Z"/><path class="cls-3" d="M174.49,167c-3.15,0-5.72.82-5.92,1.86.2,1,2.77,1.87,5.92,1.87s5.72-.83,5.92-1.87C180.21,167.78,177.64,167,174.49,167Zm4,2.83a14.82,14.82,0,0,1-8,0c-1-.34-1.33-.71-1.33-.84s.32-.49,1.33-.83a14.82,14.82,0,0,1,8,0c1,.34,1.33.71,1.33.83s-.33.46-1.33.8Z"/><path class="cls-5" d="M174.49,167.31a13.27,13.27,0,0,1,4,.55c1,.34,1.33.71,1.33.83s-.33.5-1.33.84a14.82,14.82,0,0,1-8,0c-1-.34-1.33-.71-1.33-.84s.32-.49,1.33-.83a13.27,13.27,0,0,1,4-.55m0-.61c-3.28,0-5.94.89-5.94,2s2.66,2,5.94,2,5.94-.9,5.94-2S177.77,166.7,174.49,166.7Z"/><path class="cls-5" d="M174.49,167.92a10.74,10.74,0,0,1,4.44.77,13,13,0,0,1-8.88,0,10.74,10.74,0,0,1,4.44-.77"/><path class="cls-3" d="M88.18,193c0,1.1,2.66,2,5.94,2s5.94-.89,5.94-2v-1.22H88.18Z"/><path class="cls-4" d="M88.18,191.74c0,1.1,2.66,2,5.94,2s5.94-.89,5.94-2-2.66-2-5.94-2S88.18,190.64,88.18,191.74Z"/><path class="cls-3" d="M88.2,191.87c.2,1,2.77,1.86,5.92,1.86s5.72-.82,5.92-1.86c-.2-1-2.77-1.86-5.92-1.86S88.4,190.83,88.2,191.87Zm.59.13c0-.13.33-.5,1.33-.83a14.82,14.82,0,0,1,8,0c1,.33,1.33.7,1.33.83s-.33.5-1.33.83a14.82,14.82,0,0,1-8,0C89.12,192.5,88.79,192.13,88.79,192Z"/><path class="cls-5" d="M94.12,190.36a13,13,0,0,1,4,.55c1,.33,1.33.7,1.33.83s-.33.49-1.33.83a14.82,14.82,0,0,1-8,0c-1-.34-1.33-.7-1.33-.83s.33-.5,1.33-.83a13,13,0,0,1,4-.55m0-.61c-3.28,0-5.94.89-5.94,2s2.66,2,5.94,2,5.94-.89,5.94-2S97.4,189.75,94.12,189.75Z"/><path class="cls-5" d="M94.12,191a10.52,10.52,0,0,1,4.44.78,13.19,13.19,0,0,1-8.88,0,10.52,10.52,0,0,1,4.44-.78"/><path class="cls-3" d="M88.18,190.93c0,1.1,2.66,2,5.94,2s5.94-.89,5.94-2v-1.22H88.18Z"/><path class="cls-4" d="M88.18,189.71c0,1.1,2.66,2,5.94,2s5.94-.9,5.94-2-2.66-2-5.94-2S88.18,188.61,88.18,189.71Z"/><path class="cls-3" d="M88.2,189.84c.2,1,2.77,1.87,5.92,1.87s5.72-.83,5.92-1.87c-.2-1-2.77-1.86-5.92-1.86S88.4,188.8,88.2,189.84Zm.59.13c0-.12.33-.49,1.33-.83a14.82,14.82,0,0,1,8,0c1,.34,1.33.71,1.33.83s-.33.5-1.33.84a14.82,14.82,0,0,1-8,0c-1-.34-1.33-.71-1.33-.81Z"/><path class="cls-5" d="M94.12,188.33a13.27,13.27,0,0,1,4,.55c1,.34,1.33.71,1.33.83s-.33.5-1.33.84a14.82,14.82,0,0,1-8,0c-1-.34-1.33-.71-1.33-.84s.33-.49,1.33-.83a13.27,13.27,0,0,1,4-.55m0-.61c-3.28,0-5.94.89-5.94,2s2.66,2,5.94,2,5.94-.9,5.94-2S97.4,187.72,94.12,187.72Z"/><path class="cls-5" d="M94.12,188.94a10.74,10.74,0,0,1,4.44.77,13,13,0,0,1-8.88,0,10.74,10.74,0,0,1,4.44-.77"/><path class="cls-3" d="M88.18,188.91c0,1.1,2.66,2,5.94,2s5.94-.89,5.94-2v-1.22H88.18Z"/><path class="cls-4" d="M88.18,187.69c0,1.1,2.66,2,5.94,2s5.94-.89,5.94-2-2.66-2-5.94-2S88.18,186.59,88.18,187.69Z"/><path class="cls-3" d="M88.2,187.82c.2,1,2.77,1.86,5.92,1.86s5.72-.82,5.92-1.86c-.2-1-2.77-1.86-5.92-1.86S88.4,186.78,88.2,187.82Zm.59.13c0-.13.33-.5,1.33-.83a14.82,14.82,0,0,1,8,0c1,.33,1.33.7,1.33.83s-.33.5-1.33.83a14.82,14.82,0,0,1-8,0c-1-.33-1.33-.7-1.33-.78Z"/><path class="cls-5" d="M94.12,186.3a12.94,12.94,0,0,1,4,.56c1,.33,1.33.7,1.33.83s-.33.49-1.33.83a14.82,14.82,0,0,1-8,0c-1-.34-1.33-.71-1.33-.83s.33-.5,1.33-.83a12.94,12.94,0,0,1,4-.56m0-.6c-3.28,0-5.94.89-5.94,2s2.66,2,5.94,2,5.94-.89,5.94-2S97.4,185.7,94.12,185.7Z"/><path class="cls-5" d="M94.12,186.91a10.52,10.52,0,0,1,4.44.78,13.19,13.19,0,0,1-8.88,0,10.52,10.52,0,0,1,4.44-.78"/><path class="cls-3" d="M88.18,186.88c0,1.1,2.66,2,5.94,2s5.94-.89,5.94-2v-1.22H88.18Z"/><path class="cls-4" d="M88.18,185.66c0,1.1,2.66,2,5.94,2s5.94-.9,5.94-2-2.66-2-5.94-2S88.18,184.56,88.18,185.66Z"/><path class="cls-3" d="M88.2,185.79c.2,1,2.77,1.87,5.92,1.87s5.72-.83,5.92-1.87c-.2-1-2.77-1.86-5.92-1.86S88.4,184.75,88.2,185.79Zm.59.13c0-.12.33-.49,1.33-.83a14.82,14.82,0,0,1,8,0c1,.34,1.33.71,1.33.83s-.33.5-1.33.84a14.82,14.82,0,0,1-8,0C89.12,186.42,88.79,186.05,88.79,185.92Z"/><path class="cls-5" d="M94.12,184.28a13.27,13.27,0,0,1,4,.55c1,.34,1.33.71,1.33.83s-.33.5-1.33.83a14.57,14.57,0,0,1-8,0c-1-.33-1.33-.7-1.33-.83s.33-.49,1.33-.83a13.27,13.27,0,0,1,4-.55m0-.61c-3.28,0-5.94.89-5.94,2s2.66,2,5.94,2,5.94-.9,5.94-2S97.4,183.67,94.12,183.67Z"/><path class="cls-5" d="M94.12,184.89a10.74,10.74,0,0,1,4.44.77,13,13,0,0,1-8.88,0,10.74,10.74,0,0,1,4.44-.77"/><path class="cls-3" d="M88.18,184.86c0,1.1,2.66,2,5.94,2s5.94-.89,5.94-2v-1.22H88.18Z"/><path class="cls-4" d="M88.18,183.64c0,1.1,2.66,2,5.94,2s5.94-.89,5.94-2-2.66-2-5.94-2S88.18,182.54,88.18,183.64Z"/><path class="cls-3" d="M88.2,183.77c.2,1,2.77,1.86,5.92,1.86s5.72-.82,5.92-1.86c-.2-1-2.77-1.86-5.92-1.86S88.4,182.73,88.2,183.77Zm.59.13c0-.13.33-.5,1.33-.83a14.57,14.57,0,0,1,8,0c1,.33,1.33.7,1.33.83s-.33.49-1.33.83a14.82,14.82,0,0,1-8,0c-1-.34-1.33-.73-1.33-.83Z"/><path class="cls-5" d="M94.12,182.25a12.94,12.94,0,0,1,4,.56c1,.33,1.33.7,1.33.83s-.33.49-1.33.83a14.82,14.82,0,0,1-8,0c-1-.34-1.33-.71-1.33-.83s.33-.5,1.33-.83a12.94,12.94,0,0,1,4-.56m0-.6c-3.28,0-5.94.89-5.94,2s2.66,2,5.94,2,5.94-.89,5.94-2S97.4,181.65,94.12,181.65Z"/><path class="cls-5" d="M94.12,182.86a10.52,10.52,0,0,1,4.44.78,13.19,13.19,0,0,1-8.88,0,10.52,10.52,0,0,1,4.44-.78"/><path class="cls-3" d="M88.18,182.83c0,1.1,2.66,2,5.94,2s5.94-.89,5.94-2v-1.22H88.18Z"/><path class="cls-4" d="M88.18,181.61c0,1.1,2.66,2,5.94,2s5.94-.89,5.94-2-2.66-2-5.94-2S88.18,180.51,88.18,181.61Z"/><path class="cls-3" d="M88.2,181.74c.2,1,2.77,1.86,5.92,1.86s5.72-.82,5.92-1.86c-.2-1-2.77-1.86-5.92-1.86S88.4,180.7,88.2,181.74Zm.59.13c0-.12.33-.49,1.33-.83a14.82,14.82,0,0,1,8,0c1,.34,1.33.71,1.33.83s-.33.5-1.33.84a14.82,14.82,0,0,1-8,0c-1-.34-1.33-.71-1.33-.84Z"/><path class="cls-5" d="M94.12,180.23a13.27,13.27,0,0,1,4,.55c1,.34,1.33.71,1.33.83s-.33.5-1.33.83a14.57,14.57,0,0,1-8,0c-1-.33-1.33-.7-1.33-.83s.33-.49,1.33-.83a13.27,13.27,0,0,1,4-.55m0-.61c-3.28,0-5.94.89-5.94,2s2.66,2,5.94,2,5.94-.89,5.94-2S97.4,179.62,94.12,179.62Z"/><path class="cls-5" d="M94.12,180.84a10.74,10.74,0,0,1,4.44.77,13,13,0,0,1-8.88,0,10.74,10.74,0,0,1,4.44-.77"/><path class="cls-3" d="M88.18,180.81c0,1.1,2.66,2,5.94,2s5.94-.89,5.94-2v-1.22H88.18Z"/><path class="cls-4" d="M88.18,179.59c0,1.1,2.66,2,5.94,2s5.94-.89,5.94-2-2.66-2-5.94-2S88.18,178.49,88.18,179.59Z"/><path class="cls-3" d="M88.2,179.72c.2,1,2.77,1.86,5.92,1.86s5.72-.82,5.92-1.86c-.2-1-2.77-1.86-5.92-1.86S88.4,178.68,88.2,179.72Zm.59.13c0-.13.33-.5,1.33-.83a14.57,14.57,0,0,1,8,0c1,.33,1.33.7,1.33.83s-.33.49-1.33.83a14.82,14.82,0,0,1-8,0C89.12,180.34,88.79,180,88.79,179.85Z"/><path class="cls-5" d="M94.12,178.2a12.94,12.94,0,0,1,4,.56c1,.33,1.33.7,1.33.83s-.33.49-1.33.83a14.82,14.82,0,0,1-8,0c-1-.34-1.33-.71-1.33-.83s.33-.5,1.33-.83a12.94,12.94,0,0,1,4-.56m0-.61c-3.28,0-5.94.9-5.94,2s2.66,2,5.94,2,5.94-.89,5.94-2S97.4,177.59,94.12,177.59Z"/><path class="cls-5" d="M94.12,178.81a10.52,10.52,0,0,1,4.44.78,13.19,13.19,0,0,1-8.88,0,10.52,10.52,0,0,1,4.44-.78"/><path class="cls-3" d="M86.14,178.78c0,1.1,2.65,2,5.93,2s5.94-.89,5.94-2v-1.22H86.14Z"/><path class="cls-4" d="M86.14,177.56c0,1.1,2.65,2,5.93,2s5.94-.89,5.94-2-2.66-2-5.94-2S86.14,176.46,86.14,177.56Z"/><path class="cls-3" d="M86.15,177.69c.2,1,2.77,1.86,5.92,1.86s5.73-.82,5.93-1.86c-.2-1-2.78-1.86-5.93-1.86S86.35,176.65,86.15,177.69Zm.6.13c0-.12.32-.49,1.32-.83a14.86,14.86,0,0,1,8,0c1,.34,1.32.71,1.32.83s-.32.5-1.32.83a14.6,14.6,0,0,1-8,0C87.07,178.32,86.75,178,86.75,177.82Z"/><path class="cls-5" d="M92.07,176.18a13,13,0,0,1,4,.55c1,.34,1.32.71,1.32.83s-.32.5-1.32.83a14.6,14.6,0,0,1-8,0c-1-.33-1.32-.7-1.32-.83s.32-.49,1.32-.83a13,13,0,0,1,4-.55m0-.61c-3.28,0-5.93.89-5.93,2s2.65,2,5.93,2,5.94-.89,5.94-2S95.35,175.57,92.07,175.57Z"/><path class="cls-5" d="M92.07,176.79a10.66,10.66,0,0,1,4.45.77,13.06,13.06,0,0,1-8.89,0,10.61,10.61,0,0,1,4.44-.77"/><path class="cls-3" d="M84.64,176.18c0,1.1,2.66,2,5.94,2s5.94-.89,5.94-2V175H84.64Z"/><path class="cls-4" d="M84.64,175c0,1.1,2.66,2,5.94,2s5.94-.89,5.94-2-2.66-2-5.94-2S84.64,173.86,84.64,175Z"/><path class="cls-3" d="M84.65,175.09c.2,1,2.78,1.86,5.93,1.86s5.72-.82,5.92-1.86c-.2-1-2.77-1.86-5.92-1.86S84.85,174.05,84.65,175.09Zm.6.13c0-.13.32-.5,1.32-.83a14.86,14.86,0,0,1,8,0c1,.33,1.33.7,1.33.83s-.33.5-1.33.83a14.86,14.86,0,0,1-8,0C85.57,175.72,85.25,175.35,85.25,175.22Z"/><path class="cls-5" d="M90.58,173.58a13,13,0,0,1,4,.55c1,.33,1.33.7,1.33.83s-.33.5-1.33.83a14.86,14.86,0,0,1-8,0c-1-.33-1.32-.7-1.32-.83s.32-.5,1.32-.83a13,13,0,0,1,4-.55m0-.61c-3.28,0-5.94.89-5.94,2s2.66,2,5.94,2,5.94-.89,5.94-2S93.86,173,90.58,173Z"/><path class="cls-5" d="M90.58,174.19A10.57,10.57,0,0,1,95,175a10.57,10.57,0,0,1-4.44.77,10.57,10.57,0,0,1-4.44-.77,10.57,10.57,0,0,1,4.44-.77"/><polygon class="cls-6" points="118.73 183.73 114.17 189.94 140.38 189.94 144.94 183.73 118.73 183.73"/><polygon class="cls-7" points="144.94 180.22 140.38 186.43 114.17 186.43 118.73 180.22 144.94 180.22"/><path class="cls-6" d="M141.45,181c0,.29.27.51.78.6l-2.47,3.4a4,4,0,0,0-1.66.6H117.64c0-.28-.26-.5-.77-.6l2.47-3.36A3.79,3.79,0,0,0,121,181h20.46m.67-.27h-21.4a2.49,2.49,0,0,1-1.77.64l-2.81,3.83c.71,0,1.08.28.82.64h21.39a2.44,2.44,0,0,1,1.77-.64h0l2.82-3.83h0c-.72,0-1.09-.29-.83-.64Z"/><path class="cls-6" d="M136.05,183.32c-.77,1.05-4.3,1.9-7.89,1.9s-5.88-.85-5.11-1.9,4.31-1.9,7.9-1.9S136.82,182.27,136.05,183.32Z"/><path class="cls-7" d="M130.15,182.06l.14-.19H131l-.14.19c.53.06.67.28.41.63l-.06.08h-.77l.08-.11c.13-.18,0-.25-.23-.25a.67.67,0,0,0-.59.25c-.39.53,1.19.56.65,1.3a1.84,1.84,0,0,1-1.35.63l-.14.19h-.67l.14-.19c-.55-.06-.68-.28-.42-.63l.13-.18h.77l-.15.2c-.13.19,0,.25.24.25a.69.69,0,0,0,.61-.25c.39-.53-1.19-.55-.65-1.29A1.8,1.8,0,0,1,130.15,182.06Z"/><path class="cls-6" d="M121,182.69l.07-.09h.33l-.07.09c.27,0,.34.14.21.32h-.39V183c.07-.09,0-.12-.11-.12a.35.35,0,0,0-.3.12c-.19.27.6.28.33.65a.94.94,0,0,1-.68.32l-.07.09H120l.07-.09c-.27,0-.34-.15-.21-.32l.06-.09h.39l-.07.1c-.07.09,0,.13.12.13a.35.35,0,0,0,.3-.13c.2-.26-.59-.28-.32-.64A.86.86,0,0,1,121,182.69Z"/><path class="cls-6" d="M138.72,182.69l.07-.09h.34l-.07.09c.26,0,.33.14.2.32h-.38V183c.06-.09,0-.12-.12-.12a.32.32,0,0,0-.29.12c-.2.27.59.28.32.65a.93.93,0,0,1-.67.32l-.07.09h-.34l.07-.09c-.27,0-.34-.15-.21-.32l.07-.09H138l-.07.1c-.07.09,0,.13.12.13a.35.35,0,0,0,.3-.13c.2-.26-.59-.28-.32-.64A.87.87,0,0,1,138.72,182.69Z"/><rect class="cls-8" x="114.17" y="186.43" width="26.21" height="3.51"/><polygon class="cls-9" points="140.38 186.43 140.38 189.94 144.94 183.73 144.94 180.22 140.38 186.43"/><polygon class="cls-10" points="129.59 180.22 125.02 186.43 129.51 186.43 134.08 180.22 129.59 180.22"/><rect class="cls-11" x="125.02" y="186.43" width="4.49" height="3.51"/><polygon class="cls-6" points="115.6 179.73 111.03 185.94 137.25 185.94 141.81 179.73 115.6 179.73"/><polygon class="cls-7" points="141.81 176.22 137.25 182.43 111.03 182.43 115.6 176.22 141.81 176.22"/><path class="cls-6" d="M138.32,177c0,.29.27.51.78.6l-2.47,3.4a4,4,0,0,0-1.66.6H114.51c0-.28-.26-.5-.77-.59l2.47-3.37a3.79,3.79,0,0,0,1.65-.6h20.46m.67-.27H117.6a2.49,2.49,0,0,1-1.77.64L113,181.24c.72,0,1.09.28.83.64h21.39a2.44,2.44,0,0,1,1.77-.64h0l2.82-3.83h0C139.1,177.41,138.73,177.12,139,176.77Z"/><path class="cls-6" d="M132.92,179.32c-.77,1.05-4.3,1.9-7.89,1.9s-5.88-.85-5.11-1.9,4.31-1.9,7.9-1.9S133.69,178.27,132.92,179.32Z"/><path class="cls-7" d="M127,178.06l.14-.19h.67l-.14.19c.53.06.67.28.41.63l-.06.08h-.77l.08-.11c.13-.18,0-.25-.23-.25a.67.67,0,0,0-.59.25c-.39.53,1.19.56.65,1.3a1.84,1.84,0,0,1-1.35.63l-.14.19H125l.14-.19c-.55-.06-.68-.28-.42-.63l.13-.18h.77l-.15.2c-.13.19,0,.25.24.25a.69.69,0,0,0,.61-.25c.39-.53-1.19-.55-.65-1.29A1.78,1.78,0,0,1,127,178.06Z"/><path class="cls-6" d="M117.85,178.69l.07-.09h.33l-.07.09c.27,0,.34.14.21.32H118V179c.07-.09,0-.12-.11-.12a.35.35,0,0,0-.3.12c-.19.27.6.28.33.65a1,1,0,0,1-.68.32l-.07.09h-.33l.07-.09c-.27,0-.34-.15-.21-.32l.06-.09h.39l-.07.1c-.07.09,0,.13.12.13a.35.35,0,0,0,.3-.13c.19-.26-.6-.28-.32-.64A.86.86,0,0,1,117.85,178.69Z"/><path class="cls-6" d="M135.59,178.69l.07-.09H136l-.07.09c.26,0,.33.14.2.32h-.38V179c.06-.09,0-.12-.12-.12a.32.32,0,0,0-.29.12c-.2.27.59.28.32.65a.93.93,0,0,1-.67.32l-.07.09h-.34l.07-.09c-.27,0-.34-.15-.21-.32l.07-.09h.38l-.07.1c-.07.09,0,.13.12.13a.35.35,0,0,0,.3-.13c.2-.26-.59-.28-.32-.64A.86.86,0,0,1,135.59,178.69Z"/><rect class="cls-8" x="111.03" y="182.43" width="26.21" height="3.51"/><polygon class="cls-9" points="137.25 182.43 137.25 185.94 141.81 179.73 141.81 176.22 137.25 182.43"/><polygon class="cls-10" points="126.45 176.22 121.89 182.43 126.38 182.43 130.95 176.22 126.45 176.22"/><rect class="cls-11" x="121.89" y="182.43" width="4.49" height="3.51"/><polygon class="cls-6" points="115.6 175.74 111.03 181.94 137.25 181.94 141.81 175.74 115.6 175.74"/><polygon class="cls-7" points="141.81 172.22 137.25 178.43 111.03 178.43 115.6 172.22 141.81 172.22"/><path class="cls-6" d="M138.32,173c0,.29.27.51.78.6l-2.47,3.4a4,4,0,0,0-1.66.6H114.51c0-.28-.26-.5-.77-.59l2.47-3.37a3.79,3.79,0,0,0,1.65-.6h20.46m.67-.27H117.6a2.49,2.49,0,0,1-1.77.64L113,177.24c.72,0,1.09.28.83.64h21.39a2.44,2.44,0,0,1,1.77-.64h0l2.82-3.83h0C139.1,173.41,138.73,173.12,139,172.77Z"/><path class="cls-6" d="M132.92,175.32c-.77,1.05-4.3,1.9-7.89,1.9s-5.88-.85-5.11-1.9,4.31-1.9,7.9-1.9S133.69,174.27,132.92,175.32Z"/><path class="cls-7" d="M127,174.06l.14-.19h.67l-.14.19c.53.06.67.28.41.63l-.06.08h-.77l.08-.11c.13-.18,0-.25-.23-.25a.67.67,0,0,0-.59.25c-.39.53,1.19.56.65,1.3a1.84,1.84,0,0,1-1.35.63l-.14.19H125l.14-.19c-.55-.06-.68-.28-.42-.63l.13-.18h.77l-.15.2c-.13.19,0,.25.24.25a.69.69,0,0,0,.61-.25c.39-.53-1.19-.55-.65-1.29A1.78,1.78,0,0,1,127,174.06Z"/><path class="cls-6" d="M117.85,174.69l.07-.09h.33l-.07.09c.27,0,.34.14.21.32H118V175c.07-.09,0-.12-.11-.12a.35.35,0,0,0-.3.12c-.19.27.6.28.33.65a1,1,0,0,1-.68.32l-.07.09h-.33l.07-.09c-.27,0-.34-.15-.21-.32l.06-.09h.39l-.07.1c-.07.09,0,.13.12.13a.35.35,0,0,0,.3-.13c.19-.26-.6-.28-.32-.64A.86.86,0,0,1,117.85,174.69Z"/><path class="cls-6" d="M135.59,174.69l.07-.09H136l-.07.09c.26,0,.33.14.2.32h-.38V175c.06-.09,0-.12-.12-.12a.32.32,0,0,0-.29.12c-.2.27.59.28.32.65a.93.93,0,0,1-.67.32l-.07.09h-.34l.07-.09c-.27,0-.34-.15-.21-.32l.07-.09h.38l-.07.1c-.07.09,0,.13.12.13a.35.35,0,0,0,.3-.13c.2-.26-.59-.28-.32-.64A.86.86,0,0,1,135.59,174.69Z"/><rect class="cls-8" x="111.03" y="178.43" width="26.21" height="3.51"/><polygon class="cls-9" points="137.25 178.43 137.25 181.94 141.81 175.74 141.81 172.22 137.25 178.43"/><polygon class="cls-10" points="126.45 172.22 121.89 178.43 126.38 178.43 130.95 172.22 126.45 172.22"/><polygon class="cls-2" points="115.6 172.22 111.89 177.26 137.25 177.26 138.22 177.1 141.81 172.22 115.6 172.22"/><rect class="cls-11" x="121.89" y="178.43" width="4.49" height="3.51"/><polygon class="cls-6" points="121.04 170.15 116.48 176.36 142.69 176.36 147.25 170.15 121.04 170.15"/><polygon class="cls-7" points="147.25 166.64 142.69 172.84 116.48 172.84 121.04 166.64 147.25 166.64"/><path class="cls-6" d="M143.76,167.46c0,.29.27.51.79.6l-2.47,3.36a4,4,0,0,0-1.67.6H120c0-.28-.26-.51-.77-.6l2.48-3.36a3.92,3.92,0,0,0,1.65-.6h20.45m.67-.27H123a2.49,2.49,0,0,1-1.77.64l-2.81,3.83c.71,0,1.08.28.82.64h21.4a2.44,2.44,0,0,1,1.76-.64h0l2.81-3.83h0c-.72,0-1.09-.29-.83-.64Z"/><path class="cls-6" d="M138.37,169.74c-.78,1-4.31,1.9-7.9,1.9s-5.88-.85-5.1-1.9,4.3-1.9,7.89-1.9S139.14,168.69,138.37,169.74Z"/><path class="cls-7" d="M132.46,168.48l.14-.19h.67l-.14.19c.54.06.67.28.41.63l-.06.08h-.77l.08-.11c.13-.18,0-.25-.22-.25a.7.7,0,0,0-.6.25c-.39.53,1.19.56.65,1.29a1.81,1.81,0,0,1-1.35.64l-.14.19h-.67l.14-.19c-.54-.06-.68-.28-.42-.64l.13-.17h.77l-.15.2c-.13.18,0,.25.24.25a.7.7,0,0,0,.61-.25c.39-.53-1.19-.55-.65-1.29A1.8,1.8,0,0,1,132.46,168.48Z"/><path class="cls-6" d="M123.29,169.11l.07-.1h.34l-.07.1c.26,0,.33.14.2.32h-.38v-.06c.06-.09,0-.12-.12-.12a.32.32,0,0,0-.29.12c-.2.27.59.28.32.65a.89.89,0,0,1-.67.31l-.07.1h-.34l.07-.1c-.27,0-.34-.14-.21-.31l.07-.09h.38l-.07.1c-.07.09,0,.13.12.13a.34.34,0,0,0,.3-.13c.2-.26-.59-.28-.32-.64A.87.87,0,0,1,123.29,169.11Z"/><path class="cls-6" d="M141,169.11l.07-.1h.34l-.07.1c.27,0,.33.14.21.32h-.39v-.06c.07-.09,0-.12-.11-.12a.35.35,0,0,0-.3.12c-.2.27.59.28.32.65a.87.87,0,0,1-.67.31l-.07.1H140l.07-.1c-.27,0-.33-.14-.21-.31l.14,0h.39l-.08.1c-.07.09,0,.13.12.13a.37.37,0,0,0,.31-.13c.19-.26-.6-.28-.33-.64A.87.87,0,0,1,141,169.11Z"/><rect class="cls-8" x="116.48" y="172.84" width="26.21" height="3.51"/><polygon class="cls-12" points="142.69 172.84 142.69 176.36 147.25 170.15 147.25 166.64 142.69 172.84"/><polygon class="cls-10" points="131.9 166.64 127.33 172.84 131.83 172.84 136.39 166.64 131.9 166.64"/><rect class="cls-11" x="127.33" y="172.84" width="4.49" height="3.51"/><polygon class="cls-6" points="147.88 188.59 143.31 194.8 169.52 194.8 174.09 188.59 147.88 188.59"/><polygon class="cls-7" points="174.09 185.08 169.52 191.29 143.31 191.29 147.88 185.08 174.09 185.08"/><path class="cls-6" d="M170.6,185.9c0,.29.26.51.78.6l-2.47,3.36a4,4,0,0,0-1.67.6H146.78c0-.28-.26-.5-.77-.59l2.48-3.37a3.79,3.79,0,0,0,1.65-.6H170.6m.67-.27h-21.4a2.48,2.48,0,0,1-1.76.64l-2.82,3.83c.72,0,1.08.28.82.64h21.4a2.44,2.44,0,0,1,1.77-.64h0l2.82-3.83h0c-.71,0-1.08-.29-.82-.64Z"/><path class="cls-6" d="M165.2,188.18c-.77,1-4.31,1.9-7.9,1.9s-5.87-.85-5.1-1.9,4.31-1.9,7.9-1.9S166,187.13,165.2,188.18Z"/><path class="cls-7" d="M159.29,186.92l.14-.19h.67l-.14.19c.54.06.67.28.42.63l-.06.08h-.78l.08-.11c.14-.18,0-.25-.22-.25a.7.7,0,0,0-.6.25c-.39.53,1.19.56.65,1.3a1.81,1.81,0,0,1-1.35.63l-.14.19h-.67l.14-.19c-.54-.06-.67-.28-.42-.63l.13-.18h.78l-.15.2c-.14.19,0,.25.24.25a.69.69,0,0,0,.61-.25c.39-.53-1.19-.55-.65-1.29A1.75,1.75,0,0,1,159.29,186.92Z"/><path class="cls-6" d="M150.12,187.55l.07-.09h.34l-.07.09c.27,0,.34.14.21.32h-.39v-.06c.07-.09,0-.12-.11-.12a.35.35,0,0,0-.3.12c-.19.27.6.28.32.65a.91.91,0,0,1-.67.32l-.07.09h-.33l.06-.09c-.27,0-.33-.15-.21-.32l.07-.09h.39l-.08.1c-.07.09,0,.13.12.13a.37.37,0,0,0,.31-.13c.19-.26-.6-.28-.33-.64A.89.89,0,0,1,150.12,187.55Z"/><path class="cls-6" d="M167.87,187.55l.07-.09h.33l-.07.09c.27,0,.34.14.21.32H168v-.06c.07-.09,0-.12-.11-.12a.35.35,0,0,0-.3.12c-.19.27.6.28.33.65a1,1,0,0,1-.68.32l-.07.09h-.33l.07-.09c-.28,0-.34-.15-.21-.32l.06-.09h.39l-.08.1c-.06.09,0,.13.12.13a.37.37,0,0,0,.31-.13c.19-.26-.6-.28-.33-.64A.9.9,0,0,1,167.87,187.55Z"/><rect class="cls-8" x="143.31" y="191.29" width="26.21" height="3.51"/><polygon class="cls-12" points="169.52 191.29 169.52 194.8 174.09 188.59 174.09 185.08 169.52 191.29"/><polygon class="cls-10" points="158.73 185.08 154.17 191.29 158.66 191.29 163.22 185.08 158.73 185.08"/><rect class="cls-11" x="154.17" y="191.29" width="4.49" height="3.51"/><path class="cls-3" d="M116.73,191.1c0,1.1-2.66,2-5.94,2s-5.94-.89-5.94-2v-1.22h11.88Z"/><path class="cls-4" d="M116.73,189.88c0,1.1-2.66,2-5.94,2s-5.94-.89-5.94-2,2.66-2,5.94-2S116.73,188.78,116.73,189.88Z"/><path class="cls-3" d="M110.79,188.15c-3.15,0-5.73.82-5.93,1.86.2,1,2.78,1.86,5.93,1.86s5.72-.82,5.92-1.86C116.51,189,113.94,188.15,110.79,188.15Zm4,2.82a14.86,14.86,0,0,1-8,0c-1-.33-1.32-.7-1.32-.83s.32-.5,1.32-.83a14.86,14.86,0,0,1,8,0c1,.33,1.33.7,1.33.83s-.33.5-1.33.86Z"/><path class="cls-5" d="M110.79,188.5a13,13,0,0,1,4,.55c1,.33,1.33.7,1.33.83s-.33.5-1.33.83a14.86,14.86,0,0,1-8,0c-1-.33-1.32-.7-1.32-.83s.32-.5,1.32-.83a13,13,0,0,1,4-.55m0-.61c-3.28,0-5.94.89-5.94,2s2.66,2,5.94,2,5.94-.89,5.94-2S114.07,187.89,110.79,187.89Z"/><path class="cls-5" d="M110.79,189.1a10.52,10.52,0,0,1,4.44.78,13.19,13.19,0,0,1-8.88,0,10.52,10.52,0,0,1,4.44-.78"/><path class="cls-3" d="M190.37,192.48c0,1.1-2.66,2-5.94,2s-5.94-.89-5.94-2v-1.22h11.88Z"/><path class="cls-4" d="M190.37,191.26c0,1.1-2.66,2-5.94,2s-5.94-.9-5.94-2,2.66-2,5.94-2S190.37,190.16,190.37,191.26Z"/><path class="cls-3" d="M184.43,189.53c-3.15,0-5.73.82-5.93,1.86.2,1,2.78,1.87,5.93,1.87s5.72-.83,5.92-1.87C190.15,190.35,187.58,189.53,184.43,189.53Zm4,2.83a14.86,14.86,0,0,1-8,0c-1-.34-1.32-.71-1.32-.84s.32-.49,1.32-.83a14.86,14.86,0,0,1,8,0c1,.34,1.33.71,1.33.83S189.43,192,188.43,192.36Z"/><path class="cls-5" d="M184.43,189.88a13.27,13.27,0,0,1,4,.55c1,.34,1.33.71,1.33.83s-.33.5-1.33.83a14.6,14.6,0,0,1-8,0c-1-.33-1.32-.7-1.32-.83s.32-.49,1.32-.83a13.34,13.34,0,0,1,4-.55m0-.61c-3.28,0-5.94.89-5.94,2s2.66,2,5.94,2,5.94-.9,5.94-2S187.71,189.27,184.43,189.27Z"/><path class="cls-5" d="M184.43,190.49a10.74,10.74,0,0,1,4.44.77,13,13,0,0,1-8.88,0,10.74,10.74,0,0,1,4.44-.77"/><path class="cls-3" d="M135.28,196.1c0,1.1-2.66,2-5.94,2s-5.93-.89-5.93-2v-1.22h11.87Z"/><path class="cls-4" d="M135.28,194.88c0,1.1-2.66,2-5.94,2s-5.93-.9-5.93-2,2.66-2,5.93-2S135.28,193.78,135.28,194.88Z"/><path class="cls-3" d="M129.34,193.15c-3.14,0-5.72.83-5.92,1.87.2,1,2.78,1.86,5.92,1.86s5.73-.83,5.93-1.86C135.07,194,132.49,193.15,129.34,193.15Zm4,2.83a14.86,14.86,0,0,1-8,0c-1-.34-1.32-.71-1.32-.84s.32-.49,1.32-.83a14.86,14.86,0,0,1,8,0c1,.34,1.32.71,1.32.83s-.31.5-1.31.86Z"/><path class="cls-5" d="M129.34,193.5a13.3,13.3,0,0,1,4,.55c1,.34,1.32.71,1.32.83s-.32.5-1.32.84a14.86,14.86,0,0,1-8,0c-1-.34-1.32-.71-1.32-.84s.32-.49,1.32-.83a13.27,13.27,0,0,1,4-.55m0-.61c-3.27,0-5.93.89-5.93,2s2.66,2,5.93,2,5.94-.9,5.94-2S132.62,192.89,129.34,192.89Z"/><path class="cls-5" d="M129.34,194.11a10.83,10.83,0,0,1,4.45.77,13.06,13.06,0,0,1-8.89,0,10.77,10.77,0,0,1,4.44-.77"/><path class="cls-3" d="M84.14,187.88c0,1.1-2.66,2-5.94,2s-5.94-.89-5.94-2v-1.22H84.14Z"/><path class="cls-4" d="M84.14,186.66c0,1.1-2.66,2-5.94,2s-5.94-.89-5.94-2,2.66-2,5.94-2S84.14,185.56,84.14,186.66Z"/><path class="cls-3" d="M78.2,184.93c-3.15,0-5.72.82-5.92,1.86.2,1,2.77,1.86,5.92,1.86s5.72-.82,5.92-1.86C83.92,185.75,81.35,184.93,78.2,184.93Zm4,2.82a14.86,14.86,0,0,1-8,0c-1-.33-1.33-.7-1.33-.83s.33-.5,1.33-.83a14.86,14.86,0,0,1,8,0c1,.33,1.32.7,1.32.83s-.31.5-1.31.83Z"/><path class="cls-5" d="M78.2,185.28a13.08,13.08,0,0,1,4,.55c1,.33,1.32.7,1.32.83s-.32.5-1.32.83a14.86,14.86,0,0,1-8,0c-1-.33-1.33-.7-1.33-.83s.33-.5,1.33-.83a13,13,0,0,1,4-.55m0-.61c-3.28,0-5.94.89-5.94,2s2.66,2,5.94,2,5.94-.89,5.94-2S81.48,184.67,78.2,184.67Z"/><path class="cls-5" d="M78.2,185.88a10.52,10.52,0,0,1,4.44.78,10.57,10.57,0,0,1-4.44.77,10.57,10.57,0,0,1-4.44-.77,10.52,10.52,0,0,1,4.44-.78"/><polygon class="cls-2" points="141.45 180.22 141.81 179.73 141.81 176.36 138.77 176.36 138.22 177.1 138.22 177.1 138.22 180.62 138.58 180.62 138.58 184.13 142.03 184.13 142.03 187.7 144.94 183.73 144.94 180.22 141.45 180.22"/><polygon class="cls-10" points="154.18 164.45 154.44 164.93 154.92 165.2 154.44 165.46 154.18 165.94 153.91 165.46 153.43 165.2 153.91 164.93 154.18 164.45"/><polygon class="cls-10" points="188.13 192.13 188.39 192.61 188.87 192.87 188.39 193.13 188.13 193.61 187.86 193.13 187.38 192.87 187.86 192.61 188.13 192.13"/><polygon class="cls-10" points="108.16 170.15 108.49 170.75 109.09 171.08 108.49 171.41 108.16 172 107.83 171.41 107.24 171.08 107.83 170.75 108.16 170.15"/><polygon class="cls-10" points="73.2 184.67 73.53 185.27 74.13 185.6 73.53 185.93 73.2 186.52 72.88 185.93 72.28 185.6 72.88 185.27 73.2 184.67"/><polygon class="cls-10" points="97.08 167.68 97.38 168.23 97.92 168.53 97.38 168.82 97.08 169.37 96.78 168.82 96.24 168.53 96.78 168.23 97.08 167.68"/><polygon class="cls-10" points="86.15 172.77 86.45 173.31 86.99 173.61 86.45 173.91 86.15 174.45 85.85 173.91 85.31 173.61 85.85 173.31 86.15 172.77"/><polygon class="cls-10" points="187.38 173.47 187.71 174.07 188.31 174.4 187.71 174.73 187.38 175.33 187.06 174.73 186.46 174.4 187.06 174.07 187.38 173.47"/><polygon class="cls-10" points="165.85 158.68 166.15 159.22 166.69 159.52 166.15 159.82 165.85 160.36 165.56 159.82 165.01 159.52 165.56 159.22 165.85 158.68"/><polygon class="cls-10" points="132.67 158.68 132.97 159.22 133.51 159.52 132.97 159.82 132.67 160.36 132.37 159.82 131.83 159.52 132.37 159.22 132.67 158.68"/><polygon class="cls-13" points="173.02 108.51 154.07 105.2 153.61 89.64 172.56 92.94 173.02 108.51"/><polygon class="cls-14" points="146.67 123.56 127.72 120.25 150 85.92 168.95 89.23 146.67 123.56"/><polygon class="cls-15" points="160.6 102.1 168.95 89.23 150 85.92 146.12 91.92 160.6 102.1"/><polygon class="cls-14" points="158.83 91.97 139.88 88.67 168.96 59 187.91 62.31 158.83 91.97"/><polygon class="cls-13" points="146.94 132.43 127.98 129.13 96.95 97.22 115.91 100.53 146.94 132.43"/><polygon class="cls-14" points="86.73 131.24 67.78 127.94 96.69 88.35 115.64 91.66 86.73 131.24"/><polygon class="cls-13" points="86.99 140.11 68.04 136.81 37.64 126.24 56.59 129.54 86.99 140.11"/><polygon class="cls-14" points="27.25 154.66 8.29 151.35 37.38 117.36 56.33 120.67 27.25 154.66"/><polygon class="cls-13" points="27.51 163.53 8.56 160.22 8.29 151.35 27.25 154.66 27.51 163.53"/><polygon class="cls-16" points="187.91 62.31 173.02 108.51 172.56 92.94 146.94 132.43 115.91 100.53 86.99 140.11 56.59 129.54 27.51 163.53 27.25 154.66 56.33 120.67 86.73 131.24 115.64 91.66 146.67 123.56 168.95 89.23 158.83 91.97 187.91 62.31"/><rect class="cls-17" x="40.99" y="38.67" width="8.61" height="8.85"/><polygon class="cls-18" points="38.66 191.02 25.11 191.02 25.11 107.39 46.01 107.39 38.66 191.02"/><polygon class="cls-18" points="65.57 191.02 52.02 191.02 43.69 107.39 65.57 107.39 65.57 191.02"/><path class="cls-19" d="M60.06,24c0,10.16-6.6,18.37-14.76,18.37S30.55,34.18,30.55,24,37.16,5.63,45.3,5.63,60.06,13.86,60.06,24Z"/><path class="cls-20" d="M30.63,22.14C37.65,22,40,13.26,36,9.63,31.79,10.85,29.61,14.57,30.63,22.14Z"/><path class="cls-20" d="M60,21.69c-7-.16-9.4-8.89-5.38-12.55C58.86,10.39,61,14.09,60,21.69Z"/><path class="cls-21" d="M39.85,23.5a1.11,1.11,0,1,1-1.11-1.11h0A1.12,1.12,0,0,1,39.85,23.5Z"/><path class="cls-21" d="M53.26,23.5a1.1,1.1,0,1,1-1.09-1.11,1.09,1.09,0,0,1,1.09,1.09Z"/><rect class="cls-21" x="50.06" y="20.31" width="4.13" height="0.72"/><rect class="cls-21" x="36.73" y="20.31" width="4.12" height="0.72"/><path class="cls-19" d="M31.71,23.8A1.82,1.82,0,1,1,29.89,22h0A1.82,1.82,0,0,1,31.71,23.8Z"/><path class="cls-19" d="M62.34,23.5a1.82,1.82,0,1,1-1.83-1.81h.07A1.82,1.82,0,0,1,62.34,23.5Z"/><path class="cls-17" d="M61.63,23.5a1.11,1.11,0,1,1-1.11-1.11h0A1.11,1.11,0,0,1,61.63,23.5Z"/><path class="cls-17" d="M31,23.8a1.11,1.11,0,1,1-1.12-1.1h0A1.11,1.11,0,0,1,31,23.8Z"/><polygon class="cls-22" points="45.54 31.2 42.64 31.2 45.08 22.91 45.53 23.05 43.27 30.73 45.54 30.73 45.54 31.2"/><rect class="cls-23" x="22.59" y="46.93" width="42.99" height="66.46"/><polygon class="cls-24" points="7.48 199.75 17.41 199.75 28.97 198.64 28.97 199.75 37.69 199.75 37.69 191.02 26.59 191.13 7.48 196.55 7.48 199.75"/><polygon class="cls-25" points="7.48 197.96 7.48 199.75 17.41 199.75 28.97 198.64 28.97 199.75 37.69 199.75 37.69 197.96 7.48 197.96"/><polygon class="cls-24" points="83.14 199.75 73.22 199.75 61.64 198.64 61.64 199.75 52.92 199.75 52.92 191.02 64.03 191.13 83.14 196.55 83.14 199.75"/><polygon class="cls-25" points="83.14 197.96 83.14 199.75 73.22 199.75 61.64 198.64 61.64 199.75 52.92 199.75 52.92 197.96 83.14 197.96"/><path class="cls-22" d="M44.91,37A12.87,12.87,0,0,1,40,36.12l.18-.41a14,14,0,0,0,9.56,0l.16.43A15.14,15.14,0,0,1,44.91,37Z"/><path class="cls-19" d="M65.85,116.64l3-4.73L64,108.8l-3.09,4.66a2.93,2.93,0,0,0,4.88,3.17Z"/><path class="cls-23" d="M70.5,48.55a5.12,5.12,0,0,0-8.42,5.57s.48.87.66,1.12c3.66,5.5,19,31.71.12,55a21.34,21.34,0,0,0,5.1,3.66c29.27-32.64,2.68-65.12,2.68-65.12h0Z"/><path class="cls-19" d="M28.33,113.81,25,109.25l-4.71,3.48,3.26,4.51a2.93,2.93,0,0,0,4.73-3.43Z"/><path class="cls-23" d="M18.61,48.52A5.13,5.13,0,0,1,27,54.13a12.5,12.5,0,0,1-.68,1.1c-3.66,5.51-19,31.71-.16,55a22.25,22.25,0,0,1-5.09,3.66C-8.16,81.2,18.47,48.73,18.47,48.73h0A.93.93,0,0,0,18.61,48.52Z"/><path class="cls-23" d="M45.3,1.25A15.86,15.86,0,0,0,29.44,17.11H61.19A15.86,15.86,0,0,0,45.34,1.25Z"/><path class="cls-26" d="M45.3,22.06c-8.78,0-15.86-2.24-15.86-5H61.19C61.19,19.81,54.08,22.06,45.3,22.06Z"/><path class="cls-16" d="M65.36,90.44H22.83l.16,1h0l1.11,6.93L25.81,109h0l.29,1.89h0v.2l.34,2.12h0l.06.39h35l.07-.39h0l3.76-22.54h0ZM58,92h4.2v4.22h-4.1Zm0,7.32h4.2v2l-.35,2.2H58.14ZM30,110.85H27.38l-.66-4.21H30Zm0-7.32H26.2l-.4-2.6V99.32H30Zm0-7.32H25.8V92H30Zm6.46,14.64H32.25v-4.21h4.21Zm0-7.32H32.25V99.32h4.21Zm0-7.32H32.25V92h4.21Zm6.45,14.64h-4.2v-4.21h4.2Zm0-7.32h-4.2V99.32h4.2Zm0-7.32h-4.2V92h4.2Zm6.46,14.64H45.17v-4.21h4.21Zm0-7.32H45.17V99.32h4.21Zm0-7.32H45.17V92h4.21Zm6.46,14.64H51.63v-4.21h4.21Zm0-7.32H51.63V99.32h4.21Zm0-7.32H51.63V92h4.21Zm2.31,10.45h3.31l-.68,4.21H58.14Z"/><rect class="cls-27" x="21.21" y="86.81" width="45.75" height="4.45"/><polygon class="cls-28" points="25.66 89.47 24.52 88.49 38.35 72.41 39.49 73.38 25.66 89.47"/><polygon class="cls-28" points="62.47 89.47 63.62 88.49 49.79 72.41 48.65 73.38 62.47 89.47"/></svg>