<svg xmlns="http://www.w3.org/2000/svg" width="295.23" height="254.32" viewBox="0 0 295.23 254.32"><defs><style>.cls-1{isolation:isolate;}.cls-2,.cls-48,.cls-49,.cls-50,.cls-51{fill:none;stroke-miterlimit:10;}.cls-2{stroke:#fcd278;stroke-width:5.83px;}.cls-3{fill:#fcd278;}.cls-4{fill:#231f20;}.cls-5{fill:#91aabc;}.cls-6{fill:#fbc9a1;}.cls-7{fill:#8ac440;}.cls-8{fill:#088552;}.cls-9{fill:#d19d74;}.cls-10{fill:#b38564;}.cls-11{fill:#f6c6a1;}.cls-12{fill:#dbcfc5;}.cls-13{fill:#f7eade;}.cls-14{fill:#f9b27f;}.cls-15{fill:#572700;}.cls-16,.cls-32,.cls-44,.cls-53{mix-blend-mode:multiply;}.cls-17,.cls-44{fill:#ced1d2;}.cls-18{fill:#6bb03f;}.cls-19{fill:#5e9532;}.cls-20,.cls-42{fill:#78bf43;}.cls-21{fill:#b0b91e;}.cls-22{fill:#d4de3e;}.cls-23{fill:#ebb78c;}.cls-24{fill:#e8ae84;}.cls-25{fill:#e5e5e6;}.cls-26{fill:#babcbe;}.cls-27,.cls-53{fill:#919395;}.cls-28{fill:#9e9e9e;}.cls-29{fill:#d4d4d5;}.cls-30{fill:#2e3e4f;}.cls-31,.cls-32{fill:#4fc6e6;}.cls-32{opacity:0.4;}.cls-33{fill:#fff;}.cls-34{fill:#fce29b;}.cls-35{fill:#59595b;}.cls-36{fill:#dadbdc;}.cls-37{fill:#eff0f0;}.cls-38{fill:#414042;}.cls-39{fill:#6d6e71;}.cls-40{fill:#fdecb9;}.cls-41{fill:#fbb931;}.cls-42{font-size:10.8px;font-family:OpenSans-ExtraboldItalic, OpenSans ExtraboldItalic;font-weight:800;font-style:italic;}.cls-43{letter-spacing:-0.01em;}.cls-45{fill:#c7dd8c;}.cls-46{fill:#0076be;}.cls-47{fill:#6ecbe1;}.cls-48,.cls-49,.cls-50,.cls-51{stroke:#ea1849;stroke-width:1.7px;}.cls-49{stroke-dasharray:6.82 4.55;}.cls-50{stroke-dasharray:7.35 4.9;}.cls-51{stroke-dasharray:7.29 4.86;}.cls-52{fill:#fdd001;}.cls-53{opacity:0.6;}.cls-54{fill:#f6951d;}</style></defs><title>img-no-shipping-history</title><g class="cls-1"><g id="Layer_1" data-name="Layer 1"><path class="cls-2" d="M196.08,32c46.67,15.26,86.59,51.37,86.59,91.32,0,54.13-59.73,98-133.41,98s-133.4-43.88-133.4-98c0-47.3,45.6-86.77,106.26-96"/><path class="cls-3" d="M181.07,25.68c6.5,5.42,14.1,13.43,18.07,20.48L199,32l9-10.92C200.48,24.1,189.53,25.56,181.07,25.68Z"/><path class="cls-4" d="M137.51,164s-7.31,3.15-5.65,6.48,13.35.56,15.57-1.11l.56-6.11S142.18,160.94,137.51,164Z"/><path class="cls-4" d="M157.72,165.85s-6.38,3.15-4.15,6.13,13.8.64,15.7-1.39l-.74-7.32S161.77,162,157.72,165.85Z"/><path class="cls-5" d="M169.13,122.36s-1.25,17.53-1.25,20,1.17,21.27,1.17,21.27A36.26,36.26,0,0,1,158,165.09s-1.92-15.8-2.84-19.3-.66-5.41-1.31-11l-3.47,9.32L148.78,165s-7.1,1.23-11.59-2.26l1.28-21.07,4-22.35Z"/><path class="cls-6" d="M129.81,111.54a28,28,0,0,0-4.3,3.18c-1.31,1.35-2.6,2.8-.79,2.72a2.82,2.82,0,0,0,1.78-.69s-2.09,3.63-3,4.36-.52,1.76,1.11,1.94a9.55,9.55,0,0,0,7.4-2.68,14.25,14.25,0,0,0,3-4.47S133,110.9,129.81,111.54Z"/><path class="cls-7" d="M127.64,111.86s3.45,4.48,7,5.2c0,0,1.92-2,4.41-4.49s9.13-12.83,9.13-12.83L151,96.88s2.65-5.5,2.69-9.08a16.57,16.57,0,0,0-.34-4.68s-7.24-4.49-12.64,7.81c0,0-1.5,3.42-2.41,5-.43.76-1.54,3.12-2.29,4.27C135.57,100.81,127.64,111.86,127.64,111.86Z"/><path class="cls-8" d="M168.76,123.72l1.58-5.21s4.24-13.93,4.73-18.55-3.36-11.17-3.36-11.17a18.21,18.21,0,0,0-6.8-4.28,33.9,33.9,0,0,0-14.41-2.6s-8.2,4.33-8.67,22.75c-.05,1.72.65,16.23.65,16.23S160.71,125.37,168.76,123.72Z"/><polygon class="cls-9" points="134.96 148.66 109.88 134.49 109.88 110.37 134.96 124.54 134.96 148.66"/><polygon class="cls-10" points="134.96 148.66 153.81 137.29 153.81 113.17 134.96 124.54 134.96 148.66"/><polygon class="cls-11" points="134.96 124.54 153.81 113.17 128.29 98.58 109.88 110.37 134.96 124.54"/><polygon class="cls-12" points="125.54 143.33 118.52 139.37 118.52 115.25 125.54 119.2 125.54 143.33"/><polygon class="cls-13" points="125.54 119.22 118.52 115.25 137.12 103.68 144.14 107.63 125.54 119.22"/><polygon class="cls-13" points="116 134.37 111.38 131.77 111.38 127.33 116 129.94 116 134.37"/><path class="cls-14" d="M164.31,84.2c0,2.48-2.44,4.49-5.45,4.49s-5.46-2-5.46-4.49,2.45-4.5,5.46-4.5S164.31,81.72,164.31,84.2Z"/><path class="cls-6" d="M172.81,72.25c0,8.16-6.08,14.78-13.58,14.78s-13.58-6.62-13.58-14.78,6.08-14.79,13.58-14.79S172.81,64.08,172.81,72.25Z"/><path class="cls-15" d="M167,69.14s5.37.43,5.73,4.82c0,0,1-7.37.15-12.29s-12.57-6.81-18.44-5-7.54,9.47-7.54,9.47S155,76.94,167,69.14Z"/><path class="cls-7" d="M145,62.11s11.18-2.14,17.57,7c0,0-4.86,8.17-9.45,5.36s-7.92-4.09-10.73-4.09-7.66-.76-3.83-3.57S145,62.11,145,62.11Z"/><path class="cls-8" d="M145,62.11a22.13,22.13,0,0,1-.83-6.74c.26-3.07,5.63-7.92,15.08-7.66s12.25,6.64,12.25,6.64l1.65,8c-2.71,4-10.58,6.85-10.58,6.85S157.58,61.22,145,62.11Z"/><path class="cls-6" d="M150.72,126.31a31.51,31.51,0,0,0-4.34,4c-1.27,1.62-2.48,2.6-.54,3.07a2.65,2.65,0,0,0,1.89-.31,31.22,31.22,0,0,1-2.8,4.47c-.9.9-.36,2,1.45,2a10.53,10.53,0,0,0,7.78-3.8,15.7,15.7,0,0,0,2.72-5.24S154.16,125.22,150.72,126.31Z"/><path class="cls-7" d="M148.49,126.56s4.31,4.5,8.24,4.87c0,0,1.87-2.43,4.31-5.43s9.52-15.23,9.52-15.23,3.49-9.66,3.27-13.61A7.36,7.36,0,0,0,170.18,91s-8-1.1-10.91,11.25c0,0-.54,3.44-.67,5.61a12.37,12.37,0,0,1-1.31,4.86C156.91,113.4,148.49,126.56,148.49,126.56Z"/><g class="cls-16"><path class="cls-17" d="M13,78.35c-1.68.93-1.72,2.51-.09,3.52l32,19.78a6.61,6.61,0,0,0,6,.14L96.59,76.58c1.68-.93,1.72-2.51.08-3.52l-32-19.77a6.59,6.59,0,0,0-6-.15Z"/></g><polygon class="cls-10" points="48.75 57.73 15.87 37.89 60.4 12.44 92.51 33 48.75 57.73"/><polygon class="cls-9" points="60.4 12.44 60.4 78.24 15.87 79.97 15.87 37.89 60.4 12.44"/><polygon class="cls-18" points="49.71 89.38 86.79 68.43 86.79 32.77 49.71 53.73 49.71 89.38"/><polygon class="cls-19" points="49.71 89.38 21.85 72.57 21.85 36.91 49.71 53.73 49.71 89.38"/><polygon class="cls-20" points="49.71 53.73 21.85 36.91 59.57 15.34 86.79 32.77 49.71 53.73"/><polygon class="cls-21" points="63.65 81.51 74.03 75.65 74.03 39.99 63.65 45.83 63.65 81.51"/><polygon class="cls-22" points="63.65 45.85 74.03 39.99 46.52 22.88 36.14 28.72 63.65 45.85"/><polygon class="cls-9" points="48.75 99.81 92.51 75.08 92.51 33 48.75 57.73 48.75 99.81"/><polygon class="cls-13" points="81.83 74.89 89.89 70.34 89.89 62.59 81.83 67.14 81.83 74.89"/><polygon class="cls-23" points="48.75 57.73 58.34 77.01 102.63 52.81 92.51 33 48.75 57.73"/><polygon class="cls-23" points="2.67 37.38 15.87 37.89 60.4 12.44 46.43 12.65 2.67 37.38"/><polygon class="cls-10" points="48.75 99.81 15.87 79.97 15.87 37.89 48.75 57.73 48.75 99.81"/><polygon class="cls-24" points="48.75 57.73 34.74 73.36 1.86 54.06 15.87 37.89 48.75 57.73"/><polygon class="cls-24" points="104.59 37.84 92.51 33 60.4 12.44 72.47 16.74 104.59 37.84"/><g class="cls-16"><path class="cls-25" d="M287.24,97a1.54,1.54,0,0,1,0,2.88l-11.84,6.92a5.28,5.28,0,0,1-4.86,0L210.09,70.42a1.53,1.53,0,0,1,0-2.87L222,60.63a5.26,5.26,0,0,1,4.85,0Z"/></g><polygon class="cls-26" points="230.04 81.02 254.88 96.6 254.95 94.34 230.04 78.75 230.04 81.02"/><polygon class="cls-27" points="230.04 78.75 254.95 94.34 268.07 85.64 243.41 71.07 230.04 78.75"/><polygon class="cls-28" points="254.88 96.6 268.07 87.7 268.07 85.64 254.95 94.34 254.88 96.6"/><polygon class="cls-29" points="240.7 79.33 256.97 88.93 257.03 71.82 240.76 62.22 240.7 79.33"/><polygon class="cls-30" points="240.76 62.22 257.03 71.82 260.24 70.25 243.97 60.65 240.76 62.22"/><polygon class="cls-26" points="256.97 88.93 260.18 86.68 260.24 70.25 257.03 71.82 256.97 88.93"/><polygon class="cls-4" points="214.82 51.33 289.66 95.32 289.66 46.7 214.82 2.71 214.82 51.33"/><polygon class="cls-31" points="217.36 41.16 287.31 82.5 287.31 48.78 217.36 7.45 217.36 41.16"/><polygon class="cls-25" points="214.82 2.71 289.66 46.7 295.23 43.98 220.39 0 214.82 2.71"/><polygon class="cls-26" points="289.66 95.32 295.23 91.41 295.23 43.98 289.66 46.7 289.66 95.32"/><polygon class="cls-25" points="214.82 51.33 289.66 95.32 289.66 87.69 214.82 43.7 214.82 51.33"/><polygon class="cls-32" points="217.36 41.16 287.31 48.78 287.31 82.5 217.36 41.16"/><path class="cls-33" d="M260.53,49.05a.59.59,0,0,0,.6-.51l1.38-7.93a.84.84,0,0,0-.15-.61.77.77,0,0,0-.53-.32l-15.1-1.87-.79-2.76a.84.84,0,0,0-.66-.59l-2.84-.35a.62.62,0,0,0-.69.64.81.81,0,0,0,.69.8l2.33.29,3.34,11.6a.36.36,0,0,0,0,.11l-.57,1.85,0,.16a2.06,2.06,0,0,0,.46,1.33,2.4,2.4,0,0,0,1.65.84c1.49.19,10.62.82,11,.85a.61.61,0,0,0,.65-.68.81.81,0,0,0-.72-.77c-.1,0-9.49-.66-10.94-.84-.31,0-.67-.14-.72-.42l.27-.88Zm-4.33-4.64v3.17l-3.65,0V44Zm-3.65-1.26V40l3.65.45V43.6ZM257,47.58V44.51l3.35.41-.47,2.68Zm3.48-3.45L257,43.7V40.52l4,.49Zm-8.69-4.26v3.18l-3.66-.45-1-3.3Zm-3.42,3.57,3.42.43v3.68h-2.23Z"/><path class="cls-33" d="M250.6,54.31a1.53,1.53,0,0,1-1.73,1.6,2.07,2.07,0,0,1-1.74-2,1.53,1.53,0,0,1,1.74-1.59A2.06,2.06,0,0,1,250.6,54.31Z"/><path class="cls-33" d="M260.55,55.55a1.52,1.52,0,0,1-1.73,1.59,2.06,2.06,0,0,1-1.74-2,1.54,1.54,0,0,1,1.74-1.6A2.07,2.07,0,0,1,260.55,55.55Z"/><path class="cls-34" d="M271.73,64.29V62.74A13.37,13.37,0,0,1,269,60.39l.49-1.61a11.74,11.74,0,0,0,2.7,2.32c.92.56,1.56.57,1.56-.08s-.52-1.32-1.73-2.44c-1.74-1.62-2.92-3.14-2.92-4.72s1-2,2.75-1.26V51.05l1.59,1v1.43a11.7,11.7,0,0,1,2.36,1.94l-.47,1.56A11,11,0,0,0,273,55c-1.06-.63-1.4-.37-1.4.08s.57,1.22,1.95,2.56c1.94,1.84,2.72,3.2,2.72,4.67s-1,2.07-2.9,1.28v1.67Z"/><path class="cls-34" d="M230.65,39.7V38.15a13.47,13.47,0,0,1-2.77-2.34l.49-1.62a11.74,11.74,0,0,0,2.7,2.32c.93.56,1.56.58,1.56-.08s-.52-1.31-1.72-2.44c-1.75-1.62-2.93-3.14-2.93-4.72,0-1.43,1-2,2.75-1.26V26.46l1.59.95v1.43a11.7,11.7,0,0,1,2.36,1.94l-.47,1.56a11,11,0,0,0-2.34-2c-1.06-.62-1.4-.37-1.4.08s.57,1.22,1.95,2.57c1.94,1.83,2.72,3.19,2.72,4.66s-1,2.07-2.9,1.29v1.66Z"/><g class="cls-16"><path class="cls-17" d="M91.42,252.46c-4.4,2.52-11.57,2.47-15.94-.1L3.17,209.65c-4.36-2.58-4.2-6.5.36-8.71l33.29-16.17c4.57-2.22,11.78-1.78,16,1l65,42.08c4.26,2.75,4.14,7.07-.25,9.59Z"/></g><polygon class="cls-35" points="4.3 201.68 84.76 248.91 84.16 239.08 5.97 193.17 4.3 201.68"/><polygon class="cls-8" points="84.26 245.15 84.07 235.79 96.51 234.16 115.58 221.93 118.83 217.26 120.04 228.07 114.19 235.13 100.01 243.45 84.26 245.15"/><path class="cls-4" d="M107.5,200.83a.36.36,0,0,0,.45.37l2.42-.43a.57.57,0,0,0,.44-.53v-6.65a.36.36,0,0,0-.44-.37l-2.42.44a.55.55,0,0,0-.45.53Z"/><path class="cls-4" d="M104.89,200.23c0,.2.17.31.41.24l2.51-.7a.64.64,0,0,0,.45-.48c0-.2-.17-.31-.41-.24l-2.51.7A.61.61,0,0,0,104.89,200.23Z"/><polygon class="cls-36" points="119.31 216.57 115.59 222.58 96.51 234.16 84.07 235.79 58.63 183.03 84.72 168.25 119.31 216.57"/><polygon class="cls-37" points="84.72 168.25 58.63 183.03 8.6 151.56 34.16 137.81 84.72 168.25"/><path class="cls-4" d="M66.4,236.89c1.14,3.92,5.12,12.05,8,12.13,5.55-1.44,6.42-4.49,5.26-8.45s-4.44-7.17-7.32-7.21S66.46,235.76,66.4,236.89Z"/><path class="cls-38" d="M66.22,241.87c1.13,3.92,4.38,7.17,7.27,7.25s4.31-3.08,3.15-7-4.43-7.18-7.31-7.21S65.08,238,66.22,241.87Z"/><path class="cls-27" d="M68.2,241.62c.68,2.43,2.69,4.63,4.53,4.83s2.77-1.85,1.89-4.47-2.93-4.45-4.64-4.47S67.54,239.29,68.2,241.62Z"/><path class="cls-39" d="M69.08,237.74c-.53.73-.27,1.78.13,3.2.67,2.43,2.29,4.8,4.13,5a2,2,0,0,0,1.12-.21,1.81,1.81,0,0,1-1.73.73c-1.84-.2-3.85-2.4-4.53-4.83C67.68,239.77,68.08,238.28,69.08,237.74Z"/><path class="cls-29" d="M74.62,242c-.85-2.49-2.93-4.45-4.64-4.47s-2.44,1.78-1.78,4.11,2.69,4.63,4.53,4.83S75.5,244.6,74.62,242ZM69,241.55a4.08,4.08,0,0,1-.09-2l2,2.31-1.78-.06C69,241.74,69,241.64,69,241.55Zm3.49-1.81A7.28,7.28,0,0,1,73.82,242l-2.11-.07Zm-1,1.48-.73-2.7a3.69,3.69,0,0,1,1.36.85Zm-1.23-2.79.84,3.06-2-2.37A1.22,1.22,0,0,1,70.22,238.43Zm-1,3.85,1.86.06-.67,1.94A7.57,7.57,0,0,1,69.21,242.28Zm1.55,2.39.65-1.9.79,2.87A4.07,4.07,0,0,1,70.76,244.67Zm1.93,1.08L72,243.26l1.79,2.1A1.25,1.25,0,0,1,72.69,245.75ZM74,245l-2.24-2.62,2.18.07A3.79,3.79,0,0,1,74,245Z"/><path class="cls-4" d="M13.27,206.23c1.14,3.93,5.12,12.06,8,12.13,5.54-1.44,6.41-4.49,5.25-8.45s-4.44-7.17-7.31-7.21S13.33,205.1,13.27,206.23Z"/><path class="cls-38" d="M13.09,211.22c1.14,3.92,4.39,7.17,7.27,7.25s4.31-3.08,3.15-7-4.43-7.18-7.31-7.21S12,207.31,13.09,211.22Z"/><path class="cls-27" d="M15.07,211c.68,2.43,2.7,4.64,4.54,4.83s2.76-1.85,1.89-4.46-2.93-4.45-4.64-4.48S14.42,208.63,15.07,211Z"/><path class="cls-39" d="M16,207.08c-.54.74-.28,1.78.12,3.2.68,2.43,2.29,4.8,4.13,5a1.87,1.87,0,0,0,1.12-.21,1.79,1.79,0,0,1-1.72.73c-1.84-.19-3.86-2.4-4.54-4.83C14.55,209.12,15,207.62,16,207.08Z"/><path class="cls-29" d="M21.5,211.33c-.85-2.49-2.93-4.45-4.64-4.48s-2.44,1.78-1.79,4.11,2.7,4.64,4.54,4.83S22.37,213.94,21.5,211.33Zm-5.66-.44a3.94,3.94,0,0,1-.1-2l2,2.3-1.78-.06A2.29,2.29,0,0,1,15.84,210.89Zm3.48-1.8a6.93,6.93,0,0,1,1.37,2.23l-2.11-.07Zm-1,1.47-.73-2.7a3.71,3.71,0,0,1,1.37.86Zm-1.22-2.79.84,3.06-2-2.36A1.23,1.23,0,0,1,17.1,207.77Zm-1,3.85,1.86.06-.67,1.94A7.41,7.41,0,0,1,16.08,211.62ZM17.64,214l.65-1.9.79,2.87A3.78,3.78,0,0,1,17.64,214Zm1.92,1.08-.68-2.48,1.8,2.09A1.26,1.26,0,0,1,19.56,215.09Zm1.35-.77-2.23-2.62,2.17.07A3.79,3.79,0,0,1,20.91,214.32Z"/><polygon class="cls-40" points="118.83 217.26 115.58 221.93 115.7 229.33 119.41 222.98 118.83 217.26"/><polygon class="cls-40" points="96.51 234.16 99.42 238.47 87.64 240.05 85.35 235.62 96.51 234.16"/><polygon class="cls-38" points="84.26 242.7 98.79 240.45 99.42 238.47 97.9 236.22 108.29 231.19 115.65 225.89 115.7 229.33 116.75 228.68 120.47 223.11 117.17 229.37 113.41 233.26 98.97 241.35 84.26 242.7"/><path class="cls-25" d="M8.6,151.56l50,31.47,25.44,52.76L84.45,249l-5.65-3.34a16.54,16.54,0,0,0-1.37-5.59c-2.22-5.21-6.31-8.4-9.17-7.32-1.65.62-2.54,2.59-2.62,5.13L25.37,214.07a17.55,17.55,0,0,0-1.28-4.59c-2.23-5.2-6.32-8.4-9.17-7.32-1.44.55-2.32,2.12-2.57,4.21L4,201.45Z"/><rect class="cls-26" x="48.32" y="139.62" width="0.66" height="28.67" transform="translate(-108.41 116.55) rotate(-59.07)"/><rect class="cls-26" x="43.86" y="143.52" width="0.66" height="28.67" transform="translate(-113.93 114.62) rotate(-59.07)"/><rect class="cls-26" x="38.16" y="146.37" width="0.66" height="28.67" transform="translate(-119.14 111.11) rotate(-59.07)"/><path class="cls-20" d="M84.07,235.79l.19,6.69.19,6.53-5.65-3.34a16.54,16.54,0,0,0-1.37-5.59c-2.22-5.21-6.31-8.4-9.17-7.32-1.65.62-2.54,2.59-2.62,5.13L25.37,214.07a17.55,17.55,0,0,0-1.28-4.59c-2.23-5.2-6.32-8.4-9.17-7.32-1.44.55-2.32,2.12-2.57,4.21L4,201.45l1.18-12.87,78.12,45.7Z"/><polygon class="cls-38" points="73.88 223.91 65.67 203.26 54.8 196.85 54.02 211.08 73.88 223.91"/><path class="cls-35" d="M69.81,201.8l10,19.81s14.74-4.85,18.32-7S109,204.72,109,204.72L95.89,187Z"/><path class="cls-4" d="M67,223.91a.37.37,0,0,0,.45.38l2.42-.44a.56.56,0,0,0,.44-.53v-6.64a.36.36,0,0,0-.44-.37l-2.42.44a.55.55,0,0,0-.45.52Z"/><path class="cls-28" d="M55.75,215.21a.13.13,0,0,0,.2-.06l.32-.85a.19.19,0,0,0-.08-.24l-2.09-1.28a.14.14,0,0,0-.2.07l-.33.85a.22.22,0,0,0,.08.24Z"/><path class="cls-4" d="M69.47,222.62c0,.2.17.3.41.24l2.51-.71a.61.61,0,0,0,.46-.48c0-.19-.17-.31-.41-.23l-2.51.7A.61.61,0,0,0,69.47,222.62Z"/><path class="cls-38" d="M109,204.72s-7.28,7.8-10.85,9.92-18.32,7-18.32,7L95.89,187Z"/><path class="cls-35" d="M120.21,223.65l-.41,10.1-4.23,4.8-15.62,9L84.45,249s-5.72-3.15-5.65-3.34-.42-4.82-.42-4.82l5.88,1.85L99,241.35l14.44-8.09,3.76-3.89Z"/><polygon class="cls-41" points="85.35 235.62 84.07 235.79 84.21 240.58 87.64 240.05 85.35 235.62"/><text class="cls-42" transform="translate(8.82 182.12) rotate(29.95) scale(0.89 1)">DELIVE<tspan class="cls-43" x="31.54" y="0">R</tspan><tspan x="37.23" y="0">Y</tspan></text><polygon class="cls-8" points="8.8 184.48 44.73 204.9 41.33 205.53 8.8 184.48"/><path class="cls-3" d="M126.86,27.35a4.74,4.74,0,1,1-4.74-4.74A4.74,4.74,0,0,1,126.86,27.35Z"/><path class="cls-44" d="M287.74,236.81c0,3.49-15,6.32-33.55,6.32s-33.55-2.83-33.55-6.32,15-6.31,33.55-6.31S287.74,233.32,287.74,236.81Z"/><path class="cls-45" d="M287.46,200.55A39.52,39.52,0,1,1,248,161,39.51,39.51,0,0,1,287.46,200.55Z"/><path class="cls-46" d="M283,200.55A35.06,35.06,0,1,1,248,165.5,35.06,35.06,0,0,1,283,200.55Z"/><path class="cls-47" d="M246.62,173.9s0,0-.1,0l-.1,0c-.08,0-.17,0-.17-.08a.33.33,0,0,1,0-.13s.16-.09.22,0,0,0,.06,0,.18.11.21.11.22.05.3,0a1.23,1.23,0,0,1,.25-.06c.05,0,.33-.11.16-.18a1,1,0,0,1-.23-.12s-.12,0-.07-.07,0-.08.1-.14.09-.15.2-.15.23-.17.31-.25a.71.71,0,0,1,.29-.12.67.67,0,0,0,.1-.12v-.22l-.15-.08-.14-.16s-.06-.05.08-.05a1.34,1.34,0,0,0,.3,0,.22.22,0,0,0,0-.09.53.53,0,0,0-.05-.14l-.17-.11s0,0-.1,0h-.13a1.06,1.06,0,0,1-.21,0s0-.1,0-.11l.12,0a.42.42,0,0,0,.11-.07.1.1,0,0,1,0-.11l.07,0s.17-.23,0-.27a2.71,2.71,0,0,0-.37-.06c-.1,0-.13,0-.22,0s0,0-.14,0l-.33,0c-.05,0,0,0-.14,0a1.1,1.1,0,0,1-.27,0s-.17,0,0-.06a.81.81,0,0,1,.19-.13.44.44,0,0,1,.19,0c.12,0,.11,0,.2,0a1.49,1.49,0,0,0,.21,0c.09,0,.18-.06.13-.11a.48.48,0,0,0-.22-.12H247a.3.3,0,0,0-.16,0c-.09,0-.14,0-.21.06a1.24,1.24,0,0,1-.2.06.36.36,0,0,1-.24.06,1.36,1.36,0,0,1-.33-.06.93.93,0,0,0-.23-.13c-.09,0,.06,0-.24,0a3.72,3.72,0,0,1-.5,0,1.64,1.64,0,0,0-.41-.13c-.12,0-.28,0-.31,0s-.16.07-.24.11-.14,0-.23,0l-.31.08-1,.12h-.37s.1-.08-.06-.11l-.16,0-.05.08-.11.07s-.1.07-.1,0v-.06a.14.14,0,0,0-.18-.06c-.11.05-.12,0-.24.08s-.16,0-.27.09a1.7,1.7,0,0,1-.44,0,2.12,2.12,0,0,1-.93.08c-.27-.11-.32-.11-.4,0a1.3,1.3,0,0,1-.19.15.59.59,0,0,1-.34.12c-.13,0,0,0-.27,0l-.26-.05c-.11,0-.11-.05-.24,0s-.12.15-.17.21-.19.07-.26.13,0,.1-.14.16a1.2,1.2,0,0,1-.34.06s-.73.23-1,.31-.37.08-.44.16-.08.06-.22.13a2,2,0,0,0-.43.19c-.16.11.05,0-.16.11s-.38.09-.43.14a3.34,3.34,0,0,1-.32.21.27.27,0,0,0,.17.1c.1,0,.15,0,.19,0s.08.14.15.15l.22,0c.08,0,.06,0,.16,0s.09-.09.18-.1a2.86,2.86,0,0,1,.32-.05s.29,0,.33.08l0,0,.23,0c.08,0,.08,0,.15,0h.26c.12,0,.52,0,.52.08s.12.13.21.16,0-.1.08,0,0,.17.11.22.08,0,.11.05a.62.62,0,0,1,0,.17.42.42,0,0,0,.07.15l.17.11h.14a.79.79,0,0,1,.22,0c.05,0,.28,0,.26.07s0,.12-.1.12h-.23a.59.59,0,0,0-.21,0s0,.05-.08.1.07,0-.05,0-.07-.12-.12,0-.09.22,0,.24a.88.88,0,0,0,.19,0,.36.36,0,0,0,.15,0c.05,0,.05,0,.12-.06s.12-.06.17-.07l.16,0h.13c.07,0,.19,0,.19,0s0,.07-.07.11-.08,0-.17.06-.25.08-.3.1l-.18.12c-.05,0-.06-.07-.16.06s-.23.22-.23.27a.49.49,0,0,1,0,.14.42.42,0,0,0,0,.17c0,.12.15.12.19.23s0,.13,0,.22.1.08.12.2.3.4.3.44a.5.5,0,0,0,.16.29c.09.07.16,0,.25.14s.11.13.19.13.07-.06.19,0a3,3,0,0,0,.79.14,1.08,1.08,0,0,1,.29,0,.93.93,0,0,1,.28,0c.13,0,.14.08.24,0a.51.51,0,0,0,.26-.26c0-.13-.07-.13,0-.27s0-.14.13-.28,0-.15.14-.21.12-.14.2-.19a.69.69,0,0,0,.17-.11c.08-.07.13,0,.13-.18s0-.26.11-.28l.14,0,.48-.07a9.67,9.67,0,0,0,1-.36c.09-.06.13-.14.29-.25s.16-.23.29-.24a.37.37,0,0,0,.25-.1s0-.09.12-.13l.31-.06a1.2,1.2,0,0,0,.7,0,5.75,5.75,0,0,0,.94-.27c.13-.07.16-.09.25-.09a.44.44,0,0,0,.27-.09C246.61,174,246.65,173.93,246.62,173.9Z"/><path class="cls-47" d="M249.65,175.53l.3-.06c.19,0,0-.06-.07-.14s0,0,0,0-.14-.05-.16-.11-.1,0-.26-.13,0,0,0-.08-.1-.07-.14-.07l-.46,0s0,.09,0,.09l-.18.1h-.35c-.13,0-.09,0-.13,0s-.17,0-.34,0a.64.64,0,0,1-.32-.09.93.93,0,0,0-.22,0s-.12-.13-.19-.14-.21.08-.34.11a.78.78,0,0,0-.2.09.32.32,0,0,0,.23.1,1.3,1.3,0,0,1,.26,0c.17,0,0,0,.1.06s0,.06,0,.12,0,0-.13,0-.11,0-.17.05,0,.06.09.13,0,0,.19.08,0,.08,0,.08.22.12.28.14a1.06,1.06,0,0,0,.33,0l.43,0a.79.79,0,0,0,.37,0,.48.48,0,0,0,.19-.09,6,6,0,0,1,.56-.22Z"/><path class="cls-47" d="M229.29,177.5l-.1,0a.53.53,0,0,1-.17.12.67.67,0,0,0-.19.13v.12a.56.56,0,0,0,.17-.06l.18-.06c.08,0,.11,0,.14,0s.11,0,.12-.07a.06.06,0,0,0,0-.06v-.08Z"/><path class="cls-47" d="M233.15,181.84a.26.26,0,0,0,.19-.09c.06,0-.06-.11-.06-.11l-.35,0a.7.7,0,0,1-.19,0c-.1,0,0,0-.17,0a.36.36,0,0,0-.2,0c-.12,0,0,0,0,.07s.16.12.16.12l.07.07c-.08,0,.33,0,.46,0S233.05,181.84,233.15,181.84Z"/><path class="cls-47" d="M228.3,180.1a.78.78,0,0,0,.33-.07c.15-.08,0,0,0-.06s-.13,0-.2,0a.33.33,0,0,0-.15,0h-.13s-.06,0-.11,0h-.31c-.13,0,.17.12.17.12l.15.1a.61.61,0,0,0,.25-.05C228.34,180.05,228.25,180.1,228.3,180.1Z"/><path class="cls-47" d="M235.12,181.32c0-.12,0,0,.06-.07a.14.14,0,0,0,0-.19c0-.06-.08,0-.12,0l-.16.09s-.07,0-.2.21-.12.15-.19.19-.07.12-.22.28-.17.18-.17.18-.18.13-.17.2l.08.16a1.08,1.08,0,0,0,.27,0,1.56,1.56,0,0,1,.36,0c.11,0,.14,0,.18.06a1.75,1.75,0,0,0,.24.11,2.34,2.34,0,0,0,.3-.12c.06,0,.07-.16.12-.24s.17-.05.27-.1.09,0,.13-.16-.14,0-.17-.09,0-.12,0-.17-.11,0-.18,0a.34.34,0,0,1-.2,0c-.06-.05,0,0,0-.1s-.09,0-.2-.05S235.1,181.44,235.12,181.32Z"/><path class="cls-47" d="M236,182.66c.06,0,.08,0,.11,0s0-.07,0-.18,0,0,0-.09-.07,0-.12,0a.25.25,0,0,0-.11,0c-.05,0-.06,0-.13.1s0,0,0,0-.1.11-.1.15a1.56,1.56,0,0,0,.1.22.22.22,0,0,0,.2-.08C236,182.6,236,182.7,236,182.66Z"/><path class="cls-47" d="M227.07,194.91a.47.47,0,0,0,.29-.18c.06-.09-.07-.12-.07-.12l-.23-.18a2.76,2.76,0,0,1-.28-.12,1.06,1.06,0,0,1-.21-.16.79.79,0,0,1-.3-.34c-.13-.24-.13-.06-.18-.1a5.46,5.46,0,0,1-.78-.35c0-.08-.13-.07-.21-.11s-.18.08-.22.08-.15.12-.18.15,0,.09-.11.15a1,1,0,0,1-.23.16c-.09,0,.11.16.11.16l.13-.1.16,0,.13-.13a3.77,3.77,0,0,1,.33.22,1.93,1.93,0,0,0,.24.14,1.17,1.17,0,0,0,.33.09c.07,0,.05.13.05.17s0,.11.16.16.05.14.05.14a1.43,1.43,0,0,1,0,.28c0,.09.12,0,.24,0l.36,0A1.17,1.17,0,0,0,227.07,194.91Z"/><path class="cls-47" d="M228.53,195.58l.35,0c.1,0,.13-.05.25-.15s0-.13,0-.13l-.17-.13a.71.71,0,0,1-.13-.17c0-.06-.11-.13-.41-.2s-.18,0-.25,0a.31.31,0,0,1-.15-.06,2.66,2.66,0,0,0-.34,0c-.12,0-.09.11-.09.16s.15.15.15.15a.41.41,0,0,1,.06.18c0,.06-.13.06-.24.07s-.06,0-.15-.09-.09,0-.19,0-.06.08-.11.1.06.22.06.25l.2.19a.63.63,0,0,0,.26,0c.06,0,.09,0,.2-.05s.19.05.24.05a1.22,1.22,0,0,0,.27-.06c.13,0,0,0,0-.1S228.47,195.58,228.53,195.58Z"/><path class="cls-47" d="M226.2,195.42c-.17,0-.1,0-.17,0s0-.07-.08,0-.1.15-.08.2,0,.06.1.1,0,0,.13.06a.93.93,0,0,0,.39-.08s0-.14-.07-.15l-.21-.05S226.36,195.43,226.2,195.42Z"/><path class="cls-47" d="M229.57,195.6a1.44,1.44,0,0,0,.22.07H230c.12,0,.06,0,.07-.16s-.07,0-.12-.07-.09,0-.11-.07-.12-.06-.16-.07-.1,0-.1,0l0,.13,0,.05A.13.13,0,0,0,229.57,195.6Z"/><path class="cls-47" d="M257.68,172.31a.72.72,0,0,0,.25,0c.23,0,.27,0,.35-.09s.08-.15.18-.18a.62.62,0,0,1,.32,0,.2.2,0,0,1,.11.11c0,.06.06.1.13.1h.24a.74.74,0,0,0,.25.05c.1,0,.18,0,.2-.08s.11-.1-.07-.14l-.37-.13v-.07a.16.16,0,0,1,.13-.06c.1,0,.13,0,.21,0l.32,0,.26,0,.08-.05s.35-.1.06-.14a3.48,3.48,0,0,0-.53-.05s-.3-.1-.38-.11.09,0-.19,0h-.82c-.14,0-.17,0-.22,0s-.13.13-.13.13a1.74,1.74,0,0,0-.34.05,2,2,0,0,0-.12.41v.18C257.6,172.21,257.58,172.29,257.68,172.31Zm.64-.75h.32c.14,0,.19,0,.23,0s.26,0,.2.09a.19.19,0,0,1-.15.08,1.06,1.06,0,0,1-.28,0h-.28S258.19,171.56,258.32,171.56Z"/><path class="cls-47" d="M273.54,210.23c0-.17-.19-.21-.34-.19s-.05.38-.05.38a1,1,0,0,1-.12.29.49.49,0,0,0,0,.29l-.24.41a.58.58,0,0,1-.39.21.57.57,0,0,0-.33.07c-.1.05-.17.22-.24.32s-.15.33-.24.5a.54.54,0,0,0-.05.38,6.33,6.33,0,0,1-.05.91c-.05.24-.09.12-.19.22a2.31,2.31,0,0,0-.24.6,2.1,2.1,0,0,1-.17.45c-.09.17,0,.15,0,.27a1.43,1.43,0,0,0,0,.36.41.41,0,0,0,.09.26,1.18,1.18,0,0,0,.39.12c.14,0,.09-.12.31-.34s.14,0,.24-.16.24-.15.29-.27a3.43,3.43,0,0,0,.09-.69c.05-.39.12-.24.15-.39s.36-1,.43-1.17a3.31,3.31,0,0,1,.24-.43,1.62,1.62,0,0,0,.12-.58,1.15,1.15,0,0,1,.17-.43l.16-.09s.05-.29.07-.48-.11-.27-.11-.48S273.51,210.4,273.54,210.23Z"/><path class="cls-47" d="M268,187.44Z"/><path class="cls-47" d="M268,187.44h0Z"/><path class="cls-47" d="M267.49,187.67a.26.26,0,0,0,.21.14c.16,0,.11,0,.16-.06a.23.23,0,0,1,.16-.08c.06,0,.08,0,.14-.07s0,0-.05-.14,0,0-.11,0h-.25Z"/><path class="cls-47" d="M268,187.44h0Z"/><path class="cls-47" d="M259.12,184c-.05-.09,0,0-.08,0s-.05-.15-.13-.21l-.13.06s0,.07-.08.07,0,.08,0,.12v.16l.13.18a.55.55,0,0,0,.21-.08c.14-.08,0,0,.1-.1A.26.26,0,0,0,259.12,184Z"/><path class="cls-47" d="M258.75,185l.09.11-.08.15a.92.92,0,0,1,0,.2c0,.08,0,.08,0,.08h.2c.07,0,.34-.16.34-.22s0-.1.08-.14a.25.25,0,0,0,0-.24c-.05-.12,0,0-.05,0a.17.17,0,0,1-.09-.15.14.14,0,0,0-.08-.11l-.24,0a.59.59,0,0,0-.18.09l-.06,0C258.6,184.84,258.75,185,258.75,185Z"/><path class="cls-47" d="M251.33,179.47a1.67,1.67,0,0,1,.21.13c.11.08,0,0,0,0s-.11.07-.17.12,0,.06,0,.3.22.05.22.05h.19a.39.39,0,0,0,.24,0,.75.75,0,0,0,.2-.09c.06-.05.11-.07.14-.12s.18,0,.34,0,.11,0,.15-.1a.17.17,0,0,0,0-.14c0-.07-.07-.13-.07-.21a1.21,1.21,0,0,1,0-.19c0-.08.13-.07.13-.07a.62.62,0,0,0,0-.17c0-.05-.22-.1-.22-.1a.68.68,0,0,0-.21-.11c-.11,0-.09,0-.16,0H252a.22.22,0,0,0-.14.06.6.6,0,0,1-.08.23c-.07.08-.07.06-.15.08h-.25l-.14.13.07.14Z"/><path class="cls-47" d="M252.63,178.36a.81.81,0,0,0,.19.13.08.08,0,0,1,.05.11H253l.11-.05s0,.1,0,.16,0,.19,0,.19h.42l.16.16.11.12a.52.52,0,0,1,.1.2c0,.06,0,.06-.1.09a.19.19,0,0,1-.11,0l-.21.11c-.13.06,0,0,.11.16s-.11.1-.11.1l-.13.08c-.13.08,0,.11,0,.19s.14,0,.21,0h.19a.59.59,0,0,1,.21.12c.08.08-.12.05-.12.05a2.66,2.66,0,0,0-.35.11c-.2.08,0,0-.09,0a.43.43,0,0,0-.19.1c-.07,0,0,.22,0,.22s.32,0,.42,0a.21.21,0,0,0,.14-.07c.06,0,.19,0,.22-.06s.16-.06.16-.06l.21,0,.39,0h.6c.18,0,.26-.07.27-.13s-.06,0-.09-.08a1.24,1.24,0,0,0-.1-.13l.08-.14c.08-.14.18-.14.18-.14l-.11-.21c-.12-.21-.21,0-.27,0s-.08,0-.23-.1,0,0-.06-.05a.79.79,0,0,1-.23-.25c0-.08-.09-.07-.16-.13a2.66,2.66,0,0,1-.36-.38c-.07-.12-.13-.12-.23-.21a.31.31,0,0,1-.09-.21.4.4,0,0,1,0-.17c0-.08.11-.08.09-.23s0,0-.05,0-.09,0-.14,0a.84.84,0,0,1-.24,0c-.11,0-.06-.07-.06-.12s.11-.12.11-.12l.11-.2c.11-.19-.08,0-.08,0l-.18,0h-.32c-.17,0-.11.05-.16.08s-.09.22-.14.27a1.25,1.25,0,0,1-.24.18v.19C252.58,178.35,252.63,178.36,252.63,178.36Z"/><path class="cls-47" d="M253.38,179.31l.16-.06v-.1c0-.1-.12-.07-.12-.07l-.2,0c-.11,0-.06.13-.06.13A.27.27,0,0,0,253.38,179.31Z"/><path class="cls-47" d="M267,175.39a.43.43,0,0,0,.2.08l.23,0s0-.18-.06-.18-.17,0-.18,0,0-.13-.07-.13-.19,0-.19,0a.48.48,0,0,0,0,.12S266.88,175.33,267,175.39Z"/><path class="cls-47" d="M267.3,174.82c.08.05.14,0,.24.13a.47.47,0,0,0,.21.2,2.51,2.51,0,0,0,.28.13c.1.05.07.05.16.05l.37,0c0-.07.13-.13,0-.18a.58.58,0,0,1-.27-.14c-.1-.1-.15-.11-.19-.18s-.16-.19-.13-.24a.76.76,0,0,1,.11-.16c.05-.05-.1-.09.11-.11h.34c.13,0,.16,0,.24,0a.5.5,0,0,1,.16,0h.27l0-.14a.1.1,0,0,0-.1-.1h-.38a2,2,0,0,0-.27,0c-.14,0-.21,0-.35,0a1.07,1.07,0,0,0-.26,0,1.9,1.9,0,0,0-.33,0c-.1,0-.16,0-.16.12s0,.16,0,.23a.24.24,0,0,1-.06.16c0,.05.06-.12,0,.05S267.22,174.77,267.3,174.82Z"/><path class="cls-47" d="M241.65,207.57c0-.18,0-.15,0-.3a.61.61,0,0,0-.12-.35s-.18-.18-.18-.18a.14.14,0,0,0-.15-.15h-.29c-.13,0-.22,0-.28,0a2.63,2.63,0,0,1-.37-.29c0-.06-.48-.32-.67-.53s-.23-.28-.37-.27a1.21,1.21,0,0,1-.37,0,1,1,0,0,1-.34-.17c-.12-.07-.18-.12-.24-.1s-.13.08-.19.12-.11,0-.18.07,0,.18-.13.13-.21-.12-.19-.19,0-.23,0-.23l-.35-.23a.27.27,0,0,1-.31-.07c-.14-.14-.29-.26-.37-.26s-.15-.09-.18,0,.14.05,0,.08-.38.11-.35,0a.94.94,0,0,0,0-.3.67.67,0,0,1-.21-.09c-.07-.06-.22-.06-.22-.17s-.11-.28-.1-.35a2.36,2.36,0,0,0,0-.25,2.76,2.76,0,0,0-.12-.32,1.88,1.88,0,0,1-.26-.51,2.91,2.91,0,0,1-.19-.54.86.86,0,0,0-.25-.39c-.11-.1-.41-.25-.41-.29a.37.37,0,0,0-.31-.2c-.18,0-.18-.09-.33,0a1.34,1.34,0,0,1-.31.12,2.51,2.51,0,0,1-.31-.1l-.61-.29a1.86,1.86,0,0,1-.07-.43c0-.19.09-.24-.06-.31s-.4-.12-.43-.2-.17-.34-.17-.34a.36.36,0,0,0-.18-.23c-.15-.06-.28-.07-.33-.1a1.06,1.06,0,0,0-.23-.17c-.08,0-.23-.19-.35-.19s-.21,0-.27.07a1,1,0,0,1-.16.25.28.28,0,0,1-.2,0s-.1-.21-.16-.24a.59.59,0,0,0-.21-.05s-.07-.23-.19-.06-.09.24-.19.17a3.76,3.76,0,0,1-.29-.25s.1-.34-.06-.4-.3-.05-.33-.14-.06-.12-.06-.19,0-.26-.09-.26-.21-.09-.37,0-.21,0-.24.14,0,.07-.11.3.05.12-.09.23-.09.11-.27.11,0-.12-.18,0l-.25.2c-.09.09-.13.06-.15.15s-.06.31-.09.38a2,2,0,0,1-.24.6c-.11.11-.18-.05-.23-.05s-.08,0-.19-.22-.16-.37-.29-.31-.21-.08-.29.07a.64.64,0,0,1-.28.27,1.73,1.73,0,0,1-.29.05s0,0-.11-.21-.23-.22-.23-.43a3.85,3.85,0,0,1,0-.67c0-.12,0-.39,0-.53s0-.46,0-.46.07-.5-.22-.68-.35-.22-.49-.15a1.52,1.52,0,0,1-.48.06c-.08,0-.28,0-.28-.19a1.84,1.84,0,0,1,0-.43s0,.11.13-.18a1.73,1.73,0,0,0,.1-.51l0-.21V195s0-.15.06-.16.13-.2.13-.2l0-.27.1-.08s-.21-.21-.32-.05a2,2,0,0,1-.5.35c-.13.1-.18,0-.21.16s0,.17-.06.29a1.52,1.52,0,0,1-.11.32c-.07.15-.1.19-.16.23a.4.4,0,0,1-.27.08c-.13,0-.18,0-.21,0s-.05.06-.14.06-.21,0-.21,0,0-.17-.06-.21-.13-.07-.13-.11-.09-.11,0-.2,0-.12,0-.19a1.05,1.05,0,0,1-.18-.44c0-.08-.08-.32,0-.37s0-.23,0-.38.09-.25.1-.28,0-.08,0-.21,0-.28,0-.28l0-.1.15-.29a.51.51,0,0,0,.08-.28,2.25,2.25,0,0,0,0-.38s0-.27,0-.35.07-.1.13-.13a.57.57,0,0,0,.16-.11.64.64,0,0,0,.11-.17s0-.05.09-.05H222l.12-.19a.14.14,0,0,1,.07-.12c.07,0,.07-.06.13-.07a1.6,1.6,0,0,1,.21-.05c.05,0,.07,0,.11,0a1.13,1.13,0,0,1,.15,0l.14,0,.19.1s.1.09.15.05.09-.12.13-.12a.36.36,0,0,0,.15,0s.1,0,.06-.1l-.11-.1s-.06,0-.06-.06a1.16,1.16,0,0,0,0-.16s0-.08,0-.08a.71.71,0,0,1,.26,0,.67.67,0,0,0,.22,0h.38c.07,0,.16,0,.19,0a.54.54,0,0,1,0,.1s.09.1.09.1-.06,0,0,.09.16.06.18,0l.09-.12.07-.06s.21,0,.18.11-.09.11,0,.16.07,0,.07.11a1.45,1.45,0,0,1,0,.3.65.65,0,0,0-.05.18.87.87,0,0,0,0,.23,1.49,1.49,0,0,0,0,.21c0,.06,0,0,.09.13s.05.08.05.13.08.1.09.13a.15.15,0,0,1,0,.08s0,.11,0,.16,0,.07.08.08.11.06.16,0a.52.52,0,0,0,.08-.19c0-.06,0-.06.05-.14a.37.37,0,0,0,.13-.22,2.3,2.3,0,0,0,0-.26v-.31s-.08-.23-.09-.31a1.81,1.81,0,0,1,0-.4c0-.07,0-.27,0-.31s0-.23,0-.28v-.16s.27-.45.3-.52a.36.36,0,0,1,.16-.17,1.25,1.25,0,0,0,.25-.27c.06-.06.08-.17.15-.2l.25-.13a4.91,4.91,0,0,0,.45-.46.58.58,0,0,1,.21-.18.25.25,0,0,0,.13-.15,1.87,1.87,0,0,0,0-.28c0-.15,0-.22,0-.32a1.48,1.48,0,0,0,.11-.35s0-.1,0-.11.08,0,.08.1,0,.11,0,.17.06.11.09.07,0-.14.07-.19l.08-.12s.06,0,.06-.15,0-.31,0-.31,0-.07.08-.08a.62.62,0,0,0,.26-.18l.22-.28c.06-.09,0-.12.15-.16a.37.37,0,0,0,.23-.18c.07-.1,0-.18.1-.21a1,1,0,0,1,.28,0,.42.42,0,0,0,.21,0,.45.45,0,0,0,.1-.23c0-.07,0,0,0-.14a.5.5,0,0,1,.13-.25,5,5,0,0,1,.4-.4l.33-.16c.12-.06.1-.09.2-.14a3.69,3.69,0,0,1,.33-.18c.08,0,.14-.12.22-.13s.1-.14.17,0,.11.1.07.16-.21.22-.21.28,0,.12,0,.15,0,.07,0,.09a1.42,1.42,0,0,0,.5-.31c.07-.08,0-.17.18-.18a1.44,1.44,0,0,0,.4-.1l.23-.09a1.47,1.47,0,0,0,.23-.12.4.4,0,0,0,.17-.14l.1-.15a.27.27,0,0,0,.07-.12s.06-.16,0-.19,0-.12,0-.07-.05,0-.12.1a.7.7,0,0,1-.18.17,1.43,1.43,0,0,1-.2.14.79.79,0,0,1-.16.08c-.12,0-.15,0-.26.07s-.13.08-.15,0a.32.32,0,0,0-.09-.17c-.05-.05-.07-.05-.1-.09s-.09-.08-.07-.16a1.82,1.82,0,0,0,.05-.2c0-.16,0-.18.06-.21s0,0,.09-.11a1.25,1.25,0,0,1,.09-.12s.09-.05.07-.12,0-.15-.09-.16-.1-.1-.24-.07-.13,0-.27.07a1.73,1.73,0,0,1-.28.16c-.11.06-.35.16-.41.2l-.19.13c-.11.07-.19.09-.27.15s-.13.2-.18.12-.11-.1,0-.15a.7.7,0,0,0,.26-.13c.11-.09.11-.13.22-.2a2.21,2.21,0,0,0,.25-.2,1.21,1.21,0,0,1,.23-.14,1.58,1.58,0,0,0,.25-.17c.09-.06,0-.09.16-.16a.61.61,0,0,1,.28-.1l.22,0c.06,0,0-.07.15-.05l.47,0a1.49,1.49,0,0,1,.43-.1c.13,0,.11.05.29,0a1.17,1.17,0,0,0,.29-.11.87.87,0,0,0,.25-.15l.56-.38a.3.3,0,0,1,.22-.1l.22-.06c.09,0,.18-.07.19-.13s0-.24,0-.25.12-.13,0-.18a1.27,1.27,0,0,0-.22-.14.54.54,0,0,1-.15-.1s0-.17-.05-.19a.63.63,0,0,0-.23-.08c-.12,0-.29-.1-.36-.11a.82.82,0,0,1-.17-.11,1.85,1.85,0,0,1-.08-.35c0-.09.07-.2,0-.29s-.14-.07-.17-.16-.15-.24-.15-.31a.29.29,0,0,0-.11-.22c-.09-.08,0-.17-.14-.13s-.15,0-.27.11,0,0-.2.26a1.77,1.77,0,0,1-.39.34c-.1.08-.1.14-.23.06s-.29-.17-.29-.27a1.51,1.51,0,0,1,.06-.33s-.06-.12-.06-.12-.16-.14-.25-.1-.12.18-.24,0-.06-.19-.18-.22-.17-.09-.28-.08a1.21,1.21,0,0,0-.28,0c-.07,0,0,0-.12,0s-.12-.05-.21,0-.11.12-.18.14a.22.22,0,0,1-.13,0c-.11,0,0-.06-.11,0a.86.86,0,0,0-.21.4s0,0,0,.15a1.1,1.1,0,0,1-.13.25s-.06-.13-.14.05a.54.54,0,0,1-.15.22.27.27,0,0,0,0,.15.24.24,0,0,0,.09.17c.05,0,.09,0,.09.1s0,.06,0,.2a1.65,1.65,0,0,1-.08.26c0,.1,0,.18-.13.23a1,1,0,0,1-.32.06,2.55,2.55,0,0,1-.2.25c-.09.08-.2.1-.21.15s-.11-.17-.12,0,.12.23-.07.23a1.76,1.76,0,0,1-.48,0,2.34,2.34,0,0,1-.39-.12s-.12-.07-.12-.13-.13-.1-.17-.2,0-.18-.14-.27l-.33-.27a1.7,1.7,0,0,1-.26-.2.2.2,0,0,0-.17-.12c-.11,0-.16.11-.16,0s-.09-.28,0-.41.12-.2.24-.32.11-.2.22-.31.17-.23.26-.27,0-.08.29-.16a1.69,1.69,0,0,0,.49-.23l.29-.19a1.4,1.4,0,0,0,.2-.17c.1-.11.09-.2.15-.2s.14-.09.16,0a.16.16,0,0,1,0,.15s-.1.06-.13.11a1,1,0,0,0-.11.18s0,.06.09.12l.1.07a.22.22,0,0,0,.17,0c.07-.07.07-.12.14-.16s.09-.09.18-.09.1,0,.13,0,.08,0,.11,0a.34.34,0,0,0,.15,0,.24.24,0,0,0,.1,0s.07,0,.11-.06a.69.69,0,0,0,.13-.07,1.29,1.29,0,0,1-.18-.13s0,0,0-.08a.26.26,0,0,0-.12-.07s-.13,0,0-.09a1.3,1.3,0,0,1,.44,0h.26c.14,0,.16-.1.25,0s.09,0,.1.08,0,.06,0,.08,0,0,.08,0l.23,0a4.07,4.07,0,0,0,.46,0l.27-.07c.06,0,.2-.05.24,0a.27.27,0,0,1,.08.13.49.49,0,0,0,.11.15,2,2,0,0,0,.22.14l.27.08a.36.36,0,0,1,.17,0l.15.09a1.57,1.57,0,0,0,.25,0,.85.85,0,0,0,.14-.09l.13-.16a.28.28,0,0,0-.09-.07l-.21-.11s-.08-.09-.07-.12-.05-.08,0-.05.09,0,.12,0a1.52,1.52,0,0,0,.2.06l.2.08.07,0a1.6,1.6,0,0,0,.36-.13.63.63,0,0,0,.25-.15c.11-.09.15-.15.23-.16l.27-.05a.89.89,0,0,0,.29-.15s0-.09.11-.15a2.79,2.79,0,0,0,.25-.17,1.82,1.82,0,0,0,.22-.16s.11-.08.11-.16,0-.26,0-.26a.23.23,0,0,1,0-.3c.17-.15.22-.15.24-.2s.05-.06,0-.1,0-.09-.07-.1-.15,0-.18-.07-.09,0-.05-.13.05-.15.08-.15a.18.18,0,0,0,.1-.1.67.67,0,0,0,.05-.12v-.12a.44.44,0,0,0-.19-.05c-.07,0-.08,0-.16,0a1.2,1.2,0,0,1-.22-.1s0-.07-.12,0a.64.64,0,0,0-.22.08s0,0-.2,0a2.06,2.06,0,0,0-.38,0l-.32.07c-.12,0-.12,0-.18.05s0,.13-.11.13h-.16s0-.06-.16,0-.19,0-.24.07a.18.18,0,0,1-.13,0,2.45,2.45,0,0,1-.56,0l-.28,0s-.26,0-.19,0,.09-.08.08-.11,0,0-.14,0-.09,0-.24,0a2,2,0,0,1-.33.05.74.74,0,0,0-.18,0,1.2,1.2,0,0,1-.34,0,.61.61,0,0,0-.2.09c-.08.05,0,0-.14.07s-.09.11-.18.16-.15.07-.15,0a.83.83,0,0,0,0-.12s0,0-.12,0a1.16,1.16,0,0,1-.26.06l-.14,0c-.06,0-.31,0-.31,0s-.06-.15.06-.18.15-.08.17-.13,0-.12,0-.14,0-.11,0-.11-.05-.1-.12-.07l-.14.09s0,0-.13.07l-.25.1a.66.66,0,0,1-.23,0l-.13-.05-.34.18c-.16.09,0,.11-.33.12h-1.15c-.14,0-.09,0-.21-.06s-.15,0-.22,0-.1,0-.23.09-.1,0-.21.18,0,.16-.17.22l-.22.09c-.07,0-.07,0-.16,0s-.11,0-.2,0a2.36,2.36,0,0,0-.2.13l-.19.17c-.07.07-.24.09-.29.13l-.11.08s-.73.8-.81.87-.1,0-.18.1-.19.15-.31.19-.14,0-.21.12a3.57,3.57,0,0,1-.54.57c-.15.1-.31.13-.39.24s-.08.06-.18.19a1,1,0,0,1-.36.23s-.25.12-.12-.07c0,0,0-.1-.08-.16a33.76,33.76,0,0,0-2.41,3.16.36.36,0,0,1,.21,0c.14.07.26-.12.31.09s.12,0,.19.32.07.31-.07.43l-.26.24a.58.58,0,0,0-.07.26c0,.14,0,.05.08.06s.06-.08.1,0,.05.05,0,.14,0,.05-.09.14-.1.08-.11.17a1.59,1.59,0,0,0,0,.26,1.29,1.29,0,0,1,0,.25c0,.06,0,.13,0,.18s-.11.07-.13.08a.19.19,0,0,0-.07.11.37.37,0,0,0,0,.11.5.5,0,0,0,0,.18s.09.07.1.1-.08.08,0,.11.11.09.15,0a.34.34,0,0,0,0-.11s0-.1,0-.13.1-.13.14-.05a.27.27,0,0,1,0,.15v.1c0,.05,0,.1,0,.16s0,0-.05.07-.22.07-.25,0-.05-.12-.12,0l-.14.15s-.27.87-.3,1a.75.75,0,0,1-.11.4c-.14.21-.13.17-.18.34a3.51,3.51,0,0,1-.17.42,4,4,0,0,0-.25.65c0,.13,0,1.38-.06,1.6s0,.59.07.61.09-.1.13,0a.91.91,0,0,0,.06.16s0,.73,0,.94a2.76,2.76,0,0,0-.05.5.33.33,0,0,0,.11.17s.09.17.05.27-.05.08-.06.19,0,.11,0,.15-.08-.08-.08.09,0,.2,0,.24,0,0,.07.11a1.33,1.33,0,0,1,.05.19c0,.11,0,.19,0,.27a.34.34,0,0,0,.06.18.54.54,0,0,0,.14.11s.07,0,.08,0,0,0,0-.15-.08-.14,0-.27a1.08,1.08,0,0,1,.06-.19c0-.08,0-.16,0-.38a1.81,1.81,0,0,0-.05-.32c0-.06,0-.19,0-.27a.6.6,0,0,1,0-.23c0-.08-.06-.2,0-.28s0-.18.06-.24,0-.14,0-.21,0-.15,0-.14.1.13.11.2a1.64,1.64,0,0,1,0,.22.42.42,0,0,0,0,.16,3.75,3.75,0,0,0,.07.54c0,.08,0,.14,0,.25s.11.1.13.18a.59.59,0,0,1,0,.2c0,.1.05.54.06.65a.73.73,0,0,0,.07.3c.05.08.1,0,.11.12s0,.15,0,.21.13.1.14.13a.7.7,0,0,1,.09.3c0,.15,0,.19,0,.31a1.47,1.47,0,0,0,0,.21,3.21,3.21,0,0,1-.05.58,1.5,1.5,0,0,0,0,.37s.21.18.24.29a1.57,1.57,0,0,0,.09.23.46.46,0,0,0,.15.16s0,0,.1.07l.14.09s.34.34.42.39.17,0,.21.13a.37.37,0,0,0,.17.13,1.2,1.2,0,0,0,.23.12s.16.16.19,0l0-.13s.07-.07.12-.07,0,0,.09-.08.14-.13.17-.07.07.13.08.16a.7.7,0,0,0,.09.17l.1.11a1.73,1.73,0,0,1,.23.36c0,.1,0,.17.07.2s.13.05.16.09.24,0,.29.05a.46.46,0,0,0,.18.14s0,0,.09,0a.17.17,0,0,0,.11,0h.16c.05,0,.19.05.18.08s.05.19.06.31a.54.54,0,0,0,0,.22c0,.06.09.1.11.15a.33.33,0,0,0,.09.12s0,.27,0,.36a.75.75,0,0,0,.12.28l.1,0s0-.05.07,0,.09.18.15.29a.39.39,0,0,0,.12.17c.05,0,.12.06.14.09a.71.71,0,0,0,.2.19s.1,0,.13,0,0,0,.05.07.16.06.17.09a1.31,1.31,0,0,0,.07.13s.11,0,.12.06a.08.08,0,0,0,.08,0s.11,0,.08-.09-.08-.12-.08-.16,0-.13,0-.16-.07,0,0-.09.05-.11.08-.12l.07-.05a.41.41,0,0,0,.1-.13s0-.09.06-.07.07.14.09.16,0-.05.07.07a.35.35,0,0,1,.05.23,1.39,1.39,0,0,1,0,.17c0,.08.13.23.13.23a1.08,1.08,0,0,1,.14.15s.08.1.08.18a1.8,1.8,0,0,0,0,.2s.19,1,0,1.08a.4.4,0,0,0-.14.38.42.42,0,0,1-.15.26s-.25.47-.27.53a.79.79,0,0,1,0,.13c0,.07-.14.1-.16.17s0,.05,0,.11a3.9,3.9,0,0,0-.11.56c0,.22,0,.51,0,.6s0,.12.07.15.1.06.08.11,0,.12,0,.13.06,0,.06.07a.18.18,0,0,1,0,.14.9.9,0,0,1-.11.1s0-.05,0,0a1.55,1.55,0,0,0-.12.22l-.06.12a.58.58,0,0,0,0,.18,1.23,1.23,0,0,0,0,.13.68.68,0,0,1,.16.26c0,.1,0,.1,0,.21s.09.13.1.16a2,2,0,0,1,.23.26,1.06,1.06,0,0,1,.06.19c0,.07.14.14.14.17s.09.1.09.17a.81.81,0,0,0,0,.19s.47,1.05.51,1.21,0,.17.13.29l.13.12.11.32c0,.07,0,0,.09.1a.33.33,0,0,1,.07.13.41.41,0,0,1,0,.12c0,.06,0,.1,0,.12a1.85,1.85,0,0,0,.3.57c.14.15.3.23.32.27s.44.23.45.3.07.07.11.13l0,.05a3,3,0,0,1,.25.28.4.4,0,0,0,.14.15.83.83,0,0,0,.2.08s0,0,.07.11a.24.24,0,0,0,.07.13.26.26,0,0,1,.12.07,1.28,1.28,0,0,1,.13.39s0,0,0,.11,0,.11,0,.19a2.18,2.18,0,0,0,0,.25c0,.07.07.13.08.19a1.11,1.11,0,0,1,0,.19c0,.08,0,.2,0,.28a.66.66,0,0,0,0,.2,2.78,2.78,0,0,1,.08.38,2.54,2.54,0,0,0,0,.51,4.58,4.58,0,0,1,.18.62c0,.07,0,.09,0,.22v.22a4.8,4.8,0,0,1,.08.71c0,.09,0,.16,0,.2s0,0,0,.05a.35.35,0,0,1,0,.19c0,.06,0-.12,0,.06s-.06.25-.05.28a.8.8,0,0,0,.08.14,2.85,2.85,0,0,1,.12.51,1.36,1.36,0,0,0,.06.33c0,.05.06,0,.06.16s0,.29,0,.35v.19s0,.51,0,.6-.13,0-.15.11,0,.16,0,.24.16.12.17.17a.55.55,0,0,1,0,.16s.23.74.24.9V222c0,.19,0,.19,0,.24a1.07,1.07,0,0,1,.17.43c0,.18.07.17.09.27s0,.11,0,.18a.91.91,0,0,1,0,.12s0-.09,0,.05,0,.09,0,.19,0,.14.12.15h.08s.09-.05.1.1-.05.06-.06.18-.05.12,0,.23a2.14,2.14,0,0,0,0,.24s.39.61.44.69,0,.12.12.22a.85.85,0,0,0,.22.14c.09.06.22,0,.26.1a.22.22,0,0,0,.09.09s.14-.06.15,0-.08.1-.08.1,0,0,0,0,.06.07.12.13.31.13.37.22.14.09.2.15a.55.55,0,0,0,.16.09l.23.08s.3.18.43.15a1.35,1.35,0,0,1,.33,0s.15.12.18,0a.12.12,0,0,1,.19-.06c.11.06.18.13.19.06s.08-.09,0-.14a.35.35,0,0,0-.14-.13,2.07,2.07,0,0,1-.24-.17l-.21-.13c-.11-.07-.17.05-.27-.18a1.56,1.56,0,0,0-.13-.32c-.08-.13-.25-.16-.33-.33a1.18,1.18,0,0,0-.18-.29l.13,0a1.26,1.26,0,0,0,.08-.34.21.21,0,0,1,.11-.09c.08,0,.24,0,.16-.16a1.26,1.26,0,0,0-.14-.21c-.18-.24,0-.26-.18-.24h-.25s-.21-.07-.23-.19,0-.24,0-.24l.19-.12s.07.07.12,0,0,0,0,0,.18,0,.23,0,.11-.16.08-.26-.13-.26-.15-.32a.48.48,0,0,0-.05-.27c-.07-.19-.2-.27-.2-.34s-.08-.2,0-.2a.41.41,0,0,1,.19.09.89.89,0,0,0,.17,0c.06,0,.06.09.15.08s0,.11.08,0l.1-.12s.09-.21,0-.29a.61.61,0,0,1-.09-.16c0-.1-.09-.15-.08-.2a.1.1,0,0,1,.15-.09.94.94,0,0,0,.29.06c.12,0,.14,0,.27,0s.14.09.21.05a.54.54,0,0,1,.24-.1.2.2,0,0,0,.16-.11c0-.06,0-.09,0-.12a.33.33,0,0,0,.14-.19c0-.09.14-.21,0-.35l-.18-.21c-.06-.09-.26-.32-.29-.39a1.16,1.16,0,0,0-.17-.24s0-.3,0-.22.14.21.2.28.1.06.2.14a1.45,1.45,0,0,1,.21.22c.07.09.11.15.19.14a.72.72,0,0,0,.25-.18c.08-.07.08-.11.2-.11s.29-.27.33-.33a.39.39,0,0,0,.11-.26c0-.14,0-.25,0-.25a2.39,2.39,0,0,0,.17-.34c.06-.15.07-.15.07-.25s-.05-.19,0-.23,0-.08.11-.07a.55.55,0,0,1,.2.11.18.18,0,0,0,.15.05c.07,0,.1-.08.1-.24s-.13-.16,0-.3.18-.22.21-.25a.25.25,0,0,0,.09-.2c0-.1,0-.37,0-.54a2.86,2.86,0,0,1,0-.49,2.08,2.08,0,0,1,.17-.33c0-.11,0-.18.06-.25s0-.15.19-.15.15-.12.36-.2a1.94,1.94,0,0,1,.45-.11c.16,0,.11-.06.2-.12a.72.72,0,0,1,.37-.07l.2,0c.09,0,.17-.11.23-.19s.14-.18.18-.19a.2.2,0,0,0,.11-.1c0-.06,0-.37,0-.42s.09-.13.17-.26a1.71,1.71,0,0,0,.14-.29s.06,0,.06-.15v-.35a1,1,0,0,1,.05-.35.52.52,0,0,0,.1-.32,7.86,7.86,0,0,0,0-.84,1.35,1.35,0,0,0,0-.31c0-.13-.09-.18-.07-.29a1.84,1.84,0,0,1,0-.29.31.31,0,0,1,.15-.15c.05,0,.07-.11.12-.18s0-.18.1-.21a.32.32,0,0,0,.14-.1,2.11,2.11,0,0,1,.08-.22c0-.07.07-.23.1-.28s.06-.12.11-.14,0-.06.15-.16a4.52,4.52,0,0,0,.28-.37c.06,0,.12-.24.12-.24a.34.34,0,0,0,.17-.21c0-.16.07-.11,0-.36S241.65,207.75,241.65,207.57Z"/><path class="cls-47" d="M272.46,175.49l0,0c-.07.06-.05.1-.05.1a1.22,1.22,0,0,0-.17.19c-.05.07,0,0-.17,0s-.06.1-.06.1l.12.18c.06.09,0,.12,0,.12a.39.39,0,0,1-.18,0c-.05,0-.05-.06-.07-.13s-.1,0-.17,0,0,0-.11,0a.56.56,0,0,0-.2,0c-.08,0,0,.07,0,.07l.07.17.3.13c.17.07.1.14.1.14s.12.13.1.18-.09,0-.17,0a.53.53,0,0,1-.23,0,.16.16,0,0,1-.13-.12,2,2,0,0,0-.28-.43,2.08,2.08,0,0,1-.4-.37c0-.06-.11-.14-.18-.26a.21.21,0,0,0-.23-.11l-.19,0,.11.29a1.22,1.22,0,0,1,.11.24s-.06,0-.12,0-.13-.07-.16-.07a1.93,1.93,0,0,1-.34-.09c-.07,0-.06-.05-.11-.09s0-.06-.06-.13-.07-.1-.13-.17-.17,0-.23,0,0,.1,0,.14a1.21,1.21,0,0,0,.15.28l-.58,0a2,2,0,0,0-.27,0c-.09,0-.1-.09-.11-.13s-.19,0-.19,0a.7.7,0,0,1-.24,0,.69.69,0,0,0-.26,0,2.83,2.83,0,0,0-.42.13c-.09,0,0,0,0,0h-.12c-.05,0-.1-.07-.11-.13s0,0-.12-.14-.19.06-.25.08,0,.13,0,.17a.66.66,0,0,0,.09.15,2.93,2.93,0,0,1-.36.08h-.18c-.06,0-.06,0-.15,0s-.06.06-.09.1a.62.62,0,0,1-.14.06s0,.07,0,.13-.05.06-.09.08-.19,0-.19,0l-.06,0-.1,0a.75.75,0,0,0-.22,0c-.06,0,0,.08,0,.08a.8.8,0,0,1,.24.23c.09.14-.09.09-.16.09a.79.79,0,0,1-.29-.11,1.13,1.13,0,0,1-.2-.13,1.25,1.25,0,0,1-.19-.15c-.06-.06-.06-.1-.12-.19a1.4,1.4,0,0,1-.15-.33c0-.11-.08,0-.08,0l-.17-.06-.38-.22c-.06,0,0-.11,0-.11l.24.07a1.6,1.6,0,0,0,.34.1c.27.06.2.08.25.11a1,1,0,0,0,.29.07,2.62,2.62,0,0,0,.5.1c.24,0,.06,0,.14,0s.17,0,.21-.07a.5.5,0,0,0,.05-.13c0-.06-.09,0-.15-.08a.24.24,0,0,1-.08-.08l-.24-.1a.13.13,0,0,0-.13,0l-.4-.24a2.07,2.07,0,0,0-.2-.08c-.09,0-.11,0-.11,0a1.11,1.11,0,0,1-.3-.1,1.12,1.12,0,0,0-.29-.12l-.85-.2a2,2,0,0,1-.27,0,.57.57,0,0,1-.23-.08c-.07-.05,0-.06,0-.18s-.06,0-.13,0-.55-.12-.55-.12h0l-.14,0h-.44c-.06,0-.13-.11-.27-.09s-.09.06-.09.1a2.77,2.77,0,0,1-.75,0,1,1,0,0,0-.23,0h-.4c-.23,0-.06,0-.08.06a1.85,1.85,0,0,1-.31.16,1,1,0,0,0-.2,0c-.11,0-.07,0-.16,0l.13.08.07,0a.33.33,0,0,1-.15.07c-.07,0-.1.09-.23.12s-.09.11-.17.16,0,.07-.15.23-.08.2-.16.27-.36.27-.36.27a1,1,0,0,1-.18.17,1.06,1.06,0,0,1-.31,0,1.65,1.65,0,0,0-.32.12,2,2,0,0,1-.34.13c-.16,0-.17.09-.29.14s0,.13-.15.33,0,.18,0,.23.22.2.22.2a.42.42,0,0,1,.09.22v.19s.09.1.09.1l.12.21.61.05c.48,0,.3-.19.3-.19l.06-.05.13-.11a1.44,1.44,0,0,1,.29-.09.3.3,0,0,1,.19.08s.23.22.26.26a.35.35,0,0,1,.05.15l.19.09c.07,0,.1.11.11.24s.12.16.11.25,0,0,0,.08-.07,0-.17.08,0,0-.06.05,0,.07-.07.14,0,0,0,.07.1.23.1.23a.31.31,0,0,0,.2-.11c.08-.09,0,0,0,0s.06-.06.11-.18,0,0,0,0a.19.19,0,0,1,.16.08s.11,0,.17,0,.08,0,.14-.08.08,0,.11-.09.19,0,.24-.08.06,0,.09,0,.3,0,.35-.1,0-.08,0-.11a.65.65,0,0,1-.1-.22.63.63,0,0,1,.12-.4c.07-.09,0,0,.06,0a.37.37,0,0,1,.2-.06s.06-.09.06-.12a1.84,1.84,0,0,0-.06-.23l-.08,0-.18-.13c-.18-.13-.1,0-.17,0a.44.44,0,0,1-.24-.13c-.06-.06,0-.23,0-.4s.08-.15.12-.22.08,0,.18-.09.08-.09.14-.15.16,0,.25,0,.1,0,.13-.13a.29.29,0,0,0,.05-.18c0-.08.05-.13.07-.22s0,0,.23-.06a.6.6,0,0,1,.32,0c.09,0,.06,0,.06,0l.23.1a.9.9,0,0,1,.17.14l-.09.05c-.08,0,0,0,0,.08s0,0-.06.06a2.06,2.06,0,0,1-.23.17l-.17.1s-.1.07-.15.09,0,.08,0,.13a.45.45,0,0,0,0,.16,1.44,1.44,0,0,1,.16.21c.06.1,0,.16,0,.24s.08,0,.21.1a.9.9,0,0,1,.25.19c.07.07.13.07.28.07a.42.42,0,0,0,.21,0,.89.89,0,0,1,.29-.05,2.16,2.16,0,0,1,.36,0,.47.47,0,0,0,.25,0c.08,0,.14,0,.2,0s.1.11.1.11l.24.07c.18,0,0,.08,0,.08a1.43,1.43,0,0,0-.28.08l0,0a.86.86,0,0,1-.16,0,1.37,1.37,0,0,1-.19,0c-.1,0-.06,0-.1,0s-.31-.05-.41-.05h-.1a.32.32,0,0,0-.16,0c-.07,0,0,.14,0,.14a1.06,1.06,0,0,0,.05.19c0,.07,0,0,.14.06s.06.06.06.06.19.18.18.23a.54.54,0,0,1-.11.13.36.36,0,0,1-.17.06.08.08,0,0,1-.07,0s-.15-.06-.16-.09-.08-.05-.12-.16-.13-.05-.18-.05-.15.3-.15.3,0,.21,0,.28.12.07.17.09.09.26.09.3-.08,0-.22,0-.15,0-.18.05-.09.12-.12.12h-.17a.18.18,0,0,1-.16-.11c0-.07-.18-.08-.24-.11s-.12.05-.18.06a.58.58,0,0,0-.27.18c-.07.11-.48.16-.52.15l-.09,0s-.2-.1-.23-.16-.1-.05-.16-.08-.06.05-.09.08-.09.12-.14.14a.8.8,0,0,1-.26,0c-.13,0-.1,0-.21-.06s-.11,0-.16,0a.31.31,0,0,1-.24-.1.2.2,0,0,1-.07-.17c0-.06-.06-.08-.06-.12a1.57,1.57,0,0,0,0-.16l.12.07c.06,0,.09.08.15.08s.08,0,.11-.06-.05-.12-.05-.15-.15-.14-.15-.14l0-.09.08-.05c.09,0,0-.11,0-.11s-.12-.13-.12-.2a.23.23,0,0,0-.06-.16s-.2,0-.2,0-.06.1-.12.1-.12.09-.12.09l-.16.14s0,.18,0,.27.25.33.26.36a1.07,1.07,0,0,1,.05.29c0,.18-.06,0-.1,0s-.2.15-.34.1a.72.72,0,0,0-.3,0c-.1,0-.12.18-.14.22a1.37,1.37,0,0,0,0,.25.76.76,0,0,1-.14.16.55.55,0,0,1-.22,0h-.1a1.51,1.51,0,0,1-.35.25c-.11,0-.23.12-.34.16s-.09.13-.17.23-.07.08-.19.13a.49.49,0,0,0-.22.13.87.87,0,0,1-.36.08.18.18,0,0,1-.14-.07l-.07-.07c-.07-.07-.06,0-.13,0s0,.21,0,.26-.05.09-.15.14,0,0,0,0a.52.52,0,0,1-.24-.06c-.1-.05-.14,0-.23,0s-.07,0-.14,0-.22,0-.28,0,0,.22,0,.22l.22.16c.15.11.1.14.1.14a1.76,1.76,0,0,0,.3,0c.12,0,.14,0,.19,0s.18.14.18.14a1.93,1.93,0,0,0,.24.26l.21.16v.28s-.07.36-.08.39-.06.33-.06.33-.07.14-.14.14-.25,0-.37,0a1.13,1.13,0,0,1-.26,0h-.38c-.14,0-.3,0-.44,0s-.15,0-.24,0-.09-.06-.15-.11a.63.63,0,0,0-.26-.07c-.06,0-.08.07-.17.12s-.14.12-.22.13-.09,0-.15.09,0,.15-.06.22.09.14.09.14l.1.08a.88.88,0,0,1,.08.3,2.21,2.21,0,0,1,0,.26,1.09,1.09,0,0,1-.11.41c-.1.15-.07.11-.13.16s0,.12,0,.16a.71.71,0,0,0,0,.15l.19.21a.16.16,0,0,1,0,.15,2.16,2.16,0,0,1,0,.27c0,.16.1.11.16.14a.75.75,0,0,0,.23,0h.25c.09,0,.17.08.21.1s.07.1.09.14,0,.06,0,.12.14,0,.14,0a1.62,1.62,0,0,0,.33,0,.48.48,0,0,0,.2-.14c.05,0,.12,0,.2-.11a.17.17,0,0,1,.18,0s.36,0,.47,0,.22,0,.28,0l.2-.13c.1-.07.12,0,.17-.09a2.11,2.11,0,0,0,.15-.19l.16-.19a.26.26,0,0,0,0-.19c0-.05,0-.08-.09-.18s0,0,0-.17a.81.81,0,0,1,.07-.31,1,1,0,0,1,.14-.16c.1-.09.11-.05.19-.09a.28.28,0,0,0,.14-.17c0-.07.22-.1.27-.13s.17,0,.25-.09,0,0,0-.06a.38.38,0,0,0,0-.15,1,1,0,0,1,0-.17c0-.07,0-.09.05-.14a1,1,0,0,1,.13-.14H257c.15,0,.15,0,.15,0l.32.1c.22.08.23,0,.23,0a.27.27,0,0,0,.12,0s.06-.08.11-.17.15,0,.22,0a.58.58,0,0,0,.23-.18c0-.07.19,0,.29,0s.18.11.26.14a3.46,3.46,0,0,1,.34.22,1.91,1.91,0,0,1,.23.28.64.64,0,0,0,.24.22,2.76,2.76,0,0,0,.25.21c.05,0,.26.21.26.21l.6.26c.18.07.13.09.19.13a1.12,1.12,0,0,1,.29.23,1.05,1.05,0,0,1,.2.28.43.43,0,0,1,0,.23.47.47,0,0,1-.1.1.41.41,0,0,1-.21.09H261a.25.25,0,0,1-.13,0,.67.67,0,0,0-.24-.05.1.1,0,0,0-.1.12s0,.23,0,.27.16.12.2.13.12.06.27.11,0,.14,0,.17.29,0,.38-.07,0-.07,0-.07,0-.17,0-.26,0,0,.06-.07.11,0,.17,0a.27.27,0,0,0,.12-.07,1.41,1.41,0,0,1,.09-.27s.06,0,.06-.1v-.19c0-.07-.06-.11-.09-.17a.31.31,0,0,1-.06-.21c0-.1.07,0,.12,0a1.1,1.1,0,0,0,.23.09.2.2,0,0,0,.16,0l.07-.06c.08-.06-.06-.13-.09-.19s-.23.07-.54-.22a.85.85,0,0,0-.58-.26l-.14-.05c-.14,0-.19-.24-.33-.43s0,0-.17-.14a2.42,2.42,0,0,1-.39-.36.74.74,0,0,1-.21-.43c0-.17.14-.15.14-.15l.15.05a1.87,1.87,0,0,0,.38.12c.14,0,.14,0,.14,0l.17.07s.24.27.36.43.24.13.38.2a2.29,2.29,0,0,0,.44.09,1.41,1.41,0,0,1,.45.46c.05.09,0,.19,0,.31s.29.36.34.43.09.22.14.31a3.45,3.45,0,0,0,.38.39,1,1,0,0,1,.24.43c.05.14,0,.19,0,.38s.2.19.39.15,0,0,0-.24,0,0,.1-.12,0-.17,0-.24.12-.05.05-.24a1.32,1.32,0,0,1-.24-.22c-.12-.14,0-.36,0-.5s0,0,.24-.1,0,0,.07,0a1.27,1.27,0,0,1,.34,0c.07,0,.34.24.34.24l.09.34.24.24V186c0,.1.12.1.19.15a.83.83,0,0,1,.22.33c0,.1.31.2.43.27a.85.85,0,0,0,.41.07.75.75,0,0,0,.31-.1c.12,0,.19.15.19.15l.34.24a1.33,1.33,0,0,0,.45-.05c.24-.07,0,0,.15-.12s.21-.07.36-.07,0,.21,0,.21.19.36.28.48,0,.27,0,.46a2.28,2.28,0,0,0-.05.57,1.44,1.44,0,0,1-.1.6.59.59,0,0,1-.33.12.77.77,0,0,1-.34,0c-.14,0-.12,0-.24-.17s-.14,0-.22,0a2.09,2.09,0,0,0-.28.17,1.12,1.12,0,0,1-.6-.09s-.6-.17-.82-.27-.21,0-.36-.05a.47.47,0,0,1-.31-.12,1.49,1.49,0,0,1-.41-.33c-.11-.17-.36-.05-.52-.05a.73.73,0,0,0-.46.17c-.17.12,0,.21,0,.21a1.2,1.2,0,0,1,.15.32.33.33,0,0,1-.08.24c-.07.09-.21.07-.26.21s-.26.12-.26.12l-.34-.31a5.47,5.47,0,0,1-.79-.31c-.19-.12-.17-.12-.17-.12s-.17-.15-.19-.24a.32.32,0,0,0-.12-.17l-.57-.22a3.18,3.18,0,0,1-.53-.14c-.19-.09,0,0,0-.07s-.43-.24-.43-.24a.69.69,0,0,1-.09-.43c0-.19,0,0,.07-.07s0-.22,0-.29-.15-.14-.15-.27,0-.14,0-.23-.17-.2-.24-.29-.26.05-.43.07a.45.45,0,0,1-.31-.1h-.48l-.15.12c-.14.12-.16,0-.26.07a.59.59,0,0,1-.34,0c-.12-.05,0,0-.12-.15s0,0-.21,0-.17.16-.17.16h-.48c-.24,0-.29.08-.29.15a8,8,0,0,1-1.19.41l-.44.12-.45,0a.23.23,0,0,1-.29-.21c0-.15-.24-.1-.38-.1s-.12.1-.17.17,0,.14-.07.41,0,0-.1.14-.6.22-.79.41a.49.49,0,0,0-.19.38c0,.12,0,.29-.05.7a1.24,1.24,0,0,1-.53.72,1.06,1.06,0,0,1-.38.21c-.26.1-.19.12-.29.17s-.09.17-.21.31a1.3,1.3,0,0,1-.27.29,4.64,4.64,0,0,0-.36.41c-.14.17,0,.5-.21.84a2.12,2.12,0,0,1-.6.62,2,2,0,0,1-.19.67c-.12.15.09.26.14.41a1.5,1.5,0,0,1,.12.45c0,.15-.07.29-.07.48s.21.24.19.58a5,5,0,0,1-.26,1.05c-.08.22-.05.27-.1.36a.47.47,0,0,0-.05.19,1.69,1.69,0,0,1,.1.41.4.4,0,0,1,0,.22,2.19,2.19,0,0,1-.19.53c-.14.26.36.23.53.4s.45.34.69.58a.83.83,0,0,1,.29.57,4,4,0,0,0,.67,1.2c.17.15.36.27.53.43s.31.24.31.32a2.08,2.08,0,0,0,.79.47.85.85,0,0,0,.46,0c.12,0,.24-.12.48-.28s.35,0,.57,0h.58c.21,0,.28.17.43.17s.16,0,.33-.14a3.1,3.1,0,0,0,.41-.36c.19-.22.26,0,.43-.1s.6-.07.87-.17.62-.05.69.1a2.78,2.78,0,0,0,.36.43,1.56,1.56,0,0,0,.34.07c.11,0,.24.36.31.46s.26,0,.33-.05a2.62,2.62,0,0,1,.36-.15c.12,0,.43.41.43.41l.17.43a2.39,2.39,0,0,1-.12.7,2.11,2.11,0,0,1-.24.57c-.07.08-.05.12-.21.39s.28.67.28.67a3.51,3.51,0,0,0,.34.53,7.45,7.45,0,0,1,.45.6,5.68,5.68,0,0,1,.29.91,2,2,0,0,1,.17.5c0,.14,0,.36,0,.7a1,1,0,0,0,.19.57l0,.46a1.3,1.3,0,0,1-.09.55c0,.14-.22.33-.34.57a2.61,2.61,0,0,0-.22.72c0,.27-.26.91-.28,1s-.1.43-.1.43a2.9,2.9,0,0,0,.38.76c.32.48.1.46.1.65s.12.24.24.46.05.26.05.43a4.74,4.74,0,0,1-.1.69,4.8,4.8,0,0,0,0,.82v.67c0,.26.22.29.36.43a.66.66,0,0,1,.19.48,4,4,0,0,0,.14.5,4.19,4.19,0,0,1-.24.7c-.14.38.12.33.12.33l.22.53a1.75,1.75,0,0,0,.5-.09c.12-.08.31-.13.46-.22s.29.05.48,0,.21-.05.36-.12.36,0,.43-.05a4.44,4.44,0,0,0,.57-.21,2.52,2.52,0,0,0,.65-.43c.22-.22.17-.27.36-.58s.17-.17.58-.6a1.43,1.43,0,0,0,.43-.67c.17-.34,0-.14.24-.5s.05-.19.07-.51.43-.24.53-.31a4.35,4.35,0,0,0,.54-.25c.1-.08,0-.2.07-.36s.14-.18.19-.35a3.35,3.35,0,0,0-.13-.82.86.86,0,0,0,0-.16.77.77,0,0,1,0-.38c.05-.2.13-.11.16-.21s.48-.38.49-.48.14-.07.18-.13.07-.05.35-.36.15,0,.21-.08a4,4,0,0,0,.47-.16c.3-.13.49-.9.49-.9s0-.57,0-.82.16-.73.14-.82a2.19,2.19,0,0,1,0-.29c0-.14,0-.12-.07-.22l-.11-.23c-.06-.13,0-.2,0-.36a7.1,7.1,0,0,0,0-.91.41.41,0,0,0-.1-.22,2.38,2.38,0,0,0-.16-.25c-.08-.1,0-.24.13-.48s.08-.13.14-.26.1-.06.19-.18a5.92,5.92,0,0,0,.27-.58c.14-.27,0,0,.07-.09s.06-.08.23-.21A8.24,8.24,0,0,0,272,204l0-.17c0-.17.18-.18.24-.3a.69.69,0,0,1,.2-.24l.84-.64a1.07,1.07,0,0,0,0-.21v-.27c0-.16,0-.11.23-.34s.1-.17.2-.49.4-1.63.4-1.63a1.5,1.5,0,0,1,0-.24,1.58,1.58,0,0,1,.07-.34,1.55,1.55,0,0,0,.05-.34.79.79,0,0,0,0-.16.45.45,0,0,0,0-.18c0-.07-.15,0-.15,0a.28.28,0,0,1-.1.11c-.06,0,0,.12-.11.21s-.08.06-.21.06a.79.79,0,0,1-.24,0c-.1,0-.07.08-.16.21s-.18,0-.25-.05a.25.25,0,0,0-.22.08,2,2,0,0,1-.28.15.22.22,0,0,1-.22-.06c-.06-.07-.26-.18-.34-.31a.54.54,0,0,1-.1-.31,1.79,1.79,0,0,0,0-.34,3.35,3.35,0,0,0-.46-.73,1.79,1.79,0,0,1-.18-.27c-.08-.12-.09-.07-.22-.21a1.18,1.18,0,0,1-.19-.32,2.24,2.24,0,0,1-.19-.35c0-.05-.1-.22-.15-.4s0-.2-.06-.41-.12-.14-.17-.21-.11-.07-.19-.21a.52.52,0,0,1,0-.32c0-.12-.27-1-.27-1s-.18-.26-.29-.39a1,1,0,0,1-.13-.2,5.43,5.43,0,0,0-.18-.59,2.73,2.73,0,0,0-.39-.71,2.28,2.28,0,0,1-.21-.5,1.21,1.21,0,0,0-.13-.32c-.06-.12-.15-.24-.19-.31a.42.42,0,0,0-.16-.17c-.08-.07-.07-.15-.07-.24s.06-.1.1-.1.08.06.13.15a1,1,0,0,0,.23.19c.06.05,0,.07.09.13s.09,0,.1,0a1.29,1.29,0,0,0,0-.23c0-.09.09-.07.09-.07h.08c.08,0,0,0,0,.11a.23.23,0,0,0,.05.16.75.75,0,0,1,.07.19.68.68,0,0,0,.1.2,3.84,3.84,0,0,1,.31.41c.1.18.1.2.16.31a4,4,0,0,1,.3.55c0,.05.11.15.16.23s.08.12.11.18a1.76,1.76,0,0,0,.14.26,2.36,2.36,0,0,1,.25.44c.08.19.05.21,0,.55s.13.16.19.22.74,1.33.76,1.39a2.06,2.06,0,0,0,.19.35,2.37,2.37,0,0,1,.15.34,2.45,2.45,0,0,1,.11.6c0,.27.08.19.1.38s0,.12,0,.31.23.19.31.33.17.09.24.12.17-.12.22-.2.14,0,.27-.08,0,0,0,0,.08-.12.11-.18.25,0,.34,0,.29-.24.44-.3.38-.42.38-.42a.77.77,0,0,0,.11-.16.87.87,0,0,1,.11-.22,1.22,1.22,0,0,0,.11-.24c0-.1.44,0,.56-.06s0,0,0-.22.08-.12.11-.15a2.13,2.13,0,0,0,.3-.34c.19-.25,0-.13,0-.2a1.23,1.23,0,0,1,.15-.54.63.63,0,0,0,.12-.35c0-.08,0-.22,0-.32s-.06-.14-.09-.27-.09-.11-.12-.18-.12-.06-.14-.12-.26-.2-.32-.3a.34.34,0,0,0-.15-.14c-.08-.06,0-.06-.08-.14a.54.54,0,0,1-.06-.33.26.26,0,0,0-.13-.21l-.21.25a2.44,2.44,0,0,1,0,.37c0,.11-.2,0-.3,0a.68.68,0,0,1-.37-.17c-.14-.09-.08-.09-.14-.2s0-.06-.07-.22l-.07-.2c-.07-.21-.1,0-.13,0s0,.19-.06.24-.07-.13-.15-.38-.09-.18-.14-.28a4.36,4.36,0,0,1-.17-.47c-.07-.19-.19-.26-.24-.38s-.09-.13-.18-.32,0-.28.07-.42.1-.07.16-.11.2.16.2.16a3.76,3.76,0,0,1,.33.37c.07.11.13.17.13.25s.36.38.43.54.39.25.53.31.21,0,.3,0,.15,0,.2.08a.76.76,0,0,1,.15.35c0,.11.08.1.46.28a3.42,3.42,0,0,0,.87.24,2.49,2.49,0,0,0,.58.06c.15,0,.12-.05.22-.06s.08.17.08.17l.07.24.35.42c.15.17.07.12.11.19s.17.13.17.18a.29.29,0,0,1,0,.14,1.69,1.69,0,0,0,0,.22l0,.23c0,.11.21.21.33.29s.07,0,.09-.08,0-.06.09-.13.13.07.2.17,0,.18,0,.39a2.43,2.43,0,0,0,.16.74s0,.37,0,.46a1.11,1.11,0,0,0,.17.4.76.76,0,0,1,.09.37c0,.11.12.24.12.49s0,.54,0,.63.21.74.21.87a4.08,4.08,0,0,0,.12.61,1.45,1.45,0,0,1,0,.37.34.34,0,0,0,.05.14s.07.33.22.31.09-.08.09-.12,0-.34,0-.34l0-.14a1.77,1.77,0,0,1,.15-.33c.12-.21,0,0,.05-.1s0-.09,0-.16a1.16,1.16,0,0,0,.08-.29,7.47,7.47,0,0,0-.19-1.18,5.77,5.77,0,0,1-.07-.67c0-.21.05-.13.13-.22s0-.16,0-.26a2.31,2.31,0,0,1,.1-.4,2.13,2.13,0,0,1,.12-.29,4.12,4.12,0,0,0,.08-.49c0-.18,0-.26.08-.49s.05-.19.09-.26.07,0,.25-.09,0,0,0-.08a.63.63,0,0,1,0-.21c0-.12.1,0,.1,0s0,.2.07.31a1.77,1.77,0,0,1,0,.31,2.55,2.55,0,0,0,.08.36c0,.11.15.27.18.42l.11.38a3.73,3.73,0,0,1,0,.59l.08.24c.05.14.15.09.15.09a.51.51,0,0,1,.14.11c.06.07,0,.11,0,.27a1.72,1.72,0,0,1,0,.27c0,.06,0,.19,0,.53a.92.92,0,0,1,0,.31c0,.12,0,.12,0,.22a.26.26,0,0,0,.05.19s.12,0,.17,0,.11-.07.12-.15.09,0,.16.07.06.06.08.14a1.3,1.3,0,0,1,.05.31c0,.18.06.11.14.22s.15.11.15.11.07.35.12.49.06.09.1.09A35,35,0,0,0,272.46,175.49Zm-6.55,9.75a.46.46,0,0,1-.18.06s-.09-.1-.14-.11l0,0h-.21l-.1-.16a.1.1,0,0,1,.09-.07c.06,0,.09-.06.19,0l.09.07.16.06.11.08S265.94,185.19,265.91,185.24Zm3.69-.39c0,.1,0,0,0,.21s-.05.1-.1.14a.23.23,0,0,1-.14.05,3.63,3.63,0,0,1-.5,0c-.12,0-.11,0-.22,0a.47.47,0,0,1-.3-.11c-.12-.08-.15-.08-.23-.22s-.08,0-.24-.07-.25,0-.33-.09-.28,0-.39,0a.69.69,0,0,0-.25,0c-.18,0-.16.17-.26.28s-.14,0-.3,0a1.63,1.63,0,0,1-.47-.16,2.5,2.5,0,0,0-.3-.14,1.15,1.15,0,0,1-.3-.26c-.15-.16-.08-.1-.18-.21s0-.24,0-.33.06-.15.18-.32a1.43,1.43,0,0,1,.14-.23c.08-.09.06-.16.1-.27a.83.83,0,0,0,0-.27c0-.11.1-.16.32-.32s.17.08.17.08.24.16.29.21.19.05.27.05.08.09.08.14a.6.6,0,0,1-.09.22c0,.05.13.18.17.24s.1,0,.32,0,.15,0,.19,0,.24,0,.31-.1,0,0-.1-.11l-.09-.13c0-.05-.07-.06-.08-.11a.53.53,0,0,1,0-.19.48.48,0,0,1,.05-.18c0-.06.21,0,.33-.06a1.61,1.61,0,0,1,.23-.08.81.81,0,0,1,.22,0h.19a.75.75,0,0,1,0,.23c0,.11-.16.09-.2.11s0,.11,0,.11a.36.36,0,0,1-.08.24.33.33,0,0,0-.07.27l.15.11a1.81,1.81,0,0,1,.32.13c.22.11.14.13.14.13a3.3,3.3,0,0,1,.45.35c.05.08.27.18.54.48S269.57,184.76,269.6,184.85Zm3.71,2.43a1.57,1.57,0,0,1-.5.1,3.4,3.4,0,0,1-.51-.16c-.1-.07-.31,0-.38-.19s-.18-.32-.21-.4a2.06,2.06,0,0,1-.21-.37c-.06-.19,0-.11-.06-.19a1.56,1.56,0,0,0-.18-.15l-.16-.14c0-.05-.14,0,0-.05a.44.44,0,0,1,.3,0h.13s.15,0,.16,0,.07-.24,0-.25a2.41,2.41,0,0,1-.27-.23,2.59,2.59,0,0,1-.21-.3c-.05-.1-.07,0-.1-.21s-.24-.35-.25-.4-.26-.35-.26-.35l-.21-.24a1.18,1.18,0,0,1-.16-.26s-.05-.19,0-.22a.28.28,0,0,0,.14-.19,1.07,1.07,0,0,0,0-.26.26.26,0,0,1,.16-.3c.07,0,0,0,.07,0a1.27,1.27,0,0,1,.27,0c.08,0,.22-.17.22-.17s.05-.13.18,0,.29.19.32.27a.52.52,0,0,0,.14.21l.15.08.19.17a3.06,3.06,0,0,1,.3.32c0,.1.14.16.18.26a.47.47,0,0,1,0,.2s0,0-.09.07,0,0-.08,0-.08.18-.13.18h-.14l-.26-.05s0-.26-.13-.11-.16.19-.13.27a4.47,4.47,0,0,0,.29.38.61.61,0,0,1,.11.15c0,.06,0-.1,0,.06a.87.87,0,0,1,.09.32c0,.09-.06.21.1.21h.16s0-.18.12-.12.29.12.29.2.23.14.23.24a.17.17,0,0,1-.16.17c-.1,0-.18-.05-.21,0s-.13.29-.05.32l.24.06s.19-.06.23.08a.47.47,0,0,1,0,.26.7.7,0,0,0,.06.33,1.41,1.41,0,0,1,.1.29S273.43,187.2,273.31,187.28Z"/><path class="cls-48" d="M238.49,174.54c-.2-.15-1.41.37-3,1.46"/><path class="cls-49" d="M232,178.89a21.54,21.54,0,0,0-5.05,7.49"/><path class="cls-48" d="M226.26,188.56a15.4,15.4,0,0,0-.38,3.37s1.23-.31,3.31-.74"/><path class="cls-50" d="M234,190.33c9-1.41,23.67-2.56,33.78,2.3"/><path class="cls-48" d="M269.94,193.8a20.22,20.22,0,0,1,2.73,2s-1.27.27-3.27.92"/><path class="cls-51" d="M264.87,198.46c-5.43,2.38-12.41,6.63-16.56,13.74"/><path class="cls-48" d="M247.18,214.37a27.07,27.07,0,0,0-1.22,3.17"/><path class="cls-52" d="M272.67,202.27a6.46,6.46,0,1,1,6.46-6.46A6.46,6.46,0,0,1,272.67,202.27Zm0-12.13a5.67,5.67,0,1,0,5.67,5.67A5.68,5.68,0,0,0,272.67,190.14Z"/><path class="cls-52" d="M276.58,195.81a3.91,3.91,0,1,1-3.91-3.91A3.91,3.91,0,0,1,276.58,195.81Z"/><path class="cls-52" d="M246,227.9a6.46,6.46,0,1,1,6.46-6.45A6.46,6.46,0,0,1,246,227.9Zm0-12.12a5.67,5.67,0,1,0,5.67,5.67A5.68,5.68,0,0,0,246,215.78Z"/><path class="cls-52" d="M249.87,221.45a3.91,3.91,0,1,1-3.91-3.91A3.9,3.9,0,0,1,249.87,221.45Z"/><path class="cls-52" d="M226.23,199.75a6.46,6.46,0,1,1,6.46-6.46A6.47,6.47,0,0,1,226.23,199.75Zm0-12.13a5.67,5.67,0,1,0,5.67,5.67A5.68,5.68,0,0,0,226.23,187.62Z"/><path class="cls-52" d="M230.14,193.29a3.91,3.91,0,1,1-3.91-3.91A3.91,3.91,0,0,1,230.14,193.29Z"/><path class="cls-53" d="M268,173.76c-7.37,0-17.11,1.54-22.06,3.45h0s-6.84,2.08-1,6c11.13-1.74,17.92-3.11,22-4.1a38.35,38.35,0,0,0,5.91-1.73C277.69,175.36,275.51,173.76,268,173.76Zm-12.45,5.09c-3.18,0-4.1-.67-2.06-1.51a30.53,30.53,0,0,1,9.44-1.51c3.18,0,4.1.68,2.06,1.51A30.24,30.24,0,0,1,255.53,178.85Z"/><path class="cls-54" d="M244.8,130a20,20,0,0,0-20,19.3h0s-2.59,11.62,19.92,33.3c10.09-9.72,15.13-17.41,17.63-22.94A20,20,0,0,0,244.8,130Zm0,28.46a8.45,8.45,0,1,1,8.45-8.44A8.44,8.44,0,0,1,244.8,158.49Z"/></g></g></svg>