<svg id="Layer_1" data-name="Layer 1" xmlns="http://www.w3.org/2000/svg" width="200" height="200" viewBox="0 0 200 200"><defs><style>.cls-1{fill:none;}.cls-2{fill:#ffb769;}.cls-3{fill:#ff8812;}.cls-4{fill:#8c8c8c;}.cls-5{fill:#282828;}.cls-6{fill:#b7b7b7;}.cls-7{fill:#6d6d6d;}.cls-8{fill:#bababa;}.cls-9{fill:#e2e2e2;}.cls-10{fill:#332f2d;}.cls-11{fill:#ffdec5;}.cls-12{fill:#394a63;}.cls-13{fill:#637ea8;}.cls-14{fill:#753a13;}.cls-15{fill:#728eb7;}.cls-16{fill:#3f3f3f;}.cls-17{fill:#635d5a;}.cls-18{fill:#ffebde;}.cls-19{fill:#f2d0b8;}.cls-20{fill:#4a6182;}</style></defs><title>img-no-pickups</title><rect class="cls-1" width="200" height="200"/><rect class="cls-2" x="134.7" y="49.77" width="51.42" height="51.42"/><rect class="cls-3" x="140.67" y="55.73" width="39.49" height="39.49"/><rect class="cls-2" x="145.08" y="60.14" width="30.66" height="30.66"/><polygon class="cls-4" points="46.51 173.65 27.26 173.65 46.78 80.51 56.78 80.51 46.51 173.65"/><rect class="cls-4" x="45.2" y="156.73" width="111.44" height="16.92"/><polygon class="cls-4" points="156.64 160.06 86.62 160.06 94.6 114.68 147.34 114.68 156.64 160.06"/><rect class="cls-5" x="91.27" y="106.22" width="69.13" height="11.51"/><path class="cls-5" d="M182.84,173.77a23.21,23.21,0,1,1-23.2-23.2A23.2,23.2,0,0,1,182.84,173.77Z"/><path class="cls-6" d="M171.53,173.77a11.9,11.9,0,1,1-11.89-11.91A11.9,11.9,0,0,1,171.53,173.77Z"/><path class="cls-5" d="M52.87,175.9a23.2,23.2,0,1,1-23.2-23.2A23.2,23.2,0,0,1,52.87,175.9Z"/><path class="cls-6" d="M41.57,175.9A11.91,11.91,0,1,1,29.67,164,11.9,11.9,0,0,1,41.57,175.9Z"/><rect class="cls-4" x="124.29" y="100.71" width="69.58" height="5.52"/><polygon class="cls-7" points="31.54 177.55 27.26 176.19 38.17 141.68 42.45 143.04 31.54 177.55"/><path class="cls-8" d="M159.64,137.65v9.76a26.24,26.24,0,0,0-26.23,26.24h-9.78A36,36,0,0,1,159.64,137.65Z"/><path class="cls-9" d="M36.42,175.68a6.75,6.75,0,1,1-6.75-6.76A6.76,6.76,0,0,1,36.42,175.68Z"/><path class="cls-9" d="M166.38,173.65a6.75,6.75,0,1,1-6.74-6.75A6.75,6.75,0,0,1,166.38,173.65Z"/><rect class="cls-7" x="45.62" y="80.05" width="25.59" height="3.79"/><rect class="cls-5" x="60.99" y="80.05" width="10.22" height="3.79"/><path class="cls-5" d="M40.38,75.48V91.25a7.89,7.89,0,1,0,0-15.77Z"/><rect class="cls-4" x="39.08" y="75.48" width="1.3" height="15.77"/><polygon class="cls-10" points="59.16 156.49 67.8 156.49 77.83 155.53 77.83 156.49 85.44 156.49 85.44 148.9 75.77 148.99 59.16 153.72 59.16 156.49"/><path class="cls-11" d="M71,81.1a2.63,2.63,0,0,1-2.26,3L62.17,85a2.66,2.66,0,0,1-3-2.27h0a2.66,2.66,0,0,1,2.26-3l6.52-.9a2.65,2.65,0,0,1,3,2.27Z"/><polygon class="cls-11" points="107.22 38.81 99.69 40.08 98.4 32.33 105.92 31.08 107.22 38.81"/><polygon class="cls-12" points="73.25 106.22 68.67 96.52 122.11 95.05 121.04 106.22 73.25 106.22"/><polygon class="cls-12" points="85.6 149.82 75.73 149.82 68.67 96.52 82.3 99.21 85.6 149.82"/><polygon class="cls-13" points="122.35 96.29 103.01 96.52 96.23 39.87 111.09 37.29 122.35 96.29"/><path class="cls-11" d="M108.93,15.41c1,5.48.59,10.77-3.41,12.56l1,6.38-7.54,1.23c-5.47,1-7.23-2.68-8.25-8.14l-2.72,0,1.33-7.43-.48-2.58a10.06,10.06,0,0,1,8-11.76h0a10.07,10.07,0,0,1,11.77,8Z"/><path class="cls-14" d="M107.47,23.06c-3.71.88-2.62-5.93-6.38-4.88-3.29.93-.55,3.86-2.32,4.4-2.82.86-.15-9.66-6.06-8.81-5.75.83-1.85-2.64-2-6.2C94,10.19,91,4.52,96.44,3.49h0a10.09,10.09,0,0,1,11.78,8S112.24,21.94,107.47,23.06Z"/><path class="cls-15" d="M111.31,45.11a4.65,4.65,0,0,0-9-2s-.26.86-.3,1.13c-1.33,5.84-8.86,32.36-36,34.62a21.22,21.22,0,0,0,.83,5.63c39.78-1.34,44.39-39.17,44.39-39.17h0Z"/><path class="cls-16" d="M94.11,21.06a1,1,0,0,1-.7,1.19,1,1,0,0,1-1.19-.72,1,1,0,1,1,1.89-.47Z"/><polygon class="cls-16" points="94.41 18.74 90.87 19.62 90.72 18.99 94.26 18.12 94.41 18.74"/><polygon class="cls-17" points="59.16 154.92 59.16 156.49 67.8 156.49 77.83 155.53 77.83 156.49 85.44 156.49 85.44 154.92 59.16 154.92"/><path class="cls-18" d="M103.59,20.9a2,2,0,1,1-3.78.92,2,2,0,1,1,3.78-.92Z"/><path class="cls-19" d="M102.86,21.07a1.22,1.22,0,1,1-2.32.56,1.22,1.22,0,1,1,2.32-.56Z"/><path class="cls-8" d="M28.58,137.77v9.77a26.24,26.24,0,0,1,26.23,26.23h9.77A36,36,0,0,0,28.58,137.77Z"/><path class="cls-20" d="M95.23,2.31a12,12,0,0,1,14.4,9L86.21,16.72A12,12,0,0,1,95.23,2.31Z"/><polygon class="cls-20" points="79.47 18.12 87.79 16.37 87.54 15.15 79.22 16.9 79.47 18.12"/></svg>