<svg id="Layer_1" data-name="Layer 1" xmlns="http://www.w3.org/2000/svg" width="200" height="200" viewBox="0 0 200 200"><defs><style>.cls-1{fill:none;}.cls-2{fill:#f2d0b8;}.cls-3{fill:#394a63;}.cls-4{fill:#ffdec5;}.cls-5{fill:#753a13;}.cls-6{fill:#3f3f3f;}.cls-7{fill:#423d39;}.cls-8{fill:#637ea8;}.cls-9{fill:#332f2d;}.cls-10{fill:#635d5a;}.cls-11{fill:#ffb769;}.cls-12{fill:#ff8812;}.cls-13{fill:#4a6182;}</style></defs><title>img-no-shipments</title><rect class="cls-1" width="200" height="200"/><rect class="cls-2" x="34.68" y="38.78" width="8.62" height="8.86"/><polygon class="cls-3" points="32.34 191.26 18.79 191.26 18.79 107.54 39.69 107.54 32.34 191.26"/><polygon class="cls-3" points="59.27 191.26 45.7 191.26 37.37 107.54 59.27 107.54 59.27 191.26"/><path class="cls-4" d="M53.75,24.09c0,10.15-6.61,18.38-14.76,18.38S24.22,34.24,24.22,24.09,30.84,5.71,39,5.71,53.75,13.93,53.75,24.09Z"/><path class="cls-5" d="M24.3,22.23c7-.15,9.4-8.89,5.38-12.53C25.45,10.92,23.28,14.64,24.3,22.23Z"/><path class="cls-5" d="M53.7,21.78c-7-.17-9.4-8.91-5.37-12.56C52.55,10.46,54.72,14.17,53.7,21.78Z"/><path class="cls-6" d="M33.56,23.58a1.09,1.09,0,0,1-1.08,1.1,1.11,1.11,0,1,1,0-2.21A1.09,1.09,0,0,1,33.56,23.58Z"/><path class="cls-6" d="M46.91,23.58a1.09,1.09,0,0,1-1.09,1.1,1.11,1.11,0,1,1,0-2.21A1.1,1.1,0,0,1,46.91,23.58Z"/><rect class="cls-6" x="43.74" y="20.4" width="4.14" height="0.72"/><rect class="cls-6" x="30.4" y="20.4" width="4.13" height="0.72"/><path class="cls-4" d="M25.38,23.88a1.81,1.81,0,1,1-1.81-1.8A1.82,1.82,0,0,1,25.38,23.88Z"/><path class="cls-4" d="M56,23.58a1.82,1.82,0,1,1-1.81-1.8A1.81,1.81,0,0,1,56,23.58Z"/><path class="cls-2" d="M55.33,23.58a1.11,1.11,0,0,1-2.22,0,1.11,1.11,0,0,1,2.22,0Z"/><path class="cls-2" d="M24.69,23.88A1.13,1.13,0,0,1,23.57,25a1.11,1.11,0,0,1-1.1-1.13,1.1,1.1,0,0,1,1.1-1.1A1.11,1.11,0,0,1,24.69,23.88Z"/><polygon class="cls-7" points="39.23 31.29 36.32 31.29 38.76 23 39.22 23.13 36.95 30.82 39.23 30.82 39.23 31.29"/><rect class="cls-8" x="16.25" y="47.03" width="43.04" height="66.52"/><polygon class="cls-9" points="1.13 200 11.07 200 22.63 198.89 22.63 200 31.38 200 31.38 191.26 20.26 191.36 1.13 196.8 1.13 200"/><polygon class="cls-10" points="1.13 198.2 1.13 200 11.07 200 22.63 198.89 22.63 200 31.38 200 31.38 198.2 1.13 198.2"/><polygon class="cls-9" points="76.86 200 66.92 200 55.35 198.89 55.35 200 46.61 200 46.61 191.26 57.73 191.36 76.86 196.8 76.86 200"/><polygon class="cls-10" points="76.86 198.2 76.86 200 66.92 200 55.35 198.89 55.35 200 46.61 200 46.61 198.2 76.86 198.2"/><path class="cls-7" d="M38.59,37.09a12.75,12.75,0,0,1-4.86-.88l.19-.41a14.06,14.06,0,0,0,9.57,0l.14.43A15.26,15.26,0,0,1,38.59,37.09Z"/><rect class="cls-11" x="17.95" y="71.44" width="39.65" height="39.64"/><rect class="cls-12" x="22.55" y="76.04" width="30.43" height="30.44"/><rect class="cls-11" x="25.95" y="79.44" width="23.64" height="23.64"/><path class="cls-4" d="M59.55,116.81l3.06-4.74-5-3.11-3,4.67a2.92,2.92,0,0,0,4.91,3.18Z"/><path class="cls-8" d="M64.2,48.65a5.12,5.12,0,0,0-8.42,5.59s.48.86.67,1.11c3.63,5.5,19,31.71.11,55a21.8,21.8,0,0,0,5.1,3.64c29.28-32.67,2.7-65.18,2.7-65.18h0A1.58,1.58,0,0,0,64.2,48.65Z"/><path class="cls-4" d="M22,114l-3.3-4.58L14,112.9l3.26,4.5A2.92,2.92,0,0,0,22,114Z"/><path class="cls-8" d="M12.28,48.64a5.13,5.13,0,0,1,8.42,5.61s-.48.85-.67,1.1c-3.64,5.5-19,31.69-.15,55A22.71,22.71,0,0,1,14.77,114c-29.24-32.69-2.64-65.18-2.64-65.18h0C12.2,48.77,12.23,48.7,12.28,48.64Z"/><path class="cls-8" d="M39,1.31A15.86,15.86,0,0,0,23.08,17.14H54.89A15.85,15.85,0,0,0,39,1.31Z"/><path class="cls-13" d="M39,22.13c-8.79,0-15.91-2.23-15.91-5H54.89C54.89,19.9,47.78,22.13,39,22.13Z"/><rect class="cls-11" x="86.56" y="145.97" width="54.03" height="54.03"/><rect class="cls-12" x="92.83" y="152.24" width="41.49" height="41.49"/><rect class="cls-11" x="97.46" y="156.87" width="32.23" height="32.22"/><rect class="cls-11" x="143.97" y="145.97" width="54.03" height="54.03"/><rect class="cls-12" x="150.24" y="152.24" width="41.49" height="41.49"/><rect class="cls-11" x="154.87" y="156.86" width="32.23" height="32.23"/><rect class="cls-11" x="115.4" y="91.01" width="54.03" height="54.03"/><rect class="cls-12" x="121.67" y="97.28" width="41.48" height="41.49"/><rect class="cls-11" x="126.31" y="101.91" width="32.23" height="32.22"/></svg>