<svg xmlns="http://www.w3.org/2000/svg" width="200" height="200" viewBox="0 0 200 200"><defs><style>.cls-1{isolation:isolate;}.cls-2{fill:none;}.cls-14,.cls-16,.cls-3{fill:#26697a;}.cls-3{opacity:0.3;mix-blend-mode:multiply;}.cls-4{fill:#e58f00;}.cls-5{fill:#ffda00;}.cls-6{fill:#ffb000;}.cls-7{fill:#6a9304;}.cls-8{fill:#8cc004;}.cls-9{fill:#5f8403;}.cls-10{fill:#4b6a02;}.cls-11{fill:#fff;}.cls-12{fill:#bfbaad;}.cls-13{fill:#537703;}.cls-15{fill:#f2f2f2;}.cls-16{opacity:0.4;}.cls-17{fill:#e2e2e2;}.cls-18{fill:#f2d0b8;}.cls-19{fill:#394a63;}.cls-20{fill:#ffdec5;}.cls-21{fill:#753a13;}.cls-22{fill:#3f3f3f;}.cls-23{fill:#423d39;}.cls-24{fill:#637ea8;}.cls-25{fill:#332f2d;}.cls-26{fill:#635d5a;}.cls-27{fill:#4a6182;}.cls-28{fill:#ccc;}.cls-29{fill:#565656;}</style></defs><title>img-no-money-spent</title><g class="cls-1"><g id="Layer_1" data-name="Layer 1"><rect class="cls-2" width="200" height="200"/><polygon class="cls-3" points="140 184.88 140.38 189.94 135.43 191.09 109.22 191.09 113.79 184.88 140 184.88"/><polygon class="cls-3" points="141.86 190.15 137.29 196.36 163.51 196.36 169.52 194.8 168.07 190.15 141.86 190.15"/><path class="cls-3" d="M82.28,189.29c0,1.1-2.66,2-5.94,2s-5.94-.9-5.94-2,2.66-2,5.94-2S82.28,188.19,82.28,189.29Z"/><path class="cls-3" d="M97.85,194.47c0,1.1-2.66,2-5.94,2s-5.94-.89-5.94-2,2.66-2,5.94-2S97.85,193.37,97.85,194.47Z"/><path class="cls-3" d="M114.1,192.35c0,1.1-2.66,2-5.94,2s-5.94-.89-5.94-2,2.66-2,5.94-2S114.1,191.25,114.1,192.35Z"/><path class="cls-3" d="M132.08,197c0,1.1-2.66,2-5.94,2s-5.94-.89-5.94-2,2.66-2,5.94-2S132.08,195.91,132.08,197Z"/><path class="cls-3" d="M154.86,179.88c0,1.1-2.66,2-5.94,2s-5.94-.89-5.94-2,2.66-2,5.94-2S154.86,178.78,154.86,179.88Z"/><path class="cls-3" d="M186.37,193.57c0,1.1-2.66,2-5.94,2s-5.94-.89-5.94-2,2.66-2,5.94-2S186.37,192.47,186.37,193.57Z"/><path class="cls-3" d="M111.7,183.6c0,1.11-2.66,2-5.94,2s-5.94-.89-5.94-2,2.66-2,5.94-2S111.7,182.5,111.7,183.6Z"/><path class="cls-4" d="M157.32,178.6c0,1.1-2.65,2-5.93,2s-5.94-.89-5.94-2v-1.22h11.87Z"/><path class="cls-5" d="M157.32,177.38c0,1.1-2.65,2-5.93,2s-5.94-.89-5.94-2,2.66-2,5.94-2S157.32,176.28,157.32,177.38Z"/><path class="cls-4" d="M151.39,175.65c-3.15,0-5.73.82-5.93,1.86.2,1,2.78,1.86,5.93,1.86s5.72-.82,5.92-1.86C157.11,176.47,154.54,175.65,151.39,175.65Zm4,2.82a14.6,14.6,0,0,1-8,0c-1-.33-1.32-.7-1.32-.83s.32-.49,1.32-.83a14.86,14.86,0,0,1,8,0c1,.34,1.33.71,1.33.83S156.39,178.14,155.39,178.47Z"/><path class="cls-6" d="M151.39,176a13,13,0,0,1,4,.55c1,.34,1.33.7,1.33.83s-.33.5-1.33.83a14.86,14.86,0,0,1-8,0c-1-.33-1.32-.7-1.32-.83s.32-.49,1.32-.83a13,13,0,0,1,4-.55m0-.61c-3.28,0-5.94.89-5.94,2s2.66,2,5.94,2,5.93-.89,5.93-2-2.65-2-5.93-2Z"/><path class="cls-6" d="M151.39,176.61a10.57,10.57,0,0,1,4.44.77,13.06,13.06,0,0,1-8.89,0,10.66,10.66,0,0,1,4.45-.77"/><path class="cls-4" d="M157.32,176.57c0,1.1-2.65,2-5.93,2s-5.94-.9-5.94-2v-1.21h11.87Z"/><path class="cls-5" d="M157.32,175.36c0,1.1-2.65,2-5.93,2s-5.94-.89-5.94-2,2.66-2,5.94-2S157.32,174.26,157.32,175.36Z"/><path class="cls-4" d="M151.39,173.62c-3.15,0-5.73.83-5.93,1.87.2,1,2.78,1.86,5.93,1.86s5.72-.82,5.92-1.86C157.11,174.45,154.54,173.62,151.39,173.62Zm4,2.83a14.86,14.86,0,0,1-8,0c-1-.34-1.32-.71-1.32-.83s.32-.5,1.32-.83a14.6,14.6,0,0,1,8,0c1,.33,1.33.7,1.33.83S156.39,176.11,155.39,176.45Z"/><path class="cls-6" d="M151.39,174a13.27,13.27,0,0,1,4,.55c1,.34,1.33.71,1.33.84s-.33.49-1.33.83a14.86,14.86,0,0,1-8,0c-1-.34-1.32-.71-1.32-.83s.32-.5,1.32-.84a13.3,13.3,0,0,1,4-.55m0-.61c-3.28,0-5.94.9-5.94,2s2.66,2,5.94,2,5.93-.89,5.93-2-2.65-2-5.93-2Z"/><path class="cls-6" d="M151.39,174.58a10.52,10.52,0,0,1,4.44.78,13.21,13.21,0,0,1-8.89,0,10.62,10.62,0,0,1,4.45-.78"/><path class="cls-4" d="M157.32,174.55c0,1.1-2.65,2-5.93,2s-5.94-.89-5.94-2v-1.22h11.87Z"/><path class="cls-5" d="M157.32,173.33c0,1.1-2.65,2-5.93,2s-5.94-.89-5.94-2,2.66-2,5.94-2S157.32,172.23,157.32,173.33Z"/><path class="cls-4" d="M151.39,171.6c-3.15,0-5.73.82-5.93,1.86.2,1,2.78,1.86,5.93,1.86s5.72-.82,5.92-1.86C157.11,172.42,154.54,171.6,151.39,171.6Zm4,2.82a14.6,14.6,0,0,1-8,0c-1-.33-1.32-.7-1.32-.83s.32-.49,1.32-.83a14.86,14.86,0,0,1,8,0c1,.34,1.33.71,1.33.83S156.39,174.09,155.39,174.42Z"/><path class="cls-6" d="M151.39,172a13,13,0,0,1,4,.55c1,.33,1.33.7,1.33.83s-.33.5-1.33.83a14.86,14.86,0,0,1-8,0c-1-.33-1.32-.7-1.32-.83s.32-.5,1.32-.83a13,13,0,0,1,4-.55m0-.61c-3.28,0-5.94.89-5.94,2s2.66,2,5.94,2,5.93-.89,5.93-2-2.65-2-5.93-2Z"/><path class="cls-6" d="M151.39,172.56a10.57,10.57,0,0,1,4.44.77,13.06,13.06,0,0,1-8.89,0,10.66,10.66,0,0,1,4.45-.77"/><path class="cls-4" d="M157.32,172.52c0,1.1-2.65,2-5.93,2s-5.94-.9-5.94-2v-1.21h11.87Z"/><path class="cls-5" d="M157.32,171.31c0,1.1-2.65,2-5.93,2s-5.94-.89-5.94-2,2.66-2,5.94-2S157.32,170.2,157.32,171.31Z"/><path class="cls-4" d="M151.39,169.57c-3.15,0-5.73.83-5.93,1.87.2,1,2.78,1.86,5.93,1.86s5.72-.82,5.92-1.86C157.11,170.4,154.54,169.57,151.39,169.57Zm4,2.83a14.86,14.86,0,0,1-8,0c-1-.34-1.32-.71-1.32-.83s.32-.5,1.32-.84a14.86,14.86,0,0,1,8,0c1,.34,1.33.71,1.33.84S156.39,172.06,155.39,172.4Z"/><path class="cls-6" d="M151.39,169.92a13.27,13.27,0,0,1,4,.55c1,.34,1.33.71,1.33.84s-.33.49-1.33.83a14.86,14.86,0,0,1-8,0c-1-.34-1.32-.71-1.32-.83s.32-.5,1.32-.84a13.3,13.3,0,0,1,4-.55m0-.61c-3.28,0-5.94.89-5.94,2s2.66,2,5.94,2,5.93-.89,5.93-2-2.65-2-5.93-2Z"/><path class="cls-6" d="M151.39,170.53a10.52,10.52,0,0,1,4.44.78,13.21,13.21,0,0,1-8.89,0,10.62,10.62,0,0,1,4.45-.78"/><path class="cls-4" d="M157.32,170.5c0,1.1-2.65,2-5.93,2s-5.94-.89-5.94-2v-1.22h11.87Z"/><path class="cls-5" d="M157.32,169.28c0,1.1-2.65,2-5.93,2s-5.94-.89-5.94-2,2.66-2,5.94-2S157.32,168.18,157.32,169.28Z"/><path class="cls-4" d="M151.39,167.55c-3.15,0-5.73.82-5.93,1.86.2,1,2.78,1.86,5.93,1.86s5.72-.82,5.92-1.86C157.11,168.37,154.54,167.55,151.39,167.55Zm4,2.82a14.86,14.86,0,0,1-8,0c-1-.33-1.32-.7-1.32-.83s.32-.49,1.32-.83a14.86,14.86,0,0,1,8,0c1,.34,1.33.7,1.33.83S156.39,170,155.39,170.37Z"/><path class="cls-6" d="M151.39,167.9a13,13,0,0,1,4,.55c1,.33,1.33.7,1.33.83s-.33.5-1.33.83a14.86,14.86,0,0,1-8,0c-1-.33-1.32-.7-1.32-.83s.32-.5,1.32-.83a13,13,0,0,1,4-.55m0-.61c-3.28,0-5.94.89-5.94,2s2.66,2,5.94,2,5.93-.89,5.93-2-2.65-2-5.93-2Z"/><path class="cls-6" d="M151.39,168.51a10.57,10.57,0,0,1,4.44.77,13.21,13.21,0,0,1-8.89,0,10.66,10.66,0,0,1,4.45-.77"/><path class="cls-4" d="M157.32,168.47c0,1.1-2.65,2-5.93,2s-5.94-.9-5.94-2v-1.22h11.87Z"/><path class="cls-5" d="M157.32,167.25c0,1.11-2.65,2-5.93,2s-5.94-.89-5.94-2,2.66-2,5.94-2S157.32,166.15,157.32,167.25Z"/><path class="cls-4" d="M151.39,165.52c-3.15,0-5.73.83-5.93,1.87.2,1,2.78,1.86,5.93,1.86s5.72-.83,5.92-1.86C157.11,166.35,154.54,165.52,151.39,165.52Zm4,2.83a14.86,14.86,0,0,1-8,0c-1-.34-1.32-.71-1.32-.83s.32-.5,1.32-.84a14.86,14.86,0,0,1,8,0c1,.34,1.33.71,1.33.84S156.39,168,155.39,168.35Z"/><path class="cls-6" d="M151.39,165.87a13.27,13.27,0,0,1,4,.55c1,.34,1.33.71,1.33.83s-.33.5-1.33.84a14.86,14.86,0,0,1-8,0c-1-.34-1.32-.71-1.32-.84s.32-.49,1.32-.83a13.3,13.3,0,0,1,4-.55m0-.61c-3.28,0-5.94.89-5.94,2s2.66,2,5.94,2,5.93-.89,5.93-2-2.65-2-5.93-2Z"/><path class="cls-6" d="M151.39,166.48a10.74,10.74,0,0,1,4.44.77,13.06,13.06,0,0,1-8.89,0,10.83,10.83,0,0,1,4.45-.77"/><path class="cls-4" d="M157.32,166.45c0,1.1-2.65,2-5.93,2s-5.94-.89-5.94-2v-1.22h11.87Z"/><path class="cls-5" d="M157.32,165.23c0,1.1-2.65,2-5.93,2s-5.94-.89-5.94-2,2.66-2,5.94-2S157.32,164.13,157.32,165.23Z"/><path class="cls-4" d="M151.39,163.5c-3.15,0-5.73.82-5.93,1.86.2,1,2.78,1.86,5.93,1.86s5.72-.82,5.92-1.86C157.11,164.32,154.54,163.5,151.39,163.5Zm4,2.82a14.86,14.86,0,0,1-8,0c-1-.33-1.32-.7-1.32-.83s.32-.5,1.32-.83a14.86,14.86,0,0,1,8,0c1,.33,1.33.7,1.33.83S156.39,166,155.39,166.32Z"/><path class="cls-6" d="M151.39,163.85a13,13,0,0,1,4,.55c1,.33,1.33.7,1.33.83s-.33.5-1.33.83a14.86,14.86,0,0,1-8,0c-1-.33-1.32-.7-1.32-.83s.32-.5,1.32-.83a13,13,0,0,1,4-.55m0-.61c-3.28,0-5.94.89-5.94,2s2.66,2,5.94,2,5.93-.89,5.93-2-2.65-2-5.93-2Z"/><path class="cls-6" d="M151.39,164.45a10.52,10.52,0,0,1,4.44.78,13.21,13.21,0,0,1-8.89,0,10.62,10.62,0,0,1,4.45-.78"/><path class="cls-4" d="M159.37,164.42c0,1.1-2.66,2-5.94,2s-5.93-.89-5.93-2V163.2h11.87Z"/><path class="cls-5" d="M159.37,163.2c0,1.1-2.66,2-5.94,2s-5.93-.9-5.93-2,2.65-2,5.93-2S159.37,162.1,159.37,163.2Z"/><path class="cls-4" d="M153.43,161.47c-3.15,0-5.72.83-5.92,1.86.2,1,2.77,1.87,5.92,1.87s5.73-.83,5.93-1.87C159.16,162.3,156.58,161.47,153.43,161.47Zm4,2.83a14.86,14.86,0,0,1-8,0c-1-.34-1.33-.71-1.33-.83s.33-.5,1.33-.84a14.86,14.86,0,0,1,8,0c1,.34,1.32.71,1.32.84S158.44,164,157.44,164.3Z"/><path class="cls-6" d="M153.43,161.82a13.34,13.34,0,0,1,4,.55c1,.34,1.32.71,1.32.83s-.32.5-1.32.84a14.86,14.86,0,0,1-8,0c-1-.34-1.33-.71-1.33-.84s.33-.49,1.33-.83a13.27,13.27,0,0,1,4-.55m0-.61c-3.28,0-5.93.89-5.93,2s2.65,2,5.93,2,5.94-.9,5.94-2-2.66-2-5.94-2Z"/><path class="cls-6" d="M153.43,162.43a10.83,10.83,0,0,1,4.45.77,13.06,13.06,0,0,1-8.89,0,10.77,10.77,0,0,1,4.44-.77"/><path class="cls-4" d="M114.1,181.79c0,1.1-2.66,2-5.94,2s-5.94-.9-5.94-2v-1.22H114.1Z"/><path class="cls-5" d="M114.1,180.57c0,1.11-2.66,2-5.94,2s-5.94-.89-5.94-2,2.66-2,5.94-2S114.1,179.47,114.1,180.57Z"/><path class="cls-4" d="M108.16,178.84c-3.15,0-5.72.83-5.92,1.87.2,1,2.77,1.86,5.92,1.86s5.72-.82,5.92-1.86C113.88,179.67,111.31,178.84,108.16,178.84Zm4,2.83a14.86,14.86,0,0,1-8,0c-1-.34-1.33-.71-1.33-.83s.33-.5,1.33-.84a14.86,14.86,0,0,1,8,0c1,.34,1.32.71,1.32.84S113.17,181.33,112.17,181.67Z"/><path class="cls-6" d="M108.16,179.19a13.34,13.34,0,0,1,4,.55c1,.34,1.32.71,1.32.83s-.32.5-1.32.84a14.86,14.86,0,0,1-8,0c-1-.34-1.33-.71-1.33-.84s.33-.49,1.33-.83a13.27,13.27,0,0,1,4-.55m0-.61c-3.28,0-5.94.89-5.94,2s2.66,2,5.94,2,5.94-.89,5.94-2-2.66-2-5.94-2Z"/><path class="cls-6" d="M108.16,179.8a10.74,10.74,0,0,1,4.44.77,13,13,0,0,1-8.88,0,10.74,10.74,0,0,1,4.44-.77"/><path class="cls-4" d="M114.1,179.77c0,1.1-2.66,2-5.94,2s-5.94-.89-5.94-2v-1.22H114.1Z"/><path class="cls-5" d="M114.1,178.55c0,1.1-2.66,2-5.94,2s-5.94-.89-5.94-2,2.66-2,5.94-2S114.1,177.45,114.1,178.55Z"/><path class="cls-4" d="M108.16,176.82c-3.15,0-5.72.82-5.92,1.86.2,1,2.77,1.86,5.92,1.86s5.72-.82,5.92-1.86C113.88,177.64,111.31,176.82,108.16,176.82Zm4,2.82a14.86,14.86,0,0,1-8,0c-1-.33-1.33-.7-1.33-.83s.33-.5,1.33-.83a14.86,14.86,0,0,1,8,0c1,.33,1.32.7,1.32.83S113.17,179.31,112.17,179.64Z"/><path class="cls-6" d="M108.16,177.17a13,13,0,0,1,4,.55c1,.33,1.32.7,1.32.83s-.32.5-1.32.83a14.86,14.86,0,0,1-8,0c-1-.33-1.33-.7-1.33-.83s.33-.5,1.33-.83a13,13,0,0,1,4-.55m0-.61c-3.28,0-5.94.89-5.94,2s2.66,2,5.94,2,5.94-.89,5.94-2-2.66-2-5.94-2Z"/><path class="cls-6" d="M108.16,177.78a10.57,10.57,0,0,1,4.44.77,13.19,13.19,0,0,1-8.88,0,10.57,10.57,0,0,1,4.44-.77"/><path class="cls-4" d="M114.1,177.74c0,1.1-2.66,2-5.94,2s-5.94-.9-5.94-2v-1.22H114.1Z"/><path class="cls-5" d="M114.1,176.52c0,1.1-2.66,2-5.94,2s-5.94-.9-5.94-2,2.66-2,5.94-2S114.1,175.42,114.1,176.52Z"/><path class="cls-4" d="M108.16,174.79c-3.15,0-5.72.83-5.92,1.86.2,1,2.77,1.87,5.92,1.87s5.72-.83,5.92-1.87C113.88,175.62,111.31,174.79,108.16,174.79Zm4,2.83a14.86,14.86,0,0,1-8,0c-1-.34-1.33-.71-1.33-.83s.33-.5,1.33-.84a14.86,14.86,0,0,1,8,0c1,.34,1.32.71,1.32.84S113.17,177.28,112.17,177.62Z"/><path class="cls-6" d="M108.16,175.14a13.34,13.34,0,0,1,4,.55c1,.34,1.32.71,1.32.83s-.32.5-1.32.84a14.86,14.86,0,0,1-8,0c-1-.34-1.33-.71-1.33-.84s.33-.49,1.33-.83a13.27,13.27,0,0,1,4-.55m0-.61c-3.28,0-5.94.89-5.94,2s2.66,2,5.94,2,5.94-.9,5.94-2-2.66-2-5.94-2Z"/><path class="cls-6" d="M108.16,175.75a10.74,10.74,0,0,1,4.44.77,13,13,0,0,1-8.88,0,10.74,10.74,0,0,1,4.44-.77"/><path class="cls-4" d="M111.7,175.72c0,1.1-2.66,2-5.94,2s-5.94-.89-5.94-2V174.5H111.7Z"/><path class="cls-5" d="M111.7,174.5c0,1.1-2.66,2-5.94,2s-5.94-.89-5.94-2,2.66-2,5.94-2S111.7,173.4,111.7,174.5Z"/><path class="cls-4" d="M105.76,172.77c-3.15,0-5.72.82-5.92,1.86.2,1,2.77,1.86,5.92,1.86s5.72-.82,5.92-1.86C111.48,173.59,108.91,172.77,105.76,172.77Zm4,2.82a14.86,14.86,0,0,1-8,0c-1-.33-1.32-.7-1.32-.83s.32-.5,1.32-.83a14.86,14.86,0,0,1,8,0c1,.33,1.33.7,1.33.83S110.76,175.26,109.76,175.59Z"/><path class="cls-6" d="M105.76,173.12a13,13,0,0,1,4,.55c1,.33,1.33.7,1.33.83s-.33.49-1.33.83a14.86,14.86,0,0,1-8,0c-1-.34-1.32-.7-1.32-.83s.32-.5,1.32-.83a13,13,0,0,1,4-.55m0-.61c-3.28,0-5.94.89-5.94,2s2.66,2,5.94,2,5.94-.89,5.94-2-2.66-2-5.94-2Z"/><path class="cls-6" d="M105.76,173.72a10.52,10.52,0,0,1,4.44.78,13.19,13.19,0,0,1-8.88,0,10.52,10.52,0,0,1,4.44-.78"/><path class="cls-4" d="M109.3,173.69c0,1.1-2.66,2-5.94,2s-5.94-.89-5.94-2v-1.22H109.3Z"/><path class="cls-5" d="M109.3,172.47c0,1.1-2.66,2-5.94,2s-5.94-.9-5.94-2,2.66-2,5.94-2S109.3,171.37,109.3,172.47Z"/><path class="cls-4" d="M103.36,170.74c-3.15,0-5.73.82-5.93,1.86.2,1,2.78,1.87,5.93,1.87s5.72-.83,5.92-1.87C109.08,171.56,106.51,170.74,103.36,170.74Zm4,2.83a14.86,14.86,0,0,1-8,0c-1-.34-1.32-.71-1.32-.84s.32-.49,1.32-.83a14.86,14.86,0,0,1,8,0c1,.34,1.33.71,1.33.83S108.36,173.23,107.36,173.57Z"/><path class="cls-6" d="M103.36,171.09a13.27,13.27,0,0,1,4,.55c1,.34,1.33.71,1.33.83s-.33.5-1.33.84a14.86,14.86,0,0,1-8,0c-1-.34-1.32-.71-1.32-.84s.32-.49,1.32-.83a13.34,13.34,0,0,1,4-.55m0-.61c-3.28,0-5.94.89-5.94,2s2.66,2,5.94,2,5.94-.9,5.94-2-2.66-2-5.94-2Z"/><path class="cls-6" d="M103.36,171.7a10.74,10.74,0,0,1,4.44.77,13,13,0,0,1-8.88,0,10.74,10.74,0,0,1,4.44-.77"/><path class="cls-4" d="M176.89,186.69c0,1.1-2.66,2-5.94,2s-5.94-.89-5.94-2v-1.22h11.88Z"/><path class="cls-5" d="M176.89,185.47c0,1.1-2.66,2-5.94,2s-5.94-.9-5.94-2,2.66-2,5.94-2S176.89,184.37,176.89,185.47Z"/><path class="cls-4" d="M171,183.74c-3.15,0-5.73.82-5.93,1.86.2,1,2.78,1.87,5.93,1.87s5.72-.83,5.92-1.87C176.67,184.56,174.1,183.74,171,183.74Zm4,2.83a14.86,14.86,0,0,1-8,0c-1-.34-1.32-.71-1.32-.84s.32-.49,1.32-.83a14.86,14.86,0,0,1,8,0c1,.34,1.33.71,1.33.83S176,186.23,175,186.57Z"/><path class="cls-6" d="M171,184.09a13.27,13.27,0,0,1,4,.55c1,.34,1.33.71,1.33.83s-.33.5-1.33.83a14.6,14.6,0,0,1-8,0c-1-.33-1.32-.7-1.32-.83s.32-.49,1.32-.83a13.34,13.34,0,0,1,4-.55m0-.61c-3.28,0-5.94.89-5.94,2s2.66,2,5.94,2,5.94-.9,5.94-2-2.66-2-5.94-2Z"/><path class="cls-6" d="M171,184.7a10.74,10.74,0,0,1,4.44.77,13,13,0,0,1-8.88,0,10.74,10.74,0,0,1,4.44-.77"/><path class="cls-4" d="M176.89,184.67c0,1.1-2.66,2-5.94,2s-5.94-.89-5.94-2v-1.22h11.88Z"/><path class="cls-5" d="M176.89,183.45c0,1.1-2.66,2-5.94,2s-5.94-.89-5.94-2,2.66-2,5.94-2S176.89,182.35,176.89,183.45Z"/><path class="cls-4" d="M171,181.72c-3.15,0-5.73.82-5.93,1.86.2,1,2.78,1.86,5.93,1.86s5.72-.82,5.92-1.86C176.67,182.54,174.1,181.72,171,181.72Zm4,2.82a14.86,14.86,0,0,1-8,0c-1-.34-1.32-.71-1.32-.83s.32-.5,1.32-.83a14.6,14.6,0,0,1,8,0c1,.33,1.33.7,1.33.83S176,184.2,175,184.54Z"/><path class="cls-6" d="M171,182.06a12.94,12.94,0,0,1,4,.56c1,.33,1.33.7,1.33.83s-.33.49-1.33.83a14.86,14.86,0,0,1-8,0c-1-.34-1.32-.71-1.32-.83s.32-.5,1.32-.83a13,13,0,0,1,4-.56m0-.61c-3.28,0-5.94.9-5.94,2s2.66,2,5.94,2,5.94-.89,5.94-2-2.66-2-5.94-2Z"/><path class="cls-6" d="M171,182.67a10.52,10.52,0,0,1,4.44.78,13.19,13.19,0,0,1-8.88,0,10.52,10.52,0,0,1,4.44-.78"/><path class="cls-4" d="M176.89,182.64c0,1.1-2.66,2-5.94,2s-5.94-.89-5.94-2v-1.22h11.88Z"/><path class="cls-5" d="M176.89,181.42c0,1.1-2.66,2-5.94,2s-5.94-.89-5.94-2,2.66-2,5.94-2S176.89,180.32,176.89,181.42Z"/><path class="cls-4" d="M171,179.69c-3.15,0-5.73.82-5.93,1.86.2,1,2.78,1.86,5.93,1.86s5.72-.82,5.92-1.86C176.67,180.51,174.1,179.69,171,179.69Zm4,2.82a14.6,14.6,0,0,1-8,0c-1-.33-1.32-.7-1.32-.83s.32-.49,1.32-.83a14.86,14.86,0,0,1,8,0c1,.34,1.33.71,1.33.83S176,182.18,175,182.51Z"/><path class="cls-6" d="M171,180a13,13,0,0,1,4,.55c1,.34,1.33.71,1.33.83s-.33.5-1.33.83a14.6,14.6,0,0,1-8,0c-1-.33-1.32-.7-1.32-.83s.32-.49,1.32-.83a13,13,0,0,1,4-.55m0-.61c-3.28,0-5.94.89-5.94,2s2.66,2,5.94,2,5.94-.89,5.94-2-2.66-2-5.94-2Z"/><path class="cls-6" d="M171,180.65a10.57,10.57,0,0,1,4.44.77,13,13,0,0,1-8.88,0,10.57,10.57,0,0,1,4.44-.77"/><path class="cls-4" d="M176.89,180.61c0,1.11-2.66,2-5.94,2s-5.94-.89-5.94-2V179.4h11.88Z"/><path class="cls-5" d="M176.89,179.4c0,1.1-2.66,2-5.94,2s-5.94-.89-5.94-2,2.66-2,5.94-2S176.89,178.3,176.89,179.4Z"/><path class="cls-4" d="M171,177.66c-3.15,0-5.73.83-5.93,1.87.2,1,2.78,1.86,5.93,1.86s5.72-.82,5.92-1.86C176.67,178.49,174.1,177.66,171,177.66Zm4,2.83a14.86,14.86,0,0,1-8,0c-1-.34-1.32-.71-1.32-.83s.32-.5,1.32-.83a14.6,14.6,0,0,1,8,0c1,.33,1.33.7,1.33.83S176,180.15,175,180.49Z"/><path class="cls-6" d="M171,178a12.94,12.94,0,0,1,4,.56c1,.33,1.33.7,1.33.83s-.33.49-1.33.83a14.86,14.86,0,0,1-8,0c-1-.34-1.32-.71-1.32-.83s.32-.5,1.32-.83a13,13,0,0,1,4-.56m0-.61c-3.28,0-5.94.9-5.94,2s2.66,2,5.94,2,5.94-.89,5.94-2-2.66-2-5.94-2Z"/><path class="cls-6" d="M171,178.62a10.52,10.52,0,0,1,4.44.78,13.19,13.19,0,0,1-8.88,0,10.52,10.52,0,0,1,4.44-.78"/><path class="cls-4" d="M176.89,178.59c0,1.1-2.66,2-5.94,2s-5.94-.89-5.94-2v-1.22h11.88Z"/><path class="cls-5" d="M176.89,177.37c0,1.1-2.66,2-5.94,2s-5.94-.89-5.94-2,2.66-2,5.94-2S176.89,176.27,176.89,177.37Z"/><path class="cls-4" d="M171,175.64c-3.15,0-5.73.82-5.93,1.86.2,1,2.78,1.86,5.93,1.86s5.72-.82,5.92-1.86C176.67,176.46,174.1,175.64,171,175.64Zm4,2.82a14.6,14.6,0,0,1-8,0c-1-.33-1.32-.7-1.32-.83s.32-.49,1.32-.83a14.86,14.86,0,0,1,8,0c1,.34,1.33.71,1.33.83S176,178.13,175,178.46Z"/><path class="cls-6" d="M171,176a13,13,0,0,1,4,.55c1,.34,1.33.7,1.33.83s-.33.5-1.33.83a14.86,14.86,0,0,1-8,0c-1-.33-1.32-.7-1.32-.83s.32-.49,1.32-.83a13,13,0,0,1,4-.55m0-.61c-3.28,0-5.94.89-5.94,2s2.66,2,5.94,2,5.94-.89,5.94-2-2.66-2-5.94-2Z"/><path class="cls-6" d="M171,176.6a10.57,10.57,0,0,1,4.44.77,13,13,0,0,1-8.88,0,10.57,10.57,0,0,1,4.44-.77"/><path class="cls-4" d="M176.89,176.56c0,1.1-2.66,2-5.94,2s-5.94-.9-5.94-2v-1.21h11.88Z"/><path class="cls-5" d="M176.89,175.35c0,1.1-2.66,2-5.94,2s-5.94-.89-5.94-2,2.66-2,5.94-2S176.89,174.25,176.89,175.35Z"/><path class="cls-4" d="M171,173.61c-3.15,0-5.73.83-5.93,1.87.2,1,2.78,1.86,5.93,1.86s5.72-.82,5.92-1.86C176.67,174.44,174.1,173.61,171,173.61Zm4,2.83a14.86,14.86,0,0,1-8,0c-1-.34-1.32-.71-1.32-.83s.32-.5,1.32-.83a14.6,14.6,0,0,1,8,0c1,.33,1.33.7,1.33.83S176,176.1,175,176.44Z"/><path class="cls-6" d="M171,174a13.27,13.27,0,0,1,4,.55c1,.34,1.33.71,1.33.84s-.33.49-1.33.83a14.86,14.86,0,0,1-8,0c-1-.34-1.32-.71-1.32-.83s.32-.5,1.32-.84a13.34,13.34,0,0,1,4-.55m0-.61c-3.28,0-5.94.9-5.94,2s2.66,2,5.94,2,5.94-.89,5.94-2-2.66-2-5.94-2Z"/><path class="cls-6" d="M171,174.57a10.52,10.52,0,0,1,4.44.78,13.19,13.19,0,0,1-8.88,0,10.52,10.52,0,0,1,4.44-.78"/><path class="cls-4" d="M176.89,174.54c0,1.1-2.66,2-5.94,2s-5.94-.89-5.94-2v-1.22h11.88Z"/><path class="cls-5" d="M176.89,173.32c0,1.1-2.66,2-5.94,2s-5.94-.89-5.94-2,2.66-2,5.94-2S176.89,172.22,176.89,173.32Z"/><path class="cls-4" d="M171,171.59c-3.15,0-5.73.82-5.93,1.86.2,1,2.78,1.86,5.93,1.86s5.72-.82,5.92-1.86C176.67,172.41,174.1,171.59,171,171.59Zm4,2.82a14.6,14.6,0,0,1-8,0c-1-.33-1.32-.7-1.32-.83s.32-.49,1.32-.83a14.86,14.86,0,0,1,8,0c1,.34,1.33.71,1.33.83S176,174.08,175,174.41Z"/><path class="cls-6" d="M171,171.94a13,13,0,0,1,4,.55c1,.34,1.33.7,1.33.83s-.33.5-1.33.83a14.86,14.86,0,0,1-8,0c-1-.33-1.32-.7-1.32-.83s.32-.49,1.32-.83a13,13,0,0,1,4-.55m0-.61c-3.28,0-5.94.89-5.94,2s2.66,2,5.94,2,5.94-.89,5.94-2-2.66-2-5.94-2Z"/><path class="cls-6" d="M171,172.55a10.57,10.57,0,0,1,4.44.77,13,13,0,0,1-8.88,0,10.57,10.57,0,0,1,4.44-.77"/><path class="cls-4" d="M178.93,172.51c0,1.1-2.66,2-5.94,2s-5.93-.9-5.93-2V171.3h11.87Z"/><path class="cls-5" d="M178.93,171.3c0,1.1-2.66,2-5.94,2s-5.93-.89-5.93-2,2.65-2,5.93-2S178.93,170.2,178.93,171.3Z"/><path class="cls-4" d="M173,169.56c-3.15,0-5.72.83-5.92,1.87.2,1,2.77,1.86,5.92,1.86s5.73-.82,5.93-1.86C178.72,170.39,176.14,169.56,173,169.56Zm4,2.83a14.86,14.86,0,0,1-8,0c-1-.34-1.33-.71-1.33-.83s.33-.5,1.33-.84a14.86,14.86,0,0,1,8,0c1,.34,1.32.71,1.32.84S178,172.05,177,172.39Z"/><path class="cls-6" d="M173,169.91a13.3,13.3,0,0,1,4,.55c1,.34,1.32.71,1.32.84s-.32.49-1.32.83a14.86,14.86,0,0,1-8,0c-1-.34-1.33-.71-1.33-.83s.33-.5,1.33-.84a13.27,13.27,0,0,1,4-.55m0-.61c-3.28,0-5.93.9-5.93,2s2.65,2,5.93,2,5.94-.89,5.94-2-2.66-2-5.94-2Z"/><path class="cls-6" d="M173,170.52a10.62,10.62,0,0,1,4.45.78,13.21,13.21,0,0,1-8.89,0,10.56,10.56,0,0,1,4.44-.78"/><path class="cls-4" d="M180.43,169.91c0,1.1-2.66,2-5.94,2s-5.94-.89-5.94-2v-1.22h11.88Z"/><path class="cls-5" d="M180.43,168.69c0,1.1-2.66,2-5.94,2s-5.94-.9-5.94-2,2.66-2,5.94-2S180.43,167.59,180.43,168.69Z"/><path class="cls-4" d="M174.49,167c-3.15,0-5.72.82-5.92,1.86.2,1,2.77,1.87,5.92,1.87s5.72-.83,5.92-1.87C180.21,167.78,177.64,167,174.49,167Zm4,2.83a14.82,14.82,0,0,1-8,0c-1-.34-1.33-.71-1.33-.84s.32-.49,1.33-.83a14.82,14.82,0,0,1,8,0c1,.34,1.33.71,1.33.83S179.49,169.45,178.49,169.79Z"/><path class="cls-6" d="M174.49,167.31a13.27,13.27,0,0,1,4,.55c1,.34,1.33.71,1.33.83s-.33.5-1.33.84a14.82,14.82,0,0,1-8,0c-1-.34-1.33-.71-1.33-.84s.32-.49,1.33-.83a13.27,13.27,0,0,1,4-.55m0-.61c-3.28,0-5.94.89-5.94,2s2.66,2,5.94,2,5.94-.9,5.94-2-2.66-2-5.94-2Z"/><path class="cls-6" d="M174.49,167.92a10.74,10.74,0,0,1,4.44.77,13,13,0,0,1-8.88,0,10.74,10.74,0,0,1,4.44-.77"/><path class="cls-4" d="M88.18,193c0,1.1,2.66,2,5.94,2s5.94-.89,5.94-2v-1.22H88.18Z"/><path class="cls-5" d="M88.18,191.74c0,1.1,2.66,2,5.94,2s5.94-.89,5.94-2-2.66-2-5.94-2S88.18,190.64,88.18,191.74Z"/><path class="cls-4" d="M88.2,191.87c.2,1,2.77,1.86,5.92,1.86s5.72-.82,5.92-1.86c-.2-1-2.77-1.86-5.92-1.86S88.4,190.83,88.2,191.87Zm.59.13c0-.13.33-.5,1.33-.83a14.82,14.82,0,0,1,8,0c1,.33,1.33.7,1.33.83s-.33.5-1.33.83a14.82,14.82,0,0,1-8,0C89.12,192.5,88.79,192.13,88.79,192Z"/><path class="cls-6" d="M94.12,190.36a13,13,0,0,1,4,.55c1,.33,1.33.7,1.33.83s-.33.49-1.33.83a14.82,14.82,0,0,1-8,0c-1-.34-1.33-.7-1.33-.83s.33-.5,1.33-.83a13,13,0,0,1,4-.55m0-.61c-3.28,0-5.94.89-5.94,2s2.66,2,5.94,2,5.94-.89,5.94-2-2.66-2-5.94-2Z"/><path class="cls-6" d="M94.12,191a10.52,10.52,0,0,1,4.44.78,13.19,13.19,0,0,1-8.88,0,10.52,10.52,0,0,1,4.44-.78"/><path class="cls-4" d="M88.18,190.93c0,1.1,2.66,2,5.94,2s5.94-.89,5.94-2v-1.22H88.18Z"/><path class="cls-5" d="M88.18,189.71c0,1.1,2.66,2,5.94,2s5.94-.9,5.94-2-2.66-2-5.94-2S88.18,188.61,88.18,189.71Z"/><path class="cls-4" d="M88.2,189.84c.2,1,2.77,1.87,5.92,1.87s5.72-.83,5.92-1.87c-.2-1-2.77-1.86-5.92-1.86S88.4,188.8,88.2,189.84Zm.59.13c0-.12.33-.49,1.33-.83a14.82,14.82,0,0,1,8,0c1,.34,1.33.71,1.33.83s-.33.5-1.33.84a14.82,14.82,0,0,1-8,0C89.12,190.47,88.79,190.1,88.79,190Z"/><path class="cls-6" d="M94.12,188.33a13.27,13.27,0,0,1,4,.55c1,.34,1.33.71,1.33.83s-.33.5-1.33.84a14.82,14.82,0,0,1-8,0c-1-.34-1.33-.71-1.33-.84s.33-.49,1.33-.83a13.27,13.27,0,0,1,4-.55m0-.61c-3.28,0-5.94.89-5.94,2s2.66,2,5.94,2,5.94-.9,5.94-2-2.66-2-5.94-2Z"/><path class="cls-6" d="M94.12,188.94a10.74,10.74,0,0,1,4.44.77,13,13,0,0,1-8.88,0,10.74,10.74,0,0,1,4.44-.77"/><path class="cls-4" d="M88.18,188.91c0,1.1,2.66,2,5.94,2s5.94-.89,5.94-2v-1.22H88.18Z"/><path class="cls-5" d="M88.18,187.69c0,1.1,2.66,2,5.94,2s5.94-.89,5.94-2-2.66-2-5.94-2S88.18,186.59,88.18,187.69Z"/><path class="cls-4" d="M88.2,187.82c.2,1,2.77,1.86,5.92,1.86s5.72-.82,5.92-1.86c-.2-1-2.77-1.86-5.92-1.86S88.4,186.78,88.2,187.82Zm.59.13c0-.13.33-.5,1.33-.83a14.82,14.82,0,0,1,8,0c1,.33,1.33.7,1.33.83s-.33.5-1.33.83a14.82,14.82,0,0,1-8,0C89.12,188.45,88.79,188.08,88.79,188Z"/><path class="cls-6" d="M94.12,186.3a12.94,12.94,0,0,1,4,.56c1,.33,1.33.7,1.33.83s-.33.49-1.33.83a14.82,14.82,0,0,1-8,0c-1-.34-1.33-.71-1.33-.83s.33-.5,1.33-.83a12.94,12.94,0,0,1,4-.56m0-.6c-3.28,0-5.94.89-5.94,2s2.66,2,5.94,2,5.94-.89,5.94-2-2.66-2-5.94-2Z"/><path class="cls-6" d="M94.12,186.91a10.52,10.52,0,0,1,4.44.78,13.19,13.19,0,0,1-8.88,0,10.52,10.52,0,0,1,4.44-.78"/><path class="cls-4" d="M88.18,186.88c0,1.1,2.66,2,5.94,2s5.94-.89,5.94-2v-1.22H88.18Z"/><path class="cls-5" d="M88.18,185.66c0,1.1,2.66,2,5.94,2s5.94-.9,5.94-2-2.66-2-5.94-2S88.18,184.56,88.18,185.66Z"/><path class="cls-4" d="M88.2,185.79c.2,1,2.77,1.87,5.92,1.87s5.72-.83,5.92-1.87c-.2-1-2.77-1.86-5.92-1.86S88.4,184.75,88.2,185.79Zm.59.13c0-.12.33-.49,1.33-.83a14.82,14.82,0,0,1,8,0c1,.34,1.33.71,1.33.83s-.33.5-1.33.84a14.82,14.82,0,0,1-8,0C89.12,186.42,88.79,186.05,88.79,185.92Z"/><path class="cls-6" d="M94.12,184.28a13.27,13.27,0,0,1,4,.55c1,.34,1.33.71,1.33.83s-.33.5-1.33.83a14.57,14.57,0,0,1-8,0c-1-.33-1.33-.7-1.33-.83s.33-.49,1.33-.83a13.27,13.27,0,0,1,4-.55m0-.61c-3.28,0-5.94.89-5.94,2s2.66,2,5.94,2,5.94-.9,5.94-2-2.66-2-5.94-2Z"/><path class="cls-6" d="M94.12,184.89a10.74,10.74,0,0,1,4.44.77,13,13,0,0,1-8.88,0,10.74,10.74,0,0,1,4.44-.77"/><path class="cls-4" d="M88.18,184.86c0,1.1,2.66,2,5.94,2s5.94-.89,5.94-2v-1.22H88.18Z"/><path class="cls-5" d="M88.18,183.64c0,1.1,2.66,2,5.94,2s5.94-.89,5.94-2-2.66-2-5.94-2S88.18,182.54,88.18,183.64Z"/><path class="cls-4" d="M88.2,183.77c.2,1,2.77,1.86,5.92,1.86s5.72-.82,5.92-1.86c-.2-1-2.77-1.86-5.92-1.86S88.4,182.73,88.2,183.77Zm.59.13c0-.13.33-.5,1.33-.83a14.57,14.57,0,0,1,8,0c1,.33,1.33.7,1.33.83s-.33.49-1.33.83a14.82,14.82,0,0,1-8,0C89.12,184.39,88.79,184,88.79,183.9Z"/><path class="cls-6" d="M94.12,182.25a12.94,12.94,0,0,1,4,.56c1,.33,1.33.7,1.33.83s-.33.49-1.33.83a14.82,14.82,0,0,1-8,0c-1-.34-1.33-.71-1.33-.83s.33-.5,1.33-.83a12.94,12.94,0,0,1,4-.56m0-.6c-3.28,0-5.94.89-5.94,2s2.66,2,5.94,2,5.94-.89,5.94-2-2.66-2-5.94-2Z"/><path class="cls-6" d="M94.12,182.86a10.52,10.52,0,0,1,4.44.78,13.19,13.19,0,0,1-8.88,0,10.52,10.52,0,0,1,4.44-.78"/><path class="cls-4" d="M88.18,182.83c0,1.1,2.66,2,5.94,2s5.94-.89,5.94-2v-1.22H88.18Z"/><path class="cls-5" d="M88.18,181.61c0,1.1,2.66,2,5.94,2s5.94-.89,5.94-2-2.66-2-5.94-2S88.18,180.51,88.18,181.61Z"/><path class="cls-4" d="M88.2,181.74c.2,1,2.77,1.86,5.92,1.86s5.72-.82,5.92-1.86c-.2-1-2.77-1.86-5.92-1.86S88.4,180.7,88.2,181.74Zm.59.13c0-.12.33-.49,1.33-.83a14.82,14.82,0,0,1,8,0c1,.34,1.33.71,1.33.83s-.33.5-1.33.84a14.82,14.82,0,0,1-8,0C89.12,182.37,88.79,182,88.79,181.87Z"/><path class="cls-6" d="M94.12,180.23a13.27,13.27,0,0,1,4,.55c1,.34,1.33.71,1.33.83s-.33.5-1.33.83a14.57,14.57,0,0,1-8,0c-1-.33-1.33-.7-1.33-.83s.33-.49,1.33-.83a13.27,13.27,0,0,1,4-.55m0-.61c-3.28,0-5.94.89-5.94,2s2.66,2,5.94,2,5.94-.89,5.94-2-2.66-2-5.94-2Z"/><path class="cls-6" d="M94.12,180.84a10.74,10.74,0,0,1,4.44.77,13,13,0,0,1-8.88,0,10.74,10.74,0,0,1,4.44-.77"/><path class="cls-4" d="M88.18,180.81c0,1.1,2.66,2,5.94,2s5.94-.89,5.94-2v-1.22H88.18Z"/><path class="cls-5" d="M88.18,179.59c0,1.1,2.66,2,5.94,2s5.94-.89,5.94-2-2.66-2-5.94-2S88.18,178.49,88.18,179.59Z"/><path class="cls-4" d="M88.2,179.72c.2,1,2.77,1.86,5.92,1.86s5.72-.82,5.92-1.86c-.2-1-2.77-1.86-5.92-1.86S88.4,178.68,88.2,179.72Zm.59.13c0-.13.33-.5,1.33-.83a14.57,14.57,0,0,1,8,0c1,.33,1.33.7,1.33.83s-.33.49-1.33.83a14.82,14.82,0,0,1-8,0C89.12,180.34,88.79,180,88.79,179.85Z"/><path class="cls-6" d="M94.12,178.2a12.94,12.94,0,0,1,4,.56c1,.33,1.33.7,1.33.83s-.33.49-1.33.83a14.82,14.82,0,0,1-8,0c-1-.34-1.33-.71-1.33-.83s.33-.5,1.33-.83a12.94,12.94,0,0,1,4-.56m0-.61c-3.28,0-5.94.9-5.94,2s2.66,2,5.94,2,5.94-.89,5.94-2-2.66-2-5.94-2Z"/><path class="cls-6" d="M94.12,178.81a10.52,10.52,0,0,1,4.44.78,13.19,13.19,0,0,1-8.88,0,10.52,10.52,0,0,1,4.44-.78"/><path class="cls-4" d="M86.14,178.78c0,1.1,2.65,2,5.93,2s5.94-.89,5.94-2v-1.22H86.14Z"/><path class="cls-5" d="M86.14,177.56c0,1.1,2.65,2,5.93,2s5.94-.89,5.94-2-2.66-2-5.94-2S86.14,176.46,86.14,177.56Z"/><path class="cls-4" d="M86.15,177.69c.2,1,2.77,1.86,5.92,1.86s5.73-.82,5.93-1.86c-.2-1-2.78-1.86-5.93-1.86S86.35,176.65,86.15,177.69Zm.6.13c0-.12.32-.49,1.32-.83a14.86,14.86,0,0,1,8,0c1,.34,1.32.71,1.32.83s-.32.5-1.32.83a14.6,14.6,0,0,1-8,0C87.07,178.32,86.75,178,86.75,177.82Z"/><path class="cls-6" d="M92.07,176.18a13,13,0,0,1,4,.55c1,.34,1.32.71,1.32.83s-.32.5-1.32.83a14.6,14.6,0,0,1-8,0c-1-.33-1.32-.7-1.32-.83s.32-.49,1.32-.83a13,13,0,0,1,4-.55m0-.61c-3.28,0-5.93.89-5.93,2s2.65,2,5.93,2,5.94-.89,5.94-2-2.66-2-5.94-2Z"/><path class="cls-6" d="M92.07,176.79a10.66,10.66,0,0,1,4.45.77,13.06,13.06,0,0,1-8.89,0,10.61,10.61,0,0,1,4.44-.77"/><path class="cls-4" d="M84.64,176.18c0,1.1,2.66,2,5.94,2s5.94-.89,5.94-2V175H84.64Z"/><path class="cls-5" d="M84.64,175c0,1.1,2.66,2,5.94,2s5.94-.89,5.94-2-2.66-2-5.94-2S84.64,173.86,84.64,175Z"/><path class="cls-4" d="M84.65,175.09c.2,1,2.78,1.86,5.93,1.86s5.72-.82,5.92-1.86c-.2-1-2.77-1.86-5.92-1.86S84.85,174.05,84.65,175.09Zm.6.13c0-.13.32-.5,1.32-.83a14.86,14.86,0,0,1,8,0c1,.33,1.33.7,1.33.83s-.33.5-1.33.83a14.86,14.86,0,0,1-8,0C85.57,175.72,85.25,175.35,85.25,175.22Z"/><path class="cls-6" d="M90.58,173.58a13,13,0,0,1,4,.55c1,.33,1.33.7,1.33.83s-.33.5-1.33.83a14.86,14.86,0,0,1-8,0c-1-.33-1.32-.7-1.32-.83s.32-.5,1.32-.83a13,13,0,0,1,4-.55m0-.61c-3.28,0-5.94.89-5.94,2s2.66,2,5.94,2,5.94-.89,5.94-2-2.66-2-5.94-2Z"/><path class="cls-6" d="M90.58,174.19A10.57,10.57,0,0,1,95,175a10.57,10.57,0,0,1-4.44.77,10.57,10.57,0,0,1-4.44-.77,10.57,10.57,0,0,1,4.44-.77"/><polygon class="cls-7" points="118.73 183.73 114.17 189.94 140.38 189.94 144.94 183.73 118.73 183.73"/><polygon class="cls-8" points="144.94 180.22 140.38 186.43 114.17 186.43 118.73 180.22 144.94 180.22"/><path class="cls-7" d="M141.45,181c0,.29.27.51.78.6L139.76,185a4,4,0,0,0-1.66.6H117.64c0-.28-.26-.5-.77-.6l2.47-3.36A3.79,3.79,0,0,0,121,181h20.46m.67-.27H120.73a2.49,2.49,0,0,1-1.77.64l-2.81,3.83c.71,0,1.08.28.82.64h21.39a2.44,2.44,0,0,1,1.77-.64h0l2.82-3.83h0c-.72,0-1.09-.29-.83-.64Z"/><path class="cls-7" d="M136.05,183.32c-.77,1.05-4.3,1.9-7.89,1.9s-5.88-.85-5.11-1.9,4.31-1.9,7.9-1.9S136.82,182.27,136.05,183.32Z"/><path class="cls-8" d="M130.15,182.06l.14-.19H131l-.14.19c.53.06.67.28.41.63l-.06.08h-.77l.08-.11c.13-.18,0-.25-.23-.25a.67.67,0,0,0-.59.25c-.39.53,1.19.56.65,1.3a1.84,1.84,0,0,1-1.35.63l-.14.19h-.67l.14-.19c-.55-.06-.68-.28-.42-.63l.13-.18h.77l-.15.2c-.13.19,0,.25.24.25a.69.69,0,0,0,.61-.25c.39-.53-1.19-.55-.65-1.29A1.8,1.8,0,0,1,130.15,182.06Z"/><path class="cls-7" d="M121,182.69l.07-.09h.33l-.07.09c.27,0,.34.14.21.32l0,0h-.39l0-.06c.07-.09,0-.12-.11-.12a.35.35,0,0,0-.3.12c-.19.27.6.28.33.65a.94.94,0,0,1-.68.32l-.07.09H120l.07-.09c-.27,0-.34-.15-.21-.32l.06-.09h.39l-.07.1c-.07.09,0,.13.12.13a.35.35,0,0,0,.3-.13c.2-.26-.59-.28-.32-.64A.86.86,0,0,1,121,182.69Z"/><path class="cls-7" d="M138.72,182.69l.07-.09h.34l-.07.09c.26,0,.33.14.2.32l0,0h-.38l0-.06c.06-.09,0-.12-.12-.12a.32.32,0,0,0-.29.12c-.2.27.59.28.32.65a.93.93,0,0,1-.67.32l-.07.09h-.34l.07-.09c-.27,0-.34-.15-.21-.32l.07-.09H138l-.07.1c-.07.09,0,.13.12.13a.35.35,0,0,0,.3-.13c.2-.26-.59-.28-.32-.64A.87.87,0,0,1,138.72,182.69Z"/><rect class="cls-9" x="114.17" y="186.43" width="26.21" height="3.51"/><polygon class="cls-10" points="140.38 186.43 140.38 189.94 144.94 183.73 144.94 180.22 140.38 186.43"/><polygon class="cls-11" points="129.59 180.22 125.02 186.43 129.51 186.43 134.08 180.22 129.59 180.22"/><rect class="cls-12" x="125.02" y="186.43" width="4.49" height="3.51"/><polygon class="cls-7" points="115.6 179.73 111.03 185.94 137.25 185.94 141.81 179.73 115.6 179.73"/><polygon class="cls-8" points="141.81 176.22 137.25 182.43 111.03 182.43 115.6 176.22 141.81 176.22"/><path class="cls-7" d="M138.32,177c0,.29.27.51.78.6L136.63,181a4,4,0,0,0-1.66.6H114.51c0-.28-.26-.5-.77-.59l2.47-3.37a3.79,3.79,0,0,0,1.65-.6h20.46m.67-.27H117.6a2.49,2.49,0,0,1-1.77.64L113,181.24c.72,0,1.09.28.83.64h21.39a2.44,2.44,0,0,1,1.77-.64h0l2.82-3.83h0c-.71,0-1.08-.29-.82-.64Z"/><path class="cls-7" d="M132.92,179.32c-.77,1.05-4.3,1.9-7.89,1.9s-5.88-.85-5.11-1.9,4.31-1.9,7.9-1.9S133.69,178.27,132.92,179.32Z"/><path class="cls-8" d="M127,178.06l.14-.19h.67l-.14.19c.53.06.67.28.41.63l-.06.08h-.77l.08-.11c.13-.18,0-.25-.23-.25a.67.67,0,0,0-.59.25c-.39.53,1.19.56.65,1.3a1.84,1.84,0,0,1-1.35.63l-.14.19H125l.14-.19c-.55-.06-.68-.28-.42-.63l.13-.18h.77l-.15.2c-.13.19,0,.25.24.25a.69.69,0,0,0,.61-.25c.39-.53-1.19-.55-.65-1.29A1.78,1.78,0,0,1,127,178.06Z"/><path class="cls-7" d="M117.85,178.69l.07-.09h.33l-.07.09c.27,0,.34.14.21.32l0,0H118l0-.06c.07-.09,0-.12-.11-.12a.35.35,0,0,0-.3.12c-.19.27.6.28.33.65a1,1,0,0,1-.68.32l-.07.09h-.33l.07-.09c-.27,0-.34-.15-.21-.32l.06-.09h.39l-.07.1c-.07.09,0,.13.12.13a.35.35,0,0,0,.3-.13c.19-.26-.6-.28-.32-.64A.86.86,0,0,1,117.85,178.69Z"/><path class="cls-7" d="M135.59,178.69l.07-.09H136l-.07.09c.26,0,.33.14.2.32l0,0h-.38l0-.06c.06-.09,0-.12-.12-.12a.32.32,0,0,0-.29.12c-.2.27.59.28.32.65a.93.93,0,0,1-.67.32l-.07.09h-.34l.07-.09c-.27,0-.34-.15-.21-.32l.07-.09h.38l-.07.1c-.07.09,0,.13.12.13a.35.35,0,0,0,.3-.13c.2-.26-.59-.28-.32-.64A.86.86,0,0,1,135.59,178.69Z"/><rect class="cls-9" x="111.03" y="182.43" width="26.21" height="3.51"/><polygon class="cls-10" points="137.25 182.43 137.25 185.94 141.81 179.73 141.81 176.22 137.25 182.43"/><polygon class="cls-11" points="126.45 176.22 121.89 182.43 126.38 182.43 130.95 176.22 126.45 176.22"/><rect class="cls-12" x="121.89" y="182.43" width="4.49" height="3.51"/><polygon class="cls-7" points="115.6 175.74 111.03 181.94 137.25 181.94 141.81 175.74 115.6 175.74"/><polygon class="cls-8" points="141.81 172.22 137.25 178.43 111.03 178.43 115.6 172.22 141.81 172.22"/><path class="cls-7" d="M138.32,173c0,.29.27.51.78.6L136.63,177a4,4,0,0,0-1.66.6H114.51c0-.28-.26-.5-.77-.59l2.47-3.37a3.79,3.79,0,0,0,1.65-.6h20.46m.67-.27H117.6a2.49,2.49,0,0,1-1.77.64L113,177.24c.72,0,1.09.28.83.64h21.39a2.44,2.44,0,0,1,1.77-.64h0l2.82-3.83h0c-.71,0-1.08-.29-.82-.64Z"/><path class="cls-7" d="M132.92,175.32c-.77,1.05-4.3,1.9-7.89,1.9s-5.88-.85-5.11-1.9,4.31-1.9,7.9-1.9S133.69,174.27,132.92,175.32Z"/><path class="cls-8" d="M127,174.06l.14-.19h.67l-.14.19c.53.06.67.28.41.63l-.06.08h-.77l.08-.11c.13-.18,0-.25-.23-.25a.67.67,0,0,0-.59.25c-.39.53,1.19.56.65,1.3a1.84,1.84,0,0,1-1.35.63l-.14.19H125l.14-.19c-.55-.06-.68-.28-.42-.63l.13-.18h.77l-.15.2c-.13.19,0,.25.24.25a.69.69,0,0,0,.61-.25c.39-.53-1.19-.55-.65-1.29A1.78,1.78,0,0,1,127,174.06Z"/><path class="cls-7" d="M117.85,174.69l.07-.09h.33l-.07.09c.27,0,.34.14.21.32l0,0H118l0-.06c.07-.09,0-.12-.11-.12a.35.35,0,0,0-.3.12c-.19.27.6.28.33.65a1,1,0,0,1-.68.32l-.07.09h-.33l.07-.09c-.27,0-.34-.15-.21-.32l.06-.09h.39l-.07.1c-.07.09,0,.13.12.13a.35.35,0,0,0,.3-.13c.19-.26-.6-.28-.32-.64A.86.86,0,0,1,117.85,174.69Z"/><path class="cls-7" d="M135.59,174.69l.07-.09H136l-.07.09c.26,0,.33.14.2.32l0,0h-.38l0-.06c.06-.09,0-.12-.12-.12a.32.32,0,0,0-.29.12c-.2.27.59.28.32.65a.93.93,0,0,1-.67.32l-.07.09h-.34l.07-.09c-.27,0-.34-.15-.21-.32l.07-.09h.38l-.07.1c-.07.09,0,.13.12.13a.35.35,0,0,0,.3-.13c.2-.26-.59-.28-.32-.64A.86.86,0,0,1,135.59,174.69Z"/><rect class="cls-9" x="111.03" y="178.43" width="26.21" height="3.51"/><polygon class="cls-10" points="137.25 178.43 137.25 181.94 141.81 175.74 141.81 172.22 137.25 178.43"/><polygon class="cls-11" points="126.45 172.22 121.89 178.43 126.38 178.43 130.95 172.22 126.45 172.22"/><polygon class="cls-3" points="115.6 172.22 111.89 177.26 137.25 177.26 138.22 177.1 141.81 172.22 115.6 172.22"/><rect class="cls-12" x="121.89" y="178.43" width="4.49" height="3.51"/><polygon class="cls-7" points="121.04 170.15 116.48 176.36 142.69 176.36 147.25 170.15 121.04 170.15"/><polygon class="cls-8" points="147.25 166.64 142.69 172.84 116.48 172.84 121.04 166.64 147.25 166.64"/><path class="cls-7" d="M143.76,167.46c0,.29.27.51.79.6l-2.47,3.36a4,4,0,0,0-1.67.6H120c0-.28-.26-.51-.77-.6l2.48-3.36a3.92,3.92,0,0,0,1.65-.6h20.45m.67-.27H123a2.49,2.49,0,0,1-1.77.64l-2.81,3.83c.71,0,1.08.28.82.64h21.4a2.44,2.44,0,0,1,1.76-.64h0l2.81-3.83h0c-.72,0-1.09-.29-.83-.64Z"/><path class="cls-7" d="M138.37,169.74c-.78,1-4.31,1.9-7.9,1.9s-5.88-.85-5.1-1.9,4.3-1.9,7.89-1.9S139.14,168.69,138.37,169.74Z"/><path class="cls-8" d="M132.46,168.48l.14-.19h.67l-.14.19c.54.06.67.28.41.63l-.06.08h-.77l.08-.11c.13-.18,0-.25-.22-.25a.7.7,0,0,0-.6.25c-.39.53,1.19.56.65,1.29a1.81,1.81,0,0,1-1.35.64l-.14.19h-.67l.14-.19c-.54-.06-.68-.28-.42-.64l.13-.17h.77l-.15.2c-.13.18,0,.25.24.25a.7.7,0,0,0,.61-.25c.39-.53-1.19-.55-.65-1.29A1.8,1.8,0,0,1,132.46,168.48Z"/><path class="cls-7" d="M123.29,169.11l.07-.1h.34l-.07.1c.26,0,.33.14.2.32l0,0h-.38l0-.06c.06-.09,0-.12-.12-.12a.32.32,0,0,0-.29.12c-.2.27.59.28.32.65a.89.89,0,0,1-.67.31l-.07.1h-.34l.07-.1c-.27,0-.34-.14-.21-.31l.07-.09h.38l-.07.1c-.07.09,0,.13.12.13a.34.34,0,0,0,.3-.13c.2-.26-.59-.28-.32-.64A.87.87,0,0,1,123.29,169.11Z"/><path class="cls-7" d="M141,169.11l.07-.1h.34l-.07.1c.27,0,.33.14.21.32l0,0h-.39l0-.06c.07-.09,0-.12-.11-.12a.35.35,0,0,0-.3.12c-.2.27.59.28.32.65a.87.87,0,0,1-.67.31l-.07.1H140l.07-.1c-.27,0-.33-.14-.21-.31L140,170h.39l-.08.1c-.07.09,0,.13.12.13a.37.37,0,0,0,.31-.13c.19-.26-.6-.28-.33-.64A.87.87,0,0,1,141,169.11Z"/><rect class="cls-9" x="116.48" y="172.84" width="26.21" height="3.51"/><polygon class="cls-13" points="142.69 172.84 142.69 176.36 147.25 170.15 147.25 166.64 142.69 172.84"/><polygon class="cls-11" points="131.9 166.64 127.33 172.84 131.83 172.84 136.39 166.64 131.9 166.64"/><rect class="cls-12" x="127.33" y="172.84" width="4.49" height="3.51"/><polygon class="cls-7" points="147.88 188.59 143.31 194.8 169.52 194.8 174.09 188.59 147.88 188.59"/><polygon class="cls-8" points="174.09 185.08 169.52 191.29 143.31 191.29 147.88 185.08 174.09 185.08"/><path class="cls-7" d="M170.6,185.9c0,.29.26.51.78.6l-2.47,3.36a4,4,0,0,0-1.67.6H146.78c0-.28-.26-.5-.77-.59l2.48-3.37a3.79,3.79,0,0,0,1.65-.6H170.6m.67-.27h-21.4a2.48,2.48,0,0,1-1.76.64l-2.82,3.83c.72,0,1.08.28.82.64h21.4a2.44,2.44,0,0,1,1.77-.64h0l2.82-3.83h0c-.71,0-1.08-.29-.82-.64Z"/><path class="cls-7" d="M165.2,188.18c-.77,1-4.31,1.9-7.9,1.9s-5.87-.85-5.1-1.9,4.31-1.9,7.9-1.9S166,187.13,165.2,188.18Z"/><path class="cls-8" d="M159.29,186.92l.14-.19h.67l-.14.19c.54.06.67.28.42.63l-.06.08h-.78l.08-.11c.14-.18,0-.25-.22-.25a.7.7,0,0,0-.6.25c-.39.53,1.19.56.65,1.3a1.81,1.81,0,0,1-1.35.63l-.14.19h-.67l.14-.19c-.54-.06-.67-.28-.42-.63l.13-.18h.78l-.15.2c-.14.19,0,.25.24.25a.69.69,0,0,0,.61-.25c.39-.53-1.19-.55-.65-1.29A1.75,1.75,0,0,1,159.29,186.92Z"/><path class="cls-7" d="M150.12,187.55l.07-.09h.34l-.07.09c.27,0,.34.14.21.32l0,0h-.39l0-.06c.07-.09,0-.12-.11-.12a.35.35,0,0,0-.3.12c-.19.27.6.28.32.65a.91.91,0,0,1-.67.32l-.07.09h-.33l.06-.09c-.27,0-.33-.15-.21-.32l.07-.09h.39l-.08.1c-.07.09,0,.13.12.13a.37.37,0,0,0,.31-.13c.19-.26-.6-.28-.33-.64A.89.89,0,0,1,150.12,187.55Z"/><path class="cls-7" d="M167.87,187.55l.07-.09h.33l-.07.09c.27,0,.34.14.21.32l0,0H168l0-.06c.07-.09,0-.12-.11-.12a.35.35,0,0,0-.3.12c-.19.27.6.28.33.65a1,1,0,0,1-.68.32l-.07.09h-.33l.07-.09c-.28,0-.34-.15-.21-.32l.06-.09h.39l-.08.1c-.06.09,0,.13.12.13a.37.37,0,0,0,.31-.13c.19-.26-.6-.28-.33-.64A.9.9,0,0,1,167.87,187.55Z"/><rect class="cls-9" x="143.31" y="191.29" width="26.21" height="3.51"/><polygon class="cls-13" points="169.52 191.29 169.52 194.8 174.09 188.59 174.09 185.08 169.52 191.29"/><polygon class="cls-11" points="158.73 185.08 154.17 191.29 158.66 191.29 163.22 185.08 158.73 185.08"/><rect class="cls-12" x="154.17" y="191.29" width="4.49" height="3.51"/><path class="cls-4" d="M116.73,191.1c0,1.1-2.66,2-5.94,2s-5.94-.89-5.94-2v-1.22h11.88Z"/><path class="cls-5" d="M116.73,189.88c0,1.1-2.66,2-5.94,2s-5.94-.89-5.94-2,2.66-2,5.94-2S116.73,188.78,116.73,189.88Z"/><path class="cls-4" d="M110.79,188.15c-3.15,0-5.73.82-5.93,1.86.2,1,2.78,1.86,5.93,1.86s5.72-.82,5.92-1.86C116.51,189,113.94,188.15,110.79,188.15Zm4,2.82a14.86,14.86,0,0,1-8,0c-1-.33-1.32-.7-1.32-.83s.32-.5,1.32-.83a14.86,14.86,0,0,1,8,0c1,.33,1.33.7,1.33.83S115.79,190.64,114.79,191Z"/><path class="cls-6" d="M110.79,188.5a13,13,0,0,1,4,.55c1,.33,1.33.7,1.33.83s-.33.5-1.33.83a14.86,14.86,0,0,1-8,0c-1-.33-1.32-.7-1.32-.83s.32-.5,1.32-.83a13,13,0,0,1,4-.55m0-.61c-3.28,0-5.94.89-5.94,2s2.66,2,5.94,2,5.94-.89,5.94-2-2.66-2-5.94-2Z"/><path class="cls-6" d="M110.79,189.1a10.52,10.52,0,0,1,4.44.78,13.19,13.19,0,0,1-8.88,0,10.52,10.52,0,0,1,4.44-.78"/><path class="cls-4" d="M190.37,192.48c0,1.1-2.66,2-5.94,2s-5.94-.89-5.94-2v-1.22h11.88Z"/><path class="cls-5" d="M190.37,191.26c0,1.1-2.66,2-5.94,2s-5.94-.9-5.94-2,2.66-2,5.94-2S190.37,190.16,190.37,191.26Z"/><path class="cls-4" d="M184.43,189.53c-3.15,0-5.73.82-5.93,1.86.2,1,2.78,1.87,5.93,1.87s5.72-.83,5.92-1.87C190.15,190.35,187.58,189.53,184.43,189.53Zm4,2.83a14.86,14.86,0,0,1-8,0c-1-.34-1.32-.71-1.32-.84s.32-.49,1.32-.83a14.86,14.86,0,0,1,8,0c1,.34,1.33.71,1.33.83S189.43,192,188.43,192.36Z"/><path class="cls-6" d="M184.43,189.88a13.27,13.27,0,0,1,4,.55c1,.34,1.33.71,1.33.83s-.33.5-1.33.83a14.6,14.6,0,0,1-8,0c-1-.33-1.32-.7-1.32-.83s.32-.49,1.32-.83a13.34,13.34,0,0,1,4-.55m0-.61c-3.28,0-5.94.89-5.94,2s2.66,2,5.94,2,5.94-.9,5.94-2-2.66-2-5.94-2Z"/><path class="cls-6" d="M184.43,190.49a10.74,10.74,0,0,1,4.44.77,13,13,0,0,1-8.88,0,10.74,10.74,0,0,1,4.44-.77"/><path class="cls-4" d="M135.28,196.1c0,1.1-2.66,2-5.94,2s-5.93-.89-5.93-2v-1.22h11.87Z"/><path class="cls-5" d="M135.28,194.88c0,1.1-2.66,2-5.94,2s-5.93-.9-5.93-2,2.66-2,5.93-2S135.28,193.78,135.28,194.88Z"/><path class="cls-4" d="M129.34,193.15c-3.14,0-5.72.83-5.92,1.87.2,1,2.78,1.86,5.92,1.86s5.73-.83,5.93-1.86C135.07,194,132.49,193.15,129.34,193.15Zm4,2.83a14.86,14.86,0,0,1-8,0c-1-.34-1.32-.71-1.32-.84s.32-.49,1.32-.83a14.86,14.86,0,0,1,8,0c1,.34,1.32.71,1.32.83S134.35,195.64,133.35,196Z"/><path class="cls-6" d="M129.34,193.5a13.3,13.3,0,0,1,4,.55c1,.34,1.32.71,1.32.83s-.32.5-1.32.84a14.86,14.86,0,0,1-8,0c-1-.34-1.32-.71-1.32-.84s.32-.49,1.32-.83a13.27,13.27,0,0,1,4-.55m0-.61c-3.27,0-5.93.89-5.93,2s2.66,2,5.93,2,5.94-.9,5.94-2-2.66-2-5.94-2Z"/><path class="cls-6" d="M129.34,194.11a10.83,10.83,0,0,1,4.45.77,13.06,13.06,0,0,1-8.89,0,10.77,10.77,0,0,1,4.44-.77"/><path class="cls-4" d="M84.14,187.88c0,1.1-2.66,2-5.94,2s-5.94-.89-5.94-2v-1.22H84.14Z"/><path class="cls-5" d="M84.14,186.66c0,1.1-2.66,2-5.94,2s-5.94-.89-5.94-2,2.66-2,5.94-2S84.14,185.56,84.14,186.66Z"/><path class="cls-4" d="M78.2,184.93c-3.15,0-5.72.82-5.92,1.86.2,1,2.77,1.86,5.92,1.86s5.72-.82,5.92-1.86C83.92,185.75,81.35,184.93,78.2,184.93Zm4,2.82a14.86,14.86,0,0,1-8,0c-1-.33-1.33-.7-1.33-.83s.33-.5,1.33-.83a14.86,14.86,0,0,1,8,0c1,.33,1.32.7,1.32.83S83.21,187.42,82.21,187.75Z"/><path class="cls-6" d="M78.2,185.28a13.08,13.08,0,0,1,4,.55c1,.33,1.32.7,1.32.83s-.32.5-1.32.83a14.86,14.86,0,0,1-8,0c-1-.33-1.33-.7-1.33-.83s.33-.5,1.33-.83a13,13,0,0,1,4-.55m0-.61c-3.28,0-5.94.89-5.94,2s2.66,2,5.94,2,5.94-.89,5.94-2-2.66-2-5.94-2Z"/><path class="cls-6" d="M78.2,185.88a10.52,10.52,0,0,1,4.44.78,10.57,10.57,0,0,1-4.44.77,10.57,10.57,0,0,1-4.44-.77,10.52,10.52,0,0,1,4.44-.78"/><polygon class="cls-3" points="141.45 180.22 141.81 179.73 141.81 176.36 138.77 176.36 138.22 177.1 138.22 177.1 138.22 180.62 138.58 180.62 138.58 184.13 142.03 184.13 142.03 187.7 144.94 183.73 144.94 180.22 141.45 180.22"/><polygon class="cls-11" points="154.18 164.45 154.44 164.93 154.92 165.2 154.44 165.46 154.18 165.94 153.91 165.46 153.43 165.2 153.91 164.93 154.18 164.45"/><polygon class="cls-11" points="188.13 192.13 188.39 192.61 188.87 192.87 188.39 193.13 188.13 193.61 187.86 193.13 187.38 192.87 187.86 192.61 188.13 192.13"/><polygon class="cls-11" points="108.16 170.15 108.49 170.75 109.09 171.08 108.49 171.41 108.16 172 107.83 171.41 107.24 171.08 107.83 170.75 108.16 170.15"/><polygon class="cls-11" points="73.2 184.67 73.53 185.27 74.13 185.6 73.53 185.93 73.2 186.52 72.88 185.93 72.28 185.6 72.88 185.27 73.2 184.67"/><polygon class="cls-11" points="97.08 167.68 97.38 168.23 97.92 168.53 97.38 168.82 97.08 169.37 96.78 168.82 96.24 168.53 96.78 168.23 97.08 167.68"/><polygon class="cls-11" points="86.15 172.77 86.45 173.31 86.99 173.61 86.45 173.91 86.15 174.45 85.85 173.91 85.31 173.61 85.85 173.31 86.15 172.77"/><polygon class="cls-11" points="187.38 173.47 187.71 174.07 188.31 174.4 187.71 174.73 187.38 175.33 187.06 174.73 186.46 174.4 187.06 174.07 187.38 173.47"/><polygon class="cls-11" points="165.85 158.68 166.15 159.22 166.69 159.52 166.15 159.82 165.85 160.36 165.56 159.82 165.01 159.52 165.56 159.22 165.85 158.68"/><polygon class="cls-11" points="132.67 158.68 132.97 159.22 133.51 159.52 132.97 159.82 132.67 160.36 132.37 159.82 131.83 159.52 132.37 159.22 132.67 158.68"/><polygon class="cls-14" points="173.02 108.51 154.07 105.2 153.61 89.64 172.56 92.94 173.02 108.51"/><polygon class="cls-15" points="146.67 123.56 127.72 120.25 150 85.92 168.95 89.23 146.67 123.56"/><polygon class="cls-16" points="160.6 102.1 168.95 89.23 150 85.92 146.12 91.92 160.6 102.1"/><polygon class="cls-15" points="158.83 91.97 139.88 88.67 168.96 59 187.91 62.31 158.83 91.97"/><polygon class="cls-14" points="146.94 132.43 127.98 129.13 96.95 97.22 115.91 100.53 146.94 132.43"/><polygon class="cls-15" points="86.73 131.24 67.78 127.94 96.69 88.35 115.64 91.66 86.73 131.24"/><polygon class="cls-14" points="86.99 140.11 68.04 136.81 37.64 126.24 56.59 129.54 86.99 140.11"/><polygon class="cls-15" points="27.25 154.66 8.29 151.35 37.38 117.36 56.33 120.67 27.25 154.66"/><polygon class="cls-14" points="27.51 163.53 8.56 160.22 8.29 151.35 27.25 154.66 27.51 163.53"/><polygon class="cls-17" points="187.91 62.31 173.02 108.51 172.56 92.94 146.94 132.43 115.91 100.53 86.99 140.11 56.59 129.54 27.51 163.53 27.25 154.66 56.33 120.67 86.73 131.24 115.64 91.66 146.67 123.56 168.95 89.23 158.83 91.97 187.91 62.31"/><rect class="cls-18" x="44.94" y="67.68" width="7.06" height="7.26"/><polygon class="cls-19" points="43.03 192.59 31.92 192.59 31.92 124.02 49.05 124.02 43.03 192.59"/><polygon class="cls-19" points="65.09 192.59 53.98 192.59 47.15 124.02 65.09 124.02 65.09 192.59"/><path class="cls-20" d="M60.57,55.65c0,8.33-5.41,15.06-12.1,15.06S36.38,64,36.38,55.65,41.8,40.59,48.47,40.59,60.57,47.34,60.57,55.65Z"/><path class="cls-21" d="M36.44,54.13c5.76-.12,7.71-7.28,4.4-10.26C37.39,44.87,35.61,47.92,36.44,54.13Z"/><path class="cls-21" d="M60.53,53.76c-5.76-.13-7.71-7.29-4.41-10.29C59.59,44.49,61.37,47.53,60.53,53.76Z"/><path class="cls-22" d="M44,55.24a.91.91,0,1,1-.9-.91A.92.92,0,0,1,44,55.24Z"/><path class="cls-22" d="M55,55.24a.9.9,0,1,1-.89-.91A.89.89,0,0,1,55,55.24Z"/><rect class="cls-22" x="52.37" y="52.63" width="3.39" height="0.59"/><rect class="cls-22" x="41.44" y="52.63" width="3.38" height="0.59"/><path class="cls-20" d="M37.33,55.49A1.49,1.49,0,1,1,35.85,54,1.49,1.49,0,0,1,37.33,55.49Z"/><path class="cls-20" d="M62.44,55.24A1.49,1.49,0,1,1,61,53.76,1.49,1.49,0,0,1,62.44,55.24Z"/><path class="cls-18" d="M61.86,55.24a.91.91,0,1,1-.91-.91A.91.91,0,0,1,61.86,55.24Z"/><path class="cls-18" d="M36.76,55.49a.91.91,0,1,1-.91-.9A.91.91,0,0,1,36.76,55.49Z"/><polygon class="cls-23" points="48.67 61.56 46.29 61.56 48.29 54.76 48.66 54.87 46.81 61.17 48.67 61.17 48.67 61.56"/><rect class="cls-24" x="29.85" y="74.45" width="35.25" height="54.49"/><polygon class="cls-25" points="17.46 199.75 25.6 199.75 35.08 198.84 35.08 199.75 42.23 199.75 42.23 192.59 33.13 192.68 17.46 197.13 17.46 199.75"/><polygon class="cls-26" points="17.46 198.28 17.46 199.75 25.6 199.75 35.08 198.84 35.08 199.75 42.23 199.75 42.23 198.28 17.46 198.28"/><polygon class="cls-25" points="79.5 199.75 71.36 199.75 61.87 198.84 61.87 199.75 54.72 199.75 54.72 192.59 63.83 192.68 79.5 197.13 79.5 199.75"/><polygon class="cls-26" points="79.5 198.28 79.5 199.75 71.36 199.75 61.87 198.84 61.87 199.75 54.72 199.75 54.72 198.28 79.5 198.28"/><path class="cls-23" d="M48.15,66.3a10.55,10.55,0,0,1-4-.71l.15-.34a11.47,11.47,0,0,0,7.84,0l.13.35A12.41,12.41,0,0,1,48.15,66.3Z"/><path class="cls-20" d="M65.32,131.61l2.5-3.88-4-2.55L61.29,129a2.4,2.4,0,0,0,4,2.6Z"/><path class="cls-24" d="M69.13,75.78a4.2,4.2,0,0,0-6.9,4.57s.39.71.54.92c3,4.51,15.57,26,.1,45.06a17.5,17.5,0,0,0,4.18,3c24-26.76,2.2-53.39,2.2-53.39h0Z"/><path class="cls-20" d="M34.56,129.29l-2.7-3.74L28,128.4l2.67,3.7a2.4,2.4,0,0,0,3.88-2.81Z"/><path class="cls-24" d="M26.59,75.76a4.21,4.21,0,0,1,6.91,4.6,10.25,10.25,0,0,1-.56.9c-3,4.52-15.57,26-.13,45.07a18.24,18.24,0,0,1-4.17,3c-24-26.78-2.17-53.4-2.17-53.4h0A.76.76,0,0,0,26.59,75.76Z"/><path class="cls-24" d="M48.47,37a13,13,0,0,0-13,13H61.5A13,13,0,0,0,48.47,37Z"/><path class="cls-27" d="M48.47,54.06c-7.2,0-13-1.84-13-4.1H61.5C61.5,52.22,55.67,54.06,48.47,54.06Z"/><path class="cls-17" d="M64.92,110.13H30.05l.13.85h0l.91,5.68,1.4,8.72v0l.24,1.55h0l0,.16.28,1.74h0l.05.32H61.78l.06-.32h0l3.08-18.48h0Zm-6,1.27h3.44v3.46H59Zm0,6h3.44v1.65l-.29,1.8H59Zm-23,9.46H33.78l-.54-3.45h2.68Zm0-6H32.81l-.33-2.13v-1.32h3.44Zm0-6H32.48V111.4h3.44Zm5.3,12H37.77v-3.45h3.45Zm0-6H37.77v-3.45h3.45Zm0-6H37.77V111.4h3.45Zm5.29,12H43.07v-3.45h3.44Zm0-6H43.07v-3.45h3.44Zm0-6H43.07V111.4h3.44Zm5.3,12H48.36v-3.45h3.45Zm0-6H48.36v-3.45h3.45Zm0-6H48.36V111.4h3.45Zm5.3,12H53.66v-3.45h3.45Zm0-6H53.66v-3.45h3.45Zm0-6H53.66V111.4h3.45ZM59,123.43h2.71l-.56,3.45H59Z"/><rect class="cls-28" x="28.72" y="107.15" width="37.51" height="3.65"/><polygon class="cls-29" points="32.37 109.33 31.43 108.53 42.77 95.34 43.71 96.14 32.37 109.33"/><polygon class="cls-29" points="62.55 109.33 63.49 108.53 52.15 95.34 51.22 96.14 62.55 109.33"/></g></g></svg>