<svg xmlns="http://www.w3.org/2000/svg" xmlns:xlink="http://www.w3.org/1999/xlink" width="200.17" height="402.52" viewBox="0 0 200.17 402.52"><defs><style>.cls-1{isolation:isolate;}.cls-2{fill:#26eaf9;}.cls-3{fill:#679fc1;}.cls-16,.cls-4{fill:none;stroke-miterlimit:10;}.cls-4{stroke:#eebf99;stroke-linecap:round;stroke-width:14px;}.cls-5{fill:#d89c60;}.cls-6{fill:#ba8352;}.cls-7{fill:#fff;}.cls-8{fill:#ff5b45;}.cls-9{fill:#666565;}.cls-10{fill:#592c2a;}.cls-11{fill:#93362f;}.cls-12{fill:#b25a42;}.cls-13{fill:#e0dada;}.cls-14{fill:#ffce55;}.cls-15{fill:#e8b23a;}.cls-16{stroke:#000;stroke-width:3px;}.cls-17{fill:#eebf99;}.cls-18,.cls-23{fill:#1e0909;}.cls-18,.cls-24,.cls-25{opacity:0.17;}.cls-18,.cls-23,.cls-24,.cls-25{mix-blend-mode:multiply;}.cls-19{fill:#472218;}.cls-20{fill:#443330;}.cls-21{fill:#e49494;}.cls-22{fill:#322f44;}.cls-23{opacity:0.3;}.cls-24{fill:url(#linear-gradient);}.cls-25{fill:url(#linear-gradient-2);}.cls-26{opacity:0.57;}</style><linearGradient id="linear-gradient" x1="1398.16" y1="64.63" x2="1410.54" y2="64.63" gradientTransform="translate(-1333.67 7.22) rotate(-0.01)" gradientUnits="userSpaceOnUse"><stop offset="0" stop-color="#fff"/><stop offset="0.23" stop-color="#c7b9b9"/><stop offset="0.51" stop-color="#886b6b"/><stop offset="0.74" stop-color="#593131"/><stop offset="0.91" stop-color="#3d0d0d"/><stop offset="1" stop-color="#320000"/></linearGradient><linearGradient id="linear-gradient-2" x1="-1252.12" y1="64.95" x2="-1239.74" y2="64.95" gradientTransform="matrix(-1, 0, 0, 1, -1086.29, 4.85)" xlink:href="#linear-gradient"/></defs><title>login-shiptime</title><g class="cls-1"><g id="Layer_1" data-name="Layer 1"><path d="M93.51,328.24l-40.76,6.41a3.45,3.45,0,0,1-3.95-3.9c.79-5.69,4.32-15.16,18.68-19.08C88.65,305.9,93.51,328.24,93.51,328.24Z"/><path d="M136.88,328.24l40.76,6.41a3.45,3.45,0,0,0,3.95-3.9c-.79-5.69-4.32-15.16-18.68-19.08C141.75,305.9,136.88,328.24,136.88,328.24Z"/><path class="cls-2" d="M79.9,320.72a10.7,10.7,0,0,1-9.57-5.91c-.08-.15-7.67-15.34-15.16-31.74-16-35-16-41.4-16-44.5,0-15,18.54-21,24.63-23a137.85,137.85,0,0,1,18.88-4.53A10.7,10.7,0,0,1,86,232.19h0c-10,1.58-21.31,5.2-25.12,7.91,2.25,9.51,16,40.07,28.56,65.12a10.7,10.7,0,0,1-9.56,15.49Z"/><path class="cls-2" d="M149.46,320.72a10.7,10.7,0,0,0,9.57-5.91c.08-.15,7.67-15.34,15.16-31.74,16-35,16-41.4,16-44.5,0-15-18.54-21-24.63-23a137.85,137.85,0,0,0-18.88-4.53,10.7,10.7,0,0,0-3.31,21.14h0c10,1.58,21.31,5.2,25.12,7.91-2.25,9.51-16,40.07-28.56,65.12a10.7,10.7,0,0,0,9.56,15.49Z"/><rect class="cls-3" x="76.44" y="120.98" width="77.44" height="100.83" rx="13.58" ry="13.58"/><path class="cls-4" d="M83.3,130.1s-54.79-.42-71,32.33,8.75,53.94,21.4,59.39"/><rect class="cls-5" x="9.38" y="158.88" width="71.55" height="58.34" transform="translate(-22.91 7.03) rotate(-7.1)"/><rect class="cls-6" x="42.76" y="157.87" width="4.66" height="59.35" transform="translate(-22.85 7.02) rotate(-7.1)"/><rect class="cls-6" x="42.65" y="151.23" width="4.66" height="72.65" transform="translate(225.54 119.73) rotate(82.9)"/><rect class="cls-7" x="10.88" y="165.06" width="18.27" height="8.25" transform="translate(-20.77 3.77) rotate(-7.1)"/><path class="cls-4" d="M149.72,130.1s56.3,64,40.74,71.88c-10.12,5.12-30.71-34.15-30.71-34.15"/><path class="cls-2" d="M159.44,155.29,173,144.35S157.26,121.93,150.33,121s-13.94,3.79-10.37,10.72S159.44,155.29,159.44,155.29Z"/><path class="cls-2" d="M56.07,141.34,54.4,124s27-4.4,32.57-.11,7,12.62-.42,14.92S56.07,141.34,56.07,141.34Z"/><path class="cls-8" d="M152.34,217.69h-17v-43.1a6.79,6.79,0,0,0-6.77-6.77H101.08a6.79,6.79,0,0,0-6.77,6.77v43.1H77a9.91,9.91,0,0,0-9.88,9.88v110A9.91,9.91,0,0,0,77,347.49h75.32a9.91,9.91,0,0,0,9.88-9.88v-110A9.91,9.91,0,0,0,152.34,217.69Z"/><path d="M164.3,176.12h-98a5.26,5.26,0,0,1-5.24-5.24h0a5.26,5.26,0,0,1,5.24-5.24h98a5.26,5.26,0,0,1,5.24,5.24h0A5.26,5.26,0,0,1,164.3,176.12Z"/><rect x="91.64" y="306.5" width="46.45" height="96.02" rx="12.99" ry="12.99"/><rect class="cls-9" x="91.64" y="351.2" width="46.45" height="1.62"/><rect class="cls-9" x="91.64" y="367.24" width="46.45" height="1.62"/><rect class="cls-9" x="91.64" y="361.89" width="46.45" height="1.62"/><rect class="cls-9" x="91.64" y="356.54" width="46.45" height="1.62"/><rect class="cls-9" x="91.64" y="372.59" width="46.45" height="1.62"/><path class="cls-9" d="M93.16,395.61h43.4a12.94,12.94,0,0,0,.72-1.62H92.45A12.94,12.94,0,0,0,93.16,395.61Z"/><path class="cls-9" d="M91.64,389.53c0,.25,0,.49,0,.73h46.38c0-.24,0-.48,0-.73v-.89H91.64Z"/><rect class="cls-9" x="91.64" y="377.94" width="46.45" height="1.62"/><rect class="cls-9" x="91.64" y="383.29" width="46.45" height="1.62"/><rect class="cls-9" x="91.64" y="324.45" width="46.45" height="1.62"/><path class="cls-9" d="M92.32,315.37h45.08a12.88,12.88,0,0,0-.68-1.62H93A12.88,12.88,0,0,0,92.32,315.37Z"/><path class="cls-9" d="M95.78,310H134a13.09,13.09,0,0,0-2.14-1.62H97.91A13.09,13.09,0,0,0,95.78,310Z"/><rect class="cls-9" x="91.64" y="345.85" width="46.45" height="1.62"/><path class="cls-9" d="M133.58,399.34H96.15A13.07,13.07,0,0,0,98.48,401h32.78A13.07,13.07,0,0,0,133.58,399.34Z"/><path class="cls-9" d="M91.64,319.49v1.23h46.45v-1.23c0-.13,0-.26,0-.39H91.66C91.65,319.23,91.64,319.36,91.64,319.49Z"/><rect class="cls-9" x="91.64" y="340.5" width="46.45" height="1.62"/><rect class="cls-9" x="91.64" y="335.15" width="46.45" height="1.62"/><rect class="cls-9" x="91.64" y="329.8" width="46.45" height="1.62"/><polygon class="cls-10" points="91.64 347.47 83.91 336.77 91.64 329.8 91.64 347.47"/><polygon class="cls-10" points="138.09 347.47 145.82 336.77 138.09 329.8 138.09 347.47"/><path class="cls-11" d="M83.91,336.77l7.73-7s25.05,7.38,46.45,0l7.73,7v-21.4S143.6,302,115.24,302s-31.32,13.37-31.32,13.37Z"/><ellipse class="cls-12" cx="115.2" cy="305.32" rx="11.06" ry="1.22"/><path class="cls-13" d="M88,363.45h0a3.63,3.63,0,0,1-3.61-3.61V349.19A3.62,3.62,0,0,1,88,345.57h0a3.62,3.62,0,0,1,3.61,3.61v10.64A3.62,3.62,0,0,1,88,363.45Z"/><path class="cls-13" d="M141.7,363.45h0a3.62,3.62,0,0,1-3.61-3.61V349.19a3.62,3.62,0,0,1,3.61-3.61h0a3.62,3.62,0,0,1,3.61,3.61v10.64A3.63,3.63,0,0,1,141.7,363.45Z"/><rect class="cls-11" x="91.64" y="147.65" width="46.45" height="46.45" rx="11.67" ry="11.67"/><rect class="cls-13" x="97.7" y="153.71" width="34.33" height="34.33" rx="8.63" ry="8.63"/><rect class="cls-14" x="100.49" y="156.51" width="28.74" height="28.74" rx="7.22" ry="7.22"/><path class="cls-15" d="M122,176.4h-14.3a7.24,7.24,0,0,1-7.22-7.22V178a7.24,7.24,0,0,0,7.22,7.22H122a7.24,7.24,0,0,0,7.22-7.22v-8.86A7.24,7.24,0,0,1,122,176.4Z"/><circle class="cls-13" cx="82.46" cy="236.26" r="9.88"/><circle class="cls-14" cx="82.46" cy="236.26" r="7.41"/><ellipse class="cls-7" cx="82.46" cy="231.23" rx="3.58" ry="1.28"/><path class="cls-15" d="M82.46,238.73a7.4,7.4,0,0,1-7-4.94,7.41,7.41,0,1,0,14,0A7.4,7.4,0,0,1,82.46,238.73Z"/><circle class="cls-13" cx="147.87" cy="236.26" r="9.88"/><circle class="cls-14" cx="147.87" cy="236.26" r="7.41"/><ellipse class="cls-7" cx="147.87" cy="231.23" rx="3.58" ry="1.28"/><path class="cls-15" d="M147.87,238.73a7.4,7.4,0,0,1-7-4.94,7.41,7.41,0,1,0,14,0A7.4,7.4,0,0,1,147.87,238.73Z"/><polyline class="cls-16" points="139.96 169.18 146.89 134.33 179.26 115.22"/><circle cx="179.26" cy="115.22" r="11.57"/><polyline class="cls-16" points="89.63 169.18 83.43 134.33 51.07 115.22"/><circle cx="51.07" cy="115.22" r="11.57"/><path class="cls-11" d="M58.42,55.23C58.42,20.66,84.08,0,115.72,0S173,20.66,173,55.23s-25.65,62.6-57.3,62.6S58.42,89.8,58.42,55.23Z"/><path class="cls-17" d="M114.58,130.1h0a10,10,0,0,1-9.95-9.95v-6.9a10,10,0,0,1,9.95-9.95h0a10,10,0,0,1,9.95,9.95v6.9A10,10,0,0,1,114.58,130.1Z"/><ellipse class="cls-17" cx="115.72" cy="75.53" rx="44.03" ry="38.62" transform="translate(-1.5 2.34) rotate(-1.15)"/><path class="cls-18" d="M159.07,68.56c-3.7-18.37-22.18-32.1-44.13-31.66-24.3.49-43.67,18.18-43.24,39.5a34.36,34.36,0,0,0,.6,5.75,150.34,150.34,0,0,1,4.82-16.89c1.11-2.92,10-23.49,38.2-23.49C141,41.78,150.67,57,153,61.67q.32.68.62,1.35h0a67.61,67.61,0,0,1,5.18,19.91.89.89,0,0,0,.1-.21q.19-.86.33-1.73A72.5,72.5,0,0,0,159.07,68.56Z"/><path class="cls-18" d="M116.41,109.74c-23.46.47-42.91-15.26-44.62-35.53,0,.73-.1,1.46-.08,2.2.43,21.33,20.49,38.22,44.79,37.73S160.16,96,159.73,74.64c0-.74-.11-1.46-.17-2.19C158.67,92.77,139.87,109.27,116.41,109.74Z"/><path class="cls-19" d="M109.85,65.3c.18,4.41-2,8.08-4.89,8.19s-5.37-3.36-5.54-7.77,2-8.08,4.89-8.19S109.67,60.88,109.85,65.3Z"/><path class="cls-19" d="M133.75,64.82c.18,4.41-2,8.08-4.89,8.19s-5.37-3.36-5.54-7.77,2-8.08,4.89-8.19S133.57,60.4,133.75,64.82Z"/><path class="cls-20" d="M91.81,55.37,95,57.63s5.85-7.12,11.74-7.24C106.72,50.39,97.44,46.11,91.81,55.37Z"/><path class="cls-20" d="M139.63,54.41l-3.08,2.39s-6.13-6.88-12-6.77C124.53,50,133.63,45.38,139.63,54.41Z"/><path class="cls-21" d="M122.35,77.15a5.7,5.7,0,0,1-5.7,5.7h0a5.7,5.7,0,0,1-5.7-5.7V58.93a5.7,5.7,0,0,1,5.7-5.7h0a5.7,5.7,0,0,1,5.7,5.7Z"/><path class="cls-18" d="M116.65,80a5.7,5.7,0,0,1-5.7-5.7v2.82a5.7,5.7,0,0,0,11.4,0V74.33A5.7,5.7,0,0,1,116.65,80Z"/><path class="cls-22" d="M132.62,85.92s-22.68,6.78-31.66-3c0,0-3.54,18.36,12.17,20.44C134.07,106.16,132.62,85.92,132.62,85.92Z"/><path class="cls-21" d="M108.31,91.82l5.61,6.5A24.92,24.92,0,0,0,100.76,90c.58,5.43,3.18,12.21,12.37,13.43,4.87.64,8.53,0,11.28-1.25A26.19,26.19,0,0,0,108.31,91.82Z"/><path class="cls-7" d="M102.91,84.66c4.22,4.1,14.83,11.57,29.17,1.41C128.87,86.94,111.88,91.13,102.91,84.66Z"/><path class="cls-20" d="M158.76,27a83.33,83.33,0,0,1-29.4-3.73C104.7,15,86.59,25.89,86.59,25.89L83.44,21.7v5.43L79.94,25l.67,3.89c-9.3,8.23-8.91,31.62-8.91,31.62h0a120.2,120.2,0,0,0,0,21.79,161.88,161.88,0,0,1,5.43-19.52c1.11-2.92,10-23.49,38.2-23.49,25.71,0,35.35,15.21,37.71,19.89q.32.68.62,1.35h0a67.61,67.61,0,0,1,5.18,19.91s1.76-2.25-.71-24.2C168,43.89,158.76,27,158.76,27Z"/><path class="cls-23" d="M161.73,35.12c-4.25,3.44-11.66,7.46-25.5.55L139,37.95s-22.57-9.83-41-5.07l1.76-1.76s-18,6.75-24.51,6.19c-3.8,10-3.58,23.16-3.58,23.16h0a120.2,120.2,0,0,0,0,21.79,161.88,161.88,0,0,1,5.43-19.52c1.11-2.92,10-23.49,38.2-23.49,25.71,0,35.35,15.21,37.71,19.89q.32.68.62,1.35h0a67.61,67.61,0,0,1,5.18,19.91s1.76-2.25-.71-24.2C163.74,49.17,163.22,42.47,161.73,35.12Z"/><ellipse class="cls-17" cx="70.69" cy="71.67" rx="9.92" ry="11.18" transform="translate(-1.43 1.44) rotate(-1.15)"/><ellipse class="cls-24" cx="70.69" cy="71.67" rx="6.19" ry="6.97" transform="translate(-1.42 1.43) rotate(-1.14)"/><ellipse class="cls-17" cx="159.64" cy="69.88" rx="9.92" ry="11.18" transform="translate(-1.38 3.23) rotate(-1.16)"/><ellipse class="cls-25" cx="159.64" cy="69.88" rx="6.19" ry="6.97" transform="translate(-1.38 3.23) rotate(-1.16)"/><path class="cls-8" d="M75,59.79A25,25,0,0,1,99.95,34.88h31.44a24,24,0,0,1,23.9,23.9v41.7A65.27,65.27,0,0,0,173,55.23C173,20.66,147.37,0,115.72,0s-57.3,20.66-57.3,55.23A65.44,65.44,0,0,0,75,99.3Z"/><path d="M159.59,95.45V57.07a26.58,26.58,0,0,0-26.5-26.5H98.23A27.7,27.7,0,0,0,70.61,58.18V93.79A61.65,61.65,0,0,0,75,99.3V59.79A25,25,0,0,1,99.95,34.88h31.44a24,24,0,0,1,23.9,23.9v41.7A61.32,61.32,0,0,0,159.59,95.45Z"/><g class="cls-26"><path class="cls-7" d="M70.61,30.8A1.95,1.95,0,0,1,68.84,28c.4-.89,10.24-21.79,39.2-25.12a1.95,1.95,0,0,1,.44,3.86c-26.8,3.08-36,22.67-36.11,22.86A2,2,0,0,1,70.61,30.8Z"/></g><path class="cls-17" d="M141.08,176.12s6.93-4.9,8.64-1.26S141.08,176.12,141.08,176.12Z"/><path class="cls-17" d="M146,161s-2.86,5.39-2.49,8.17,1,3.88,8.15,4.15,11.61-.11,12.22-2.44.36-8.23.36-8.23S157.75,157.24,146,161Z"/><path class="cls-17" d="M23,222.19S24.42,210,34.39,210.54s12.74,8.63,9.27,15.49S26,227.34,23,222.19Z"/><path class="cls-17" d="M24.78,218.75s-3.28-6.37-5.72-4.56,2.47,7,4.3,8.34S25.7,220.3,24.78,218.75Z"/></g></g></svg>