<?xml version="1.0"?>
<svg xmlns="http://www.w3.org/2000/svg" xmlns:xlink="http://www.w3.org/1999/xlink" version="1.1" id="Capa_1" x="0px" y="0px" viewBox="0 0 512 512" style="enable-background:new 0 0 512 512;" xml:space="preserve" width="512px" height="512px" class=""><g><g>
	<g>
		<path d="M315.743,85.333V128c0,32.939-26.795,59.733-59.733,59.733S196.277,160.939,196.277,128V85.333H179.21V128    c0,42.342,34.458,76.8,76.8,76.8c42.351,0,76.8-34.458,76.8-76.8V85.333H315.743z" data-original="#000000" class="active-path" data-old_color="#F2F2F2" fill="#000000"/>
	</g>
</g><g>
	<g>
		<path d="M495.882,437.743l-45.926-183.876c-4.881-18.876-21.871-31.718-40.713-31.974l-102.042-7.919V179.2h-17.067v42.667    c0,4.454,3.43,8.158,7.876,8.508l110.592,8.559c0.017,0,0.034,0,0.051,0c11.674,0,21.862,7.893,24.772,19.132l45.909,183.825    c0.845,3.388,1.28,6.878,1.28,10.377c-0.009,23.526-19.149,42.667-42.675,42.667V512c32.93,0,59.733-26.795,59.742-59.733    C497.683,447.369,497.077,442.479,495.882,437.743z" data-original="#000000" class="active-path" data-old_color="#F2F2F2" fill="#000000"/>
	</g>
</g><g>
	<g>
		<path d="M204.81,179.2v34.773l-101.359,7.893c-0.034,0-0.06,0-0.085,0c-19.447,0-36.437,13.15-41.327,32.068L16.138,437.734    c-3.883,15.479-1.51,31.539,6.69,45.227c8.192,13.687,21.231,23.364,36.702,27.238c4.753,1.195,9.643,1.8,14.549,1.8v-17.067    c-3.499,0-6.989-0.435-10.385-1.289c-11.059-2.773-20.369-9.677-26.223-19.456c-5.854-9.779-7.552-21.248-4.779-32.316    l45.892-183.74c2.927-11.324,13.141-19.226,25.515-19.226l109.909-8.533c4.437-0.341,7.868-4.053,7.868-8.508V179.2H204.81z" data-original="#000000" class="active-path" data-old_color="#F2F2F2" fill="#000000"/>
	</g>
</g><g>
	<g>
		<path d="M290.143,0h-68.267C198.35,0,179.21,19.14,179.21,42.667v51.2c0,4.71,3.823,8.533,8.533,8.533h136.533    c4.71,0,8.533-3.823,8.533-8.533v-51.2C332.81,19.14,313.67,0,290.143,0z M315.743,85.333H196.277V42.667    c0-14.114,11.486-25.6,25.6-25.6h68.267c14.114,0,25.6,11.486,25.6,25.6V85.333z" data-original="#000000" class="active-path" data-old_color="#F2F2F2" fill="#000000"/>
	</g>
</g><g>
	<g>
		<path d="M290.143,51.2h-68.267c-23.526,0-42.667,19.14-42.667,42.667c0,4.71,3.823,8.533,8.533,8.533h136.533    c4.71,0,8.533-3.823,8.533-8.533C332.81,70.34,313.67,51.2,290.143,51.2z M197.744,85.333    c3.516-9.933,13.005-17.067,24.132-17.067h68.267c11.127,0,20.617,7.134,24.141,17.067H197.744z" data-original="#000000" class="active-path" data-old_color="#F2F2F2" fill="#000000"/>
	</g>
</g><g>
	<g>
		<path d="M256.01,128V93.867h-17.067v42.667c0,4.71,3.823,8.533,8.533,8.533h17.067V128H256.01z" data-original="#000000" class="active-path" data-old_color="#F2F2F2" fill="#000000"/>
	</g>
</g><g>
	<g>
		<path d="M179.21,460.8h-68.267v-17.067c0-14.114-11.486-25.6-25.6-25.6s-25.6,11.486-25.6,25.6v59.733    c0,4.719,3.823,8.533,8.533,8.533h76.8c23.526,0,42.667-19.14,42.667-42.667C187.743,464.614,183.92,460.8,179.21,460.8z     M145.077,494.933H76.81v-51.2c0-4.71,3.831-8.533,8.533-8.533s8.533,3.823,8.533,8.533v25.6c0,4.719,3.823,8.533,8.533,8.533    h66.807C165.693,487.799,156.204,494.933,145.077,494.933z" data-original="#000000" class="active-path" data-old_color="#F2F2F2" fill="#000000"/>
	</g>
</g><g>
	<g>
		<rect x="42.668" y="366.933" width="59.733" height="17.067" data-original="#000000" class="active-path" data-old_color="#F2F2F2" fill="#000000"/>
	</g>
</g><g>
	<g>
		<rect x="409.602" y="366.933" width="59.733" height="17.067" data-original="#000000" class="active-path" data-old_color="#F2F2F2" fill="#000000"/>
	</g>
</g><g>
	<g>
		<path d="M409.61,256h-307.2c-4.71,0-8.533,3.823-8.533,8.533v204.8c0,4.719,3.823,8.533,8.533,8.533h307.2    c4.71,0,8.533-3.814,8.533-8.533v-204.8C418.143,259.823,414.329,256,409.61,256z M401.077,460.8H110.943V273.067h290.133V460.8z" data-original="#000000" class="active-path" data-old_color="#F2F2F2" fill="#000000"/>
	</g>
</g><g>
	<g>
		<rect x="366.935" y="426.667" width="17.067" height="17.067" data-original="#000000" class="active-path" data-old_color="#F2F2F2" fill="#000000"/>
	</g>
</g><g>
	<g>
		<rect x="332.801" y="426.667" width="17.067" height="17.067" data-original="#000000" class="active-path" data-old_color="#F2F2F2" fill="#000000"/>
	</g>
</g><g>
	<g>
		<path d="M292.635,215.834l-36.625,36.634l-36.634-36.634L207.31,227.9l42.667,42.667c1.596,1.604,3.772,2.5,6.033,2.5    s4.437-0.896,6.033-2.5l42.658-42.667L292.635,215.834z" data-original="#000000" class="active-path" data-old_color="#F2F2F2" fill="#000000"/>
	</g>
</g><g>
	<g>
		<path d="M426.677,418.133c-14.114,0-25.6,11.486-25.6,25.6V460.8H332.81c-4.719,0-8.533,3.814-8.533,8.533    c0,23.526,19.14,42.667,42.667,42.667h76.8c4.71,0,8.533-3.814,8.533-8.533v-59.733    C452.277,429.619,440.791,418.133,426.677,418.133z M435.21,494.933h-68.267c-11.127,0-20.617-7.134-24.141-17.067h66.807    c4.719,0,8.533-3.814,8.533-8.533v-25.6c0-4.71,3.823-8.533,8.533-8.533s8.533,3.823,8.533,8.533V494.933z" data-original="#000000" class="active-path" data-old_color="#F2F2F2" fill="#000000"/>
	</g>
</g><g>
	<g>
		<rect x="102.401" y="315.733" width="307.2" height="17.067" data-original="#000000" class="active-path" data-old_color="#F2F2F2" fill="#000000"/>
	</g>
</g><g>
	<g>
		<path d="M290.143,256h-68.267c-4.71,0-8.533,3.823-8.533,8.533v110.933c0,4.719,3.823,8.533,8.533,8.533h68.267    c4.71,0,8.533-3.814,8.533-8.533V264.533C298.677,259.823,294.862,256,290.143,256z M281.61,366.933h-51.2v-93.867h51.2V366.933z" data-original="#000000" class="active-path" data-old_color="#F2F2F2" fill="#000000"/>
	</g>
</g></g> </svg>
