<?xml version="1.0" encoding="iso-8859-1"?>
<!-- Generator: Adobe Illustrator 19.0.0, SVG Export Plug-In . SVG Version: 6.00 Build 0)  -->
<svg version="1.1" id="Capa_1" xmlns="http://www.w3.org/2000/svg" xmlns:xlink="http://www.w3.org/1999/xlink" x="0px" y="0px"
	 viewBox="0 0 512 512" style="enable-background:new 0 0 512 512;" xml:space="preserve">
<path style="fill:#F2BB80;" d="M441.688,256c-3.9-15.095-17.519-25.626-33.109-25.6l-109.909-8.533V179.2h-85.333v42.667
	L103.427,230.4c-15.59-0.026-29.21,10.505-33.109,25.6L40.536,375.467H471.47L441.688,256z"/>
<g>
	<path style="fill:#E8A864;" d="M102.403,469.333v-25.6c0-9.429-7.637-17.067-17.067-17.067s-17.067,7.637-17.067,17.067v59.733
		c1.929,0.128,3.874,0.128,5.803,0h70.997c18.85,0,34.133-15.283,34.133-34.133H102.403z"/>
	<path style="fill:#E8A864;" d="M426.67,426.667c-9.429,0-17.067,7.637-17.067,17.067v25.6h-76.8
		c0,18.85,15.283,34.133,34.133,34.133h70.997c1.929,0.128,3.874,0.128,5.803,0v-59.733
		C443.736,434.304,436.099,426.667,426.67,426.667z"/>
	<path style="fill:#E8A864;" d="M110.936,469.333l17.067-93.867H40.536l-16.128,64.341c-7.057,27.383,9.421,55.305,36.804,62.362
		c2.321,0.597,4.676,1.033,7.057,1.297v-59.733c0-9.429,7.637-17.067,17.067-17.067s17.067,7.637,17.067,17.067v25.6H110.936z"/>
</g>
<path id="SVGCleanerId_0" style="fill:#E8A864;" d="M487.598,439.808l-16.128-64.341h-78.933l17.067,68.267
	c0-9.429,7.637-17.067,17.067-17.067s17.067,7.637,17.067,17.067v59.733c28.1-3.157,48.316-28.501,45.158-56.602
	C488.63,444.484,488.195,442.129,487.598,439.808z"/>
<path style="fill:#E8A864;" d="M298.67,204.8L298.67,204.8c-27.392,10.923-57.941,10.923-85.333,0l0,0v-25.6h85.333V204.8z"/>
<path style="fill:#4398D1;" d="M441.688,256c-3.9-15.095-17.519-25.626-33.109-25.6l-109.909-8.533l-42.667,42.667l-42.667-42.667
	L103.427,230.4c-15.59-0.026-29.21,10.505-33.109,25.6L40.536,375.467H471.47L441.688,256z"/>
<g>
	<path style="fill:#F2BB80;" d="M102.403,443.733c0-9.429-7.637-17.067-17.067-17.067s-17.067,7.637-17.067,17.067v59.733
		c1.929,0.128,3.874,0.128,5.803,0h70.997c18.85,0,34.133-15.283,34.133-34.133h-76.8V443.733z"/>
	<path style="fill:#F2BB80;" d="M426.67,426.667c-9.429,0-17.067,7.637-17.067,17.067v25.6h-76.8
		c0,18.85,15.283,34.133,34.133,34.133h70.997c1.929,0.128,3.874,0.128,5.803,0v-59.733
		C443.736,434.304,436.099,426.667,426.67,426.667z"/>
</g>
<path style="fill:#E8A864;" d="M24.408,439.808c-7.057,27.383,9.421,55.305,36.804,62.362c2.321,0.597,4.676,1.033,7.057,1.297
	v-59.733c0-9.429,7.637-17.067,17.067-17.067s17.067,7.637,17.067,17.067v25.6h8.533l17.067-93.867H40.536L24.408,439.808z"/>
<g>
	<path id="SVGCleanerId_0_1_" style="fill:#E8A864;" d="M487.598,439.808l-16.128-64.341h-78.933l17.067,68.267
		c0-9.429,7.637-17.067,17.067-17.067s17.067,7.637,17.067,17.067v59.733c28.1-3.157,48.316-28.501,45.158-56.602
		C488.63,444.484,488.195,442.129,487.598,439.808z"/>
</g>
<path style="fill:#3E8CC7;" d="M471.47,375.467L441.688,256c-3.9-15.095-17.519-25.626-33.109-25.6l-57.003-4.437
	c-54.784,77.995-129.707,123.307-193.451,149.504H471.47z"/>
<rect x="102.403" y="264.533" style="fill:#FDB62F;" width="307.2" height="204.8"/>
<rect id="SVGCleanerId_1" x="102.403" y="324.267" style="fill:#FFA230;" width="307.2" height="145.067"/>
<g>
	<rect id="SVGCleanerId_1_1_" x="102.403" y="324.267" style="fill:#FFA230;" width="307.2" height="145.067"/>
</g>
<path style="fill:#F2BB80;" d="M187.736,85.333V128c0,37.7,30.566,68.267,68.267,68.267S324.27,165.7,324.27,128V85.333H187.736z"/>
<path style="fill:#EBB57C;" d="M290.136,85.333v25.6c0,37.7-30.566,68.267-68.267,68.267c-4.087-0.026-8.175-0.393-12.203-1.109
	c27.691,25.591,70.878,23.893,96.469-3.797c11.648-12.604,18.125-29.133,18.133-46.293V85.333H290.136z"/>
<path style="fill:#4398D1;" d="M221.87,8.533h68.267c18.85,0,34.133,15.283,34.133,34.133v51.2l0,0H187.736l0,0v-51.2
	C187.736,23.817,203.019,8.533,221.87,8.533z"/>
<path style="fill:#3E8CC7;" d="M221.87,59.733h68.267c18.85,0,34.133,15.283,34.133,34.133l0,0l0,0H187.736l0,0l0,0
	C187.736,75.017,203.019,59.733,221.87,59.733z"/>
<path style="fill:#E8A864;" d="M264.536,145.067H247.47c-4.71,0-8.533-3.823-8.533-8.533V93.867h17.067V128h8.533V145.067z"/>
<polygon style="fill:#FA962A;" points="156.931,469.333 409.603,469.333 409.603,324.267 355.075,324.267 "/>
<g>
	<rect x="366.936" y="426.667" style="fill:#F46B27;" width="17.067" height="17.067"/>
	<rect x="332.803" y="426.667" style="fill:#F46B27;" width="17.067" height="17.067"/>
</g>
<rect x="221.87" y="264.533" style="fill:#FD7B2F;" width="68.267" height="59.733"/>
<rect x="221.87" y="324.267" style="fill:#F46B27;" width="68.267" height="51.2"/>
<path d="M103.427,221.867c-19.584,0.009-36.651,13.338-41.387,32.341L16.131,437.76c-7.945,32.017,11.571,64.418,43.588,72.363
	c1.673,0.418,3.354,0.759,5.052,1.024c1.084,0.555,2.287,0.845,3.499,0.853h76.8c20.275,0,37.76-14.268,41.813-34.133h138.24
	C329.176,497.732,346.661,512,366.936,512h76.8c1.22-0.009,2.415-0.299,3.499-0.853c32.58-5.154,54.818-35.746,49.664-68.335
	c-0.265-1.698-0.614-3.388-1.024-5.052l-45.909-183.552c-4.642-18.637-21.163-31.872-40.363-32.341l0,0l-102.4-7.936v-28.843
	c16.247-14.532,25.557-35.285,25.6-57.088V42.667C332.803,19.106,313.697,0,290.136,0H221.87c-23.561,0-42.667,19.106-42.667,42.667
	V128c0.043,21.803,9.353,42.556,25.6,57.088v28.843L103.427,221.867z M78.595,258.304c2.918-11.674,13.577-19.729,25.6-19.371
	l105.984-8.533l25.6,25.6H102.403c-4.71,0-8.533,3.823-8.533,8.533v102.4H51.203L78.595,258.304z M401.07,273.067v42.667h-102.4
	v-42.667H401.07z M179.203,460.8h-68.267v-128h102.4v42.667c0,4.71,3.823,8.533,8.533,8.533h68.267c4.71,0,8.533-3.823,8.533-8.533
	V332.8h102.4v128H179.203z M110.936,315.733v-42.667h102.4v42.667H110.936z M230.403,332.8h51.2v34.133h-51.2V332.8z
	 M281.603,315.733h-51.2v-42.667h51.2V315.733z M40.451,478.549c-8.09-10.359-10.948-23.859-7.765-36.608L47.192,384H93.87v35.669
	c-13.329-4.71-27.955,2.27-32.666,15.599c-0.964,2.722-1.459,5.581-1.468,8.465v48.725
	C52.125,489.745,45.434,484.924,40.451,478.549z M145.07,494.933H76.803v-51.2c0-4.71,3.823-8.533,8.533-8.533
	c4.71,0,8.533,3.823,8.533,8.533v25.6c0,4.71,3.823,8.533,8.533,8.533h66.816C165.601,488.098,155.924,494.942,145.07,494.933z
	 M435.203,494.933h-68.267c-10.854,0.009-20.531-6.835-24.149-17.067h66.816c4.71,0,8.533-3.823,8.533-8.533v-25.6
	c0-4.71,3.823-8.533,8.533-8.533s8.533,3.823,8.533,8.533V494.933z M471.555,478.549c-4.983,6.374-11.665,11.196-19.285,13.909
	v-48.725c-0.043-14.14-11.537-25.566-25.668-25.532c-2.884,0.009-5.743,0.503-8.465,1.468V384h46.677l14.507,57.941
	C482.512,454.69,479.645,468.19,471.555,478.549z M408.579,238.933c11.742,0,21.973,7.987,24.832,19.371l27.392,108.629h-42.667
	v-102.4c0-4.71-3.823-8.533-8.533-8.533H276.568l25.6-25.6L408.579,238.933z M197.72,85.333
	c3.618-10.231,13.295-17.075,24.149-17.067h68.267c10.854-0.009,20.531,6.835,24.149,17.067H197.72z M221.87,17.067h68.267
	c14.14,0,25.6,11.46,25.6,25.6v17.067c-7.364-5.581-16.358-8.585-25.6-8.533H221.87c-9.242-0.051-18.236,2.953-25.6,8.533V42.667
	C196.27,28.527,207.73,17.067,221.87,17.067z M196.27,128v-25.6h42.667v34.133c0,4.71,3.823,8.533,8.533,8.533h17.067V128h-8.533
	v-25.6h59.733V128c0,32.99-26.743,59.733-59.733,59.733S196.27,160.99,196.27,128z M256.003,204.8
	c11.853-0.034,23.535-2.807,34.133-8.107v21.675l-34.133,34.133l-34.133-34.133v-21.675
	C232.468,201.993,244.159,204.766,256.003,204.8z"/>
<rect x="366.936" y="426.667" width="17.067" height="17.067"/>
<rect x="332.803" y="426.667" width="17.067" height="17.067"/>
<g>
</g>
<g>
</g>
<g>
</g>
<g>
</g>
<g>
</g>
<g>
</g>
<g>
</g>
<g>
</g>
<g>
</g>
<g>
</g>
<g>
</g>
<g>
</g>
<g>
</g>
<g>
</g>
<g>
</g>
</svg>
