<svg id="Layer_1" data-name="Layer 1" xmlns="http://www.w3.org/2000/svg" xmlns:xlink="http://www.w3.org/1999/xlink" width="162.14" height="50" viewBox="0 0 162.14 50"><defs><style>.cls-1{fill:#fff;}.cls-2{fill:#b54e24;}.cls-3{fill:#e16c2e;}.cls-4{fill:#ef8c56;}.cls-5{fill:#dddddc;}.cls-6{fill:#c74528;}.cls-7{fill:#f3f3f3;}.cls-8{fill:url(#linear-gradient);}.cls-9{fill:#fffefe;}</style><linearGradient id="linear-gradient" x1="23.36" y1="224.52" x2="23.36" y2="266.4" gradientTransform="translate(0 -222)" gradientUnits="userSpaceOnUse"><stop offset="0" stop-color="#ed5b26"/><stop offset="1" stop-color="#ca4627"/></linearGradient></defs><title>shiptime-logo-white</title><g id="Layer_1-2" data-name="Layer 1"><path class="cls-1" d="M46.81,23.4A23.41,23.41,0,1,1,23.4,0c1.16,0,3.42.25,3.42.25l19,16.52A42.09,42.09,0,0,1,46.81,23.4Z"/><path class="cls-2" d="M43.81,17.47l.35.29.17.13v0c0,.21-.13.17-.25.18s-.71-.09-.71-.09l-.21,0s-1.51-.07-2.25-.12c-.36,0-.72,0-1.08-.05-.65-.06-1.31-.12-2-.2a25,25,0,0,1-2.74-.52c-.24-.07-.47-.12-.71-.2a13.28,13.28,0,0,1-3-1.32,12.13,12.13,0,0,1-2.66-2.24,12.63,12.63,0,0,1-1.84-2.85c-.05-.12-.07-.28-.19-.36-.18-.51-.38-1-.54-1.52a16.69,16.69,0,0,1-.67-3.42,16.33,16.33,0,0,1-.13-2.1,1,1,0,0,1,0-.17c.08.51.13,1,.22,1.51A9.24,9.24,0,0,0,28,9.05a12.86,12.86,0,0,0,3.1,2.28A37.23,37.23,0,0,0,35,13c1.53.6,3.08,1.18,4.56,1.88.4.19.78.4,1.19.56,0,.06.08.06.14.08a13.73,13.73,0,0,1,2.38,1.52A2,2,0,0,0,43.81,17.47Z"/><path class="cls-3" d="M41.93,35a18.26,18.26,0,0,1-1.75,2.43,21.83,21.83,0,0,1-11.44,7.25,23.27,23.27,0,0,1-4,.63A21.84,21.84,0,0,1,9.93,40.72a21.65,21.65,0,0,1-4.57-4.84c-.07-.09-.12-.2-.19-.29a.41.41,0,0,0,0-.44,19.27,19.27,0,0,1-1.15-2c-.28-.54-.51-1.12-.75-1.69-.05-.12-.09-.27-.13-.39s0-.2.11-.21a.17.17,0,0,1,.06.11,23.53,23.53,0,0,0,1.19,2.61A24.78,24.78,0,0,0,5.94,36a23.63,23.63,0,0,0,2.2,2.6c.4.43.85.8,1.29,1.19a19.51,19.51,0,0,0,1.92,1.47,20.37,20.37,0,0,0,3.05,1.72,21.6,21.6,0,0,0,3.69,1.32,19,19,0,0,0,2.1.42l1.1.13c.45,0,.91.09,1.36.1a20.37,20.37,0,0,0,3.49-.18c.59-.08,1.17-.16,1.75-.29a24.37,24.37,0,0,0,3.25-1,22.58,22.58,0,0,0,3.2-1.57c.68-.42,1.33-.87,2-1.35s1.33-1.1,2-1.7c.28-.26.54-.55.79-.83.41-.44.8-.91,1.17-1.39a18.62,18.62,0,0,0,1.53-2.22,19,19,0,0,0,1.16-2.24c.28-.67.55-1.33.78-2a21.85,21.85,0,0,0,.8-3.38c.17,0,.19.15.17.28s0,.19,0,.28a21.91,21.91,0,0,1-.71,2.9,18.29,18.29,0,0,1-1,2.39c-.21.47-.44.92-.69,1.36a3.78,3.78,0,0,0-.43.82C41.86,34.84,41.82,34.92,41.93,35Z"/><path class="cls-4" d="M3.21,30.82c-.15,0-.13.1-.11.21a2.58,2.58,0,0,0,.14.39c.24.56.46,1.14.74,1.69s.74,1.37,1.15,2a.42.42,0,0,1,0,.43,9.3,9.3,0,0,1-.77-1.19A21.8,21.8,0,0,1,3.36,14.64,21.83,21.83,0,0,1,19.77,1.88a22.77,22.77,0,0,1,4.81-.25c.26,0,.51.06.76.05a.7.7,0,0,1,0,.45.29.29,0,0,1-.16,0c-.48,0-.94-.08-1.42-.08a23.32,23.32,0,0,0-2.64.12c-.55.05-1.09.12-1.64.22a22.85,22.85,0,0,0-3.62,1,22,22,0,0,0-4,2A18.72,18.72,0,0,0,9.71,7c-.5.43-1.05.82-1.52,1.31s-.76.88-1.13,1.31a20.09,20.09,0,0,0-1.32,1.72,20.57,20.57,0,0,0-1.88,3.29,21.11,21.11,0,0,0-1.22,3.45,23.44,23.44,0,0,0-.47,2.33A22.8,22.8,0,0,0,2,22.76a17.93,17.93,0,0,0,.17,3.43,22.29,22.29,0,0,0,.45,2.44C2.74,29.34,3,30.07,3.21,30.82Z"/><path class="cls-5" d="M25.38,2.11a.91.91,0,0,0,0-.46c0-.21.06-.22.19-.1l1.53,1.33,2.07,1.76c.4.34.8.7,1.2,1.05l1.14,1,1.11,1c.42.37.85.73,1.28,1.09s.74.67,1.12,1l1.22,1.05,1.13,1c.56.48,1.14,1,1.7,1.45l1.13,1,1.22,1.05,1.11,1,1.2,1c.08.06.44.44.64.65l-1-.81a14.21,14.21,0,0,0-2.39-1.52s-.11,0-.13-.08c0-.25-.26-.36-.42-.51-.34-.3-.69-.58-1.05-.88l-1-.85c-.36-.31-.72-.6-1.08-.89l-1-.89-1.15-1-1-.84c-.46-.4-.94-.78-1.41-1.19s-.71-.59-1-.89-1-.83-1.48-1.24-1-.84-1.45-1.24-.95-.77-1.43-1.17l-1.49-1.3a.52.52,0,0,0-.34-.14A1.53,1.53,0,0,0,25.38,2.11Z"/><path class="cls-4" d="M41.93,35c-.11-.06-.07-.14,0-.22a3,3,0,0,1,.43-.81c.25-.44.48-.91.69-1.36a24.41,24.41,0,0,0,1-2.4,20.62,20.62,0,0,0,.7-2.89,2.74,2.74,0,0,0,.05-.28c0-.15,0-.25-.17-.28a11.47,11.47,0,0,0,.14-1.16c0-.53.1-1.08.1-1.61s0-1.16,0-1.75-.08-.94-.13-1.42a20.14,20.14,0,0,0-.52-2.68c.12,0,.28,0,.25-.19a5.26,5.26,0,0,1,.4.94,21.38,21.38,0,0,1,.47,5.86,18.62,18.62,0,0,1-.43,3.16c-.07.29-.17.57-.22.85a17.34,17.34,0,0,1-1.32,3.85A21.08,21.08,0,0,1,42,34.84.67.67,0,0,1,41.93,35Z"/><path class="cls-6" d="M25.42,2.86a1.05,1.05,0,0,0-.24-.06c-.54,0-1.08-.08-1.62-.07-.38,0-.75,0-1.12,0s-.84.07-1.27.11-1,.12-1.48.2a15,15,0,0,0-1.64.36,20.62,20.62,0,0,0-2.41.8,19.62,19.62,0,0,0-2.9,1.45A17.08,17.08,0,0,0,10.82,7,14.07,14.07,0,0,0,9.37,8.19c-.23.24-.51.42-.74.67-.5.6-1.05,1.16-1.54,1.77a23,23,0,0,0-1.72,2.53,19.2,19.2,0,0,0-1.08,2.18,18,18,0,0,0-.65,1.73,20.55,20.55,0,0,0-.75,3.12c-.08.56-.13,1.13-.2,1.7a21.37,21.37,0,0,0,0,2.77,17.52,17.52,0,0,0,.29,2.39,23,23,0,0,0,.72,2.86,20,20,0,0,0,1.22,2.92,20.82,20.82,0,0,0,2,3.22,18.12,18.12,0,0,0,1.27,1.51c.23.23.42.48.66.69a22.22,22.22,0,0,0,3.77,2.92,18.15,18.15,0,0,0,1.61.89A21.48,21.48,0,0,0,20.32,44c.47.08.94.11,1.42.16.84.09,1.68,0,2.52,0a9.36,9.36,0,0,0,1.3-.1c.34,0,.69-.08,1-.14a15.87,15.87,0,0,0,2-.41,22.58,22.58,0,0,0,3.29-1.17,21.2,21.2,0,0,0,3.37-1.94,14.59,14.59,0,0,0,1.53-1.19c.44-.4.91-.78,1.32-1.2s.87-1,1.28-1.46a18.13,18.13,0,0,0,1.48-2,19.8,19.8,0,0,0,1.57-3c.23-.56.47-1.12.64-1.69a19.66,19.66,0,0,0,.74-3.12c.08-.57.14-1.16.2-1.73a17.09,17.09,0,0,0,0-2.77,17.24,17.24,0,0,0-.68-4.07.53.53,0,0,1,0-.13,2.41,2.41,0,0,1,.71.07,23.93,23.93,0,0,1,.52,2.68c0,.47.09.94.13,1.42s0,1.17,0,1.75-.06,1.08-.11,1.61c0,.38-.06.77-.13,1.16a23.24,23.24,0,0,1-.8,3.37c-.23.68-.49,1.36-.77,2a21.52,21.52,0,0,1-1.16,2.24,19.19,19.19,0,0,1-1.54,2.23c-.37.48-.75.93-1.17,1.38a10.21,10.21,0,0,1-.78.83,25.08,25.08,0,0,1-2,1.7,23.67,23.67,0,0,1-2,1.35,22.58,22.58,0,0,1-3.2,1.57,21.4,21.4,0,0,1-3.25,1c-.57.13-1.16.21-1.75.29a22.49,22.49,0,0,1-3.49.19c-.45,0-.9-.06-1.36-.11l-1.1-.13a16.42,16.42,0,0,1-2.09-.41,24.2,24.2,0,0,1-3.69-1.32,22.77,22.77,0,0,1-3.05-1.72,19.61,19.61,0,0,1-1.92-1.48c-.44-.39-.9-.76-1.3-1.19A22.81,22.81,0,0,1,6,35.93a23.71,23.71,0,0,1-1.5-2.41,24.5,24.5,0,0,1-1.18-2.61.26.26,0,0,0-.07-.11c-.23-.74-.47-1.47-.65-2.22a24.41,24.41,0,0,1-.45-2.44,19.31,19.31,0,0,1,.05-5.78A22.32,22.32,0,0,1,2.62,18a23.2,23.2,0,0,1,1.23-3.45,20.14,20.14,0,0,1,1.88-3.29A18.64,18.64,0,0,1,7.05,9.57c.38-.44.73-.9,1.13-1.31s1-.88,1.52-1.32a18.35,18.35,0,0,1,2.21-1.61,21.28,21.28,0,0,1,4-2,22.39,22.39,0,0,1,3.63-1c.54-.11,1.09-.16,1.64-.23A25.59,25.59,0,0,1,23.78,2c.48,0,1,.08,1.43.08.05,0,.11,0,.16,0s0,.25,0,.38S25.42,2.74,25.42,2.86Z"/><path class="cls-7" d="M25.42,2.86V2.48a.44.44,0,0,1,.35.14c.49.43,1,.87,1.49,1.3s.95.77,1.43,1.17,1,.84,1.45,1.24,1,.81,1.48,1.24c.33.3.69.58,1,.89s.94.79,1.41,1.19l1,.84,1.14,1,1,.89,1.08.89c.34.28.66.57,1,.85l1,.88c.16.15.37.26.41.51-.41-.16-.79-.37-1.19-.56-1.5-.71-3-1.28-4.56-1.88a35.29,35.29,0,0,1-3.87-1.72A12.11,12.11,0,0,1,28.06,9,9.16,9.16,0,0,1,25.7,4.38c-.1-.5-.14-1-.22-1.5C25.42,2.88,25.42,2.86,25.42,2.86Z"/><path class="cls-8" d="M44.29,22.2a19.18,19.18,0,0,0-.68-4.11.53.53,0,0,1,0-.13h-.24c-.76,0-1.5-.11-2.26-.18-.36,0-.73,0-1.09-.05-.66,0-1.32-.12-2-.2A23,23,0,0,1,35.26,17h0l-.71-.2a13.17,13.17,0,0,1-3-1.33,12.15,12.15,0,0,1-2.69-2.27A12.89,12.89,0,0,1,27,10.33a.85.85,0,0,0-.19-.38c-.18-.5-.38-1-.56-1.54A17.81,17.81,0,0,1,25.57,5a19.05,19.05,0,0,1-.15-2.12,1.13,1.13,0,0,0,0-.18h0a.73.73,0,0,0-.24-.07,15,15,0,0,0-1.64-.06H22.44c-.43,0-.86.06-1.28.1s-1,.14-1.49.2S18.55,3,18,3.18A18.9,18.9,0,0,0,15.56,4a20.62,20.62,0,0,0-2.94,1.46,21.51,21.51,0,0,0-1.95,1.32A14.57,14.57,0,0,0,9.21,8c-.23.24-.52.42-.74.68-.52.6-1.06,1.18-1.55,1.8a21.37,21.37,0,0,0-1.75,2.55,18.75,18.75,0,0,0-1.09,2.2c-.24.57-.48,1.14-.67,1.74a20.17,20.17,0,0,0-.75,3.16c-.08.57-.13,1.14-.2,1.72a23.82,23.82,0,0,0,0,2.8,16.36,16.36,0,0,0,.3,2.41A20.69,20.69,0,0,0,3.44,30a19.37,19.37,0,0,0,1.22,2.94,21.46,21.46,0,0,0,2.07,3.27A15.47,15.47,0,0,0,8,37.71c.23.22.43.48.65.7a22.57,22.57,0,0,0,3.81,3,17.41,17.41,0,0,0,1.64.9,22.78,22.78,0,0,0,3.61,1.38,19.92,19.92,0,0,0,2.55.54c.48.08,1,.11,1.44.16.85.1,1.69,0,2.54.06a9.52,9.52,0,0,0,1.31-.12c.34,0,.7-.1,1.05-.14a15.67,15.67,0,0,0,2-.41A22.73,22.73,0,0,0,32,42.54a20.63,20.63,0,0,0,3.41-2A17.52,17.52,0,0,0,37,39.37c.45-.4.92-.77,1.33-1.21s.88-1,1.31-1.47a23.31,23.31,0,0,0,1.49-2,19.69,19.69,0,0,0,1.58-3c.24-.58.47-1.13.66-1.72a19.08,19.08,0,0,0,.74-3.16c.08-.59.15-1.17.2-1.74A21.82,21.82,0,0,0,44.29,22.2ZM12,40.78a.63.63,0,0,0,0-.09.25.25,0,0,1,0,.09l0,0S12.06,40.8,12,40.78Z"/><path class="cls-4" d="M24.57,36.51s0,0,.07,0S24.6,36.55,24.57,36.51Z"/><path class="cls-9" d="M23.56,11.59c.69.47,1.42.88,2.14,1.32l7.18,4.4.3.18c0,.16-.2.2-.28.31-.55.44-9.26,6.93-9.45,6.93s-.36-.21-.53-.33c-.72-.51-9.16-6.53-9.52-6.89.06-.1.14-.12.2-.18,1.7-1.1,3.35-2.26,5-3.39,1.24-.84,2.5-1.67,3.73-2.49.19-.06.3-.3.5-.26a2.2,2.2,0,0,1,.49.28A.64.64,0,0,0,23.56,11.59Z"/><path class="cls-9" d="M22.34,32.88c0,.84,0,1.68,0,2.52,0,.55,0,1.08,0,1.63,0,.08.05.2,0,.25s-.18-.05-.26-.09c-.3-.18-7.75-5.48-9-6.36a.5.5,0,0,1-.24-.48c0-2,0-4,0-6,0-.12,0-.24,0-.34,0-.34,0-.66,0-1V19.85a.7.7,0,0,1,0-.32.45.45,0,0,1,.28.12c1.58,1.07,8.45,6,9,6.36a.49.49,0,0,1,.26.48c0,2,0,4,0,6.05C22.33,32.66,22.34,32.78,22.34,32.88Z"/><path class="cls-9" d="M24.92,36.91l-.28.13h-.07a1.24,1.24,0,0,1-.05-.51q0-1.7,0-3.39c0-.08,0-.18,0-.26a2.11,2.11,0,0,0,0-.25l.06-5.92a.48.48,0,0,1,.24-.44c.36-.26.72-.53,1.06-.81.61-.46,1.24-.9,1.83-1.4a6.72,6.72,0,0,0,.69-.5l5.06-3.84.34-.24c0,1.85,0,3.66.09,5.48a2.25,2.25,0,0,0,0,.58c0,1.67.06,3.32.06,5a.45.45,0,0,1-.24.43C33.07,31.42,25.45,36.6,24.92,36.91Z"/></g><g id="Layer_2_copy" data-name="Layer 2 copy"><path class="cls-1" d="M127.92,23.24a5,5,0,0,1,4.44-2.49,4.68,4.68,0,0,1,4.28,2.67l.3-.41a5.2,5.2,0,0,1,3-2.08,5.92,5.92,0,0,1,3.26.07,4.49,4.49,0,0,1,3.1,3.36,7.25,7.25,0,0,1,.23,2v7.17a1.75,1.75,0,0,1,0,.39,1,1,0,0,1-.85.85,1,1,0,0,1-1.1-.64,1.43,1.43,0,0,1-.05-.51V26.83a6.41,6.41,0,0,0-.28-2,3.15,3.15,0,0,0-3-2.24,3.57,3.57,0,0,0-2.94,1.11,3.92,3.92,0,0,0-1,2.22,6.11,6.11,0,0,0-.07,1v6.63a1.63,1.63,0,0,1,0,.38,1,1,0,0,1-2-.12c0-.12,0-.24,0-.34v-7a4.71,4.71,0,0,0-.46-2.15,3.1,3.1,0,0,0-2.67-1.8,3.75,3.75,0,0,0-4,3.15,5.92,5.92,0,0,0-.13,1.26v6.59a1.89,1.89,0,0,1,0,.41.94.94,0,0,1-.93.76,1,1,0,0,1-1-.75,1.55,1.55,0,0,1,0-.37V22a1.2,1.2,0,0,1,.15-.61,1,1,0,0,1,1.89.45c0,.23,0,.46,0,.67v.67S127.91,23.22,127.92,23.24Z"/><path class="cls-1" d="M92.75,32.19v5.66a2,2,0,0,1,0,.35,1,1,0,0,1-1.09.81,1,1,0,0,1-.92-.93V22.13a1.63,1.63,0,0,1,0-.44,1,1,0,0,1,2,.21c0,.52,0,1,0,1.58a.32.32,0,0,0,0,.24l.22-.31a6.25,6.25,0,0,1,2.78-2.23,6.1,6.1,0,0,1,6.32,1.16,6.33,6.33,0,0,1,2.16,3.72,8,8,0,0,1-.4,4.89,6.25,6.25,0,0,1-5,4,5.88,5.88,0,0,1-5.72-2.19c-.15-.17-.28-.34-.41-.52C92.77,32.18,92.76,32.18,92.75,32.19Zm9.63-4.36a6.49,6.49,0,0,0-.36-2.1,4.66,4.66,0,0,0-4.53-3.16,4.83,4.83,0,0,0-4.09,2.48,5.37,5.37,0,0,0-.65,3.78,5,5,0,0,0,5.1,4.29,4.46,4.46,0,0,0,3.53-1.89A5.56,5.56,0,0,0,102.38,27.83Z"/><path class="cls-1" d="M59,34.92a10,10,0,0,1-4.25-1,11.41,11.41,0,0,1-2.3-1.48,1,1,0,0,1,1-1.73,1.19,1.19,0,0,1,.39.27,8.69,8.69,0,0,0,3.1,1.73,8.1,8.1,0,0,0,3.88.23,3.88,3.88,0,0,0,2-1.06,2.94,2.94,0,0,0,.57-3.14,2.51,2.51,0,0,0-1-1.11,7.77,7.77,0,0,0-1.72-.76c-.84-.26-1.71-.42-2.57-.64a13.81,13.81,0,0,1-2.7-.9,5.79,5.79,0,0,1-.84-.47,4.1,4.1,0,0,1-2-3.52,4.75,4.75,0,0,1,2.9-4.7A6.55,6.55,0,0,1,58.19,16a9.52,9.52,0,0,1,6.35,1.77,1,1,0,1,1-1.12,1.71A9.6,9.6,0,0,0,62,18.56a7.43,7.43,0,0,0-4.22-.68,3.9,3.9,0,0,0-2,.8,2.78,2.78,0,0,0-.9,3.22,2.21,2.21,0,0,0,.94,1.15,6.72,6.72,0,0,0,1.85.84c.91.29,1.85.47,2.78.71a12.7,12.7,0,0,1,2.39.81,7.25,7.25,0,0,1,.86.48,4,4,0,0,1,2,3.17,4.84,4.84,0,0,1-1.3,4,5.36,5.36,0,0,1-2.27,1.4A8,8,0,0,1,59,34.92Z"/><path class="cls-1" d="M71,23.29c.07-.11.15-.2.21-.31a5.11,5.11,0,0,1,4.49-2.23,5.65,5.65,0,0,1,2.19.42,4.65,4.65,0,0,1,2.76,3.39,7,7,0,0,1,.18,1.65v7.42a1.64,1.64,0,0,1,0,.44,1,1,0,0,1-2-.19c0-.1,0-.21,0-.32V26.73a5.24,5.24,0,0,0-.24-1.67,3.28,3.28,0,0,0-2.89-2.4,4.21,4.21,0,0,0-2.54.4A4,4,0,0,0,71,26.22a7.09,7.09,0,0,0,0,.92v6.69a1,1,0,0,1-1,1,1,1,0,0,1-1.07-.92c0-.11,0-.22,0-.32v-17a2.88,2.88,0,0,1,0-.41,1,1,0,0,1,1-.84,1,1,0,0,1,1,.92,2.11,2.11,0,0,1,0,.35V23.3A0,0,0,0,1,71,23.29Z"/><path class="cls-1" d="M156.34,28.62h-4.73c-.29,0-.29,0-.25.28a5.24,5.24,0,0,0,1.12,2.64,4.6,4.6,0,0,0,3.94,1.65,5.46,5.46,0,0,0,3.4-1.37,3,3,0,0,1,.27-.23.88.88,0,0,1,1.16,1.31,6.84,6.84,0,0,1-3.42,1.9,7.17,7.17,0,0,1-4.39-.33,6.51,6.51,0,0,1-4-4.94,7.58,7.58,0,0,1,.82-5.51,6.21,6.21,0,0,1,4.2-3.13,6.08,6.08,0,0,1,7.17,3.89,8.37,8.37,0,0,1,.52,2.63A1.06,1.06,0,0,1,161,28.63C159.41,28.61,157.87,28.62,156.34,28.62Zm-.66-1.52h4.25c.13,0,.16-.05.14-.17a6.2,6.2,0,0,0-.9-2.64,4.11,4.11,0,0,0-5.67-1.15,5,5,0,0,0-1.91,2.64,8.66,8.66,0,0,0-.26,1.12c0,.15,0,.23.19.2a1.2,1.2,0,0,1,.19,0Z"/><path class="cls-1" d="M111.59,26.06v7.52a1.4,1.4,0,0,1-.06.5,1,1,0,0,1-1.13.71,1,1,0,0,1-.92-.92c0-.13,0-.25,0-.39v-15c0-.3,0-.3-.31-.3h-4.89a1.21,1.21,0,0,1-.5-.07,1,1,0,0,1-.62-1,1,1,0,0,1,.84-.84h12.94a1,1,0,0,1,.95,1,1,1,0,0,1-1,.94c-1.22,0-2.45,0-3.67,0h-1.35c-.31,0-.32-.07-.32.33v3.58C111.59,23.4,111.59,24.73,111.59,26.06Z"/><path class="cls-1" d="M84.5,27.86c0-2,0-3.92,0-5.88a1.08,1.08,0,0,1,.75-1,1,1,0,0,1,1.24.66,1.91,1.91,0,0,1,.05.48V33.63a1.78,1.78,0,0,1,0,.39,1,1,0,0,1-2-.18c0-.73,0-1.46,0-2.2Z"/><path class="cls-1" d="M121.91,27.87v5.79a1.22,1.22,0,0,1,0,.38,1,1,0,0,1-1.08.75,1,1,0,0,1-.93-.93,1.13,1.13,0,0,1,0-.26V21.85a1,1,0,0,1,1.06-.94,1,1,0,0,1,1,1v5.94Z"/><path class="cls-1" d="M126.4,44.18a1.6,1.6,0,0,1,2.83.06l.19-.24a1.6,1.6,0,0,1,1-.63,1.46,1.46,0,0,1,1.69.93,2.05,2.05,0,0,1,.16.81v2.75c0,.16,0,.24-.21.21s-.44.1-.59,0,0-.35,0-.52c0-.73,0-1.47,0-2.2a1.78,1.78,0,0,0-.12-.65.91.91,0,0,0-1.43-.41,1.19,1.19,0,0,0-.49,1v2.49c0,.33,0,.31-.32.31-.51,0-.51,0-.51-.5v-2.2a2,2,0,0,0-.09-.69.9.9,0,0,0-1.45-.44,1.22,1.22,0,0,0-.52,1v2.27c0,.17.08.44-.06.52s-.45,0-.69,0a.07.07,0,0,1-.08-.08v-.19c0-1.38,0-2.77,0-4.15,0-.15,0-.2.19-.22.54,0,.54,0,.57.52A.82.82,0,0,1,126.4,44.18Z"/><path class="cls-1" d="M112.83,47.57v2.26c0,.11-.06.15-.16.15h-.07c-.19,0-.43.08-.56,0s-.05-.36-.05-.55c0-1.61,0-3.24,0-4.85,0-.29,0-.6,0-.89,0-.13,0-.2.17-.19a2.81,2.81,0,0,0,.41,0c.15,0,.18.07.19.19a1.73,1.73,0,0,0,0,.51c.11,0,.14-.11.19-.18a1.92,1.92,0,0,1,3,.2,2.64,2.64,0,0,1,.43,1.52,3.07,3.07,0,0,1-.35,1.48,2,2,0,0,1-2.26,1A2.09,2.09,0,0,1,112.83,47.57Zm2.69-1.79a2,2,0,0,0-.27-1.1,1.21,1.21,0,0,0-1-.64,1.34,1.34,0,0,0-1.45,1.29,5.29,5.29,0,0,0,0,.89,1.31,1.31,0,0,0,2.5.51A2.21,2.21,0,0,0,115.52,45.78Z"/><path class="cls-1" d="M104.33,44.08a.29.29,0,0,0,.17-.12,1.69,1.69,0,0,1,1.8-.54,1.59,1.59,0,0,1,1.1,1.43,3.56,3.56,0,0,1,0,.57v2.4c0,.25,0,.27-.24.25s-.45.1-.58,0,0-.37,0-.56v-2a2.85,2.85,0,0,0-.07-.64A1,1,0,0,0,105,44.2a1.16,1.16,0,0,0-.62,1.07V47.9c0,.12,0,.17-.16.17s-.47.08-.63,0-.05-.37-.05-.57V41.52c0-.24,0-.24.25-.24h.39c.17,0,.21.06.21.22C104.33,42.36,104.33,43.21,104.33,44.08Z"/><path class="cls-1" d="M98.17,47.07a3.06,3.06,0,0,0,1.24.4,1.89,1.89,0,0,0,.85-.08,1,1,0,0,0,.74-.8,1,1,0,0,0-.44-1.09,4.07,4.07,0,0,0-.86-.43,3.16,3.16,0,0,1-1.1-.62A1.62,1.62,0,0,1,98.7,42a2.05,2.05,0,0,1,1-.41,3.43,3.43,0,0,1,1.71.15c.25.09.26.09.18.33s0,.36-.17.43-.26-.08-.4-.12a2.57,2.57,0,0,0-1.17-.1A1,1,0,0,0,99,43.32a.88.88,0,0,0,.4.66,3.69,3.69,0,0,0,.78.42,5.68,5.68,0,0,1,.9.42,1.77,1.77,0,0,1-.32,3.19,3.54,3.54,0,0,1-2.56-.12c-.14-.06-.22-.14-.15-.3S98.1,47.27,98.17,47.07Z"/><path class="cls-1" d="M120.37,47.07a3.22,3.22,0,0,0,1.24.4,1.89,1.89,0,0,0,.85-.08,1,1,0,0,0,.73-.8,1,1,0,0,0-.44-1.09,4,4,0,0,0-.85-.43,3.2,3.2,0,0,1-1.11-.62A1.62,1.62,0,0,1,120.9,42a2,2,0,0,1,1-.41,3.44,3.44,0,0,1,1.71.15c.25.09.26.09.18.33s0,.36-.17.43-.27-.08-.41-.12a2.63,2.63,0,0,0-1.18-.1,1,1,0,0,0-.85,1.06.91.91,0,0,0,.4.66,3.53,3.53,0,0,0,.79.42,6,6,0,0,1,.89.42,1.69,1.69,0,0,1,.85,1.69A1.71,1.71,0,0,1,122.9,48a3.54,3.54,0,0,1-2.56-.12c-.13-.06-.21-.14-.15-.3a2.53,2.53,0,0,0,.12-.36A.67.67,0,0,1,120.37,47.07Z"/><path class="cls-1" d="M157.93,48.74V42.57c.06,0,.09,0,.12,0,1,1,1.92,1.92,2.88,2.86.16.16.16.18,0,.32-.95,1-1.89,1.91-2.85,2.86C158.05,48.7,158,48.75,157.93,48.74Z"/><path class="cls-1" d="M137.48,48.09h-.23a1.11,1.11,0,0,1-.48,0c-.17-.07-.05-.29-.12-.43l0-.05c-.11,0-.15.11-.21.17a1.77,1.77,0,0,1-1.46.42,1.25,1.25,0,0,1-1.1-.9,1.38,1.38,0,0,1,.36-1.46,2.35,2.35,0,0,1,1.34-.6,5.52,5.52,0,0,1,.8-.07c.23,0,.23,0,.22-.24a.9.9,0,0,0-.9-.9,2.34,2.34,0,0,0-1.14.21c-.07,0-.12.09-.2.08l0,0c-.21-.51-.19-.53.32-.72a3.13,3.13,0,0,1,1.29-.17,1.54,1.54,0,0,1,1.51,1.46,1.77,1.77,0,0,1,0,.23A28.28,28.28,0,0,0,137.48,48.09Zm-.91-1.88h0c0-.1,0-.19,0-.3s0-.21-.2-.2a3.86,3.86,0,0,0-1,.15,1.33,1.33,0,0,0-.55.32.89.89,0,0,0-.16.87.66.66,0,0,0,.58.48,1.13,1.13,0,0,0,1.32-1A2.26,2.26,0,0,0,136.57,46.21Z"/><path class="cls-1" d="M150,47.33a2.75,2.75,0,0,0,.11.41c0,.13,0,.19-.14.23a3.59,3.59,0,0,1-2.22.09,1.88,1.88,0,0,1-1.33-1.39,3,3,0,0,1,.14-2.09,2.1,2.1,0,0,1,2.56-1.14,1.59,1.59,0,0,1,1,.92,2.65,2.65,0,0,1,.25,1.3c0,.24,0,.24-.26.24h-2.65c-.42,0-.42,0-.35.4a1.4,1.4,0,0,0,1.28,1.19,3.17,3.17,0,0,0,1.33-.14A.52.52,0,0,1,150,47.33Zm-1.65-2h1.05c.09,0,.16,0,.17-.13a1.15,1.15,0,0,0-1-1.2,1.31,1.31,0,0,0-1.46,1.16c0,.13,0,.17.14.17C147.68,45.3,148,45.31,148.39,45.31Z"/><path class="cls-1" d="M145.22,47.46s0,0,0,0c.07.72.11.6-.53.69a1.08,1.08,0,0,1-.44,0,1.05,1.05,0,0,1-.91-.89,2.43,2.43,0,0,1,0-.6V44.4c0-.28,0-.28-.27-.3-.46,0-.46,0-.45-.46,0-.14,0-.19.19-.19h.38c.11,0,.15-.05.15-.16s0-.51,0-.77,0-.22.19-.24a3.66,3.66,0,0,1,.65-.15v1c0,.28,0,.28.28.28h.77c.12,0,.17,0,.16.17v0c0,.54.05.44-.43.45h-.61c-.13,0-.19,0-.19.19v2.45c.06.61.3.8.91.72C145.08,47.46,145.15,47.43,145.22,47.46Z"/><path class="cls-1" d="M139.19,43.49a1,1,0,0,1,.64,0c.24.1.07.38.12.56a1.2,1.2,0,0,1,0,.27.92.92,0,0,0,.22-.32,1.28,1.28,0,0,1,1.12-.64c.22,0,.24,0,.24.23V44c0,.11,0,.17-.16.17a1.22,1.22,0,0,0-1.3,1.27c0,.24,0,.49,0,.73v1.69c0,.16,0,.24-.21.23a3.53,3.53,0,0,0-.46,0c-.14,0-.17-.05-.17-.19V46.34c0-.89,0-1.78,0-2.68A.81.81,0,0,0,139.19,43.49Z"/><path class="cls-1" d="M152.73,44.26c.07-.12.14-.24.21-.34a1.38,1.38,0,0,1,1.1-.58c.16,0,.22.07.22.23s0,.29,0,.45,0,.15-.14.15a1.19,1.19,0,0,0-1.29,1.29c0,.73,0,1.47,0,2.21v.26c0,.1,0,.16-.14.16h-.58A.11.11,0,0,1,152,48v-.19c0-1.36,0-2.73,0-4.09,0-.23,0-.23.23-.23.52,0,.52,0,.53.48v.32Z"/><path class="cls-1" d="M84.31,17c0-.67.22-1,.74-1.21a1.4,1.4,0,0,1,1.08.07,1,1,0,0,1,.57.76,1.89,1.89,0,0,1,0,.41,1.07,1.07,0,0,1-.64,1.08,1.34,1.34,0,0,1-1.42-.17A1,1,0,0,1,84.31,17Z"/><path class="cls-1" d="M110.12,45.78v2.08c0,.23,0,.23-.22.23h-.48c-.11,0-.16,0-.15-.15V43.61c0-.09,0-.13.13-.13H110a.11.11,0,0,1,.12.12v.22C110.12,44.46,110.12,45.11,110.12,45.78Z"/><path class="cls-1" d="M120.31,18.65V15.27c.68.59,1.34,1.15,2,1.69A13.66,13.66,0,0,1,120.31,18.65Z"/><path class="cls-1" d="M109.67,42.68a.53.53,0,0,1,0-1.06.51.51,0,0,1,.54.54A.5.5,0,0,1,109.67,42.68Z"/></g></svg>