<svg id="Layer_1" data-name="Layer 1" xmlns="http://www.w3.org/2000/svg" xmlns:xlink="http://www.w3.org/1999/xlink" viewBox="0 0 1217.71 361.22"><defs><style>.cls-1{fill:#fff;}.cls-2{fill:#b54e24;}.cls-3{fill:#e16c2e;}.cls-4{fill:#ef8c56;}.cls-5{fill:#dddddc;}.cls-6{fill:#c74528;}.cls-7{fill:#f3f3f3;}.cls-8{fill:url(#linear-gradient);}.cls-9{fill:#fffefe;}.cls-10{fill:#374f7b;}.cls-11{fill:#040404;}</style><linearGradient id="linear-gradient" x1="175.32" y1="974.88" x2="175.32" y2="1289.21" gradientTransform="translate(0 -956)" gradientUnits="userSpaceOnUse"><stop offset="0" stop-color="#ed5b26"/><stop offset="1" stop-color="#ca4627"/></linearGradient></defs><title>shiptime-logo-fr</title><g id="Layer_1-2" data-name="Layer 1"><path class="cls-1" d="M351.3,175.6A175.58,175.58,0,0,1,175.7,351.2C78.7,351.2,0,272.7,0,175.6A175.51,175.51,0,0,1,175.6,0c8.7,0,25.7,1.9,25.7,1.9l142.8,124C344.1,125.8,351.3,158.3,351.3,175.6Z"/><path class="cls-2" d="M328.8,131.1c.9.7,2.6,2.2,2.6,2.2l1.3,1,.1.1c.2,1.6-1,1.3-1.9,1.4-1.8-.4-5.3-.7-5.3-.7l-1.6-.3s-11.3-.5-16.9-.9c-2.7-.2-5.4-.2-8.1-.4q-7.35-.6-14.7-1.5a178.14,178.14,0,0,1-20.6-3.9c-1.8-.5-3.5-.9-5.3-1.5-7.8-2.6-15.4-5.4-22.4-9.9a89.3,89.3,0,0,1-20-16.8,96.6,96.6,0,0,1-13.8-21.4c-.4-.9-.5-2.1-1.4-2.7-1.4-3.8-2.9-7.5-4.1-11.4a125.6,125.6,0,0,1-5-25.7c-.5-5.2-1.2-10.4-1-15.7.1-.4.1-.9.2-1.3.6,3.8,1,7.6,1.7,11.3,2.7,13.3,8.3,25.1,17.7,34.9A93.38,93.38,0,0,0,233.6,85a269.11,269.11,0,0,0,29,12.9c11.5,4.5,23.1,8.8,34.2,14.1,3,1.4,5.9,3,9,4.2.2.4.6.4,1,.6a104.39,104.39,0,0,1,17.9,11.4A14.57,14.57,0,0,0,328.8,131.1Z"/><path class="cls-3" d="M314.7,262.5a132.26,132.26,0,0,1-13.1,18.3q-34.35,40.8-85.9,54.4a166.6,166.6,0,0,1-29.8,4.7A163,163,0,0,1,74.5,305.6a164.19,164.19,0,0,1-34.3-36.3c-.5-.7-.9-1.5-1.4-2.2a3.07,3.07,0,0,0-.4-3.3,151.88,151.88,0,0,1-8.6-15.2c-2.1-4.1-3.8-8.4-5.6-12.7-.4-.9-.7-2-1-2.9-.2-.7-.2-1.5.8-1.6a1.37,1.37,0,0,1,.5.8,181.35,181.35,0,0,0,8.9,19.6,187.58,187.58,0,0,0,11.2,18.1,170.14,170.14,0,0,0,16.5,19.5c3,3.2,6.4,6,9.7,8.9a141.33,141.33,0,0,0,14.4,11.1,156.27,156.27,0,0,0,22.9,12.9,165.88,165.88,0,0,0,27.7,9.9,140.52,140.52,0,0,0,15.7,3.1c2.8.4,5.5.7,8.3,1,3.4.4,6.8.7,10.2.8a152.94,152.94,0,0,0,26.2-1.4c4.4-.6,8.8-1.2,13.1-2.2a171.62,171.62,0,0,0,24.4-7.4,161.86,161.86,0,0,0,24-11.8c5.1-3.1,10-6.5,14.8-10.1,5.2-4,10-8.3,14.9-12.8,2.1-1.9,4-4.1,5.9-6.2,3.1-3.3,6-6.8,8.8-10.4a145.58,145.58,0,0,0,11.5-16.7,148.26,148.26,0,0,0,8.7-16.8c2.1-5,4.1-10,5.8-15.2a157.7,157.7,0,0,0,6-25.3c1.3.2,1.5,1.1,1.3,2.1-.1.7-.3,1.4-.4,2.1a159.73,159.73,0,0,1-5.3,21.7,140.24,140.24,0,0,1-7.1,18c-1.6,3.5-3.3,6.9-5.2,10.2-1.1,2-2.6,3.9-3.2,6.1C314.2,261.5,313.9,262.1,314.7,262.5Z"/><path class="cls-4" d="M24.1,231.3c-1.1.1-1,.8-.8,1.6a24.69,24.69,0,0,0,1,2.9c1.8,4.2,3.5,8.6,5.6,12.7a174.53,174.53,0,0,0,8.6,15.2,3.29,3.29,0,0,1,.4,3.3,65.68,65.68,0,0,1-5.8-9,163.54,163.54,0,0,1-7.9-148.1A164.53,164.53,0,0,1,117,22.6a161.93,161.93,0,0,1,31.4-8.5,174.22,174.22,0,0,1,36.1-1.9,54.59,54.59,0,0,0,5.7.4,5.63,5.63,0,0,1,.3,3.4,2.46,2.46,0,0,1-1.2.1c-3.6-.1-7.1-.6-10.7-.6a187.4,187.4,0,0,0-19.8.9c-4.1.4-8.2.9-12.3,1.7a174.2,174.2,0,0,0-27.2,7.5A165.45,165.45,0,0,0,89.5,40.4,133,133,0,0,0,72.9,52.5c-3.8,3.3-7.9,6.2-11.4,9.9-3,3.1-5.7,6.6-8.5,9.8a137.8,137.8,0,0,0-9.9,12.9A154.5,154.5,0,0,0,29,109.8a159.59,159.59,0,0,0-9.2,25.9,174.74,174.74,0,0,0-3.5,17.5,171.85,171.85,0,0,0-1.7,17.6,139.5,139.5,0,0,0,1.3,25.8,163.59,163.59,0,0,0,3.4,18.3C20.6,220.2,22.4,225.7,24.1,231.3Z"/><path class="cls-5" d="M190.5,15.8c0-1.1.3-2.3-.3-3.4.3-1.6.4-1.7,1.4-.8l11.5,10c5.1,4.4,10.3,8.7,15.5,13.2,3,2.6,6,5.3,9,7.9,2.8,2.4,5.7,4.8,8.6,7.3s5.5,4.8,8.3,7.2c3.2,2.8,6.4,5.5,9.6,8.2,2.8,2.5,5.6,5,8.4,7.4,3.1,2.7,6.2,5.3,9.2,7.9,2.8,2.4,5.6,4.9,8.5,7.4,4.2,3.6,8.5,7.2,12.7,10.9,2.8,2.4,5.6,4.9,8.5,7.4,3.1,2.7,6.2,5.3,9.2,7.9,2.8,2.4,5.5,4.8,8.3,7.2,3,2.6,6,5.3,9,7.8.6.5,3.3,3.3,4.8,4.9-1.5-1.2-6.6-5-7.9-6.1a104.39,104.39,0,0,0-17.9-11.4c-.3-.2-.8-.2-1-.6-.3-1.9-1.9-2.7-3.1-3.8-2.6-2.3-5.2-4.4-7.9-6.6-2.5-2.1-4.9-4.3-7.4-6.4-2.7-2.3-5.4-4.5-8.1-6.7s-5.2-4.5-7.8-6.7c-2.8-2.4-5.7-4.8-8.6-7.2l-7.5-6.3c-3.5-3-7.1-5.8-10.6-8.9-2.6-2.3-5.3-4.4-7.8-6.7-3.6-3.2-7.4-6.2-11.1-9.3s-7.2-6.3-10.9-9.3c-3.5-3-7.1-5.8-10.7-8.8-3.8-3.2-7.5-6.5-11.2-9.7a4.09,4.09,0,0,0-2.6-1.1A13.13,13.13,0,0,0,190.5,15.8Z"/><path class="cls-4" d="M314.7,262.5c-.8-.4-.5-1-.3-1.6a22.19,22.19,0,0,1,3.2-6.1c1.9-3.3,3.6-6.8,5.2-10.2a172.38,172.38,0,0,0,7.1-18,149.24,149.24,0,0,0,5.3-21.7c.1-.7.3-1.4.4-2.1.1-1.1-.1-1.9-1.3-2.1a85.83,85.83,0,0,0,1-8.7c.4-4,.8-8.1.8-12.1,0-4.4.1-8.7-.3-13.1-.4-3.5-.6-7.1-1-10.7a151.8,151.8,0,0,0-3.9-20.1c.9-.1,2.1.2,1.9-1.4a41.44,41.44,0,0,1,3,7,158.75,158.75,0,0,1,3.5,44,135.07,135.07,0,0,1-3.2,23.7c-.5,2.2-1.3,4.3-1.7,6.4-1.9,10.1-5.7,19.6-9.9,28.9a151.8,151.8,0,0,1-9,16.9A3.51,3.51,0,0,1,314.7,262.5Z"/><path class="cls-6" d="M190.8,21.5A6.07,6.07,0,0,0,189,21c-4.1-.3-8.1-.6-12.2-.5-2.8.1-5.6,0-8.4,0-3.2.1-6.3.5-9.5.8-3.7.3-7.4.9-11.1,1.5a122,122,0,0,0-12.3,2.7,159.86,159.86,0,0,0-18.1,6A147.84,147.84,0,0,0,95.6,42.4a130.25,130.25,0,0,0-14.4,9.8c-3.7,3-7.6,5.8-10.9,9.3-1.7,1.8-3.8,3.1-5.5,5C61,71,56.9,75.2,53.2,79.8a176.18,176.18,0,0,0-12.9,19,137.36,137.36,0,0,0-8.1,16.3c-1.8,4.3-3.5,8.6-4.9,13a156.25,156.25,0,0,0-5.6,23.4c-.6,4.2-1,8.5-1.5,12.8a160.71,160.71,0,0,0-.3,20.8A119.9,119.9,0,0,0,22.1,203a157.25,157.25,0,0,0,5.4,21.5,148.83,148.83,0,0,0,9.1,21.9,164.49,164.49,0,0,0,15.3,24.2,146.93,146.93,0,0,0,9.6,11.3c1.7,1.7,3.1,3.6,4.9,5.2A167.15,167.15,0,0,0,94.7,309c4,2.4,8,4.7,12.1,6.7a170,170,0,0,0,26.8,10.2,171.74,171.74,0,0,0,18.9,4.1c3.5.6,7.1.8,10.7,1.2,6.3.7,12.6.2,18.9.4a77.68,77.68,0,0,0,9.7-.8c2.6-.2,5.2-.6,7.8-1a113.77,113.77,0,0,0,15.2-3.1,164.85,164.85,0,0,0,24.7-8.8,162.4,162.4,0,0,0,25.3-14.5,111.14,111.14,0,0,0,11.5-9c3.3-3,6.8-5.8,9.9-9,3.3-3.5,6.5-7.2,9.6-10.9a138.61,138.61,0,0,0,11.1-15.3,145,145,0,0,0,11.8-22.4c1.7-4.2,3.5-8.4,4.8-12.7a144.61,144.61,0,0,0,5.5-23.4c.6-4.3,1.1-8.7,1.5-13a131.44,131.44,0,0,0,.2-20.8,132.35,132.35,0,0,0-5.1-30.5,3.08,3.08,0,0,1-.1-1,18.72,18.72,0,0,1,5.3.5,169.85,169.85,0,0,1,3.9,20.1c.4,3.6.7,7.1,1,10.7.4,4.4.3,8.8.3,13.1,0,4-.4,8.1-.8,12.1-.3,2.9-.5,5.8-1,8.7a169.17,169.17,0,0,1-6,25.3c-1.7,5.1-3.7,10.2-5.8,15.2a148.26,148.26,0,0,1-8.7,16.8,137.35,137.35,0,0,1-11.5,16.7c-2.8,3.6-5.7,7-8.8,10.4-1.9,2.1-3.8,4.3-5.9,6.2-4.8,4.4-9.6,8.8-14.9,12.8-4.8,3.6-9.7,7-14.8,10.1a166.83,166.83,0,0,1-24,11.8,171.62,171.62,0,0,1-24.4,7.4c-4.3,1-8.7,1.6-13.1,2.2a163.77,163.77,0,0,1-26.2,1.4c-3.4-.1-6.8-.4-10.2-.8-2.8-.3-5.5-.6-8.3-1a121,121,0,0,1-15.7-3.1,172.52,172.52,0,0,1-27.7-9.9,166,166,0,0,1-22.9-12.9,138.12,138.12,0,0,1-14.4-11.1c-3.3-2.9-6.7-5.7-9.7-8.9a180.9,180.9,0,0,1-16.5-19.5,176.1,176.1,0,0,1-11.2-18.1A173,173,0,0,1,24.6,232a1.37,1.37,0,0,0-.5-.8c-1.7-5.6-3.5-11.1-4.9-16.7a184.46,184.46,0,0,1-3.4-18.3,159.35,159.35,0,0,1-1.3-25.8,149.7,149.7,0,0,1,1.7-17.6,157.65,157.65,0,0,1,12.7-43.4A154.5,154.5,0,0,1,43,84.7a157.26,157.26,0,0,1,9.9-12.9c2.9-3.3,5.5-6.7,8.5-9.8,3.5-3.6,7.6-6.6,11.4-9.9A140.85,140.85,0,0,1,89.4,40a162.24,162.24,0,0,1,29.8-14.8,168.36,168.36,0,0,1,27.2-7.5c4.1-.8,8.2-1.2,12.3-1.7a187.4,187.4,0,0,1,19.8-.9c3.6,0,7.2.6,10.7.6a2.46,2.46,0,0,0,1.2-.1c.1.9.2,1.9.3,2.9S190.8,20.6,190.8,21.5Z"/><path class="cls-7" d="M190.8,21.5V18.6a3.41,3.41,0,0,1,2.6,1.1c3.7,3.2,7.4,6.5,11.2,9.7,3.5,3,7.1,5.8,10.7,8.8s7.2,6.3,10.9,9.3,7.5,6.1,11.1,9.3c2.5,2.3,5.2,4.4,7.8,6.7,3.5,3.1,7.1,5.9,10.6,8.9l7.5,6.3c2.9,2.4,5.7,4.8,8.6,7.2,2.6,2.2,5.2,4.5,7.8,6.7s5.4,4.5,8.1,6.7c2.5,2.1,4.9,4.3,7.4,6.4s5.3,4.3,7.9,6.6c1.2,1.1,2.8,1.9,3.1,3.8-3.1-1.2-6-2.8-9-4.2-11.2-5.3-22.7-9.6-34.2-14.1a269.11,269.11,0,0,1-29-12.9,91,91,0,0,1-23.3-17.1c-9.4-9.8-15-21.6-17.7-34.9-.8-3.8-1.1-7.6-1.7-11.3C190.8,21.6,190.8,21.5,190.8,21.5Z"/><path class="cls-8" d="M332.4,166.6a140.58,140.58,0,0,0-5.1-30.8,3.08,3.08,0,0,1-.1-1,10.28,10.28,0,0,0-1.8-.1c-5.7-.1-11.2-.8-16.9-1.3-2.7-.2-5.5-.2-8.2-.4-5-.4-9.9-.9-14.9-1.5a181.51,181.51,0,0,1-20.8-3.9h0c-1.8-.5-3.6-1-5.3-1.5-7.9-2.6-15.6-5.5-22.7-10a89,89,0,0,1-20.2-17,97,97,0,0,1-13.9-21.6c-.4-.9-.5-2.1-1.4-2.8-1.4-3.8-2.9-7.6-4.2-11.6a127.48,127.48,0,0,1-5-25.9,141.57,141.57,0,0,1-1.1-15.9c.1-.4.1-.9.2-1.3v-.1a6.07,6.07,0,0,0-1.8-.5c-4.1-.3-8.2-.6-12.3-.5-2.8.1-5.7,0-8.5,0-3.2.1-6.4.5-9.6.8-3.8.3-7.5,1-11.2,1.5-4.2.7-8.4,1.6-12.5,2.7A145.43,145.43,0,0,0,116.8,30,156.85,156.85,0,0,0,94.7,41a144,144,0,0,0-14.6,9.9,99.13,99.13,0,0,0-11,9.4c-1.7,1.8-3.9,3.1-5.5,5.1-3.9,4.5-8,8.8-11.7,13.5A161.66,161.66,0,0,0,38.8,98a140.75,140.75,0,0,0-8.2,16.5c-1.8,4.3-3.6,8.6-5,13.1A148.42,148.42,0,0,0,20,151.3c-.6,4.3-1,8.6-1.5,12.9a163.81,163.81,0,0,0-.3,21,122.55,122.55,0,0,0,2.2,18.1A160,160,0,0,0,25.8,225,147.18,147.18,0,0,0,35,247.1a160.53,160.53,0,0,0,15.5,24.5A116.81,116.81,0,0,0,60.2,283c1.7,1.7,3.2,3.6,4.9,5.3a165.44,165.44,0,0,0,28.6,22.1,133.05,133.05,0,0,0,12.3,6.8,170,170,0,0,0,27.1,10.3,154.5,154.5,0,0,0,19.1,4.1c3.6.6,7.2.8,10.8,1.2,6.4.7,12.7.2,19.1.4a63.76,63.76,0,0,0,9.8-.9c2.6-.2,5.3-.7,7.9-1a112.06,112.06,0,0,0,15.3-3.1,168.84,168.84,0,0,0,25-8.9,158.59,158.59,0,0,0,25.6-14.7,125.34,125.34,0,0,0,11.6-9.1c3.4-3,6.9-5.8,10-9.1,3.3-3.6,6.6-7.3,9.8-11A167.89,167.89,0,0,0,308.3,260a144.07,144.07,0,0,0,11.9-22.7c1.8-4.3,3.5-8.5,4.9-12.9a148.42,148.42,0,0,0,5.6-23.7c.6-4.4,1.1-8.8,1.5-13.1A163.52,163.52,0,0,0,332.4,166.6ZM90.4,306.1c-.1-.2-.2-.5-.3-.7a4.88,4.88,0,0,1,.3.7l.3.3C90.6,306.2,90.5,306.2,90.4,306.1Z"/><path class="cls-4" d="M184.4,274a.45.45,0,0,1,.5,0C184.8,274.2,184.6,274.3,184.4,274Z"/><path class="cls-9" d="M176.8,87c5.2,3.5,10.7,6.6,16.1,9.9,18,11,35.9,22,53.9,33,.7.5,1.5.9,2.2,1.4-.3,1.2-1.5,1.5-2.1,2.3-4.1,3.3-69.5,52-70.9,52s-2.7-1.6-4-2.5c-5.4-3.8-68.7-49-71.4-51.7.4-.7,1-.9,1.5-1.3,12.7-8.3,25.1-17,37.6-25.5,9.3-6.3,18.7-12.5,28-18.7,1.4-.4,2.2-2.2,3.7-1.9,1.3.3,2.5,1.4,3.7,2.1A7.11,7.11,0,0,0,176.8,87Z"/><path class="cls-9" d="M167.7,246.8c0,6.3,0,12.6-.1,18.9-.1,4.1.1,8.1,0,12.2,0,.6.4,1.5-.4,1.9s-1.3-.4-1.9-.7C163,277.8,107.1,238,98,231.4a3.83,3.83,0,0,1-1.8-3.6c.1-15,0-30.1,0-45.1,0-.9-.1-1.8-.1-2.6,0-2.5.1-4.9.1-7.4V149a4.92,4.92,0,0,1,.2-2.4,3.12,3.12,0,0,1,2.1.9c11.8,8,63.4,45.2,67.2,47.7a3.73,3.73,0,0,1,2,3.6c-.1,15.1,0,30.2,0,45.4A22.54,22.54,0,0,0,167.7,246.8Z"/><path class="cls-9" d="M187,277a20,20,0,0,1-2.1,1h-.5a9.68,9.68,0,0,1-.4-3.8c-.1-8.5-.2-17-.2-25.5,0-.6-.1-1.3-.1-1.9a12.25,12.25,0,0,0,.2-1.9c.1-14.8.3-29.6.4-44.4a3.55,3.55,0,0,1,1.8-3.3c2.7-2,5.4-4,8-6.1,4.6-3.5,9.3-6.8,13.7-10.5a49.52,49.52,0,0,0,5.2-3.8c12.7-9.6,25.3-19.2,38-28.8l2.5-1.8c.2,13.9.2,27.5.7,41.1a16.22,16.22,0,0,0-.1,4.4c.3,12.5.5,24.9.5,37.4a3.55,3.55,0,0,1-1.8,3.3C248.2,235.8,191,274.7,187,277Z"/></g><path class="cls-10" d="M959.2,169.86c8.37-11.75,19.11-18.74,33.89-18.36s25.36,7.05,32.28,20.28a51.52,51.52,0,0,1,8.56-10.08c9.59-8.64,21-11.27,33.5-9.82,7.67.89,14.59,3.59,20.29,8.93a36.66,36.66,0,0,1,11.64,25.28c1.24,21.23.34,42.51.46,63.76,0,4.67-3.52,7.75-8.12,7.62-4.33-.12-7.4-3.44-7.41-8.12,0-18.23,0-36.45,0-54.68a34.6,34.6,0,0,0-3.46-15.66c-4.33-8.62-11.5-12.76-21.06-13.32-17.56-1-28.66,11.63-29.9,27.48-.31,4-.28,8-.28,12.05,0,14.78,0,29.56,0,44.34,0,4.71-3.05,7.88-7.51,7.94-4.62.05-7.79-3-7.8-7.88,0-17.9.05-35.8-.05-53.69,0-7.72-1.46-15.12-6.43-21.42a22.73,22.73,0,0,0-16.19-8.68c-19.47-2-30.57,12.47-32,27.6-.24,2.53-.3,5.08-.3,7.62q0,24.14,0,48.28c0,3.23-1.12,5.82-4,7.33a7.63,7.63,0,0,1-7.94-.34,7.05,7.05,0,0,1-3.44-5.91c0-.16,0-.33,0-.49q0-44.7,0-89.41a7.68,7.68,0,0,1,15.36-.36C959.32,163.35,959.2,166.61,959.2,169.86Z"/><path class="cls-11" d="M694.07,237.09c0,5.84,0,11.21,0,16.59,0,9.28,0,18.55,0,27.83,0,4.67-3.18,7.91-7.57,7.89a7.73,7.73,0,0,1-7.74-8.07q0-60.33,0-120.66a7.73,7.73,0,0,1,5.12-7.6,7.86,7.86,0,0,1,8.76,2.71,7.55,7.55,0,0,1,1.46,4.83c0,4.31,0,8.62,0,13.39,1.89-2.36,3.43-4.42,5.11-6.36,10.22-11.85,23.19-17.64,38.74-15.91,19.1,2.12,33,12.28,40.22,30.17,7.69,19.13,6.51,38.09-5,55.57-8.15,12.42-20.08,19.43-35,21-17.48,1.8-31.25-4.93-42-18.52C695.61,239.1,695,238.28,694.07,237.09Zm34.14,7.81c13.44-.27,22.79-3.74,29.35-12.18C769,218,770,201.59,762.2,185.22c-11.05-23.32-42.07-26.84-58.77-7.2-9.61,11.29-11.79,24.31-8.43,38.4C699,233,714.65,245.21,728.21,244.9Z"/><path class="cls-11" d="M443.33,258.48c-20.68.14-38-6.54-53.34-18.76a7.69,7.69,0,0,1-1.16-10.78,7.39,7.39,0,0,1,10.9-1.1c5.92,5,12.25,9.32,19.53,12.06,12.41,4.66,25.1,6.21,37.94,2.23,8.32-2.58,14.86-7.62,16.64-16.68,2.07-10.52-.64-17.78-9.71-23-7.55-4.31-15.9-6.31-24.28-8.15-10.22-2.25-20.32-4.82-29.67-9.73-9.68-5.08-16.32-12.55-18.09-23.62-2.94-18.3,5.47-33.35,22.39-41,10.94-4.95,22.41-5.4,34.14-4a68.57,68.57,0,0,1,32.9,12.92c3.88,2.84,4.79,7.31,2.26,11s-7.21,4.36-11.06,1.64c-7.56-5.35-15.68-9.52-24.88-11-11-1.72-21.78-1.69-31.59,4.94-11.68,7.89-12.35,27.58,1.67,34.86,8.36,4.35,17.29,6.75,26.38,8.75,11.23,2.47,22.28,5.43,31.94,12,9.14,6.2,13.8,14.85,14.29,26,.89,20.1-12.12,34.34-30.67,39.31A56.41,56.41,0,0,1,443.33,258.48Z"/><path class="cls-11" d="M529.38,171.17c3.64-5.5,7.43-10,12.42-13.23,8.81-5.79,18.53-7.3,28.84-6a37.09,37.09,0,0,1,19.46,7.86c7.86,6.38,11.61,14.95,13.22,24.68a64.45,64.45,0,0,1,.5,10.54q0,27.46,0,54.92a7.55,7.55,0,0,1-5.89,7.48,7.81,7.81,0,0,1-9.07-5,10.87,10.87,0,0,1-.36-3.89c0-17.24,0-34.48,0-51.72,0-5.75-.81-11.42-3.37-16.69-4.47-9.22-12.09-13.66-22.06-14.37s-19,2-25.87,9.73a31,31,0,0,0-7.76,21.13c-.08,17.57,0,35.14,0,52.7,0,3.94-2.09,7-5.35,8a8.15,8.15,0,0,1-8.88-3.16,9.64,9.64,0,0,1-1.34-5.64q0-54.55,0-109.11c0-7,0-14,0-20.93a7.73,7.73,0,0,1,14.48-4.12A9.34,9.34,0,0,1,529.4,119C529.37,136.18,529.38,153.34,529.38,171.17Z"/><path class="cls-10" d="M1174,210.92h-35.47c-1.1,0-2.37-.36-2.11,1.63,2,15.11,10.81,27.56,25.95,31.55,14,3.69,26.5.24,37.59-8.86,1.94-1.59,3.63-3.58,6.54-3.45a6.65,6.65,0,0,1,6,3.95,5.73,5.73,0,0,1-1.15,7,51.36,51.36,0,0,1-30.9,15.68c-11.5,1.47-22.56.16-32.85-5.41-15.11-8.19-23.68-21.14-26.32-37.9-2.05-13-.46-25.66,5.86-37.46,9.89-18.42,27.76-27.86,47.7-26,19.78,1.89,34.88,15.07,40.37,34.39a61.46,61.46,0,0,1,2.49,16.21c.06,5.79-2.71,8.62-8.52,8.63Q1191.58,210.95,1174,210.92Zm-5-11.57c10.18,0,20.35-.09,30.53.07,2.35,0,2.77-.76,2.45-2.76a49.15,49.15,0,0,0-5.79-17c-9.42-16.31-30.12-18.92-43.35-10-9.93,6.66-14.59,16.47-16.43,27.94-.26,1.61.36,1.88,1.82,1.88C1148.48,199.32,1158.74,199.35,1169,199.35Z"/><path class="cls-10" d="M820.24,191.81c0-19-.05-37.93.06-56.89,0-2.46-.7-2.93-3-2.9-11.9.12-23.81.05-35.71.06-3.77,0-7-1-8.6-4.81a7.36,7.36,0,0,1,5.3-9.71,15.18,15.18,0,0,1,3.17-.29q46.79,0,93.58,0c4.45,0,7.25,1.63,8.52,4.91a7.15,7.15,0,0,1-5.56,9.61,25.94,25.94,0,0,1-3.91.28c-11.66,0-23.31.07-35,0-2.18,0-2.85.46-2.84,2.78q.12,57.14.05,114.27a8.21,8.21,0,0,1-5.55,8.12,8.12,8.12,0,0,1-8.84-2.74,8.81,8.81,0,0,1-1.73-5.75Q820.27,220.25,820.24,191.81Z"/><path class="cls-11" d="M647.21,205.1c0,14.77,0,29.53,0,44.3,0,5.36-3.3,8.37-8.54,8a7.41,7.41,0,0,1-6.71-6.13,17.15,17.15,0,0,1-.16-2.7q0-43.56,0-87.13c0-4.47,2-7.45,5.61-8.49a7.53,7.53,0,0,1,9.76,7.07c.12,9.51.06,19,.06,28.55Q647.22,196.86,647.21,205.1Z"/><path class="cls-10" d="M914.21,205.22q0,22,0,44c0,5-2.85,8.15-7.41,8.21-4.84.06-8-3.12-8-8.25q0-44,0-88.1c0-4.61,2.64-7.9,6.91-8.45a7.83,7.83,0,0,1,8.18,5.34,9.11,9.11,0,0,1,.3,2.91Q914.22,183.07,914.21,205.22Z"/><path class="cls-10" d="M1015.15,323.92c1.79-2.64,3.89-4.55,6.78-5.28,6.53-1.66,12.2,2.72,12.44,9.87.21,6.15,0,12.31.1,18.46,0,1.17-.36,1.51-1.54,1.56-3.75.15-3.74.2-3.76-3.56,0-5.09.05-10.18-.16-15.26-.19-4.51-2.63-6.93-6.39-6.8a6.44,6.44,0,0,0-6,5.77c-.77,5.63-.16,11.31-.37,17,0,.93.55,2.39-.47,2.69a9.84,9.84,0,0,1-4.38,0c-.86-.16-.48-1.27-.48-2,0-4.76,0-9.52,0-14.28,0-.74,0-1.48,0-2.22-.11-3.82-2.11-6.63-5-7-3.57-.41-6.7,2-7.53,5.9a14.51,14.51,0,0,0-.27,2.92c0,5-.1,10,0,15,.06,2.54-1.68,1.62-2.85,1.7s-2.61.52-2.6-1.74q.09-12.92-.16-25.84c0-1.93.91-1.93,2.23-1.84s3-.59,2.68,1.86a25.85,25.85,0,0,0,0,2.86c2.45-3.58,5.36-5.49,9.21-5.49S1013.25,320.3,1015.15,323.92Z"/><path class="cls-10" d="M1048.32,322.91c5.22-6.53,13.62-6.1,17.32.89,2-2.61,4.15-4.75,7.52-5.29,5.82-.93,10.48,2.3,11.44,8.35,1.07,6.76.29,13.59.49,20.38,0,.77-.24,1.13-1.09,1.27-3.65.6-4.22.13-4.28-3.5-.09-5.24.31-10.5-.31-15.74-.49-4.18-2.57-6.4-6-6.37s-6.31,2.73-6.44,6.69c-.19,5.57-.22,11.16-.06,16.73.07,2.36-1.16,2.2-2.72,2.19s-2.76.23-2.73-2.16c.08-5.82.5-11.66-.2-17.45-.53-4.36-2.7-6.21-6.28-6-3.22.19-6.2,3.45-6.25,7.08-.08,5.41-.17,10.84,0,16.24.09,2.5-1.23,2.26-2.86,2.29s-2.65,0-2.63-2.27c.07-8.36.31-16.73-.25-25.09-.08-1.19-.2-2.47,1.63-2.11,1.22.24,3.41-1.1,3.17,1.82C1047.73,321.56,1047.6,322.38,1048.32,322.91Z"/><path class="cls-10" d="M930.75,354.68c11,5.19,18.95.93,17.56-10.34-1.95,1.72-3.83,3.24-6.27,3.7-6.33,1.21-11.69-1.75-14.14-7.79-2.56-6.32-1.1-13.95,3.52-18.43,5.25-5.09,12.83-4.69,17.44.92.48-.07.35-.46.36-.74.08-2.86,1.25-3.67,4.08-3,1,.24.81.88.79,1.49-.39,9.5.37,19-.5,28.51s-7.89,12.55-16.11,12.16a21.33,21.33,0,0,1-5.26-1.08c-3-.93-3.12-1.3-2.11-4.12A11.5,11.5,0,0,1,930.75,354.68Zm17.65-21.45c0-.82,0-1.64,0-2.46-.05-4.07-2.27-7.12-5.7-7.86a7.82,7.82,0,0,0-9.21,4.73,14.49,14.49,0,0,0-.26,11.23,7.78,7.78,0,0,0,15.16-2.69C948.43,335.2,948.41,334.22,948.41,333.23Z"/><path class="cls-10" d="M1186.27,307c2.9,3,5.3,5.55,7.76,8q7.38,7.43,14.82,14.79c.91.89,1.22,1.47.13,2.54-7.36,7.27-14.66,14.6-22,21.91a4.71,4.71,0,0,1-.73.46Z"/><path class="cls-10" d="M573.45,322c0-5,.17-9.69-.07-14.39-.14-2.68,1.34-2.33,3-2.39s2.8,0,2.78,2.37c-.12,13.05-.07,26.11,0,39.17,0,1.78-.82,1.91-2.07,1.71s-3.07.91-2.87-1.67a15.83,15.83,0,0,0-.09-2.07c-.63-.4-.84,0-1.11.31-7.17,7.06-17.62,4.59-20.62-5a19,19,0,0,1,1.33-15.23C557,319,565.78,315.08,573.45,322Zm0,11.65c0-.9,0-1.8,0-2.7-.08-4.42-2.41-7.41-6.31-8.1s-7.51,1.29-9.05,5.36a15.28,15.28,0,0,0-.09,11,7.91,7.91,0,0,0,15.45-2.36C573.48,335.79,573.44,334.73,573.45,333.66Z"/><path class="cls-10" d="M675.79,323.42a12.45,12.45,0,0,1,9.9-5.16,12.08,12.08,0,0,1,11.62,8.3,20.35,20.35,0,0,1,.19,13.26c-3.1,9.89-14.82,12.1-21,5.72-.71,1.16-.36,2.38-.38,3.53-.06,3.12-.09,6.24,0,9.36.05,1.55-.5,1.94-2,1.93-3.6,0-3.59.06-3.61-3.22q-.07-18-.17-36c0-1.18-.25-2.46,1.63-2.13,1.34.24,3.56-1,3.32,2A11.21,11.21,0,0,0,675.79,323.42Zm17.22,11a15.17,15.17,0,0,0-.87-5.73c-1.33-3.86-4.1-6-7.78-6s-6.61,2.32-7.82,6.26c-.81,2.65-.38,5.37-.37,8.06a7.79,7.79,0,0,0,5.75,7.4,8,8,0,0,0,9-3.27A13.87,13.87,0,0,0,693,334.43Z"/><path class="cls-10" d="M493.92,323.87c2.52-2.93,4.91-4.87,8.28-5.36,5.91-.85,11,1.77,13.34,7.3a18.92,18.92,0,0,1-.64,16.64c-4,7.76-14.85,8.77-19.58,3.19a5.32,5.32,0,0,0-.81-.57c0,4.54-.16,8.86.06,13.15.12,2.46-1.26,2.12-2.75,2.12s-2.77.28-2.76-2.14c.09-12.56,0-25.12-.09-37.68,0-1.58.84-1.67,1.81-1.42s3.06-1.25,3.14,1.35C493.94,321.35,493.92,322.25,493.92,323.87Zm.52,10.23a35.13,35.13,0,0,0,.27,3.67c.68,3.91,3.34,6.52,6.91,6.92a8,8,0,0,0,8.91-5.4,15,15,0,0,0-.38-11.95,7.44,7.44,0,0,0-7.73-4.52c-3.49.22-5.7,2.18-7,5.25A14,14,0,0,0,494.44,334.1Z"/><path class="cls-10" d="M431.59,328c0-6.15,0-12.31,0-18.46,0-1.47.17-2.23,2-2.2,6.15.11,12.31.13,18.46,0,2.09,0,1.88,1.09,1.95,2.47.08,1.59-.22,2.36-2.1,2.3-4.26-.15-8.53,0-12.8-.08-1.51,0-2,.39-1.94,1.92.11,3.11.09,6.24,0,9.35,0,1.31.41,1.67,1.68,1.65,4.1-.07,8.21.08,12.3-.07,1.88-.07,1.91.86,1.88,2.23s.13,2.36-1.84,2.28c-4-.16-8,0-12.06-.08-1.43,0-2,.26-2,1.87.13,3.61.1,7.22,0,10.83,0,1.42.46,1.81,1.83,1.79,4.51-.07,9,.07,13.54-.07,1.9-.06,2.39.53,2.31,2.34-.07,1.58-.08,2.52-2.18,2.47-6.31-.16-12.63-.11-19,0-1.63,0-2.11-.45-2.09-2.06C431.64,340.32,431.59,334.16,431.59,328Z"/><path class="cls-10" d="M1106.71,334.77c-2.79,0-5.58.06-8.36,0-1.49,0-2,.21-1.64,1.9,1.23,5.56,4.71,8.25,10.83,8,1.62-.08,3.21-.58,4.82-.77.87-.1,2.11-1.59,2.55.65.3,1.54.81,2.77-1.39,3.32-4,1-8,1.68-12.09.59-7.95-2.14-10.52-8.68-10.11-15.39.31-5,2-9.59,6.52-12.58,7.44-4.93,16.61-1.41,18.76,7.22,1.65,6.63,1.28,7.12-5.46,7.12Zm-10-3.91h13.6c.86,0,1.58.08,1.53-1.22-.11-3.09-2.19-6.2-4.87-7a7.36,7.36,0,0,0-8.25,2.79A11,11,0,0,0,1096.71,330.87Z"/><path class="cls-10" d="M536.77,334.77c-2.71,0-5.42.11-8.11,0-1.82-.1-2,.63-1.77,2.15.81,5.43,5.75,8.65,12,7.68a30.85,30.85,0,0,0,4.3-.94c.89-.27,1.64-.48,1.71.71s1.59,2.49-.27,3.1c-5.82,1.9-11.72,2.64-17.23-.86s-7.45-11.39-4.82-19c2.75-8,11.4-11.65,18.42-7.87,5.06,2.73,6.7,9.38,6.15,14.28-.13,1.13-1.09.78-1.74.79C542.51,334.79,539.64,334.77,536.77,334.77Zm-2.64-3.91c2.05,0,4.11-.09,6.16,0,1.43.08,1.61-.54,1.53-1.74a6.91,6.91,0,0,0-7-6.77,8.16,8.16,0,0,0-7.91,7.32c-.11,1.16.47,1.17,1.29,1.16C530.19,330.85,532.16,330.87,534.13,330.87Z"/><path class="cls-10" d="M808.53,323.07c2.66-3.43,6.09-5.15,10.28-4.72,5.91.6,9.4,5,9.55,12,.12,5.42,0,10.84.06,16.26,0,1.55-.51,2.08-2,1.9a8.42,8.42,0,0,0-2,0c-1.45.17-1.79-.5-1.78-1.85,0-5.66.09-11.33,0-17-.09-3.68-2.3-6.29-5.33-6.71a7.47,7.47,0,0,0-8,4.78,9.12,9.12,0,0,0-.54,3.38c0,5.09-.13,10.19.08,15.27.1,2.45-1.25,2.17-2.75,2.12s-2.83.48-2.82-2c0-8.7.41-17.4-.25-26.09-.07-1,.21-1.26,1.17-1.35C807.3,318.72,807.5,318.85,808.53,323.07Z"/><path class="cls-10" d="M869.65,334.77c-2.71,0-5.43.16-8.12-.05-2.21-.17-2.24,1-1.95,2.48,1,5,5.08,7.78,11.07,7.41,1.46-.09,2.89-.63,4.34-.67.89,0,2.12-1.89,2.8.56.56,2,.22,3-1.87,3.45-4.36,1-8.71,1.6-13,0-6.5-2.38-9.93-9.22-8.56-16.91,1.27-7.13,5.3-11.57,11.35-12.52,7.24-1.14,12.84,3,14,10.39.93,5.84.93,5.84-4.87,5.84Zm-2.49-3.91h6.14c.7,0,1.41.18,1.39-1.05-.09-5-4.25-8.44-9.11-7.31-2.71.63-5.93,4.61-6,7.39,0,1,.56,1,1.24,1Z"/><path class="cls-10" d="M975.86,334.77c-2.71,0-5.42.13-8.12,0-1.91-.13-2,.81-1.78,2.2.59,4.36,4.21,7.46,9.1,7.72a22,22,0,0,0,7.26-1c.79-.23,1.7-.79,1.74.6,0,1.06,1.48,2.3-.27,3.23-6.72,3.56-17.32,1.18-21-4.73-4.2-6.7-2.33-17.31,3.88-22,7.61-5.8,18.08-1.28,19.5,8.42.83,5.66.83,5.66-4.85,5.66Zm-2.41-3.91c2.12,0,4.25,0,6.37,0,.88,0,1.28-.14,1.22-1.22-.27-4.86-3.4-7.66-8.22-7.23-3.18.28-7,4.53-6.86,7.6,0,1.11.79.83,1.37.83C969.37,330.88,971.41,330.87,973.45,330.86Z"/><path class="cls-10" d="M615.15,334.77c-2.62,0-5.26.16-7.87,0-2.15-.17-2.26.85-2,2.45.93,5.22,6,8.33,12,7.38a30,30,0,0,0,4.31-.92c.9-.28,1.71-.51,1.71.69,0,1,1.63,2.5-.31,3.13-5.74,1.85-11.55,2.61-17-.77-5.67-3.5-7.66-11.2-5.08-18.88,2.18-6.49,8-10.31,14.3-9.38,6,.89,10.05,5.55,10.31,11.88.19,4.48.19,4.48-4.21,4.48Zm-2.48-3.91c2,0,4.08,0,6.12,0,.94,0,1.47-.11,1.47-1.3a7,7,0,0,0-7-7.2c-4.76-.12-6.91,3.68-7.88,7.3-.28,1.07.32,1.22,1.2,1.2C608.59,330.84,610.63,330.86,612.67,330.87Z"/><path class="cls-10" d="M1128.68,323.48c3.52-4.5,8.11-6.15,12.72-4.74,4.26,1.3,7.11,5.24,7.27,10.62.17,5.82,0,11.64.08,17.47,0,1.28-.38,1.67-1.67,1.7-3.77.09-3.76.15-3.77-3.5,0-4.67.11-9.35-.06-14-.2-5.46-2.61-8.16-6.82-8.08s-7.36,3.66-7.37,8.71-.15,9.85.06,14.76c.11,2.45-1.23,2.15-2.73,2.11s-2.83.44-2.8-2.06c.12-8.69,0-17.38-.12-26.07,0-.93.11-1.26,1.12-1.36C1128.18,318.68,1128.26,318.72,1128.68,323.48Z"/><path class="cls-10" d="M738.82,344.06c-3.43,4.33-7.49,5.82-12.3,4.74-4.28-1-7.13-4.78-7.3-9.9-.2-6.15-.06-12.3-.11-18.45,0-1,.3-1.37,1.39-1.43,4-.23,4-.28,4,3.71,0,4.27,0,8.53,0,12.8a16.86,16.86,0,0,0,.3,2.92c.8,4.31,3.17,6.53,6.55,6.18a7.69,7.69,0,0,0,7-7.61c.06-5.25.17-10.51-.05-15.75-.11-2.55,1.3-2.21,2.86-2.23s2.75-.25,2.69,2.15c-.19,7.21-.07,14.43-.06,21.65,0,.9,0,1.81.07,2.7.24,3,.24,2.92-2.71,3-1.65.05-2.23-.54-2.17-2.08C739,345.82,738.89,345.18,738.82,344.06Z"/><path class="cls-10" d="M483.9,319c-3.1,4.43-5.87,8.54-8.83,12.52a2.45,2.45,0,0,0,0,3.43c3,4.32,6,8.74,9.19,13.5-2.07,0-3.68-.05-5.29,0-1.18.05-1.5-.86-2-1.58-2.15-3.29-4.26-6.6-6.44-10-1.85,2.9-3.86,5.67-5.44,8.67-1.25,2.38-2.87,3.34-5.46,2.9a11.92,11.92,0,0,0-2,0c-.15-1.16.66-1.72,1.14-2.42,2.46-3.58,4.8-7.25,7.47-10.67,1.25-1.6.93-2.64-.07-4-2.8-3.92-5.52-7.9-8.3-11.9,4.42-1.17,5.62-.75,7.93,2.74,1.67,2.52,3.32,5,5.07,7.7,1.82-2.81,3.72-5.43,5.26-8.25,1.13-2.06,2.51-3,4.86-2.64A19.58,19.58,0,0,0,483.9,319Z"/><path class="cls-10" d="M645.63,323.44c-4.56,0-8.8,0-13,0-1.54,0-2.73.24-2.74-2.15s1.2-2.3,2.86-2.28c5.66.05,11.32,0,17,0,.9,0,2.22-.59,2.63.55a4,4,0,0,1-.76,3.92c-2.94,3.73-5.81,7.52-8.72,11.28-2.3,3-4.61,5.94-7.21,9.29h12.18a19.28,19.28,0,0,0,2.46,0c1.73-.22,2.41.24,2.41,2.2s-.67,2.27-2.41,2.24c-6.23-.1-12.47,0-18.71-.07-.9,0-2.22.61-2.64-.53a4,4,0,0,1,.67-3.93c3-3.8,5.91-7.66,8.87-11.47C640.74,329.62,643,326.74,645.63,323.44Z"/><path class="cls-10" d="M837.69,333.38c0-2.62-.09-5.25,0-7.87.08-1.67-.37-2.32-2.15-2.25-2.49.1-3-.73-2.54-3.25.23-1.32,1.16-1.06,1.85-.94,2.48.42,3.2-.68,2.8-2.94a5.7,5.7,0,0,1,0-1c0-2.91,1.59-4.39,4.55-4.36.94,0,.81.62.82,1.16,0,1.8.07,3.61,0,5.41-.05,1.22.26,1.83,1.61,1.71,1.14-.1,2.29,0,3.44,0,2.34,0,3.25,1.31,2.48,3.51a.91.91,0,0,1-.84.73c-.33,0-.66,0-1,0-1.78.11-4.11-.76-5.22.35-1.32,1.31-.4,3.73-.44,5.66-.08,3.52-.1,7.05,0,10.57s1.25,4.45,4.75,4.38c1.06,0,2.38-.6,2.31,1.41-.05,1.5.28,2.68-2,3-6.52,1-9.91-1.42-10.37-7.94-.17-2.45,0-4.91,0-7.37Z"/><path class="cls-11" d="M630.46,122.83c0-6,3.24-9.54,8.93-9.53,5.22,0,9.57,3.3,9.31,9.53s-3.32,9.47-9.31,9.46C633.58,132.28,630.46,129,630.46,122.83Z"/><path class="cls-10" d="M758.23,349.1c-1.71-.35-3.65-.67-5.54-1.14s-2.71-1.29-1.71-3.43c.61-1.31.79-1.85,2.31-1a11.19,11.19,0,0,0,6.67,1.19c2.22-.27,4-1.23,4.35-3.61a4.17,4.17,0,0,0-2.62-4.54c-1.24-.61-2.52-1.15-3.8-1.68-5.23-2.19-7.44-5.37-6.64-9.57s5-7,10-7a19,19,0,0,1,5.07.83c1.92.53,2.37,1.47,1.57,3.38-.56,1.34-1,1.55-2.27,1a8.74,8.74,0,0,0-6-.79c-1.56.41-2.89,1.17-3.19,3a3.66,3.66,0,0,0,2.09,4.06,35.85,35.85,0,0,0,3.81,1.68,14.76,14.76,0,0,1,4.81,2.89,8.12,8.12,0,0,1-1.48,12.85C763.48,348.5,761,348.75,758.23,349.1Z"/><path class="cls-10" d="M1158.14,333.31c0-2.71-.09-5.41,0-8.11.07-1.53-.41-2.09-1.92-1.9s-2.69.09-2.67-2.19,1-2.24,2.52-2,2.32-.31,2-2a7.64,7.64,0,0,1,0-1.23c0-4,0-3.9,3.89-4.87,1.51-.38,1.47.25,1.46,1.27,0,1.8,0,3.61,0,5.41,0,1.08.35,1.45,1.41,1.4,1.47-.07,3,.1,4.42,0,1.92-.19,1.58,1.07,1.62,2.18s.1,2.4-1.7,2.11a2.94,2.94,0,0,0-.49,0c-5.25.06-5.25.06-5.25,5.42,0,3.69,0,7.38,0,11.07,0,3.34,1.35,4.68,4.68,4.41,1.82-.15,2.42.34,2.58,2.1s-.73,2.11-2.25,2.36c-6.64,1.12-10.33-1.84-10.36-8.47C1158.13,337.9,1158.14,335.61,1158.14,333.31Z"/><path class="cls-10" d="M704.83,326.92c0-6.56.11-13.12-.06-19.68-.06-2.31,1.22-2.07,2.6-2s3-.83,2.93,1.86q-.17,19.68,0,39.36c0,2.81-1.76,1.81-3.08,2-1.63.22-2.49-.07-2.45-2.14C704.93,339.88,704.83,333.4,704.83,326.92Z"/><path class="cls-10" d="M900.46,326.93c0-6.56.11-13.11-.06-19.67-.06-2.27,1.18-2.1,2.58-2,1.25.11,2.94-.81,2.92,1.86q-.17,19.67,0,39.34c0,2.79-1.7,1.86-3.05,2-1.63.2-2.5-.08-2.45-2.15C900.56,339.88,900.46,333.41,900.46,326.93Z"/><path class="cls-10" d="M891.72,326.91c0,6.48-.13,13,.06,19.45.08,2.69-1.53,2.06-3,2.15-1.63.1-2.67.05-2.65-2.23q.19-19.45,0-38.9c0-2.7,1.53-2,3-2.12,1.61-.1,2.73-.1,2.67,2.2C891.6,313.94,891.72,320.43,891.72,326.91Z"/><path class="cls-10" d="M902,136.48V110.83c.83-.46,1.21.28,1.65.66q6.27,5.34,12.49,10.74c.59.51,1.51.91.39,1.86C911.83,128.09,907.13,132.13,902,136.48Z"/><path class="cls-10" d="M587.57,333.81c0-4.27,0-8.53,0-12.8,0-1.38.17-2,1.82-2,3.62.05,3.62-.06,3.62,3.64,0,7.88-.1,15.75.06,23.62,0,2.22-.92,2.38-2.6,2.26-1.46-.11-3.1.54-2.95-2.16C587.75,342.19,587.57,338,587.57,333.81Z"/><path class="cls-10" d="M789.09,333.57c0-4.26.06-8.53,0-12.79,0-1.43.44-1.77,1.81-1.77,3.63,0,3.63-.07,3.63,3.62,0,7.87-.09,15.74.06,23.61,0,2.21-.9,2.4-2.59,2.27-1.46-.11-3.09.53-2.94-2.16C789.26,342.11,789.09,337.83,789.09,333.57Z"/><path class="cls-10" d="M920.15,333.77c0,4.26-.05,8.53,0,12.79,0,1.45-.3,2-1.89,2-4.42-.15-3.51.34-3.54-3.47-.05-8,.11-15.91-.09-23.86-.06-2.65,1.44-2.08,2.92-2.17s2.75-.1,2.63,2.2C920,325.4,920.15,329.59,920.15,333.77Z"/><path class="cls-10" d="M532.09,315.31c1.77-2.93,3.34-5.48,4.85-8.07.6-1,1.54-.75,2.4-.78,1.2,0,2.41,0,4.18,0-2.59,3-4.77,5.75-7.11,8.31C535.34,315.93,533.85,315.2,532.09,315.31Z"/><path class="cls-10" d="M590.27,314.1a3,3,0,0,1-3.19-3.2,3.38,3.38,0,0,1,3.34-3.48,3.54,3.54,0,0,1,3.42,3.5A3.25,3.25,0,0,1,590.27,314.1Z"/><path class="cls-10" d="M921,310.93a3.27,3.27,0,0,1-3.6,3.17,3,3,0,0,1-3.18-3.22,3.42,3.42,0,0,1,3.37-3.47A3.55,3.55,0,0,1,921,310.93Z"/><path class="cls-10" d="M795.3,310.91a3.2,3.2,0,0,1-3.56,3.18,2.85,2.85,0,0,1-3.15-3.21,3.3,3.3,0,0,1,3.31-3.47A3.48,3.48,0,0,1,795.3,310.91Z"/></svg>