<?xml version="1.0" encoding="iso-8859-1"?>
<!-- Generator: Adobe Illustrator 19.0.0, SVG Export Plug-In . SVG Version: 6.00 Build 0)  -->
<svg xmlns="http://www.w3.org/2000/svg" xmlns:xlink="http://www.w3.org/1999/xlink" version="1.1" id="Capa_1" x="0px" y="0px" viewBox="0 0 485.614 485.614" style="enable-background:new 0 0 485.614 485.614;" xml:space="preserve" width="512px" height="512px">
<g>
	<g>
		<g>
			<path d="M232,138.807v-112c0-13.255-10.745-24-24-24H24c-13.255,0-24,10.745-24,24v112c0,13.255,10.745,24,24,24h184     C221.255,162.807,232,152.062,232,138.807z M16,26.807c0-4.418,3.582-8,8-8h184c4.418,0,8,3.582,8,8v24H16V26.807z M16,138.807     v-72h200v72c0,4.418-3.582,8-8,8H24C19.582,146.807,16,143.225,16,138.807z" fill="#FFFFFF"/>
			<rect x="112" y="338.807" width="72" height="16" fill="#FFFFFF"/>
			<rect x="112" y="370.807" width="120" height="16" fill="#FFFFFF"/>
			<rect x="112" y="306.807" width="112" height="16" fill="#FFFFFF"/>
			<rect x="144" y="274.807" width="80" height="16" fill="#FFFFFF"/>
			<rect x="112" y="242.807" width="112" height="16" fill="#FFFFFF"/>
			<rect x="112" y="210.807" width="176" height="16" fill="#FFFFFF"/>
			<rect x="144" y="178.807" width="216" height="16" fill="#FFFFFF"/>
			<path d="M483.272,401.271l-66.568-66.544l-20.472-61.408l13.472-13.472c9.45-9.295,9.575-24.49,0.28-33.94     c-9.295-9.45-24.49-9.575-33.94-0.28c-0.093,0.091-0.185,0.183-0.276,0.276l-13.48,13.48l-46.216-15.408     c-2.014-0.673-4.213-0.517-6.112,0.432l-67.88,33.936c-2.725,1.362-4.441,4.153-4.424,7.2v45.256c0,4.418,3.582,8,8,8H271.6     v11.312l-31.6,31.56c-1.119,1.115-1.879,2.538-2.184,4.088l-5.656,28.248c-0.889,4.328,1.898,8.557,6.226,9.447     c1.06,0.218,2.154,0.218,3.214,0.001l28.288-5.656c1.547-0.313,2.968-1.072,4.088-2.184l22.624-22.632l39.6,39.6l67.88,67.88     c3.124,3.123,8.188,3.123,11.312,0l67.88-67.88C486.395,409.459,486.395,404.395,483.272,401.271z M387.08,237.207     c3.128-3.126,8.198-3.124,11.324,0.004c3.126,3.128,3.124,8.198-0.004,11.324l-56.568,56.568l-11.32-11.312L387.08,237.207z      M253.656,302.759v-32.312l60.496-30.248l35.488,11.832l-30.44,30.44l-5.656-5.656c-1.887-1.882-4.586-2.7-7.2-2.184     l-28.288,5.656c-3.728,0.761-6.405,4.043-6.4,7.848v14.624H253.656z M250.2,385.415l2.256-11.288l9.032,9.032L250.2,385.415z      M273.936,372.983l-11.312-11.312l11.32-11.32l11.312,11.32L273.936,372.983z M287.6,341.383v-46.696l17.656-3.528l36.568,36.568     c3.126,3.124,8.192,3.122,11.316-0.004s3.122-8.192-0.004-11.316l30.448-30.4l16.968,50.872l-58.728,58.728L287.6,341.383z      M409.704,463.495l-56.568-56.568l56.568-56.576l56.568,56.576L409.704,463.495z" fill="#FFFFFF"/>
			<path d="M352,466.807H80c5.203-6.918,8.012-15.343,8-24v-272H72v272c0,13.255-10.745,24-24,24c-4.418,0-8,3.582-8,8s3.582,8,8,8     h304c9.748,0.004,19.161-3.552,26.472-10l-10.6-12C363.492,464.679,357.846,466.813,352,466.807z" fill="#FFFFFF"/>
			<path d="M376,42.807v160h16v-152h56c4.418,0,8-3.582,8-8c-0.026-22.08-17.92-39.974-40-40H248v16h136     C378.797,25.726,375.988,34.15,376,42.807z M416,18.807c10.168,0.012,19.229,6.418,22.632,16h-45.16     C396.85,25.252,405.866,18.849,416,18.807z" fill="#FFFFFF"/>
			<rect x="144" y="426.807" width="168" height="16" fill="#FFFFFF"/>
			<path d="M360,42.807c0-4.418-3.582-8-8-8h-80c-4.418,0-8,3.582-8,8v80c0,4.418,3.582,8,8,8h80c4.418,0,8-3.582,8-8V42.807z      M344,114.807h-64v-64h64V114.807z" fill="#FFFFFF"/>
		</g>
	</g>
</g>
<g>
</g>
<g>
</g>
<g>
</g>
<g>
</g>
<g>
</g>
<g>
</g>
<g>
</g>
<g>
</g>
<g>
</g>
<g>
</g>
<g>
</g>
<g>
</g>
<g>
</g>
<g>
</g>
<g>
</g>
</svg>
