<?xml version="1.0" encoding="iso-8859-1"?>
<!-- Generator: Adobe Illustrator 19.0.0, SVG Export Plug-In . SVG Version: 6.00 Build 0)  -->
<svg version="1.1" id="Capa_1" xmlns="http://www.w3.org/2000/svg" xmlns:xlink="http://www.w3.org/1999/xlink" x="0px" y="0px"
	 viewBox="0 0 512 512" style="enable-background:new 0 0 512 512;" xml:space="preserve">
<rect x="109.5" y="134.46" style="fill:#72D8FF;" width="392.5" height="277.54"/>
<path style="fill:#A0E557;" d="M226,258.137H104.333v70.107c0,9.882,8.011,17.893,17.893,17.893h85.88
	c9.882,0,17.893-8.011,17.893-17.893v-70.107H226z"/>
<g>
	<rect x="64" y="198.14" style="fill:#FFFFFF;" width="172" height="60"/>
	<polygon style="fill:#FFFFFF;" points="174,346.137 150.076,346.137 126,346.137 126,198.137 174,198.137 	"/>
</g>
<polygon style="fill:#FF5D5D;" points="174,346.137 161.207,346.137 148.333,346.137 148.333,198.137 174,198.137 "/>
<g>
	<path style="fill:#EDF2FA;" d="M176,146.137L176,146.137c-14.359,0-26,11.641-26,26v26h26c14.359,0,26-11.641,26-26l0,0
		C202,157.778,190.359,146.137,176,146.137z"/>
	<path style="fill:#EDF2FA;" d="M124,146.137L124,146.137c14.359,0,26,11.641,26,26v26h-26c-14.359,0-26-11.641-26-26l0,0
		C98,157.778,109.641,146.137,124,146.137z"/>
</g>
<g>
	<circle style="fill:#FFFFFF;" cx="409.23" cy="241.53" r="20"/>
	<circle style="fill:#FFFFFF;" cx="339.35" cy="164.46" r="20"/>
</g>
<path d="M124,110c2.63,0,5.21-1.07,7.069-2.93c1.86-1.86,2.931-4.44,2.931-7.07s-1.07-5.21-2.931-7.07
	C129.21,91.07,126.63,90,124,90s-5.21,1.07-7.07,2.93S114,97.37,114,100s1.069,5.21,2.93,7.07S121.37,110,124,110z"/>
<path d="M502,90H163.667c-5.522,0-10,4.477-10,10s4.478,10,10,10H492v292H20V110h65c5.522,0,10-4.477,10-10s-4.478-10-10-10H10
	c-5.522,0-10,4.477-10,10v312c0,5.522,4.478,10,10,10h492c5.522,0,10-4.478,10-10V100C512,94.477,507.522,90,502,90z"/>
<path d="M91.764,188.138H64c-5.522,0-10,4.477-10,10v60c0,5.522,4.478,10,10,10v58c0,16.542,13.458,30,30,30h112
	c16.542,0,30-13.458,30-30v-58c5.522,0,10-4.478,10-10v-60c0-5.523-4.478-10-10-10h-27.764c2.404-4.823,3.764-10.255,3.764-16
	c0-19.851-16.149-36-36-36c-10.214,0-19.442,4.283-26,11.139c-6.558-6.856-15.786-11.139-26-11.139c-19.851,0-36,16.149-36,36
	C88,177.883,89.36,183.314,91.764,188.138z M74,208.138h42v40H74V208.138z M84,326.138v-58h32v68H94
	C88.486,336.138,84,331.651,84,326.138z M136,258.138v-50h28v50v78h-28V258.138z M216,326.138c0,5.514-4.486,10-10,10h-22v-68h32
	V326.138z M226,248.138h-42v-40h42V248.138z M176,156.138c8.822,0,16,7.178,16,16s-7.178,16-16,16h-16v-16
	C160,163.315,167.178,156.138,176,156.138z M124,156.138c8.822,0,16,7.178,16,16v16h-16c-8.822,0-16-7.178-16-16
	S115.178,156.138,124,156.138z"/>
<path d="M400.321,151.863c-4.809-2.716-10.908-1.019-13.624,3.792L332.928,250.9c-2.715,4.81-1.018,10.909,3.792,13.624
	c1.554,0.877,3.241,1.294,4.907,1.294c3.489,0,6.879-1.83,8.717-5.086l53.769-95.245
	C406.828,160.677,405.131,154.578,400.321,151.863z"/>
<path d="M379.229,241.533c0,16.542,13.458,30,30,30s30-13.458,30-30s-13.458-30-30-30S379.229,224.991,379.229,241.533z
	 M409.229,231.533c5.514,0,10,4.486,10,10s-4.486,10-10,10s-10-4.486-10-10S403.715,231.533,409.229,231.533z"/>
<path d="M339.346,134.459c-16.542,0-30,13.458-30,30s13.458,30,30,30s30-13.458,30-30S355.888,134.459,339.346,134.459z
	 M339.346,174.459c-5.514,0-10-4.486-10-10s4.486-10,10-10s10,4.486,10,10S344.859,174.459,339.346,174.459z"/>
<path d="M290.574,308c0,5.522,4.478,10,10,10H448c5.522,0,10-4.478,10-10s-4.478-10-10-10H300.574
	C295.052,298,290.574,302.478,290.574,308z"/>
<path d="M300.574,360.299h73.713c5.522,0,10-4.478,10-10s-4.478-10-10-10h-73.713c-5.522,0-10,4.478-10,10
	S295.052,360.299,300.574,360.299z"/>
<path d="M404.069,343.229c-1.859,1.86-2.93,4.431-2.93,7.07c0,2.63,1.07,5.21,2.93,7.07c1.87,1.859,4.44,2.93,7.07,2.93
	s5.21-1.07,7.07-2.93c1.87-1.86,2.93-4.44,2.93-7.07s-1.06-5.21-2.93-7.07c-1.86-1.859-4.44-2.93-7.07-2.93
	S405.939,341.37,404.069,343.229z"/>
<g>
</g>
<g>
</g>
<g>
</g>
<g>
</g>
<g>
</g>
<g>
</g>
<g>
</g>
<g>
</g>
<g>
</g>
<g>
</g>
<g>
</g>
<g>
</g>
<g>
</g>
<g>
</g>
<g>
</g>
</svg>
