<?xml version="1.0" encoding="utf-8"?>
<!-- Generator: Adobe Illustrator 23.0.0, SVG Export Plug-In . SVG Version: 6.00 Build 0)  -->
<svg version="1.1" id="Layer_1" xmlns="http://www.w3.org/2000/svg" xmlns:xlink="http://www.w3.org/1999/xlink" x="0px" y="0px"
	 viewBox="0 0 299.6 116.8" style="enable-background:new 0 0 299.6 116.8;" xml:space="preserve">
<style type="text/css">
	.st0{fill:#0254A2;}
	.st1{fill:#ED3E46;}
	.st2{fill:#0858A4;}
	.st3{fill:#0355A3;}
</style>
<g>
	<path class="st0" d="M1.4,52.4c0.5-0.1,0.4-0.6,0.5-0.9C4.7,40,12.2,33.4,23.4,30.7c7.1-1.7,14.3-1.6,21.3,0.6
		c7.3,2.2,11.8,7,12.7,14.8c0.2,1.5,0.1,2.2-1.8,2.1c-4.5-0.2-9-0.1-13.6,0c-1.1,0-1.5-0.3-1.6-1.4c-0.3-2.9-1.9-4.5-4.8-5.2
		c-7.7-1.8-14.6,3.2-16,11.5c-0.4,2.5-0.6,4.9,0.1,7.4c0.8,3,2.7,5.1,5.9,5.8c5.5,1.2,10.6-0.6,12.5-5.9c0.3-0.7,0.6-1,1.3-0.9
		c0.4,0,0.7,0,1.1,0c5.1,0,10.1,0,15.5,0c-1.1,5-3.5,9-7.2,12.2c-4.8,4-10.5,5.7-16.5,6.3c-5.6,0.6-11.3,0.6-16.7-1.2
		c-7-2.2-11.7-6.7-13.5-14c-0.1-0.4,0-0.9-0.6-1.1C1.4,58.6,1.4,55.5,1.4,52.4z"/>
	<path class="st1" d="M298.6,27.9c-1.1,2.1-1.4,4.5-2,6.8c-0.3,1.1-0.6,1.3-1.8,1.1c-13.8-2.9-27.7-5.3-41.7-7
		c-12-1.5-24.1-2.6-36.2-3.2c-15.6-0.9-31.3-1-46.9-0.5c-26.5,0.9-52.9,4-78.9,9.2c-5.1,1-10.2,2.3-15.4,3.5c-0.7,0.2-1.4,0.5-2.3,0
		c8.1-2.8,16.1-5.2,24.3-7.2c18.2-4.6,36.6-7.8,55.2-9.9c12.5-1.4,25-2.3,37.5-2.5c0.5,0,1,0.1,1.4-0.2c11,0,22,0,33.1,0
		c0.1,0.4,0.4,0.4,0.7,0.4c7.8,0.2,15.7,0.8,23.5,1.5c12.4,1,24.8,2.7,37.1,4.7c4.1,0.7,8.1,1.7,12.2,2.1
		C298.6,26.9,298.6,27.4,298.6,27.9z"/>
	<path class="st2" d="M220.2,100.4c0.4-3.9,1.9-7.5,2.7-11.3c0.1-0.6,0.6-0.7,1.1-0.7c2.1,0,4.1,0.2,6.3-0.2c1.9-0.3,3.5,1,4,2.6
		c0.6,2.1-0.6,5-2.5,6.1c-2.1,1.2-4.2,1.1-6.3-0.2c-0.3,1.3-0.9,2.4-0.7,3.6C223.2,100.4,221.7,100.4,220.2,100.4z M229.9,92.4
		c0-1.1-0.6-1.7-1.6-1.6c-1.2,0.1-2.2,1.5-2.1,2.9c0.1,0.9,0.6,1.5,1.6,1.5C228.9,95.1,229.9,93.8,229.9,92.4z"/>
	<path class="st0" d="M178.4,46.4c0.6,0.1,0.8-0.1,1.1-0.4c5.8-4.6,12.1-4.4,18.5-1.6c4,1.8,6,5.3,6.8,9.6
		c1.5,8.6-3.5,18.5-11.3,22.1c-5.2,2.4-10.6,2.5-16.1,1c-2.2-0.6-3.9-2-5.6-3.9c-1.2,4.7-2.3,8.9-3.3,13.2c-0.3,1.2-0.7,1.7-2.1,1.6
		c-4.8-0.1-9.5,0-14.5,0c1.2-4.5,2.3-8.9,3.4-13.3c2.6-9.9,5.2-19.7,7.7-29.6c0.3-1.3,0.8-1.9,2.3-1.8c4,0.1,7.9,0,11.9,0
		c2.1,0,2.1,0,1.4,2C178.6,45.8,178.5,46.1,178.4,46.4z M188.8,58.5c0.1-3.8-1.1-5.7-3.9-6.3c-3.1-0.7-6.2,0.4-8,3.1
		c-1.8,2.6-2.4,5.5-2.2,8.6c0.2,2.3,1.7,4,3.8,4.5c3.2,0.8,6.3-0.4,8.1-3.1C188.2,63.2,188.7,60.8,188.8,58.5z"/>
	<path class="st0" d="M104.7,77.3c1.8-7,3.6-13.9,5.4-20.8c1-3.8,2-7.5,2.9-11.3c0.3-1.2,0.7-1.8,2.2-1.8c4,0.1,8,0.1,12.1,0
		c1.6,0,1.9,0.4,1.3,1.9c-0.2,0.5-0.3,1.2-0.6,2.2c2.9-2.3,5.8-3.9,9.1-4.5c4.3-0.8,8.5-0.6,12.5,1.2c3.8,1.7,5.5,4.7,4.9,8.8
		c-0.9,6.5-3.2,12.7-4.7,19c-0.4,1.7-0.5,4-1.6,5c-1.2,1-3.4,0.3-5.2,0.3c-3,0-6.1-0.1-9.1,0c-1.5,0.1-1.5-0.5-1.2-1.7
		c1.6-5.9,3.2-11.9,4.8-17.9c0.7-2.8-0.2-4.2-3.1-4.7c-4-0.7-7.3,1.2-8.5,5.4c-1.5,5-2.7,10-4,15c-1,3.9-1,3.9-5,3.9
		C112.8,77.3,108.8,77.3,104.7,77.3z"/>
	<path class="st3" d="M83.1,74.3c-5.9,3.8-12.2,4.6-18.9,3c-4.8-1.1-7.2-3.7-7.6-7.7c-0.4-4.3,1.8-8.1,6.2-10
		c5.2-2.3,10.8-2.5,16.3-2.8c1.7-0.1,3.5-0.2,5.2-0.4c1-0.1,2.1-0.4,3-1c1-0.6,1.5-1.5,1.4-2.7c-0.1-1.1-0.9-1.7-1.8-2.1
		c-3.3-1.3-7-0.4-9.2,2.5c-0.4,0.5-0.8,0.5-1.3,0.5c-4.3,0-8.5,0-12.8,0c-1.3,0-1.3-0.4-0.9-1.4c1.6-4.1,4.5-6.8,8.6-8
		c8.8-2.6,17.7-2.4,26.5,0.1c5.5,1.5,7.1,4.8,6.1,10.3c-0.4,1.9-0.8,3.7-1.3,5.6c-1,4.1-2.1,8.1-3.2,12.2c-0.3,1.1-0.5,2.3-0.1,3.3
		c0.6,1.6-0.3,1.5-1.4,1.5c-4,0-7.9-0.1-11.9,0c-1.9,0.1-2.6-0.5-2.7-2.3C83.3,74.8,83.2,74.6,83.1,74.3z M86.1,62.4
		c-2.5,0.8-5,1.1-7.4,1.3c-1.2,0.1-2.5,0.2-3.6,0.7c-1.4,0.7-2.5,1.7-2.3,3.4c0.2,1.7,1.6,2.1,2.9,2.4
		C81.3,71.3,85.3,68.4,86.1,62.4z"/>
	<path class="st3" d="M248.3,77.3c-5.2,0-10.1,0.1-14.9,0c-2,0-0.9-1.9-1.6-3c-2.2,1.6-4.7,2.7-7.5,3.3c-4.6,0.9-9.2,0.9-13.7-0.9
		c-6.2-2.6-7.3-10.8-2.1-15.1c3-2.5,6.7-3.2,10.5-3.9c4.5-0.8,9.1-0.5,13.7-1.1c1.3-0.2,2.6-0.4,3.6-1.3c1.6-1.3,1.4-3.4-0.5-4.4
		c-3-1.5-7.4-0.6-9.5,2.2c-0.4,0.6-0.8,0.7-1.4,0.7c-4.3,0-8.5,0-12.8,0c-1.3,0-1.2-0.5-0.9-1.4c1.4-3.7,4.1-6.3,7.8-7.7
		c5.2-2.1,10.7-2.1,16.2-2c3.4,0.1,6.8,0.4,10.1,1.3c6.4,1.8,8.3,5,7,11.4c-0.9,4.5-2.2,9-3.4,13.5C248.2,71.6,247,74.2,248.3,77.3z
		 M234.7,62.4c-3,1.1-6,1.1-8.9,1.5c-1.3,0.2-2.4,0.5-3.4,1.4c-1.8,1.6-1.3,3.9,0.9,4.7C228.9,72,234.2,68.6,234.7,62.4z"/>
	<path class="st0" d="M276.3,48.4c2-1.8,3.6-3.1,5.4-4c3.6-1.9,7.4-2.1,11.4-1.6c1.2,0.2,1.1,0.8,0.9,1.7c-0.8,2.9-1.6,5.7-2.2,8.6
		c-0.3,1.2-0.8,1.4-1.9,1.1c-2.4-0.6-4.8-0.6-7.2-0.4c-4.3,0.3-7.2,2.5-8.6,6.5c-1.7,4.8-2.7,9.9-4,14.8c-0.4,1.6-0.9,2.2-2.7,2.1
		c-4.6-0.1-9.2,0-14.1,0c1.3-4.9,2.4-9.5,3.6-14.2c1.6-6.1,3.2-12.2,4.7-18.3c0.3-1,0.7-1.4,1.7-1.4c4.3,0.1,8.5,0.1,12.8,0
		c1.3,0,1.5,0.4,1.1,1.5C277,45.9,276.8,46.9,276.3,48.4z"/>
	<path class="st2" d="M193.7,97.5c1-4,2.1-7.8,3-11.6c0.2-1,0.9-0.9,1.5-0.9c3.3,0,6.7,0,10,0c0.5,0,1.7-0.4,1.4,0.7
		c-0.2,1,0.3,2.6-1.6,2.6c-1.9,0-3.8,0-5.8,0c-0.7,0-1.6-0.1-1.5,0.9c0.1,0.8,0.9,0.4,1.4,0.4c1.4,0.1,2.8,0,4.3,0.1
		c0.5,0,1.6-0.5,1.4,0.7c-0.2,0.9,0.2,2.3-1.4,2.4c-1.8,0-3.6,0-5.4,0c-0.6,0-1.4-0.2-1.4,0.8c0,1.1,0.9,0.6,1.4,0.7
		c1.7,0.1,3.3,0,5,0c0.5,0,1.6-0.4,1.4,0.6c-0.2,0.9,0.3,2.6-1.4,2.6C202.1,97.5,198,97.5,193.7,97.5z"/>
	<path class="st2" d="M245.1,91.5c2.5-3,5.5-4,9.3-3c1.1,0.3,2,0.9,2.6,1.9c1.2,2,0.4,3.3-1.8,3.3c-1.6,0-3.2,0-4.8,0
		c-0.4,0-1-0.3-1.1,0.4c-0.1,0.5,0.3,0.9,0.8,1.1c0.5,0.2,1.1,0.3,1.6,0c1.6-0.8,3.2-0.4,5-0.4c-0.3,1-0.8,1.6-1.5,1.9
		c-2.7,1.3-5.5,1.4-8.2,0.2c-1.4-0.6-1.9-2-1.9-3.5C245,92.8,245.4,92.1,245.1,91.5L245.1,91.5z M251.4,91.9
		c0.5-0.3,1.6,0.5,1.7-0.6c0.1-0.7-0.9-1-1.5-0.9c-0.7,0.1-1.7,0.3-1.7,1C249.9,92.3,250.8,91.7,251.4,91.9z"/>
	<path class="st2" d="M263.8,97.7c-2.2,0-3.8-0.1-5.1-1.2c-0.5-0.4-0.8-1-0.7-1.6c0.2-0.8,0.9-0.4,1.4-0.4c1.1,0,2.3-0.4,3.1,0.8
		c0.2,0.3,0.8,0.3,1.2,0.2c0.4-0.1,0.8-0.2,0.8-0.6c0.1-0.5-0.4-0.6-0.7-0.6c-1-0.2-2-0.3-2.9-0.5c-1-0.2-1.9-0.7-2-1.9
		c-0.1-1.2,0.3-2.1,1.3-2.7c2.7-1.4,5.5-1.3,8.2-0.3c0.7,0.3,1.3,0.9,1.2,1.7c-0.2,1-1.1,0.5-1.7,0.5c-0.9,0.1-1.9,0.2-2.7-0.7
		c-0.4-0.4-1.1-0.3-1.6,0c-0.2,0.1-0.4,0.3-0.2,0.6c0.3,0.5,0.9,0.4,1.3,0.5c0.8,0.2,1.6,0.3,2.4,0.5c1,0.3,1.8,0.9,1.9,2
		c0.2,1.2-0.4,2.1-1.3,2.7C266.5,97.6,264.9,97.7,263.8,97.7z"/>
	<path class="st2" d="M276.7,88.1c1.5,0.1,3.1,0.1,4.4,1.2c0.4,0.4,0.8,0.9,0.6,1.5c-0.2,0.6-0.8,0.3-1.3,0.3
		c-1.1,0-2.3,0.3-3.3-0.7c-0.3-0.3-0.9-0.2-1.4,0c-0.2,0.1-0.4,0.3-0.3,0.6c0.2,0.6,0.8,0.4,1.3,0.5c0.8,0.2,1.7,0.3,2.5,0.6
		c2.1,0.7,2.5,2.9,0.8,4.4c-1.8,1.6-7.2,1.8-9.2,0.3c-0.6-0.5-1.1-1.1-0.9-1.9c0.2-0.8,1-0.4,1.6-0.4c1.1,0,2.2-0.3,3,0.8
		c0.2,0.3,0.8,0.3,1.2,0.2c0.4-0.1,0.8-0.2,0.8-0.6c0.1-0.5-0.4-0.6-0.7-0.7c-1-0.2-2-0.3-2.9-0.5c-1-0.2-1.9-0.7-2-1.9
		c-0.1-1.1,0.3-2.1,1.3-2.7C273.6,88.2,275.2,88.2,276.7,88.1z"/>
	<path class="st2" d="M207.6,97.4c1.2-1.2,2.1-2,3-2.9c2-2,2-2,0.6-4.3c-0.3-0.5-0.6-1-1.2-2c2.1,0.5,4.2-1,5.4,1.8
		c1.6-2.5,3.9-1.5,6.3-1.6c-1.3,1.3-2.3,2.4-3.4,3.4c-0.8,0.7-0.9,1.4-0.2,2.2c0.1,0.1,0.2,0.3,0.3,0.5c0.5,0.9,1.8,2,1.3,2.6
		c-0.6,0.8-2.2,0.2-3.3,0.3c-1.3,0.1-1.1-1.3-2.1-1.9C212.9,98.2,210.4,97.4,207.6,97.4z"/>
	<path class="st2" d="M245.1,91.4c-3.9-0.5-4.6-0.1-5.5,3.7c-0.2,0.8-0.1,1.9-0.8,2.1c-1.1,0.3-2.4,0.2-3.7,0.1
		c-0.6,0-0.5-0.5-0.4-0.8c0.6-2.5,1.3-5,2-7.5c0.2-0.6,0.6-0.8,1.1-0.7c1.1,0.3,2.4-0.8,3.3,0.6c0.1,0.1,0.7-0.2,1-0.3
		c0.6-0.3,1.2-0.5,1.9-0.6c1.2-0.1,1.8,0.3,1.3,1.6C245.2,90.3,244.9,90.8,245.1,91.4C245.1,91.5,245.1,91.4,245.1,91.4z"/>
</g>
</svg>
