<?xml version="1.0" encoding="utf-8"?>
<!-- Generator: Adobe Illustrator 22.1.0, SVG Export Plug-In . SVG Version: 6.00 Build 0)  -->
<svg version="1.1" id="Layer_1" xmlns="http://www.w3.org/2000/svg" xmlns:xlink="http://www.w3.org/1999/xlink" x="0px" y="0px"
	 viewBox="0 0 299.6 116.8" style="enable-background:new 0 0 299.6 116.8;" xml:space="preserve">
<style type="text/css">
	.st0{fill:#0254A3;}
	.st1{fill:#EE3D46;}
	.st2{fill:#0255A3;}
	.st3{fill:#0657A4;}
	.st4{fill:#0758A5;}
	.st5{fill:#0858A5;}
	.st6{fill:#71A0CB;}
	.st7{fill:#F37379;}
	.st8{fill:#F2F6FA;}
</style>
<g>
	<path class="st0" d="M27.3,79.9h-4.5c0-0.1-0.1-0.2-0.3-0.2c-0.8,0-1.5-0.1-2.3,0c-1.1,0-2.2-0.2-3.2-0.5c-0.5-0.1-1-0.2-1.5-0.3
		c-0.8-0.2-1.5-0.4-2.3-0.7c-0.9-0.3-1.9-0.8-2.8-1.2c-0.4-0.2-0.8-0.5-1.2-0.7c-1.7-1-3.3-2.3-4.6-3.8c-0.9-1.1-1.7-2.2-2.3-3.5
		c-0.5-0.9-0.8-1.9-1.2-2.8c-0.3-0.9-0.5-1.7-0.7-2.6c-0.2-1-0.3-2-0.4-3c0-1.3,0-2.6,0-3.8c0.1-1.1,0.2-2.2,0.4-3.3
		c0.2-1,0.4-1.9,0.7-2.8c0.3-1,0.7-2.1,1.2-3c0.5-1,1-2,1.6-3c0.4-0.6,0.9-1.2,1.3-1.8c0.8-1.1,1.6-2,2.6-3c0.4-0.5,0.9-0.8,1.4-1.3
		c1-0.9,2.1-1.7,3.3-2.5c0.9-0.5,1.8-1,2.7-1.4c1.2-0.6,2.5-1.1,3.8-1.6c0.8-0.2,1.7-0.5,2.5-0.7c0.6-0.1,1.1-0.2,1.7-0.4h0.1
		c0.8-0.1,1.6-0.2,2.4-0.4c1.5-0.2,2.9-0.2,4.4-0.3c0.7-0.1,1.4-0.2,2.1-0.1c1.4,0.2,2.9,0.1,4.3,0.3c0.7,0,1.4,0.1,2,0.3
		c1.1,0.3,2.2,0.3,3.3,0.8c0.1,0,0.2,0,0.3,0c0,0.1,0.2,0.2,0.3,0.2c0.4,0.1,0.7,0.2,1.1,0.3c0.6,0.2,1.2,0.4,1.9,0.5h0.1
		c0.1,0.3,0.3,0.3,0.5,0.3l0,0c0,0.2,0.1,0.3,0.3,0.3c0.4,0.2,0.8,0.3,1.2,0.6c0.4,0.2,0.7,0.6,1.2,0.5h0.1c0.1,0.3,0.4,0.5,0.7,0.5
		l0,0c0.3,0.3,0.6,0.7,0.9,0.9c0.1,0.1,0.2,0.1,0.4,0.1c1.5,1.3,2.7,2.8,3.5,4.5c0.4,0.8,0.8,1.7,1.1,2.5c0.1,0.4,0.2,0.9,0.3,1.4
		c0.2,1,0.3,1.9,0.4,2.9c0.1,0.4,0.1,0.7,0.1,1.1c0,0.3-0.1,0.4-0.4,0.4s-0.3,0-0.5,0H40.2c-0.1,0-0.3,0-0.4,0s-0.3-0.1-0.3-0.3
		c-0.1-0.6-0.2-1.2-0.3-1.8c-0.2-1-0.6-1.9-1.3-2.6c-0.9-0.9-2-1.5-3.2-1.7c-1.4-0.3-2.8-0.4-4.3-0.3c-0.1,0-0.2,0-0.3,0
		c-1.6,0.1-3.2,0.5-4.6,1.2c-1,0.5-2,1.2-2.8,2c-0.5,0.5-1,1.1-1.4,1.7c-0.7,0.9-1.2,1.8-1.6,2.8c-0.4,1-0.8,1.9-1.1,3
		c-0.3,1.3-0.4,2.5-0.6,3.8c-0.1,1.2,0,2.3,0.1,3.5c0.2,1.9,1,3.6,2.3,5c0.9,0.8,1.9,1.5,3.1,1.9c1.4,0.5,2.8,0.7,4.3,0.6
		c1.1,0,2.1-0.2,3.1-0.6c0.7-0.2,1.4-0.5,2.1-0.9c1.2-0.7,2.1-1.6,2.9-2.7c0.6-0.8,1-1.6,1.2-2.5c0.1-0.5,0.3-0.5,0.8-0.5h16.4
		c0.6,0,0.6,0,0.5,0.6c-0.1,0.4-0.2,0.7-0.3,1.1c-0.3,1.2-0.8,2.4-1.3,3.5c-1,2-2.3,3.9-3.9,5.6c-1.4,1.3-2.9,2.5-4.5,3.6
		c-0.2,0.1-0.5,0.3-0.8,0.4c-0.2,0-0.5,0-0.5,0.3l0,0c-0.1-0.1-0.3-0.1-0.4,0c-0.7,0.4-1.5,0.8-2.3,1.1c-0.1,0-0.2,0.2-0.2,0.3h-0.2
		c-0.2-0.1-0.4,0-0.5,0.1V78h-0.3c-0.3-0.1-0.4,0-0.6,0.2h-0.3c-0.2-0.1-0.4-0.1-0.5,0.1v0.1h-0.4c-0.2-0.2-0.6-0.1-0.7,0.2L37,78.7
		h-0.2c-0.3,0-0.7-0.2-0.8,0.2h-0.2c-0.3,0-0.7-0.2-0.8,0.2h-0.5c-0.3,0-0.6,0-0.9,0c-0.2,0-0.3,0.1-0.3,0.3h-0.5
		c-0.4,0-0.7,0-1.1,0c-0.1,0-0.3,0.1-0.3,0.2h-0.8c-0.9-0.1-1.9,0-2.8,0c-0.2-0.1-0.3,0-0.4,0.2C27.2,79.8,27.2,79.9,27.3,79.9z"/>
	<path class="st0" d="M161.5,52.2V52c0.4-0.2,0.2-0.5,0.2-0.8v-0.4c0.4-0.1,0.3-0.4,0.2-0.7v-0.4c0.3-0.1,0.3-0.3,0.2-0.6v-0.5
		c0.1,0,0.2-0.1,0.3-0.3c0-0.3,0.1-0.6,0.2-0.8c0.1-0.2,0.1-0.4,0-0.6v-0.4c0.4-0.2,0.2-0.5,0.3-0.8v-0.3c0.3-0.2,0.6-0.3,0.9-0.3
		h14.1c0.7,0,0.7,0,0.6,0.6c0,0.1,0,0.1,0.1,0.2v0.3c-0.3,0.2-0.4,0.6-0.3,0.9v0.3c-0.3,0-0.4,0.2-0.4,0.5s0,0.6-0.2,0.8
		c0.2,0.1,0.4,0.2,0.5,0.1c0.5-0.5,1-1,1.5-1.6l0,0c0.2,0,0.3-0.1,0.3-0.3c1-0.8,2.1-1.4,3.3-1.8c0.8-0.3,1.6-0.5,2.5-0.7
		c0.7-0.2,1.4-0.3,2.2-0.3c1.1-0.1,2.2-0.1,3.3,0c0.7,0,1.3,0.1,2,0.3c1.3,0.3,2.6,0.7,3.9,1.2c2.2,1,4.1,2.5,5.4,4.5
		c0.4,0.7,0.7,1.4,1.1,2c0.4,0.7,0.6,1.5,0.8,2.3c0.2,1,0.4,2,0.4,3c0,0.9,0,1.9-0.1,2.8s-0.2,1.9-0.4,2.8c-0.1,0.5-0.1,0.9-0.3,1.4
		c-0.3,1-0.7,2.1-1.1,3.1c-0.3,0.8-0.7,1.7-1.2,2.4c-0.6,1.1-1.3,2.1-2.1,3c-1.1,1.2-2.3,2.4-3.7,3.3c-1.2,0.8-2.5,1.5-3.9,2
		c-1.1,0.4-2.2,0.7-3.4,0.9c-0.9,0.2-1.7,0.3-2.6,0.3c-1.7,0-3.4,0.1-5.1,0c-0.9-0.1-1.8-0.2-2.6-0.4c-0.7-0.1-1.4-0.3-2-0.6
		c-1.2-0.5-2.3-1.2-3.3-2c0-0.2,0-0.4-0.3-0.3l0,0c0-0.2,0-0.3-0.3-0.3l0,0c0-0.2,0-0.3-0.3-0.3l0,0c0-0.2-0.1-0.3-0.3-0.3
		c-0.1,0-0.1-0.1-0.1-0.2c0-0.2-0.1-0.3-0.2-0.4c-0.1,0-0.2-0.2-0.3-0.1s-0.2,0.2-0.1,0.4V75c-0.2,0.1-0.4,0.3-0.3,0.6
		c0,0,0,0.1,0.1,0.1v0.4c-0.3,0.1-0.4,0.4-0.3,0.7l0,0v0.3c-0.3,0.2-0.3,0.5-0.3,0.8v0.3c-0.3,0.2-0.4,0.5-0.2,0.8v0.3
		c-0.3,0.2-0.4,0.5-0.2,0.8v0.4c-0.3,0.1-0.4,0.5-0.3,0.8l0,0v0.3c-0.5,0.1-0.3,0.5-0.3,0.9v0.2c-0.4,0.2-0.2,0.5-0.3,0.8v0.2
		c-0.4,0.2-0.3,0.5-0.2,0.8v0.4c-0.4,0.1-0.2,0.4-0.2,0.7V86c-0.4,0.2-0.2,0.5-0.2,0.8v0.3c-0.4,0.2-0.2,0.5-0.3,0.8v0.2
		c-0.4,0.1-0.3,0.4-0.2,0.7v0.4c-0.3,0.1-0.6,0.1-0.9,0.1c-4.9,0-9.8,0-14.6,0c-0.4,0-0.6-0.1-0.7-0.5v-0.3c0.3-0.1,0.4-0.4,0.3-0.7
		l0,0v-0.4c0.3-0.1,0.4-0.4,0.2-0.7l0,0v-0.3c0.3-0.2,0.4-0.5,0.2-0.8v-0.3c0.5-0.1,0.3-0.5,0.3-0.9V84c0.4-0.1,0.2-0.4,0.2-0.7
		v-0.4c0.3-0.1,0.3-0.3,0.2-0.6v-0.5c0.1,0,0.2-0.1,0.3-0.3c0-0.3,0.1-0.6,0.2-0.8c0.1-0.2,0.1-0.4,0-0.6v-0.4
		c0.4-0.2,0.2-0.5,0.3-0.8v-0.3c0.4-0.1,0.3-0.4,0.2-0.7v0.3c0.4-0.2,0.2-0.5,0.2-0.8v-0.2c0.4-0.1,0.4-0.4,0.3-0.7v-0.4
		c0.3-0.1,0.4-0.4,0.3-0.7l0,0v-0.3c0.3-0.2,0.3-0.5,0.3-0.8v-0.2c0.3-0.2,0.3-0.5,0.2-0.8v-0.2c0.3-0.2,0.3-0.5,0.3-0.8v-0.2
		c0.3-0.1,0.4-0.4,0.3-0.7l0,0v-0.4c0.3-0.1,0.4-0.4,0.2-0.7l0,0v-0.3c0.3-0.2,0.4-0.5,0.2-0.8v-0.2c0.5-0.1,0.3-0.5,0.3-0.9v-0.4
		c0.4-0.1,0.2-0.4,0.2-0.7v-0.4c0.3-0.1,0.3-0.3,0.2-0.6v-0.5c0.1,0,0.2-0.1,0.3-0.3c0-0.3,0.1-0.6,0.2-0.8c0.1-0.2,0.1-0.4,0-0.6
		v-0.4c0.4-0.2,0.2-0.5,0.3-0.8v-0.3c0.4-0.1,0.3-0.4,0.2-0.7v-0.4c0.4-0.2,0.3-0.5,0.3-0.8v-0.2c0.2-0.1,0.4-0.3,0.3-0.6
		c0,0,0-0.1-0.1-0.1v-0.4c0.2,0.3,0.5,0.3,0.8,0.1c0.3-0.2,0.3-0.5,0.1-0.8v-0.2c0.3-0.2,0.3-0.5,0.3-0.8v-0.2
		c0.3-0.2,0.3-0.5,0.2-0.8v-0.2c0.3-0.2,0.3-0.5,0.3-0.8V55c0.2-0.1,0.3-0.3,0.3-0.5v-0.1V54c0.3-0.1,0.4-0.4,0.2-0.7l0,0V53
		C161.6,52.8,161.6,52.4,161.5,52.2z M178.6,54.8c-0.3-0.1-0.4,0.1-0.4,0.4c-0.7,0.6-1.3,1.4-1.8,2.2c-0.4,0.6-0.7,1.3-0.9,1.9
		c-0.3,0.8-0.5,1.7-0.6,2.5c-0.4,1.6-0.3,3.3,0.1,4.9c0.2,0.7,0.6,1.4,1.1,1.9c1,0.9,2.4,1.5,3.8,1.5c0.8,0,1.7,0,2.5-0.2
		c1-0.3,2-0.7,2.8-1.4c1.1-0.9,2-2.2,2.6-3.5c0.2-0.5,0.4-1,0.5-1.5c0.2-0.7,0.3-1.4,0.4-2.1c0.3-1.7,0.2-3.5-0.4-5.2
		c-0.2-0.6-0.6-1.2-1.2-1.6c-1-0.7-2.2-1.1-3.4-1.1C181.9,53.4,180.1,53.8,178.6,54.8z"/>
	<path class="st1" d="M72.4,39.8h-0.3c-0.1-0.2-0.5,0-0.5-0.3c0.8-0.3,1.6-0.5,2.4-0.8c0.7-0.2,1.3-0.4,2-0.8c0.3-0.1,0.7-0.2,1-0.3
		c0.9-0.4,2-0.6,3-0.9c0.7-0.3,1.5-0.4,2.3-0.7s1.4-0.4,2-0.6c0.8-0.2,1.7-0.5,2.5-0.7s1.5-0.5,2.2-0.6c0.6-0.1,1.1-0.4,1.7-0.5
		c0.5-0.1,1-0.2,1.5-0.4c0.6-0.2,1.2-0.4,1.9-0.5c0.5-0.1,0.9-0.3,1.5-0.4c0.5-0.1,1.1-0.3,1.7-0.4s1.1-0.3,1.6-0.4l2.6-0.6
		c1.1-0.2,2.2-0.5,3.3-0.8c0.6-0.1,1.3-0.3,1.9-0.5c0.4-0.2,0.8-0.3,1.3-0.3c0.6-0.1,1.2-0.2,1.8-0.4c0.7-0.2,1.3-0.2,2-0.4
		c0.6-0.2,1.1-0.2,1.6-0.3c0.8-0.2,1.7-0.4,2.5-0.5c1.2-0.2,2.3-0.5,3.5-0.7c0.7-0.1,1.3-0.2,2-0.4c0.7-0.2,1.3-0.2,2-0.3
		c1.5-0.3,3-0.6,4.5-0.7c0.9-0.1,1.9-0.4,2.8-0.5c0.9-0.2,1.6-0.2,2.4-0.4c0.8-0.2,1.6-0.3,2.5-0.4c1-0.1,2-0.2,3-0.5
		c0.1,0,0.2,0,0.3,0c1,0,2-0.2,2.9-0.4c0.8-0.1,1.7-0.2,2.5-0.4h0.1c1.1,0,2.3-0.2,3.4-0.4c1.1-0.1,2.3-0.2,3.4-0.4h0.1
		c1.3-0.1,2.6-0.2,3.9-0.4c1.3-0.2,2.7-0.1,4-0.4c0.7-0.1,1.5,0,2.2-0.2c1.6-0.3,3.3-0.2,4.9-0.5c0.2,0,0.5,0,0.7,0
		c1.9,0,3.8-0.3,5.8-0.3c1.5-0.1,3-0.1,4.6-0.3c1.9-0.2,3.8-0.1,5.7-0.3c2.5-0.2,5-0.1,7.5-0.3c7.7-0.4,15.4-0.2,23-0.2
		c1.3,0,2.6,0,3.9,0c1.8,0.1,3.6,0.2,5.4,0.2c0.7,0,1.3,0,2,0c1.7,0,3.4,0.3,5.1,0.3c0.5,0,0.9,0,1.3,0c1.3,0,2.6,0.3,4,0.2
		c2.1,0,4.2,0.2,6.3,0.4c1.7,0,3.4,0.2,5.2,0.4c0.6,0.1,1.1,0.1,1.7,0.1c0.4,0,0.8,0,1.1,0.1c0.8,0.2,1.5,0.2,2.3,0.3
		c1.4,0.2,2.9,0.2,4.3,0.4c0.1,0,0.2,0,0.3,0c1.3,0,2.6,0.2,3.9,0.4c1.2,0.1,2.4,0.2,3.6,0.4c0.1,0,0.2,0,0.3,0
		c1.2,0.1,2.4,0.2,3.5,0.4c0.8,0,1.6,0.1,2.3,0.3c0.8,0.3,1.7,0.1,2.5,0.4c0.1,0,0.1,0,0.2,0c1,0,2,0.2,3,0.4
		c0.9,0.1,1.7,0.2,2.6,0.3c0.9,0.1,1.9,0.3,2.8,0.4c1,0,1.9,0.2,2.8,0.5c0.1,0,0.1,0,0.2,0c0.8,0.1,1.6,0.2,2.5,0.3
		c0.8,0.1,1.5,0.3,2.3,0.4c0.1,0,0.2,0.1,0.3,0.1c1.1,0.1,2.1,0.4,3.2,0.5c1.2,0.2,2.5,0.4,3.7,0.7c0.6,0.1,1.3,0.2,1.9,0.4
		c0.3,0.1,0.6,0.1,0.9,0.1c0.5,0.1,0.7,0.3,0.5,0.8s-0.3,1.3-0.5,1.9c-0.3,0.9-0.4,1.8-0.7,2.6c-0.1,0.4-0.2,0.8-0.3,1.2
		c-0.1,0.5-0.3,1-0.4,1.5s-0.3,0.8-0.4,1.3c-0.1,0.2-0.3,0.3-0.5,0.3l0,0c-0.6-0.2-1.3-0.3-2-0.4s-1.3-0.3-2-0.4l-1.7-0.3
		c-0.8-0.2-1.5-0.4-2.3-0.5s-1.3-0.3-2-0.4c-0.8-0.1-1.5-0.2-2.3-0.4c-0.5-0.2-1-0.1-1.5-0.3c-0.7-0.2-1.4-0.3-2-0.3
		c-0.8-0.1-1.5-0.2-2.2-0.4c-1.3-0.4-2.6-0.5-3.9-0.7c-0.8-0.2-1.6-0.2-2.5-0.4s-1.7-0.2-2.6-0.4c-0.6-0.1-1.3-0.2-1.9-0.3
		c-0.9-0.1-1.8-0.4-2.7-0.4c-0.3,0-0.5,0-0.8-0.2c-0.1-0.1-0.3-0.1-0.4-0.1c-0.5,0-1.1-0.2-1.6-0.2c-1-0.1-2-0.3-3-0.4s-2-0.2-3-0.4
		c-0.2,0-0.4-0.1-0.5-0.1c-0.6,0-1.2-0.2-1.9-0.2c-1.1-0.1-2.1-0.4-3.2-0.4h-0.1c-1.2-0.3-2.5-0.3-3.7-0.5c-0.1,0-0.2,0-0.3,0
		c-1.3,0-2.5-0.3-3.8-0.4s-2.4-0.2-3.5-0.3c-0.9-0.1-1.8-0.1-2.7-0.2c-1.1-0.2-2.3-0.1-3.4-0.3c-1.1-0.2-2.2-0.1-3.3-0.3
		c-1.3-0.2-2.5,0-3.8-0.3c-1.6-0.3-3.3-0.1-4.8-0.4c-0.3,0-0.6,0-0.9,0c-2.6,0-5.1-0.2-7.7-0.4s-4.9-0.1-7.4-0.2
		c-4.4-0.3-8.9-0.2-13.3-0.2c-5.7,0-11.3,0-16.9,0.1c-1.7,0-3.4,0.2-5.1,0.2c-0.8,0-1.5,0-2.3,0c-2.3,0.1-4.6,0.2-6.9,0.3
		c-1.6,0.1-3.2,0.1-4.8,0.3c-1.4,0.1-2.9,0.1-4.3,0.3c-1.9,0.3-3.7,0.3-5.5,0.5c-1.7,0.2-3.3,0.2-5,0.5c-0.1,0-0.2,0-0.3,0
		c-1.5,0-2.9,0.2-4.3,0.4c-1.2,0-2.4,0.2-3.5,0.4c-0.1,0-0.2,0-0.3,0c-1.2,0-2.5,0.2-3.7,0.4c-1.1,0.2-2.2,0.2-3.3,0.5
		c-0.1,0-0.1,0-0.2,0c-1.1,0-2.1,0.1-3.2,0.4c-1,0.1-1.9,0.2-2.8,0.4c-0.1,0-0.2,0.1-0.3,0.1c-1.3,0.1-2.5,0.3-3.8,0.5
		c-0.1,0-0.3,0-0.4,0c-0.4,0-0.8,0-1.2,0.2c-0.1,0-0.2,0-0.3,0c-0.9,0-1.8,0.2-2.7,0.4c-0.8,0-1.5,0.2-2.2,0.4c-0.1,0-0.1,0-0.2,0
		c-0.9,0-1.7,0.2-2.6,0.4l-4,0.7c-0.9,0.1-1.7,0.4-2.6,0.5c-0.7,0.1-1.4,0.2-2.1,0.4c-0.7,0.2-1.4,0.2-2,0.4s-1.6,0.2-2.4,0.5
		c-0.5,0.1-1,0.2-1.5,0.3c-0.7,0.1-1.3,0.3-2,0.4c-0.4,0.1-0.9,0.2-1.3,0.3c-0.6,0.1-1.2,0.2-1.8,0.4c-0.2,0.1-0.5,0.1-0.7,0.1
		c-0.3,0-0.6-0.2-0.7,0.2l-0.5,0.1c-0.3,0-0.7-0.2-0.8,0.2H83c-0.3,0-0.6-0.1-0.8,0.2h-0.4c-0.3,0-0.7-0.2-0.8,0.2h-0.4H80
		c-0.2,0-0.3,0.1-0.3,0.4h-0.3c-0.4-0.2-0.5-0.1-0.8,0.2h-0.3c-0.3-0.2-0.6-0.1-0.8,0.2v0.1h-0.9c-0.3-0.2-0.7-0.1-0.9,0.2
		c0,0,0,0.1-0.1,0.1h-0.3c-0.2-0.2-0.6-0.1-0.8,0.1l-0.1,0.1h-0.3c-0.2-0.2-0.6-0.1-0.8,0.1c0,0,0,0.1-0.1,0.1h-0.3
		c-0.2-0.2-0.6-0.2-0.8,0C72.2,39.3,72.2,39.7,72.4,39.8L72.4,39.8z"/>
	<path class="st0" d="M152.3,62.9v0.2c-0.4,0.1-0.2,0.4-0.2,0.7v0.4c-0.3,0.2-0.3,0.4-0.2,0.7v0.2c-0.3,0.2-0.3,0.5-0.2,0.8v0.2
		c-0.3,0.2-0.3,0.5-0.3,0.8v0.3c-0.4,0.1-0.3,0.4-0.2,0.7v0.4c-0.4,0.1-0.4,0.4-0.3,0.7v0.3c-0.3,0.2-0.3,0.5-0.3,0.8v0.2
		c-0.3,0.2-0.3,0.5-0.3,0.8v0.2c-0.3,0.1-0.2,0.4-0.2,0.7c-0.1,0.5-0.2,1.1-0.4,1.6c-0.1,0.6-0.3,1.1-0.5,1.7
		c-0.1,0.6-0.3,1.1-0.5,1.7c-0.2,0.4-0.3,0.9-0.4,1.3c0,0.2-0.1,0.3-0.3,0.3h-15.1c-0.8,0-0.8,0.1-0.6-0.8c0.1-0.5,0.2-1,0.4-1.5
		c0.1-0.4,0.2-0.8,0.3-1.2c0.3-1.2,0.6-2.4,0.9-3.5c0.2-0.8,0.5-1.6,0.7-2.4c0.2-0.5,0.3-1.1,0.4-1.6c0.1-0.4,0.2-0.8,0.3-1.2
		c0.1-0.7,0.3-1.3,0.5-2c0.3-0.9,0.6-1.8,0.8-2.7c0.3-0.9,0.5-1.7,0.7-2.6c0.1-0.6,0.2-1.2,0.2-1.8c-0.1-1-0.6-1.9-1.5-2.3
		c-1.2-0.8-2.6-0.7-3.9-0.7c-0.7,0-1.5,0.1-2.2,0.4c-0.8,0.3-1.5,0.7-2.1,1.2c-1,0.9-1.7,2-2.1,3.2c-0.2,0.6-0.5,1.2-0.7,1.9
		s-0.3,1-0.4,1.5c-0.3,0.9-0.4,1.9-0.7,2.8c-0.1,0.4-0.2,0.7-0.3,1.1c-0.2,0.9-0.6,1.8-0.8,2.8s-0.5,1.8-0.7,2.6
		c-0.2,0.9-0.4,1.7-0.6,2.6c-0.1,0.5-0.3,1-0.5,1.5c-0.1,0.4-0.3,0.9-0.3,1.4c-0.1,0.3-0.1,0.6-0.2,0.8c-0.1,0.2,0,0.4-0.2,0.5
		c-0.2,0-0.4,0-0.6,0h-14.5c-0.3,0-0.6,0-0.9,0s-0.4-0.1-0.4-0.4c0.1-0.5,0.2-1,0.4-1.5c0.2-0.5,0.2-1.1,0.4-1.7
		c0.3-0.9,0.4-1.9,0.8-2.8c0.1-0.4,0.2-0.7,0.2-1.1c0.2-0.9,0.6-1.9,0.8-2.8c0.2-0.9,0.4-1.8,0.7-2.7c0.1-0.4,0.2-0.9,0.3-1.3
		c0.2-0.9,0.6-1.9,0.8-2.8c0.1-0.5,0.2-1,0.4-1.6c0.2-0.9,0.4-1.8,0.7-2.6c0.2-0.5,0.2-1,0.4-1.5c0.1-0.6,0.3-1.3,0.6-1.9
		c0.1-0.4,0.2-0.8,0.3-1.2c0.2-0.9,0.5-1.8,0.7-2.6c0.2-0.9,0.5-1.7,0.7-2.6c0-0.2,0.1-0.4,0.1-0.6c0.4-0.1,0.4-0.4,0.3-0.7v-0.4
		c0.3-0.1,0.4-0.4,0.3-0.7l0,0v-0.2c0.2,0,0.4,0,0.7,0h14.1c0.2,0,0.5,0,0.7,0.2v0.4c-0.2,0.1-0.3,0.3-0.3,0.5v0.1v0.3
		c-0.2,0.1-0.4,0.4-0.3,0.6l0,0v0.4c-0.3,0.1-0.4,0.4-0.2,0.7l0,0v0.3c-0.3,0-0.4,0.3-0.4,0.5c0,0.1,0,0.2,0.1,0.3
		c0.1,0,0.3-0.2,0.5-0.3c0.2-0.1,0-0.1,0-0.2l0,0c0.2,0,0.3-0.1,0.2-0.3c1.1-0.9,2.4-1.7,3.7-2.4c0.8-0.4,1.7-0.8,2.6-1.1
		c0.9-0.3,1.7-0.5,2.6-0.7c0.7-0.2,1.4-0.3,2.2-0.3c1.2-0.1,2.3-0.1,3.5,0c0.7,0,1.5,0.1,2.2,0.2c1.2,0.3,2.4,0.6,3.6,0.9
		c0.9,0.3,1.7,0.7,2.5,1.2c0.5,0.3,0.9,0.7,1.3,1.1c0.8,0.7,1.4,1.7,1.7,2.7c0.2,0.5,0.3,1.1,0.4,1.7c0,1,0,2-0.1,3
		c-0.1,0.7-0.2,1.4-0.4,2c-0.1,0.4-0.2,0.9-0.3,1.3c-0.2,0.9-0.5,1.9-0.7,2.8c-0.4,0.1-0.4,0.4-0.3,0.7v0.2
		C152.2,62.3,152.3,62.7,152.3,62.9z"/>
	<path class="st0" d="M248.7,78.9c-0.2,0.1-0.4,0.1-0.7,0h-14.8c-0.2,0-0.3,0-0.4-0.3c-0.3-0.8-0.5-1.7-0.5-2.5c0-0.1,0-0.2-0.1-0.3
		c-0.3,0.3-0.7,0.5-1.1,0.8c-0.5,0.4-1,0.7-1.5,0.9c-0.8,0.4-1.7,0.8-2.6,1.1c-0.8,0.2-1.6,0.5-2.4,0.6c-0.8,0.2-1.7,0.2-2.6,0.4
		c-0.2,0-0.4,0.1-0.7,0.1c-1.6,0.1-3.1,0.1-4.7,0c-1-0.1-1.9-0.2-2.8-0.4c-0.8-0.1-1.5-0.3-2.2-0.6c-1.5-0.5-2.8-1.3-3.9-2.3
		c-0.6-0.7-1.2-1.4-1.6-2.3c-0.6-1.3-0.8-2.7-0.7-4.1c0-0.9,0.2-1.9,0.5-2.8c0.4-1,0.9-2,1.5-2.8c1-1.1,2.2-2.1,3.5-2.8
		c1.2-0.6,2.5-1.1,3.8-1.4s2.6-0.6,4-0.8c0.8-0.2,1.6-0.2,2.4-0.4c0.8-0.2,1.5-0.1,2.2-0.2c2.2-0.2,4.3-0.2,6.5-0.3
		c1,0,2.1-0.2,3.1-0.3c1-0.1,2-0.4,2.9-0.8c1.4-0.6,2.1-2.2,1.6-3.6c-0.2-0.6-0.7-1.1-1.2-1.3c-0.7-0.3-1.4-0.5-2.2-0.6
		c-1-0.1-1.9-0.1-2.9,0c-1,0-2,0.3-2.8,0.8c-0.9,0.5-1.6,1.3-2,2.2c-0.1,0.3-0.3,0.5-0.6,0.4c-0.2,0-0.3,0-0.5,0h-13.4
		c-1,0-0.9,0-0.7-0.9c0.2-0.7,0.5-1.5,0.9-2.1c0.7-1.2,1.6-2.3,2.6-3.3c0.9-0.8,1.9-1.4,3-2.1c1-0.6,2.1-1,3.2-1.3
		c0.9-0.3,1.8-0.5,2.8-0.7c0.8,0,1.7-0.2,2.5-0.5c0.1,0,0.1,0,0.2,0c3.2-0.3,6.5-0.4,9.8-0.2c1.3,0.1,2.6,0.1,3.8,0.3
		c0.9,0.1,1.8,0.2,2.6,0.4c0.6,0.2,1.3,0.3,2,0.4c0.5,0.1,0.9,0.2,1.3,0.3c0.9,0.2,1.8,0.5,2.6,0.9c1.8,0.7,3.3,2.1,4.2,3.8
		c0.3,0.6,0.5,1.3,0.6,2c0.1,1,0,1.9-0.1,2.9c-0.1,0.8-0.3,1.6-0.5,2.3c-0.2,0.5-0.3,1.1-0.4,1.7c-0.1,0.5-0.2,1-0.3,1.5
		c-0.2,0.7-0.3,1.4-0.5,2.1c-0.2,0.9-0.5,1.8-0.8,2.7c-0.1,0.4-0.2,0.7-0.3,1.1c-0.3,0.8-0.4,1.7-0.6,2.5s-0.4,1.7-0.7,2.5
		c-0.2,0.4-0.2,0.9-0.3,1.3c-0.2,0.6-0.4,1.3-0.5,2c-0.2,0.8-0.1,1.7,0,2.5c0,0.4,0.2,0.8,0.4,1.1C248.7,78.6,248.8,78.8,248.7,78.9
		z M221.7,69.1c-0.1,1,0.5,2,1.5,2.4c1.2,0.6,2.5,0.5,3.7,0.7h0.1c0.8-0.3,1.8-0.1,2.6-0.4c0.8-0.2,1.5-0.6,2.2-1
		c1-0.7,1.8-1.7,2.3-2.8c0.5-1,0.9-2.1,1.1-3.3c0.1-0.3,0-0.4-0.3-0.4c-0.5,0.1-0.9,0.2-1.3,0.4c-1.4,0.3-2.8,0.5-4.2,0.7
		c-1.1,0.1-2.2,0.1-3.3,0.3c-1,0.1-2,0.5-2.8,0.9C222.2,66.8,221.6,67.9,221.7,69.1z"/>
	<path class="st0" d="M98.9,78.9C98.7,79,98.5,79,98.3,79H83.7h-0.5c-0.1,0-0.2,0-0.2-0.1c0-0.3-0.3-0.6-0.3-0.9
		c-0.2-0.6-0.2-1.2-0.3-1.8c0-0.1,0-0.2-0.1-0.3c-0.1-0.1-0.2,0.1-0.3,0.2c-0.9,0.8-2,1.4-3.1,1.9c-1,0.4-2,0.8-3,1.1
		c-1.2,0.3-2.4,0.4-3.6,0.7c-0.5,0.1-1,0.1-1.5,0.1c-1.2,0-2.4,0-3.6,0c-1-0.1-2-0.2-3-0.4c-0.8-0.1-1.5-0.3-2.2-0.6
		c-1.3-0.4-2.5-1-3.5-1.9c-0.8-0.6-1.4-1.4-1.9-2.3c-0.4-0.9-0.7-1.8-0.7-2.7c0-0.8,0-1.5,0-2.3c0-1.2,0.4-2.4,0.9-3.5
		c0.9-1.7,2.3-3.1,4-4c0.9-0.5,1.8-0.9,2.8-1.2c0.8-0.3,1.7-0.5,2.5-0.7c0.6-0.1,1.2-0.2,1.8-0.4c0.2-0.1,0.5-0.1,0.7-0.1
		c0.4,0,0.7-0.1,1-0.2c0.1-0.1,0.2-0.1,0.3-0.1c1.3,0,2.5-0.3,3.8-0.4c2.1-0.2,4.3-0.2,6.4-0.3c1.1,0,2.1-0.1,3.1-0.3
		c1-0.1,1.9-0.3,2.8-0.8c0.6-0.3,1.2-0.7,1.5-1.3c0.8-1.2,0.4-2.7-0.7-3.5c-0.1-0.1-0.3-0.2-0.4-0.2c-1.2-0.5-2.6-0.7-3.9-0.6
		c-0.9,0-1.7,0.1-2.6,0.3c-1.5,0.3-2.7,1.4-3.3,2.8c-0.1,0.2-0.2,0.3-0.4,0.3H61.9c-0.8,0-0.8,0-0.5-0.8s0.5-1.4,0.8-2
		c0.7-1.4,1.6-2.6,2.7-3.6c0.9-0.8,1.9-1.5,2.9-2c0.5-0.2,0.9-0.5,1.5-0.7l1.9-0.7c0.6-0.2,1.2-0.3,1.9-0.5c0.5-0.1,1.1-0.2,1.7-0.3
		c1.1-0.1,2.1-0.3,3.2-0.4c2.2-0.2,4.4-0.2,6.6-0.2c1.3,0,2.6,0.1,4,0.2c0.4,0,0.8,0,1.3,0c0.9,0.2,1.9,0.2,2.9,0.4
		c0.7,0.1,1.3,0.2,2,0.4c0.9,0.2,1.7,0.4,2.5,0.7c0.5,0.2,1,0.4,1.5,0.6c1.2,0.6,2.3,1.4,3.3,2.4c0.7,0.9,1.2,1.9,1.4,3.1
		c0.1,1.2,0.1,2.4-0.1,3.6s-0.4,2.3-0.7,3.5c-0.2,0.9-0.5,1.9-0.7,2.8c-0.1,0.5-0.3,0.9-0.4,1.4c-0.2,0.5-0.3,1-0.4,1.5
		c-0.3,1.2-0.7,2.3-0.9,3.5c-0.2,0.8-0.5,1.5-0.7,2.3c-0.2,0.5-0.3,1-0.4,1.5c0,0.4-0.2,0.7-0.3,1.1c-0.1,0.6-0.2,1.3-0.4,1.9
		c-0.1,0.2-0.1,0.4-0.1,0.5c0,0.9,0.1,1.9,0.5,2.7C98.8,78.6,98.9,78.6,98.9,78.9z M71.8,69.1c-0.1,0.8,0.4,1.6,1.1,2
		c0.7,0.5,1.4,0.7,2.2,0.8c0.4,0,0.8,0,1.1,0.1c0.3,0.1,0.6,0.2,0.9,0.1c0.9-0.3,1.8-0.1,2.7-0.4c1-0.3,2-0.9,2.8-1.6
		c1-1.1,1.8-2.4,2.3-3.8c0.2-0.6,0.4-1.2,0.5-1.9c0.1-0.3,0-0.3-0.4-0.3c-0.9,0.2-1.9,0.5-2.8,0.7s-2,0.3-2.9,0.4s-2,0.1-3.1,0.2
		c-1,0.1-2,0.4-2.8,0.9C72.5,66.8,71.8,67.9,71.8,69.1z"/>
	<path class="st2" d="M275.7,59.8c-0.5,0.9-0.9,1.8-1.2,2.7c-0.2,0.4-0.3,0.9-0.4,1.3c-0.1,0.3-0.2,0.6-0.3,0.9
		c-0.2,0.9-0.4,1.8-0.7,2.6c-0.2,0.5-0.2,0.9-0.4,1.5c-0.2,0.8-0.4,1.7-0.6,2.5c-0.4,1.1-0.6,2.2-0.9,3.3c-0.4,1.3-0.7,2.7-1,4.1
		c0,0.2-0.1,0.2-0.3,0.2h-0.5h-14.8c-0.2,0-0.4,0-0.7-0.1c0-0.3,0-0.6,0.1-0.9c0.3-1,0.5-2.1,0.8-3.2c0.1-0.4,0.3-0.9,0.4-1.3
		c0.2-0.6,0.3-1.3,0.5-1.9c0.3-0.9,0.4-1.8,0.7-2.6c0.2-0.4,0.2-0.9,0.3-1.4c0.1-0.4,0.3-1.1,0.5-1.7s0.2-0.9,0.3-1.3
		c0.3-1.3,0.7-2.5,0.9-3.8c0.1-0.7,0.3-1.5,0.6-2.2c0.3-0.9,0.4-1.8,0.8-2.7c0.2-0.4,0.2-0.9,0.3-1.3c0.3-1,0.5-2.1,0.8-3.1
		c0.1-0.5,0.3-0.9,0.4-1.5c0.1-0.5,0.2-0.8,0.3-1.2c0.3-1.1,0.6-2.1,0.8-3.2c0.1-0.5,0.3-0.7,0.8-0.7h14.4c0.6,0,0.7,0.2,0.5,0.7
		c-0.3,1-0.6,2-0.8,3c-0.1,0.4-0.4,0.7-0.2,1.2c0.2,0.1,0.2-0.1,0.3-0.2c0.8-0.8,1.7-1.6,2.6-2.3c1.3-0.9,2.7-1.7,4.2-2.2
		c0.7-0.3,1.5-0.5,2.3-0.7c0.6-0.2,1.2-0.3,1.9-0.3c1.3-0.1,2.6,0,3.8,0.1c0.6,0.1,1.2,0.2,1.8,0.2c0.3,0,0.5,0.3,0.7,0.3
		c0.3,0,0.2,0.3,0.1,0.4c-0.1,0.6-0.3,1.2-0.4,1.8s-0.3,1.1-0.5,1.7c-0.1,0.5-0.2,1.1-0.4,1.6c-0.1,0.2-0.1,0.5-0.1,0.7
		c-0.3,0.9-0.5,1.7-0.8,2.6c-0.2,0.5-0.3,1-0.4,1.6c0,0.3-0.2,0.6-0.3,0.9c0,0.3-0.3,0.2-0.4,0.1c-0.6-0.2-1.2-0.2-1.8-0.4
		c-0.1,0-0.2-0.1-0.3-0.1c-2-0.1-4-0.5-6.1-0.1c-0.7,0.1-1.5,0.2-2.2,0.4c-0.7,0.1-1.3,0.4-1.9,0.7c-0.1,0.1-0.2,0.1-0.3,0.1
		c-0.1,0-0.2,0-0.3,0.1v0.1h-0.1c-0.2,0-0.4,0-0.4,0.2l0,0c-0.2,0-0.3,0.1-0.3,0.3c-0.5,0.4-0.9,0.8-1.3,1.3c-0.2,0-0.3,0.1-0.2,0.3
		l0,0C275.8,59.1,275.9,59.4,275.7,59.8z"/>
	<path class="st3" d="M213.6,94.4c-0.2,0.6-0.4,1.2-0.7,1.8c-0.7,1-1.6,1.8-2.7,2.4c-1.3,0.6-2.8,0.9-4.2,0.8c-0.5,0-0.9,0-1.3,0
		c-1.5,0-2.9-0.5-4.1-1.4c-0.9-0.7-1.5-1.8-1.7-3c-0.1-1-0.1-2,0.1-2.9c0.1-0.7,0.4-1.3,0.8-1.9c0.4-0.6,0.9-1.2,1.4-1.7
		c0.6-0.5,1.3-0.9,2.1-1.3c1.5-0.7,3.2-1,4.9-0.8c1,0,2,0.2,2.9,0.6c0.6,0.2,1.1,0.5,1.6,0.9c0.9,0.8,1.4,1.9,1.4,3.1
		c0,0.3-0.1,0.4-0.4,0.4H210c-0.4,0-0.5-0.1-0.6-0.5c0-0.7-0.6-1.2-1.3-1.2c-0.4,0-0.9,0-1.3,0c-0.8,0.1-1.5,0.5-2,1.1
		c-0.7,0.9-1.1,2-1,3.1c0,0.7,0.3,1.3,0.7,1.8c0.7,0.6,1.6,0.8,2.4,0.6c0.9-0.2,1.6-0.8,1.9-1.6c0-0.1,0.2-0.2,0.3-0.2L213.6,94.4z"
		/>
	<path class="st4" d="M235.3,98.6c-0.3-0.1-0.4,0.2-0.7,0.3c-1.1,0.5-2.4,0.7-3.6,0.5c-0.6-0.1-1.2-0.3-1.7-0.6
		c-0.8-0.5-1.2-1.5-0.9-2.4c0.2-0.6,0.2-1.1,0.4-1.7c0.2-0.6,0.3-1.3,0.6-2c0.2-0.4,0.3-0.8,0.3-1.3c0-0.4,0.3-0.7,0.3-1.1
		c0-0.2,0.2-0.3,0.4-0.3c1.2,0,2.4,0,3.6,0c0.3,0,0.5,0.2,0.3,0.5c-0.3,0.8-0.4,1.6-0.7,2.4s-0.5,1.5-0.7,2.3
		c-0.1,0.3-0.1,0.8,0.2,0.9c0.4,0.3,0.9,0.4,1.5,0.3c0.9-0.3,1.6-1,1.7-2c0.1-0.6,0.3-1.1,0.4-1.7c0.2-0.5,0.3-1,0.4-1.5
		c0-0.4,0.3-0.7,0.3-1.1c0-0.4,0.4-0.3,0.6-0.3h3.4c0.4,0,0.5,0.1,0.4,0.5c-0.1,0.5-0.2,0.9-0.3,1.4c-0.2,0.5-0.3,0.9-0.4,1.4
		c-0.2,0.8-0.4,1.5-0.6,2.3c-0.3,1.1-0.5,2.2-0.9,3.3c0,0.2-0.2,0.3-0.3,0.2h-3.7c-0.3,0-0.3-0.2-0.3-0.5c0.1,0,0.2-0.1,0.2-0.2
		c0,0,0,0,0-0.1s0-0.1-0.1-0.1l0,0C235.3,98.4,235.3,98.6,235.3,98.6z"/>
	<path class="st3" d="M220.7,99.4c-1.2,0.1-2.3-0.1-3.4-0.6c-1.9-0.8-2.5-2.1-2.4-4.1c0-0.8,0.3-1.7,0.8-2.4
		c0.6-0.8,1.4-1.5,2.4-1.8c1.6-0.6,3.3-0.8,5-0.6c0.8,0,1.6,0.2,2.4,0.6c0.8,0.4,1.5,1.1,1.8,2c0.3,0.6,0.4,1.3,0.2,2
		c-0.2,0.9-0.5,1.7-1,2.4c-0.8,1.1-1.9,1.9-3.3,2.1C222.4,99.4,221.6,99.6,220.7,99.4z M223.1,94.1c0.1-0.6-0.3-1.2-0.8-1.5
		c-0.9-0.2-1.8,0.1-2.3,0.8c-0.4,0.6-0.6,1.3-0.6,2.1c-0.1,0.4,0.1,0.8,0.4,1.1c0.5,0.4,1.1,0.5,1.6,0.3
		C222.4,96.4,223.1,95.3,223.1,94.1z"/>
	<path class="st5" d="M267.5,95.6H264c-0.5,0-0.7,0.3-0.5,0.7c0.1,0.2,0.3,0.4,0.5,0.5c0.4,0.3,1,0.4,1.5,0.3
		c0.4-0.1,0.8-0.2,1.2-0.5c0.2-0.1,0.4-0.2,0.6-0.1c1,0,2.1,0,3.1,0c0.5,0,0.6,0.2,0.3,0.7c-0.5,0.9-1.4,1.5-2.3,1.8
		c-1.5,0.5-3.1,0.7-4.7,0.5c-1.1,0-2.2-0.4-3.1-1c-0.8-0.6-1.3-1.5-1.4-2.5c0-0.2,0-0.5,0-0.7c-0.1-1.5,0.6-2.9,1.7-3.8
		c0.7-0.6,1.6-1,2.5-1.2c1.4-0.4,2.8-0.4,4.3-0.2c1.5,0.1,2.8,0.9,3.6,2.2c0.5,0.8,0.6,1.8,0.3,2.7c-0.2,0.6-0.2,0.6-0.8,0.6H267.5z
		 M265.7,93.6h1.3c0.5,0,0.7-0.3,0.5-0.7c-0.1-0.2-0.3-0.4-0.5-0.5c-1.1-0.6-2.5-0.2-3.1,0.9c-0.1,0.2,0.1,0.3,0.2,0.3H265.7z"/>
	<path class="st5" d="M248.3,91.1c1.3-1.1,3-1.4,4.6-1c-0.3,0.9-0.6,1.7-0.8,2.6c-0.1,0.2-0.3,0.4-0.5,0.3l0,0
		c-0.7-0.1-1.4-0.1-2.1,0c-1,0.1-1.8,0.8-2.1,1.7c-0.3,0.7-0.3,1.4-0.6,2.1s-0.1,1.2-0.5,1.7c-0.1,0.2,0,0.5-0.2,0.6
		s-0.6,0.1-0.9,0.1h-3c-0.5,0-0.6-0.1-0.5-0.6c0.1-0.6,0.3-1.2,0.5-1.7c0.2-0.3,0.2-0.7,0.3-1c0.2-0.9,0.5-1.8,0.6-2.7
		c0.1-0.4,0.2-0.7,0.3-1.1c0.1-0.6,0.3-1.2,0.5-1.7c0.1-0.2,0.2-0.3,0.4-0.3h3.4c0.3,0,0.4,0.2,0.4,0.5
		C248.1,90.8,248.2,90.9,248.3,91.1z"/>
	<path class="st4" d="M278.6,91.1c1.1-1,2.6-1.4,4.1-1.2c0.5,0,0.5,0.1,0.3,0.6s-0.3,1-0.4,1.5c0,0.1,0,0.2-0.1,0.3
		c-0.2,0.5-0.3,0.6-0.9,0.6c-0.6-0.1-1.3-0.1-2,0c-0.9,0.1-1.8,0.7-2.1,1.6c-0.3,0.7-0.5,1.4-0.6,2.2c-0.2,0.7-0.4,1.5-0.6,2.2
		c-0.1,0.3-0.3,0.2-0.5,0.2h-2.9c-0.2,0-0.5,0-0.7,0s-0.3-0.1-0.3-0.3c0.1-0.6,0.2-1.1,0.4-1.7c0.1-0.6,0.3-1.2,0.5-1.8
		c0.1-0.6,0.3-1,0.4-1.5s0.2-1,0.4-1.5c0.2-0.7,0.4-1.3,0.6-2c0-0.2,0.2-0.3,0.4-0.3h3.4c0.3,0,0.4,0.2,0.4,0.4
		C278.5,90.8,278.5,90.9,278.6,91.1z"/>
	<path class="st5" d="M254.2,99.3c-0.6,0-1.2,0-1.8,0c-0.3,0-0.4-0.1-0.3-0.4c0.1-0.6,0.3-1.2,0.4-1.8c0.2-0.9,0.5-1.8,0.8-2.7
		c0.2-0.9,0.4-1.8,0.7-2.6c0.1-0.4,0.2-0.9,0.3-1.3c0.1-0.2,0.2-0.4,0.5-0.3h3.6c0.4,0,0.5,0.1,0.4,0.5c-0.3,0.8-0.5,1.7-0.7,2.6
		c-0.2,0.9-0.5,1.7-0.7,2.6c-0.1,0.5-0.3,1-0.4,1.5c-0.2,0.5-0.3,1-0.4,1.5c0,0.2-0.2,0.5-0.4,0.5h-0.1
		C255.4,99.3,254.8,99.3,254.2,99.3z"/>
	<path class="st5" d="M256.8,89.3c-0.6,0-1.2,0-1.8,0c-0.4,0-0.5-0.2-0.4-0.5c0.2-0.6,0.4-1.2,0.6-1.8c0.1-0.3,0.3-0.3,0.5-0.3h3.5
		c0.5,0,0.6,0.1,0.4,0.6c-0.1,0.6-0.3,1.2-0.6,1.8c-0.1,0.2-0.2,0.2-0.4,0.2H256.8z"/>
	<path class="st6" d="M151.8,89.3c0.1,0.4,0.2,0.5,0.7,0.5c4.9,0,9.8,0,14.6,0c0.3,0,0.6-0.1,0.9-0.1c0,0.2,0,0.4-0.3,0.4h-15.6
		c-0.2,0-0.4,0-0.5-0.2C151.4,89.6,151.6,89.4,151.8,89.3z"/>
	<path class="st6" d="M178.8,45.9c0-0.1-0.1-0.1-0.1-0.2c0.1-0.6,0.1-0.6-0.6-0.6H164c-0.3,0-0.7,0.1-0.9,0.3
		c-0.1-0.3,0-0.5,0.4-0.5h14.8c0.7,0,0.9,0.2,0.7,0.9C179,45.9,178.9,45.9,178.8,45.9z"/>
	<path class="st6" d="M128.4,45.3c-0.2-0.1-0.5-0.2-0.7-0.2h-14.2c-0.2,0-0.4,0-0.7,0c0-0.2,0-0.3,0.2-0.3s0.4,0,0.5,0h14.2
		c0.2,0,0.4,0,0.5,0C128.6,44.9,128.6,45.2,128.4,45.3z"/>
	<path class="st7" d="M71.6,39.7c0.1,0.3,0.4,0.1,0.5,0.3c-0.1,0.1-0.1,0.2-0.2,0.2c-0.7,0.2-1.4,0.4-2.1,0.6
		c-0.6,0.1-1.3,0.3-1.9,0.5c-0.2,0.1-0.4,0.1-0.7,0.1v-0.1c0-0.1,0.1-0.2,0.2-0.2c0.7-0.2,1.3-0.4,1.9-0.7
		C70.1,39.9,70.9,39.8,71.6,39.7z"/>
	<path class="st6" d="M179.9,47.2c-0.4,0.6-0.9,1.1-1.5,1.6c-0.1,0.1-0.3,0.1-0.5-0.1c0.2-0.2,0.2-0.5,0.2-0.8s0.1-0.4,0.4-0.5V48
		C179.1,47.8,179.3,47.3,179.9,47.2z"/>
	<path class="st6" d="M48.8,35.2c-0.5,0-0.8-0.4-1.2-0.5c-0.4-0.2-0.8-0.4-1.2-0.6c-0.2,0-0.3-0.2-0.3-0.3c0.2-0.1,0.4,0,0.5,0.1
		c0.6,0.4,1.2,0.8,1.9,1.1C48.7,34.8,48.8,35.1,48.8,35.2z"/>
	<path class="st6" d="M45.4,33.4c-0.6-0.1-1.3-0.3-1.9-0.5c-0.4-0.1-0.7-0.2-1.1-0.3c-0.1,0-0.3-0.1-0.3-0.2c0.5-0.2,1,0.2,1.5,0.3
		c0.5,0.1,1,0.3,1.6,0.5C45.4,33.3,45.4,33.3,45.4,33.4z"/>
	<path class="st6" d="M40.6,77.4c0-0.1,0.1-0.2,0.2-0.3c0.8-0.3,1.5-0.7,2.3-1.1c0.1-0.1,0.3-0.1,0.4,0c-0.1,0.3-0.4,0.4-0.6,0.5
		C42.1,76.9,41.4,77.3,40.6,77.4z"/>
	<path class="st6" d="M27.3,79.9c0-0.1,0.1-0.2,0.3-0.2c0.9,0,1.9-0.1,2.8,0c-0.1,0.1-0.2,0.2-0.3,0.2
		C29.1,79.9,28.2,79.9,27.3,79.9z"/>
	<path class="st6" d="M20.3,79.6c0.8-0.1,1.5,0,2.3,0c0.1,0,0.3,0.1,0.3,0.2c-0.8,0-1.5,0-2.3,0C20.4,79.9,20.3,79.9,20.3,79.6z"/>
	<path class="st6" d="M162.9,46.8c0.1,0.2,0.1,0.4,0,0.6s-0.2,0.5-0.2,0.8c0,0.1-0.1,0.2-0.3,0.3C162.4,47.9,162.6,47.3,162.9,46.8z
		"/>
	<path class="st6" d="M154,80.9c0.1,0.2,0.1,0.4,0,0.6c-0.1,0.2-0.2,0.5-0.2,0.8c0,0.1-0.1,0.2-0.3,0.3
		C153.5,81.9,153.7,81.4,154,80.9z"/>
	<path class="st6" d="M158.4,63.8c0.1,0.2,0.1,0.4,0,0.6s-0.2,0.5-0.2,0.8c0,0.1-0.1,0.2-0.3,0.3C158,64.9,158.2,64.3,158.4,63.8z"
		/>
	<path class="st6" d="M51,36.8c-0.1,0-0.3,0-0.4-0.1c-0.3-0.3-0.7-0.6-0.9-0.9c0.2,0,0.4,0.1,0.5,0.2C50.4,36.3,50.8,36.4,51,36.8z"
		/>
	<path class="st6" d="M127.9,48.8c0,0.1,0,0.2,0,0.2s-0.2,0.3-0.5,0.3c-0.2,0-0.1-0.2-0.1-0.3c0-0.3,0-0.5,0.4-0.5
		C127.6,48.7,127.6,48.8,127.9,48.8z"/>
	<path class="st7" d="M79,38.3c0-0.2,0.1-0.4,0.3-0.4h0.6C79.8,38.3,79.4,38.3,79,38.3z"/>
	<path class="st6" d="M31.2,79.6c0-0.1,0.1-0.2,0.3-0.2c0.4,0,0.7,0,1.1,0c-0.1,0.3-0.4,0.2-0.7,0.2C31.7,79.8,31.4,79.8,31.2,79.6z
		"/>
	<path class="st6" d="M33.1,79.4c0-0.2,0.2-0.3,0.3-0.3c0.3,0,0.6,0,0.9,0C33.9,79.6,33.5,79.4,33.1,79.4z"/>
	<path class="st6" d="M37,78.6c0.1-0.3,0.4-0.4,0.7-0.4c0,0,0.1,0,0.1,0.1C37.6,78.8,37.2,78.6,37,78.6z"/>
	<path class="st6" d="M169.6,82.9c0-0.3-0.2-0.7,0.3-0.9C169.9,82.3,170.1,82.6,169.6,82.9z"/>
	<path class="st6" d="M157.4,68.1c0,0.3,0.2,0.7-0.3,0.9C157,68.6,156.9,68.2,157.4,68.1z"/>
	<path class="st7" d="M75.7,39.1c0.2-0.3,0.5-0.5,0.9-0.3c0,0,0.1,0,0.1,0.1C76.4,39.1,76,39.2,75.7,39.1z"/>
	<path class="st6" d="M152.9,85.1c0,0.3,0.2,0.7-0.3,0.9C152.6,85.6,152.4,85.1,152.9,85.1z"/>
	<path class="st6" d="M161.5,52.2c0.1,0.3,0.1,0.7-0.3,0.9C161.2,52.7,161,52.3,161.5,52.2z"/>
	<path class="st7" d="M78,38.4c0.3-0.4,0.4-0.4,0.8-0.2C78.6,38.7,78.2,38.6,78,38.4z"/>
	<path class="st7" d="M74.6,39.3c0.1-0.3,0.4-0.4,0.7-0.3c0,0,0.1,0,0.1,0.1C75.2,39.4,74.9,39.3,74.6,39.3z"/>
	<path class="st7" d="M73.5,39.6c0.1-0.3,0.4-0.4,0.7-0.3c0,0,0.1,0,0.1,0.1C74.1,39.7,73.8,39.7,73.5,39.6z"/>
	<path class="st7" d="M72.4,39.8c0.1-0.3,0.4-0.4,0.7-0.3c0,0,0.1,0,0.1,0.1C73.1,39.9,72.7,39.8,72.4,39.8z"/>
	<path class="st6" d="M159.3,60.6c0,0.3,0.1,0.7-0.3,0.8C159,61.1,159,60.7,159.3,60.6z"/>
	<path class="st6" d="M178.6,47.2c-0.1-0.3,0-0.7,0.3-0.9C178.8,46.6,179,46.9,178.6,47.2z"/>
	<path class="st6" d="M155.1,76.6c0.1,0.3,0.1,0.6-0.3,0.7C154.7,76.9,154.8,76.8,155.1,76.6z"/>
	<path class="st6" d="M151.5,66.1c0-0.3-0.1-0.6,0.2-0.8C151.9,65.6,151.8,65.9,151.5,66.1z"/>
	<path class="st7" d="M80.4,37.8c0.2-0.5,0.5-0.2,0.8-0.2C81,37.8,80.7,37.9,80.4,37.8z"/>
	<path class="st6" d="M275.7,59.8c0.1-0.3,0.1-0.7,0.6-0.7C276.3,59.4,276.1,59.7,275.7,59.8z"/>
	<path class="st6" d="M169.9,81.6c-0.2-0.3-0.1-0.6,0.2-0.8l0,0C170.3,81.1,170.2,81.4,169.9,81.6z"/>
	<path class="st6" d="M171.5,75.3c-0.1-0.2,0-0.3,0.1-0.4s0.2,0.1,0.3,0.1c0.1,0.1,0.2,0.2,0.2,0.4
		C171.9,75.3,171.8,75.2,171.5,75.3z"/>
	<path class="st7" d="M76.8,38.8c0.1-0.3,0.4-0.4,0.7-0.3h0.1C77.5,38.8,77.1,38.8,76.8,38.8z"/>
	<path class="st6" d="M35.9,78.9c0.2-0.4,0.5-0.2,0.8-0.2C36.5,79.1,36.2,78.9,35.9,78.9z"/>
	<path class="st6" d="M170.5,79.4c-0.1-0.3,0-0.6,0.2-0.8C170.7,78.9,170.9,79.3,170.5,79.4z"/>
	<path class="st6" d="M152.6,86.1c0.1,0.3,0,0.6-0.2,0.8C152.3,86.6,152.1,86.4,152.6,86.1z"/>
	<path class="st6" d="M157,69.2c0.1,0.3,0,0.6-0.2,0.8C156.8,69.7,156.6,69.3,157,69.2z"/>
	<path class="st6" d="M160.4,56.3c0.1,0.3,0.1,0.6-0.2,0.8C160.1,56.8,160,56.6,160.4,56.3z"/>
	<path class="st6" d="M154.3,79.6c0,0.3,0.2,0.7-0.3,0.8C154,80.1,154,79.9,154.3,79.6z"/>
	<path class="st6" d="M170.2,80.4c-0.1-0.3,0-0.6,0.2-0.8C170.4,79.9,170.6,80.4,170.2,80.4z"/>
	<path class="st6" d="M150.4,70.3c-0.1-0.3-0.1-0.6,0.3-0.8C150.6,69.8,150.8,70.1,150.4,70.3z"/>
	<path class="st6" d="M150.1,71.3c0-0.3-0.1-0.6,0.3-0.8C150.4,70.8,150.5,71.2,150.1,71.3z"/>
	<path class="st6" d="M169.3,83.9c0-0.3-0.2-0.7,0.3-0.8C169.6,83.4,169.6,83.6,169.3,83.9z"/>
	<path class="st6" d="M169,84.9c0-0.3-0.2-0.7,0.2-0.8C169.4,84.4,169.3,84.8,169,84.9z"/>
	<path class="st6" d="M163.2,45.7c0,0.3,0.2,0.7-0.3,0.8C162.8,46.2,162.9,45.8,163.2,45.7z"/>
	<path class="st6" d="M168.5,87.3c0-0.3-0.2-0.7,0.2-0.8C168.8,86.8,168.7,87.1,168.5,87.3z"/>
	<path class="st6" d="M154.8,77.4c0,0.3,0.2,0.7-0.2,0.8C154.5,78.1,154.6,77.6,154.8,77.4z"/>
	<path class="st6" d="M168.2,88.4c0-0.3-0.2-0.7,0.3-0.8C168.6,87.9,168.5,88.1,168.2,88.4z"/>
	<path class="st6" d="M158.7,62.7c0,0.3,0.2,0.7-0.3,0.8C158.4,63.3,158.4,62.8,158.7,62.7z"/>
	<path class="st7" d="M83,37.3c0.2-0.4,0.5-0.2,0.8-0.2C83.6,37.3,83.3,37.4,83,37.3z"/>
	<path class="st6" d="M170.7,78.3c-0.1-0.3-0.1-0.6,0.3-0.8C171,77.8,171.1,78.1,170.7,78.3z"/>
	<path class="st6" d="M161.8,51.1c0,0.3,0.2,0.7-0.2,0.8C161.5,51.6,161.5,51.3,161.8,51.1z"/>
	<path class="st6" d="M152.6,61.8c-0.1-0.3-0.1-0.6,0.3-0.7C152.9,61.4,153,61.8,152.6,61.8z"/>
	<path class="st6" d="M160.1,57.4c0.1,0.3,0.1,0.6-0.3,0.8C159.8,57.9,159.7,57.7,160.1,57.4z"/>
	<path class="st6" d="M155.9,73.3c0.1,0.3,0.1,0.6-0.2,0.8C155.7,73.8,155.5,73.6,155.9,73.3z"/>
	<path class="st6" d="M152.3,62.9c0-0.3-0.1-0.6,0.3-0.8C152.6,62.4,152.6,62.8,152.3,62.9z"/>
	<path class="st6" d="M156.2,72.3c0,0.3,0.1,0.6-0.3,0.8C155.9,72.8,156,72.4,156.2,72.3z"/>
	<path class="st6" d="M160.7,55.3c0,0.3,0.1,0.6-0.3,0.8C160.3,55.8,160.4,55.4,160.7,55.3z"/>
	<path class="st6" d="M151.2,67.2c0-0.3-0.1-0.6,0.3-0.8C151.6,66.7,151.5,66.9,151.2,67.2z"/>
	<path class="st7" d="M81.6,37.6c0.2-0.4,0.5-0.3,0.8-0.2C82.2,37.6,81.9,37.7,81.6,37.6z"/>
	<path class="st6" d="M155.7,74.4c0.1,0.3,0.1,0.6-0.3,0.8C155.3,74.9,155.4,74.7,155.7,74.4z"/>
	<path class="st6" d="M112.5,46.4c0.1,0.3,0.1,0.6-0.3,0.7C112.2,46.9,112.1,46.7,112.5,46.4z"/>
	<path class="st6" d="M157.6,66.9c0,0.3,0.2,0.6-0.2,0.7C157.3,67.4,157.4,67.2,157.6,66.9z"/>
	<path class="st6" d="M151,68.2c0-0.3-0.2-0.6,0.2-0.7C151.3,67.7,151.2,67.9,151,68.2z"/>
	<path class="st6" d="M150.6,69.2c-0.1-0.3-0.1-0.6,0.3-0.7C150.9,68.8,151,69.1,150.6,69.2z"/>
	<path class="st6" d="M153.2,83.9c0,0.3,0.2,0.6-0.2,0.7C152.9,84.4,153,84.1,153.2,83.9z"/>
	<path class="st6" d="M156.7,70.3c0.1,0.2,0,0.6-0.2,0.7l0,0C156.5,70.7,156.4,70.3,156.7,70.3z"/>
	<path class="st6" d="M156.5,71.3c0.1,0.3,0,0.6-0.2,0.7l0,0C156.2,71.8,156.1,71.4,156.5,71.3z"/>
	<path class="st6" d="M168.8,86.1c0-0.3-0.2-0.6,0.2-0.7C169.1,85.6,169,85.9,168.8,86.1z"/>
	<path class="st6" d="M154.5,78.8c0,0.3,0.2,0.6-0.2,0.7C154.2,79.1,154.3,78.9,154.5,78.8z"/>
	<path class="st6" d="M171.3,76.2c-0.1-0.2-0.1-0.5,0.1-0.6l0.1-0.1C171.6,75.8,171.5,76.1,171.3,76.2z"/>
	<path class="st6" d="M171,77.3c-0.1-0.2,0-0.5,0.2-0.7l0,0C171.3,76.8,171.4,77.1,171,77.3z"/>
	<path class="st6" d="M152.3,87.3c0.1,0.2,0,0.6-0.2,0.7l0,0C152,87.6,151.9,87.4,152.3,87.3z"/>
	<path class="st6" d="M49.6,35.8c-0.3,0-0.6-0.2-0.7-0.5C49.3,35.3,49.5,35.4,49.6,35.8z"/>
	<path class="st6" d="M152,88.3c0.1,0.3,0,0.6-0.2,0.7l0,0C151.8,88.8,151.6,88.4,152,88.3z"/>
	<path class="st6" d="M168,89.3c0-0.3-0.2-0.6,0.2-0.7C168.3,88.9,168.2,89.1,168,89.3z"/>
	<path class="st6" d="M127.9,47.2c-0.1-0.2,0-0.5,0.2-0.7l0,0C128.1,46.8,128.3,47.1,127.9,47.2z"/>
	<path class="st6" d="M162.1,50.1c0,0.3,0.2,0.6-0.2,0.7C161.7,50.4,161.8,50.2,162.1,50.1z"/>
	<path class="st6" d="M34.8,79.1c0.2-0.4,0.5-0.2,0.8-0.2C35.4,79.3,35.1,79.1,34.8,79.1z"/>
	<path class="st6" d="M161.2,53.3c0.1,0.3,0,0.6-0.2,0.7l0,0C160.9,53.7,160.8,53.3,161.2,53.3z"/>
	<path class="st6" d="M159.8,58.4c0.1,0.2,0,0.5-0.2,0.7l0,0C159.6,58.9,159.5,58.7,159.8,58.4z"/>
	<path class="st6" d="M159.6,59.6c0.1,0.2,0.1,0.5-0.1,0.6l-0.1,0.1C159.2,60.1,159.3,59.8,159.6,59.6z"/>
	<path class="st6" d="M159,61.8c0,0.3,0.2,0.6-0.2,0.7C158.6,62.2,158.7,61.8,159,61.8z"/>
	<path class="st6" d="M152.1,63.9c0-0.3-0.2-0.6,0.2-0.7C152.4,63.4,152.4,63.8,152.1,63.9z"/>
	<path class="st6" d="M151.8,64.9c-0.1-0.3,0-0.5,0.2-0.7C152.1,64.6,152.1,64.8,151.8,64.9L151.8,64.9z"/>
	<path class="st6" d="M155.4,75.4c0.1,0.2,0,0.5-0.2,0.7l0,0C155.1,75.9,155,75.7,155.4,75.4z"/>
	<path class="st6" d="M112.8,45.4c0.1,0.2,0,0.5-0.2,0.7l0,0C112.4,45.8,112.5,45.6,112.8,45.4z"/>
	<path class="st6" d="M127.6,48.3c-0.1-0.2,0-0.6,0.2-0.7l0,0C127.9,47.8,127.8,48.1,127.6,48.3z"/>
	<path class="st6" d="M157.9,66.1c0,0.2,0.1,0.5-0.2,0.6C157.6,66.4,157.7,66.2,157.9,66.1L157.9,66.1z"/>
	<path class="st6" d="M153.5,83.1c0,0.2,0.1,0.5-0.2,0.6C153.1,83.4,153.2,83.1,153.5,83.1C153.4,83.1,153.4,83.1,153.5,83.1z"/>
	<path class="st6" d="M128.1,46.3c-0.1-0.2-0.1-0.4,0.1-0.5h0.1C128.4,45.8,128.4,46.2,128.1,46.3z"/>
	<path class="st6" d="M39.8,77.8c0.1-0.2,0.3-0.3,0.5-0.3h0.1C40.2,77.9,40,77.8,39.8,77.8z"/>
	<path class="st7" d="M84.3,37.1c0.1-0.4,0.5-0.2,0.7-0.2C84.8,37.1,84.6,37.1,84.3,37.1z"/>
	<path class="st6" d="M39,78.1c0.1-0.3,0.3-0.4,0.6-0.2C39.4,78.1,39.2,78.1,39,78.1z"/>
	<path class="st6" d="M38.2,78.3c0.1-0.2,0.3-0.3,0.5-0.3h0.1C38.6,78.4,38.4,78.3,38.2,78.3z"/>
	<path class="st6" d="M160.9,54.3c0.1,0.2,0.1,0.4-0.1,0.5h-0.1C160.6,54.7,160.6,54.4,160.9,54.3z"/>
	<path class="st6" d="M149.8,72.3c0-0.3-0.1-0.6,0.2-0.7C150.1,71.8,150.2,72.2,149.8,72.3z"/>
	<path class="st6" d="M162.3,49.1c0,0.2,0.1,0.5-0.2,0.6C162,49.4,162.1,49.3,162.3,49.1L162.3,49.1z"/>
	<path class="st6" d="M43.5,76.1c0.1-0.3,0.3-0.3,0.5-0.3C43.9,76.1,43.7,76.1,43.5,76.1z"/>
	<path class="st8" d="M67.3,41.3L67.3,41.3c0,0.2-0.1,0.3-0.3,0.3c-0.1,0-0.2,0-0.2-0.1s0.1-0.1,0.2-0.1h0.3V41.3z"/>
	<path class="st6" d="M46.1,33.8c-0.2,0-0.5,0-0.5-0.3C45.8,33.3,46,33.4,46.1,33.8z"/>
	<path class="st6" d="M278.2,57.2c0-0.3,0.2-0.3,0.4-0.2C278.6,57.1,278.4,57.2,278.2,57.2z"/>
	<path class="st6" d="M277.9,57.4c0-0.2,0.1-0.3,0.3-0.3C278.2,57.3,278.1,57.4,277.9,57.4L277.9,57.4z"/>
	<path class="st6" d="M173,76.3c0.3,0,0.3,0.2,0.3,0.3C173.1,76.7,173.1,76.4,173,76.3z"/>
	<path class="st6" d="M172.2,75.4c0.2,0,0.2,0.1,0.3,0.3C172.3,75.8,172.3,75.7,172.2,75.4z"/>
	<path class="st6" d="M172.5,75.8c0.2,0,0.2,0.1,0.3,0.3C172.6,76.1,172.5,75.9,172.5,75.8z"/>
	<path class="st6" d="M172.8,76.1c0.2,0,0.2,0.1,0.3,0.3C172.9,76.3,172.8,76.2,172.8,76.1z"/>
	<path class="st6" d="M278.8,56.8c0-0.1,0.1-0.2,0.2-0.2h0.1C279,56.8,278.9,56.8,278.8,56.8z"/>
	<path class="st6" d="M276.3,59.1c0-0.2,0.1-0.3,0.2-0.3C276.6,58.9,276.5,58.9,276.3,59.1z"/>
	<path class="st6" d="M128.1,48.6c0,0.2,0,0.3-0.2,0.3C127.9,48.7,127.9,48.6,128.1,48.6z"/>
	<path class="st6" d="M180.2,46.9c0,0.2-0.1,0.3-0.3,0.3C179.9,47.1,180.1,46.9,180.2,46.9z"/>
	<path class="st6" d="M178.6,54.8c0,0.3-0.2,0.4-0.4,0.4C178.2,54.9,178.3,54.8,178.6,54.8z"/>
</g>
</svg>
