<?xml version="1.0" encoding="utf-8"?>
<!-- Generator: Adobe Illustrator 22.1.0, SVG Export Plug-In . SVG Version: 6.00 Build 0)  -->
<svg version="1.1" id="Layer_1" xmlns="http://www.w3.org/2000/svg" xmlns:xlink="http://www.w3.org/1999/xlink" x="0px" y="0px"
	 viewBox="0 0 320.3 220.3" style="enable-background:new 0 0 320.3 220.3;" xml:space="preserve">
<style type="text/css">
	.st0{fill:none;stroke:#FFFFFF;stroke-width:0.25;stroke-miterlimit:10;}
	.st1{fill:#FBFBFB;}
	.st2{fill:#E21837;}
	.st3{fill:#025EAA;}
	.st4{fill:#E21937;}
	.st5{fill:#015DAA;}
	.st6{fill:#0560AB;}
	.st7{fill:#005DA9;}
	.st8{fill:#FCFBFB;}
	.st9{fill:#FCFCFC;}
	.st10{fill:#F8F8F8;}
</style>
<title>logo-canpar</title>
<rect x="0.1" y="0.1" class="st0" width="320" height="220"/>
<g>
	<path class="st1" d="M294.3,126.3c0.5,0,0.9,0,1.2,0c-0.7,3.8-1.4,7.6-2.2,11.4c0,0.1-0.1,0.4-0.1,0.4c-1.1,0.2-0.5,1.1-1,1.7
		c1-0.2,0.9,0.3,0.8,0.9c-0.7,3.4-1.3,6.8-1.9,10.2c-0.1,0.7-0.4,0.9-1.1,0.9c-14.6,0-29.2,0-43.8,0c-0.8,0-1.1-0.2-1.1-1
		c0-0.3,0-0.6-0.1-0.8c-0.1-0.2,0.1-0.6-0.3-0.6c-0.3,0-0.7-0.1-0.9,0.3c0,0.1-0.1,0.1-0.1,0.2c-0.4,1.5-1.3,1.9-2.8,1.8
		c-4-0.1-8-0.1-12,0c-1.7,0-3.4,0.4-5.2,0.3c-1.2-0.1-2.4-0.1-3.6-0.5c-0.6-0.2-1,0.2-1.5,0.2c-0.8,0-1.5,0-2.3,0
		c-11.6,0-23.3,0-34.9,0c-1,0-1,0-0.9-1c0-0.1,0-0.2,0-0.3c0,0,0-0.1-0.1-0.2c-1.6,0.7-3.3,1.2-5.1,1.5c-4.3,0.6-8.5,0.4-12.5-1.9
		c-0.4-0.2-0.5-0.2-0.6,0.3c-0.3,1.6-0.3,1.6-1.9,1.6c-8.4,0-16.8,0-25.2,0c-0.7,0-0.9-0.2-0.7-0.9c0.1-0.4,0.2-0.8,0.1-1.4
		c-0.3,0.4-0.6,0.7-0.7,1.1c-0.4,1-1,1.1-2,1.1c-3.3-0.1-6.6,0-10,0c-23,0-45.9,0-68.9,0c-11,0-22.1,0-33.1,0
		c-0.8,0-0.9-0.2-0.9-0.9c0-7.9,0-15.9,0-23.8c0-0.6,0.1-0.8,0.8-0.8c6.3,0,12.5,0,18.8-0.1c-0.9-0.3-1.7-0.5-2.6-0.8
		c-5.4-1.9-10.1-4.8-13.4-9.5c-4.1-5.6-5.1-11.9-3.6-18.6c1.5-6.9,5.3-12.4,10.6-17c6.6-5.8,14.4-9.3,23-10.8
		c8.8-1.5,17.4-0.5,25.9,2c0.2,0.1,0.4,0.1,0.6,0.2c0.4,0.1,0.5,0.2,0.4,0.6c-0.7,4.1-1.4,8.2-2.1,12.3c-0.1,0.9-0.3,1.7-0.4,2.8
		c0.6-0.4,1-0.8,1.5-1.1c4.8-3.6,10.3-5.9,16.2-7c6.4-1.2,12.7-1.2,19,0.5c5,1.4,9.5,3.7,12.9,7.7c0.1,0.2,0.3,0.4,0.4,0.5
		c0.8,1.1,0.8,1.1,1.7,0.1c3.4-3.9,7.7-6.3,12.6-7.9c8.3-2.6,16.5-2.5,24.7,0.5c0.5,0.2,0.6,0.1,0.7-0.4c0.4-1.3,0.4-1.3,1.7-1.3
		c14.5,0,29.1,0,43.6,0c1,0,1,0,0.7,1c-0.5,1.5-0.9,2.9-1.4,4.6c0.3-0.2,0.5-0.2,0.7-0.4c7.7-4.7,16-6.5,24.9-5.6
		c3.7,0.4,7.2,1.2,10.7,2.3c0.4,0.1,0.6,0.2,0.5,0.7c-0.3,1.8-0.6,3.7-0.9,5.6c0,0.2,0,0.3-0.1,0.6c1-0.8,1.9-1.5,2.8-2.2
		c5.3-3.7,11.2-5.9,17.5-6.8c6.2-0.9,12.3-0.6,18.3,1.3c4.5,1.4,8.4,3.7,11.5,7.4c4.1,5,5.1,10.7,3.8,16.9c-1,4.7-3.3,8.7-6.5,12.2
		c-0.4,0.4-0.4,0.6,0,1c2.1,2,2.2,5.3,0.2,7.7C294.8,125.7,294.6,125.9,294.3,126.3z M129,110.1c0,0.1-0.1,0.1-0.1,0.2
		c-0.3,0.3-0.5,0.6-0.6,0.9c-0.2,0.1-0.3,0.3-0.3,0.5c-0.5,0.7-1,1.4-1.4,2.1c-0.1,0.2-0.2,0.3-0.3,0.5c0,0-0.1,0.1-0.1,0.1
		c0,0.1-0.1,0.1-0.1,0.2c-0.6,0.8-1.2,1.7-1.7,2.5c-0.2,0.2-0.4,0.4-0.4,0.7l0,0c-0.3,0.3-0.5,0.6-0.6,0.9c-0.4,0.6-0.9,1.1-1.2,1.8
		c0,0.1-0.1,0.1-0.1,0.2c-0.2,0.2-0.4,0.4,0.1,0.5c0.2,0.2,0.4,0.3,0.7,0.3c0.2,0.1,0.4,0.2,0.6,0.3c0,0,0.1,0,0.1,0
		c0,0,0.1,0.1,0.1,0.1c0.1,0.1,0.2,0.1,0.3,0.1c0.1,0.1,0.3,0.2,0.4,0.2c0.1,0.2,0.3,0.2,0.5,0.2c0.1,0.1,0.2,0.1,0.3,0.1
		c0.2,0.1,0.4,0.2,0.6,0.2c0.3,0.2,0.7,0.3,1,0.3c0.1,0.1,0.2,0.1,0.4,0.1c0.5,0.2,1.1,0.4,1.7,0.4c0,0,0.1,0,0.1,0
		c0.1,0,0.1,0,0.2,0c0.1,0.1,0.2,0.1,0.4,0.1c0.3,0.1,0.6,0.2,0.9,0.2c0.1,0.1,0.2,0.1,0.3,0.1c0.1,0,0.2,0,0.3,0
		c0.3,0.1,0.6,0.2,0.9,0.2l0,0c0,0,0.1,0,0.1,0c0.1,0,0.2,0.1,0.4,0.1c0.7,0.1,1.3,0.3,2,0.2c0.1,0.1,0.2,0.1,0.3,0.1
		c0.4,0,0.8,0.1,1.2,0.1l0.1,0c0,0,0.1,0,0.1,0c0.4,0,0.9,0.1,1.3,0.1c0.3,0.1,0.6,0.1,0.9,0.1c1.6,0.1,3.1,0.1,4.7,0
		c0.2,0,0.3,0,0.5-0.1c0.3,0,0.5,0,0.8-0.1l0.1,0c0,0,0.1,0,0.1,0c0.4,0,0.7-0.1,1.1-0.1c0.2,0,0.4,0,0.5-0.1c0.2,0,0.4,0,0.7-0.1
		c0.3,0,0.5-0.1,0.8-0.1c0.3,0,0.6-0.1,0.8-0.2c0.1,0.1,0.2,0,0.3,0c0.4,0,0.7-0.1,1-0.2c0.1,0,0.1-0.1,0.2-0.1
		c0.4,0,0.8-0.1,1.2-0.3c0.1,0,0.2-0.1,0.3-0.1c0.1,0,0.2-0.1,0.3-0.1c0.2-0.1,0.3-0.1,0.5-0.2c0.4-0.1,0.7-0.2,1.1-0.4
		c0.3,0,0.6-0.1,0.8-0.3c0.3,0,0.5-0.1,0.7-0.3c0.4-0.1,0.7-0.2,1-0.5c1-0.4,1.9-0.9,2.7-1.5c0.5-0.2,0.9-0.5,1.2-0.9
		c0.4-0.2,0.8-0.5,1.1-0.9c0.1-0.1,0.1-0.1,0.2-0.2c0.3-0.2,0.5-0.4,0.7-0.7c0.2-0.1,0.4-0.3,0.5-0.5c0.5-0.4,0.9-1,1.2-1.5
		c0.2-0.1,0.2-0.3,0.3-0.5c0,0,0.1,0,0-0.1c0.2-0.1,0.3-0.3,0.3-0.5c0-0.1,0.1-0.2,0.1-0.3c0-0.1,0.1-0.1,0.1-0.2
		c0.2-0.3,0.4-0.7,0.5-1.1c0.2-0.3,0.3-0.6,0.4-1c0.2-0.4,0.3-0.8,0.3-1.2c0,0,0-0.1,0-0.1c0.4-1.5,0.5-3,0-4.6
		c0-0.3-0.1-0.6-0.3-0.8c-0.3-0.9-0.7-1.6-1.4-2.2c-0.1-0.2-0.2-0.3-0.3-0.3c-0.2-0.3-0.5-0.5-0.8-0.7c0,0-0.1-0.1-0.1-0.1
		c0,0,0-0.1-0.1-0.1c-0.1-0.1-0.2-0.2-0.4-0.3c-0.3-0.3-0.6-0.5-1-0.6c-0.1-0.1-0.2-0.1-0.3-0.2l0,0c-0.1,0-0.1-0.1-0.2-0.1
		c-0.5-0.3-0.9-0.5-1.5-0.6c-0.4-0.3-0.9-0.4-1.4-0.5c0,0,0,0,0,0c-0.1,0-0.1,0-0.2-0.1c-0.1,0-0.1,0-0.2,0c-0.1,0-0.2-0.1-0.2-0.1
		c-1-0.3-2-0.5-3-0.7c-0.2,0-0.3,0-0.5-0.1c0,0-0.1,0-0.1,0c-0.1-0.1-0.3-0.1-0.5-0.1c-0.3,0-0.5-0.1-0.8-0.1c0,0-0.1,0-0.1,0
		c-0.1,0-0.2,0-0.3-0.1c-0.1,0-0.2-0.1-0.3-0.1c-0.3,0-0.5-0.1-0.8-0.1c0,0-0.1,0-0.1,0c-0.9-0.2-1.8-0.4-2.7-0.6
		c-0.1,0-0.1-0.1-0.2-0.1c-0.1-0.1-0.3-0.2-0.4-0.3c-0.1-0.1-0.1-0.2-0.2-0.3l0,0c0-0.2-0.1-0.3-0.1-0.5c0-0.1,0-0.2,0-0.3
		c0,0,0-0.1,0-0.1c0,0,0-0.1,0-0.1c0.1-0.1,0.1-0.2,0.2-0.3c0.5-0.7,1.3-1,2.1-1.4c0.2,0,0.4,0,0.6-0.1c0.2,0,0.4,0,0.6-0.1l0.1,0
		l0.1,0c0.5,0,0.9,0,1.4,0l0.1,0c0,0,0.1,0,0.1,0c0.7,0.1,1.5,0.1,2.2,0.2c0.1,0,0.1,0,0.2,0.1c0.2,0,0.4,0.1,0.6,0.1
		c0.1,0,0.2,0.1,0.3,0.1c0.3,0.1,0.5,0.2,0.8,0.2c0.1,0,0.2,0.1,0.2,0.1c0.1,0,0.1,0,0.2,0c0.1,0.1,0.2,0.1,0.4,0.1
		c0.3,0.2,0.5,0.3,0.8,0.3c0.1,0,0.2,0.1,0.2,0.1c0.1,0.1,0.3,0.2,0.4,0.2c0.1,0,0.1,0.1,0.2,0.1c0.6,0.3,1.3,0.6,1.9,1
		c0.1,0,0.2,0.1,0.2,0.1c0,0.1,0.2,0.1,0.3,0.2c0.1,0.1,0.2,0.2,0.3,0c0,0,0.1-0.1,0.1-0.1c0.1-0.1,0.2-0.2,0.3-0.4
		c0.2-0.3,0.4-0.7,0.7-1c0.2-0.1,0.3-0.3,0.3-0.5l0,0c0.2-0.1,0.3-0.3,0.3-0.5c0.2-0.1,0.3-0.3,0.3-0.5c0-0.1,0.1-0.1,0.1-0.2
		c0,0,0,0,0,0c0.1-0.2,0.2-0.3,0.3-0.5l0,0c0.1-0.1,0.1-0.2,0.2-0.3c0.3-0.3,0.5-0.7,0.7-1.1c0,0,0.1-0.1,0.1-0.1
		c0.1-0.2,0.2-0.4,0.4-0.6c0.2-0.1,0.3-0.3,0.3-0.5c0.3-0.3,0.6-0.7,0.8-1.1c0.1-0.1,0.1-0.2,0.2-0.2c0.1-0.1,0.1-0.2,0.2-0.3
		c0.1-0.1,0.1-0.2,0.2-0.3c0,0,0.1,0,0-0.1c0-0.1,0.1-0.2,0.1-0.2c0.2-0.2,0.4-0.5,0.5-0.7c0.2-0.3,0.3-0.5,0.5-0.8
		c0,0,0-0.1,0.1-0.1c0.2-0.2,0.5-0.4,0-0.6c-0.2-0.1-0.5-0.3-0.7-0.4c-0.1-0.1-0.2-0.2-0.3-0.2c-0.8-0.5-1.7-0.8-2.6-1.1
		c-0.1,0-0.1-0.1-0.2-0.1c-0.1,0-0.2,0-0.3-0.1c-0.1-0.2-0.3-0.2-0.5-0.2c-0.3-0.2-0.7-0.3-1.1-0.3c-0.1-0.1-0.2-0.1-0.3-0.1
		c-0.1,0-0.2,0-0.2,0c-0.1,0-0.1-0.1-0.2-0.1c-0.3-0.1-0.7-0.2-1-0.2c-0.1-0.1-0.3-0.1-0.5-0.1c-0.1,0-0.2,0-0.4,0
		c-0.3-0.2-0.7-0.2-1-0.2c-0.2,0-0.4,0-0.6-0.1c-0.3-0.1-0.6-0.2-0.9-0.1c-0.5,0-1-0.1-1.5-0.1c0,0-0.1,0-0.1,0c-0.4,0-0.8,0-1.2,0
		c-0.1,0-0.2,0-0.3,0c-1.1-0.1-2.1,0-3.2,0c0,0-0.1,0-0.1,0c-0.9,0-1.8,0.1-2.7,0.3c-0.4,0-0.9,0.1-1.3,0.3
		c-1.1,0.1-2.1,0.4-3.1,0.7c-0.1,0-0.1,0.1-0.2,0.1c0,0-0.1,0-0.1,0c-0.1,0-0.2,0-0.3,0.1l0,0c-0.2,0-0.4,0-0.5,0.2
		c-0.5,0.1-1,0.3-1.5,0.5c-0.1,0-0.2,0.1-0.2,0.1c-0.1,0-0.1,0-0.2,0.1c-0.1,0-0.1,0.1-0.2,0.1l0,0c-0.3,0-0.5,0.1-0.7,0.3
		c-1.7,0.6-3.2,1.5-4.6,2.6c-0.1,0.1-0.2,0.1-0.3,0.2c-0.1,0-0.1,0.1-0.2,0.1c-0.1,0.1-0.1,0.1-0.2,0.2l0,0
		c-0.2,0.1-0.3,0.2-0.4,0.3l0,0c-0.2,0-0.3,0.2-0.4,0.3c-0.1,0.1-0.2,0.1-0.2,0.2c-0.3,0.2-0.6,0.4-0.8,0.7
		c-0.1,0.1-0.2,0.1-0.3,0.3c-0.3,0.2-0.6,0.5-0.7,0.8c-0.5,0.5-0.9,1-1.3,1.7c-0.1,0.1-0.1,0.2-0.2,0.3c0,0-0.1,0.1,0,0.1
		c-0.2,0.2-0.4,0.5-0.5,0.8c-0.4,0.6-0.7,1.3-0.9,2c0,0.1-0.1,0.2-0.1,0.2c-0.1,0.2-0.2,0.5-0.2,0.7c0,0,0,0,0,0
		c0,0.1-0.1,0.1-0.1,0.2c0,0.1,0,0.1,0,0.2c-0.1,0.4-0.2,0.7-0.2,1.1c-0.1,0.2-0.1,0.4-0.1,0.6c0,0,0,0.1,0,0.1c0,0-0.1,0-0.1,0
		c-0.7-6.3-4.2-10.5-9.6-13.3c-3.4-1.8-7.1-2.7-11-3c-8.2-0.7-16,0.7-23.2,4.9c-7.2,4.2-12.1,10.1-13,18.7
		c-0.4,4.3,0.7,8.2,3.4,11.5c2.6,3.1,6,4.9,9.8,6.1c4.9,1.5,9.9,1.8,15,1.4c6-0.5,11.6-2.2,16.8-5.3c5-3.1,8.8-7.2,10.7-12.9
		c0.7-2,1.1-4.1,1.2-6.2c0.1,0.3,0.1,0.5,0.2,0.8c0,0.1,0.1,0.1,0.1,0.2c0,0.1,0.1,0.2,0.1,0.4c0,0.2,0.1,0.4,0.2,0.5
		c0,0,0,0.1,0,0.1c0,0.1,0.1,0.1,0.1,0.2c0,0.1,0,0.2,0.1,0.3c0,0.2,0.1,0.3,0.3,0.5c0.1,0.2,0.2,0.4,0.4,0.6
		c0.1,0.2,0.3,0.4,0.5,0.6l0,0c0.1,0.2,0.3,0.4,0.6,0.5c0.1,0.1,0.3,0.2,0.4,0.3c0.3,0.3,0.6,0.5,0.9,0.6l0,0c0.1,0,0.1,0.1,0.2,0.1
		c0.6,0.4,1.2,0.7,1.8,0.9c0.1,0,0.2,0.1,0.3,0.1l0,0c0.1,0,0.1,0.1,0.2,0.1c0.9,0.4,1.8,0.7,2.8,0.8c0.1,0,0.2,0.1,0.3,0.1
		c0.1,0,0.3,0.1,0.4,0.1c0.1,0,0.2,0,0.3,0.1c0.2,0,0.4,0.2,0.7,0.1c0.1,0,0.2,0.1,0.3,0.1c0.2,0,0.3,0,0.5,0
		c0.1,0.1,0.2,0.1,0.4,0.1c0.3,0,0.5,0.2,0.8,0.1c0.1,0,0.2,0.1,0.3,0.1c0.8,0.2,1.6,0.3,2.4,0.3c0.2,0.1,0.4,0.1,0.7,0.1
		c0.1,0,0.1,0,0.2,0c0.1,0.1,0.2,0.1,0.4,0.1l0.1,0l0.1,0c0.1,0.1,0.2,0.1,0.3,0.1c0.5,0.2,1,0.5,1.2,1.1c0,0.2,0,0.3,0,0.5
		c-0.1,0.8-0.5,1.3-1.1,1.8c-0.3,0.2-0.6,0.3-1,0.5c-0.2,0.1-0.5,0.1-0.7,0.2c-0.2,0-0.3,0.1-0.5,0.1c-0.1,0-0.1,0-0.2,0
		c-0.1,0-0.2,0-0.3,0.1c-1.2,0.1-2.5,0-3.7,0c-0.1-0.1-0.3-0.1-0.4-0.1c-0.1,0-0.2,0-0.3,0c-0.1,0-0.2-0.1-0.3-0.1
		c-0.8-0.2-1.5-0.4-2.3-0.6c0,0-0.1,0-0.1,0c-0.6-0.3-1.2-0.5-1.8-0.8c-0.4-0.2-0.7-0.4-1.1-0.6c-0.2-0.1-0.4-0.2-0.6-0.3
		c-0.1-0.1-0.2-0.1-0.3-0.2c-0.3-0.2-0.6-0.4-0.9-0.6c-0.1-0.1-0.2-0.2-0.3-0.2c0,0-0.1,0-0.1-0.1c-0.1,0-0.1-0.1-0.2-0.1
		c-0.1-0.2-0.3-0.3-0.4-0.3c-0.1,0-0.1-0.1-0.2-0.1c-0.3,0-0.3,0.3-0.5,0.4C129.1,109.9,129,110,129,110.1L129,110.1z M233.4,145.7
		c0,0,0.1,0.1,0.1,0.1c-0.5,0.8-1,1.6-1.5,2.5c2.3,0,4.4-0.1,6.6,0c1.6,0.1,2.5-0.3,2.9-1.8c0.1-0.5,0.4-0.5,0.9-0.5
		c1.3,0,2.5,0,3.8,0c1.7,0,1.7,0,2,1.7c0.1,0.5,0.2,0.7,0.7,0.7c7.2,0,14.5,0,21.7,0c0.5,0,0.7-0.2,0.8-0.7c0.3-1.6,0.6-3.1,0.9-4.7
		c0.1-0.5,0-0.7-0.5-0.6c-1.8,0-3.7,0-5.5,0c-0.6,0-0.7-0.2-0.6-0.7c0.7-3.8,1.4-7.6,2.2-11.3c0.1-0.5,0-0.7-0.5-0.7
		c-2.3,0-4.6,0-6.9,0c-0.5,0-0.7,0.2-0.8,0.7c-1,5.4-2,10.8-3.1,16.3c-0.1-0.3-0.2-0.5-0.2-0.7c-1.2-5.1-2.5-10.3-3.7-15.4
		c-0.2-0.7-0.4-0.9-1.1-0.9c-2.5,0.1-5,0-7.5,0c-0.5,0-0.8,0.1-1,0.6c-2.1,3.5-4.3,7.1-6.4,10.6c-0.4,0.6-0.7,1.2-1.1,1.8
		c-0.1-0.2,0-0.3,0-0.5c0.4-2.1-0.3-3.7-2.3-4.6c-0.7-0.3-1.4-0.6-2.1-0.7c-1-0.2-2-0.4-3.1-0.6c-0.3-0.1-0.7-0.2-0.8-0.6
		c0-0.4,0.3-0.7,0.6-0.9c0.6-0.3,1.3-0.3,1.9-0.3c1.2,0.1,2.3,0.4,3.2,1c0.5,0.3,0.8,0.2,1-0.3c0.7-1.2,1.5-2.4,2.3-3.5
		c0.4-0.5,0.3-0.8-0.3-1c-4.7-2-9.4-1.8-13.8,0.9c-1.7,1-2.9,2.6-3.4,4.6c-0.4,1.6,0.2,3,1.6,3.9c0.9,0.6,2,0.9,3,1.1
		c0.9,0.2,1.9,0.3,2.8,0.5c0.4,0.1,0.7,0.2,0.7,0.7c0,0.4-0.2,0.7-0.5,0.9c-0.5,0.3-1,0.4-1.6,0.4c-1.7,0.1-3.3-0.5-4.7-1.5
		c-0.6-0.4-0.8-0.3-1.1,0.2c-0.8,1.3-1.7,2.6-2.6,4c0-0.8,0.2-1.6,0.4-2.4c0.1-0.5,0-0.6-0.5-0.6c-1.8,0-3.6,0-5.3,0
		c-1.2,0-1.1,0-0.9-1.1c0.1-0.6,0.3-0.8,0.9-0.7c1.6,0.1,3.1,0,4.7,0c0.6,0,0.9-0.1,0.9-0.7c0.2-1.2,0.4-2.3,0.6-3.4
		c0.1-0.5,0-0.7-0.6-0.7c-1.6,0-3.3,0-4.9,0c-0.2,0-0.5,0.1-0.5-0.1c-0.1-0.5,0.1-1,0.2-1.5c0.1-0.3,0.4-0.2,0.7-0.2
		c1.9,0,3.8,0,5.6,0c0.4,0,0.6-0.1,0.7-0.6c0.2-1.3,0.5-2.6,0.8-4c0.1-0.5,0-0.6-0.5-0.6c-4.6,0-9.2,0-13.9,0
		c-0.5,0-0.7,0.2-0.7,0.6c-0.2,1-0.4,2.1-0.6,3.1c-0.9,4.8-1.8,9.6-2.8,14.4c-0.1,0.4,0,0.6,0.5,0.6c4.7,0,9.5,0,14.2,0
		c0.4,0,0.6,0,0.6-0.5c0-0.8,0.3-0.7,1-0.5C222.8,149.2,228.3,149.5,233.4,145.7z M72.6,93.3c0.1-0.2,0.1-0.3,0.1-0.4c1-6,2-12,3-18
		c0.1-0.6-0.1-0.7-0.6-0.9c-5.8-1.5-11.6-2.2-17.6-1.7c-9,0.7-17.1,3.7-24.1,9.2c-4.7,3.7-8.3,8.3-10.3,14.1c-3,8.6-0.5,17,6.7,22.5
		c5,3.8,10.7,5.3,16.9,5.8c3.6,0.2,7.2,0,10.7-0.3c2.7-0.3,5.4-0.6,8.1-1.3c0.5-0.1,0.8-0.4,0.9-0.9c0.6-2.7,1.3-5.4,1.9-8.1
		c0.8-3.3,1.5-6.6,2.3-9.9c-0.1,0-0.1,0-0.2,0c-0.2,0.1-0.4,0.2-0.6,0.4c-3.8,2.4-7.9,3.9-12.4,4.1c-3.3,0.1-6.4-0.5-9.1-2.6
		c-2.8-2.2-3.6-5.5-2.3-8.7c0.8-2,2.1-3.5,3.7-4.8c5.6-4.3,13.3-4.6,19.6-0.8C70.5,91.7,71.6,92.5,72.6,93.3z M274.3,81.9
		c-2,0-3.7,0.1-5.5,0.3c-5.9,0.8-11.5,2.6-16.4,6c-5.5,3.8-9.4,8.8-10.7,15.5c-1.1,6,0.4,11.2,5.1,15.3c2.5,2.1,5.3,3.5,8.4,4.4
		c4.7,1.4,9.5,1.6,14.3,1.2c5.5-0.5,10.8-1.9,15.7-4.6c5.2-2.9,9.3-6.9,11.6-12.6c1.6-3.9,2.1-7.9,0.9-12.1
		c-1.4-4.7-4.6-7.9-8.8-10.2C284.3,82.7,279.3,81.9,274.3,81.9z M138.8,148.3c2.6,0,5.1,0,7.6,0c0.4,0,0.3-0.3,0.4-0.5
		c0.3-1.8,0.7-3.5,1-5.3c0.1-0.5,0.3-0.7,0.8-0.7c1.2,0,2.4,0,3.6,0c0.6,0,0.7,0.2,0.6,0.7c-0.4,1.7-0.7,3.4-1,5.1
		c-0.1,0.5,0,0.7,0.5,0.6c1.9,0,3.9,0,5.8,0c1.5,0,1.5,0,1.7-1.4c0.4-1.9,0.7-3.8,1.1-5.7c0.2,0.1,0.2,0.2,0.3,0.3
		c0.4,3.2,2.4,5.1,5.3,6.2c3.3,1.2,6.6,1.2,10,0.4c4.1-1,7.4-3.1,9.2-7.1c0,0,0.1,0,0.2,0c-0.5,2.5-0.9,4.9-1.4,7.3
		c0.1,0,0.1,0,0.1,0c4.8,0,9.6,0,14.5,0c0.4,0,0.4-0.2,0.5-0.5c0.3-1.6,0.6-3.2,0.9-4.8c0.1-0.6-0.1-0.7-0.6-0.7c-1.8,0-3.6,0-5.3,0
		c-0.7,0-0.8-0.2-0.7-0.9c0.7-3.8,1.4-7.5,2.2-11.3c0.1-0.6,0-0.6-0.5-0.6c-2.3,0-4.6,0-6.9,0c-0.5,0-0.6,0.2-0.7,0.6
		c-0.4,2.4-0.9,4.9-1.4,7.3c-0.2-4.1-2.7-6.5-6.4-7.6c-5-1.4-9.8-0.6-14.2,2.3c-1.9,1.3-3.2,3-4.2,5.1c0.4-2.4,0.8-4.7,1.3-7
		c0.1-0.5,0-0.8-0.6-0.7c-2.2,0-4.3,0-6.5,0c-0.6,0-0.7,0.2-0.8,0.7c-0.3,1.7-0.6,3.3-0.9,5c-0.1,0.4-0.2,0.6-0.7,0.6
		c-1.2,0-2.4-0.1-3.7,0c-0.7,0-0.7-0.3-0.6-0.8c0.3-1.7,0.6-3.3,1-5c0.1-0.5,0-0.6-0.5-0.6c-4.9,0-9.8,0-14.7,0
		c-0.3,0-0.6,0.1-0.7,0.4c-1.5,3.5-3.5,6.8-4.7,10.5c0,0.1-0.1,0.2-0.2,0.3c0-0.2-0.1-0.3-0.1-0.4c-0.3-3.4-0.6-6.7-0.9-10.1
		c0-0.6-0.2-0.7-0.8-0.7c-1.6,0-3.3,0-4.9,0c-0.4,0-0.7,0.1-0.9,0.5c-0.9,1.8-1.8,3.6-2.7,5.4c-0.8,1.7-1.7,3.3-2.2,5.1
		c-0.3-0.1-0.2-0.3-0.2-0.5c-0.2-3.3-0.4-6.6-0.6-9.9c0-0.5-0.1-0.7-0.6-0.7c-2.4,0-4.8,0-7.2,0c-0.6,0-0.6,0.2-0.5,0.7
		c1.3,5.8,2.7,11.6,4,17.5c0.1,0.4,0.2,0.6,0.6,0.6c2,0,4,0,6,0c0.3,0,0.5,0,0.6-0.3c1.4-3.1,3.3-6,4.3-9.4c0-0.2,0-0.4,0.3-0.4
		c0,0.2,0.1,0.3,0.1,0.5c0.2,3,0.4,5.9,0.5,8.9c0,0.6,0.2,0.8,0.8,0.7c1.9,0,3.8,0,5.7,0c0.5,0,0.8-0.2,1.1-0.6
		c3.2-5.2,6.3-10.3,9.5-15.5c0.2-0.3,0.3-0.6,0.7-0.8C140.9,137.1,139.8,142.7,138.8,148.3z M241.9,99.4c0.1-0.2,0.1-0.3,0.1-0.4
		c0.8-5,1.6-9.9,2.4-14.9c0.1-0.5-0.1-0.6-0.5-0.7c-2.5-0.7-5.1-1.1-7.7-1.4c-8.7-0.8-16.7,1.2-23.8,6.2c-5,3.5-8.7,8-10.4,13.9
		c-1.5,5.6-0.8,10.8,3.1,15.3c3.8,4.5,9,6.4,14.6,7.1c2.9,0.3,5.7,0.2,8.6,0c2.6-0.2,5.2-0.5,7.8-1.2c0.5-0.1,0.7-0.3,0.9-0.9
		c0.8-3.5,1.6-7,2.4-10.4c0.3-1.4,0.6-2.9,1-4.4c-0.4,0.3-0.7,0.4-1,0.6c-3.6,2.3-7.5,3.6-11.9,3.1c-1.7-0.2-3.3-0.8-4.7-1.8
		c-3.1-2.3-3.5-6.2-1-9.6c3.2-4.2,9.4-5.9,14.6-4C238.5,96.8,240.2,97.9,241.9,99.4z M167.2,124.1c0.3,0,0.5,0,0.7,0
		c5.7,0,11.4,0,17,0c0.6,0,0.8-0.2,1-0.7c2.7-9,5.5-18.1,8.2-27.1c0.2-0.5,0.4-0.7,0.9-0.6c2.9,0.1,5.8,0.2,8.7,0.4
		c0.4,0,0.7,0,0.8-0.5c1.2-4.1,2.5-8.2,3.8-12.4c0.2-0.6,0-0.6-0.5-0.6c-12.5,0-25.1,0-37.6,0c-0.5,0-0.7,0.1-0.8,0.6
		c-1.2,4.1-2.4,8.1-3.7,12.2c-0.2,0.6-0.1,0.7,0.5,0.7c2.9-0.1,5.9-0.2,8.8-0.4c0.6,0,0.7,0.1,0.5,0.7c-1.6,5.2-3.2,10.4-4.8,15.6
		C169.7,116,168.5,120,167.2,124.1z M106.9,134.8c-0.3-1.4-0.7-2.8-0.9-4.1c-0.1-0.7-0.4-1-1.2-1c-26.8,0-53.5,0-80.3,0
		c-0.1,0-0.2,0-0.3,0c-0.5-0.1-0.6,0.1-0.6,0.6c0,1.2,0.1,2.4,0,3.6c-0.1,0.8,0.2,0.9,1,0.9c27.1,0,54.3,0,81.4,0
		C106.3,134.8,106.5,134.8,106.9,134.8z M66,141.6c11.1,0,22.1,0,33.2,0c2.9,0,5.7,0,8.6,0c0.5,0,0.7-0.1,0.5-0.6
		c-0.3-1.1-0.6-2.2-0.8-3.3c-0.1-0.7-0.4-0.9-1.1-0.9c-27.2,0-54.4,0-81.6,0c-0.3,0-0.5,0-0.8,0c-0.4-0.1-0.6,0.1-0.6,0.6
		c0,1.1,0.1,2.2,0,3.3c0,0.8,0.1,1,1,1C38.4,141.6,52.2,141.6,66,141.6z M66.8,148.4c14,0,28.1,0,42.1,0c0.2,0,0.4,0,0.6,0
		c0.5,0.1,0.5-0.2,0.4-0.6c-0.3-1.1-0.6-2.2-0.7-3.3c-0.1-0.7-0.4-0.9-1.2-0.9c-27.8,0-55.7,0-83.5,0c0,0-0.1,0-0.1,0
		c-0.6-0.1-0.9,0.1-0.8,0.8c0.1,1,0.1,2.1,0,3.1c0,0.7,0.2,0.9,0.9,0.9C38.6,148.4,52.7,148.4,66.8,148.4z M280.4,148.3
		c2.4,0,4.7,0,7.1,0c0.4,0,0.6-0.1,0.7-0.5c0.2-1.3,0.4-2.5,0.7-3.8c0.1-0.6,0-0.8-0.6-0.8c-1.9,0-3.8,0-5.6,0
		c-0.2,0-0.6,0.1-0.6-0.1c-0.1-0.5,0.1-1,0.2-1.5c0.1-0.3,0.4-0.2,0.6-0.2c1.7,0,3.4,0,5.1,0c0.4,0,0.6-0.1,0.7-0.6
		c0.2-1.2,0.4-2.4,0.7-3.7c0.1-0.5-0.1-0.7-0.6-0.6c-1.6,0-3.3,0-4.9,0c-0.2,0-0.5,0.1-0.6-0.1c-0.1-0.5,0.1-1,0.2-1.5
		c0.1-0.3,0.4-0.2,0.7-0.2c1.9,0,3.8,0,5.6,0c0.5,0,0.7-0.2,0.7-0.6c0.2-1.2,0.4-2.5,0.7-3.7c0.2-0.7,0-0.8-0.6-0.8
		c-4.5,0-9,0-13.5,0c-0.6,0-0.8,0.2-0.9,0.8c-1.1,5.8-2.2,11.6-3.3,17.4c-0.1,0.5,0,0.6,0.5,0.6C275.7,148.3,278,148.3,280.4,148.3z
		 M199.3,99.3c-0.6,0-1.1,0-1.6-0.1c-0.7-0.1-1,0.1-1.2,0.8c-2.4,8-4.8,16-7.3,24c-0.2,0.8-0.4,1.5-0.7,2.3c3.6,0,7.2,0,10.7,0
		c1,0,1,0,0.8,1c-0.7,3.7-1.4,7.5-2.1,11.2c0,0.2-0.2,0.3,0,0.5c0.5,0.3,1.3-0.1,1.4-0.7c0.7-3.8,1.4-7.6,2.2-11.4
		c0.1-0.5,0.3-0.6,0.8-0.6c2.4,0,4.8,0,7.2,0c0.7,0,1.4,0,2.2,0c-5.3-2.2-9.6-5.5-12.1-10.8C197.2,110.2,197.4,104.8,199.3,99.3z
		 M56.5,104.5c4.3,0,7.9-1.4,11.4-3.5c0.3-0.2,0.4-0.4,0.5-0.6c0.4-1.4,1-2.8,1.7-4.1c0.2-0.3,0.2-0.5-0.1-0.7
		c-3.8-3.1-8.1-4.6-13.1-3.4c-2.9,0.7-5.5,2.1-7.1,4.8c-1.5,2.5-0.9,4.8,1.7,6.3C53,104.2,54.8,104.5,56.5,104.5z M229,108
		c3.4,0,6.2-1.2,8.8-2.8c0.2-0.2,0.3-0.3,0.3-0.6c0.1-1,0.3-2,0.5-2.9c0.1-0.3,0-0.5-0.2-0.7c-2.5-1.9-5.3-2.8-8.5-2.1
		c-2.3,0.5-4.3,1.5-5.6,3.5c-1.4,2-0.8,3.9,1.4,5C226.9,107.9,228,108.1,229,108z M241.5,118.2c-0.5,2.3-1,4.4-1.5,6.6
		c-0.1,0.7-0.4,1.1-1.1,1.3c-0.8,0.2-1.7,0.5-2.6,0.9c1.3,0.4,2.4,0.9,3.4,1.6c0.3,0.2,0.5,0.1,0.7-0.2c0.3-0.5,0.7-1,0.9-1.6
		c0.2-0.4,0.5-0.5,0.9-0.5c1.9,0,3.9,0,5.8,0c1.6,0,3.2,0,4.8,0c-2.1-0.9-4.2-1.9-6.1-3.2C244.7,121.8,243,120.2,241.5,118.2z
		 M70.7,118.1c-0.5,2-1,4-1.4,5.9c-0.1,0.5-0.3,0.7-0.7,0.8c-1.5,0.5-3,0.9-4.5,1.3c6,0,12,0,17.9,0
		C77.6,124.5,73.6,122.1,70.7,118.1z M125.7,126.3c-3-0.9-5.8-2.2-8.7-3.5c-0.3-0.2-0.5,0.1-0.8,0.2c-2.2,1.2-4.5,2.3-6.9,3.1
		c-0.2,0.1-0.3,0.1-0.5,0.2c3.2,0.1,6.2,0.1,9.3,0.1c0.8,0,1.2,0.1,1.1,1c0,0,0.1,0.1,0.1,0.1c0.2,0,0.2-0.2,0.2-0.3
		c0.2-0.7,0.6-0.8,1.3-0.8C122.5,126.3,124.1,126.3,125.7,126.3z M152.9,126.2c0.2,0,0.3,0.1,0.4,0.1c3.1,0,6.1,0,9.2,0
		c0.5,0,0.6-0.2,0.7-0.6c0.7-2.3,1.4-4.6,2.1-7c0.1-0.2,0.2-0.4,0-0.8C162.1,122,157.8,124.5,152.9,126.2z M289.6,124.7
		c1.1-0.1,2.2-0.6,3-1.7c0.8-1.3,0.3-2.8-1.1-3.3c-1.3-0.5-2.5-0.2-3.7,0.6c-1,0.8-1.5,1.9-1.1,2.8
		C287.1,124.1,288.1,124.7,289.6,124.7z M269.7,138.8c1.4,0.2,1.4,0.2,1.6-1c0-0.2,0.1-0.5,0.1-0.7c0.6-3,1.1-5.9,1.7-8.9
		c0-0.2,0.2-0.4,0-0.6c-0.3-0.2-1.3,0.3-1.4,0.7C271,131.8,270.4,135.3,269.7,138.8z M171.2,99.4c-1.9,0-3.7,0-5.8,0
		c2.1,2.1,3.2,4.4,3.5,7.3C169.7,104.1,170.4,101.8,171.2,99.4z M284.6,126.3c-0.3-0.6-0.5-1.3-0.9-1.5c-0.5-0.2-1.1,0.3-1.6,0.5
		c-0.8,0.3-1.6,0.6-2.4,0.9c0,0,0,0.1,0,0.1C281.3,126.3,282.9,126.3,284.6,126.3z M255.4,127c0.3,1.1,0.5,2.1,0.8,3.4
		c0.2-0.9,0.3-1.5,0.4-2.1c0.2-1.1,0.2-1.1-0.9-1.3C255.6,127,255.5,127,255.4,127z M184.8,128.5c0.2-1.1-0.1-1.2-1.5-0.8
		C183.8,127.9,184.3,128.2,184.8,128.5z"/>
	<path class="st2" d="M125,122.3c-0.1,0-0.2,0-0.3-0.1c-0.1-0.2-0.3-0.2-0.5-0.2c-0.2,0-0.3,0-0.4-0.2c0-0.2-0.1-0.4-0.3-0.1
		c-0.1,0-0.1,0-0.1-0.1c0-0.1-0.1-0.1-0.1,0c-0.2-0.1-0.4-0.2-0.6-0.3c0.1-0.2,0.2-0.4,0-0.5c-0.3-0.2-0.4,0.2-0.6,0.2
		c-0.5-0.1-0.3-0.3-0.1-0.5c0-0.1,0.1-0.1,0.1-0.2c0.3-0.6,0.7-1.2,1.2-1.8c0.7,0,0.6-0.5,0.6-0.9l0,0c0.5,0,0.5-0.3,0.4-0.7
		c0.5-0.9,1.1-1.7,1.7-2.5c0-0.1,0.1-0.1,0.1-0.2c0,0,0.1-0.1,0.1-0.1c0.2,0,0.4,0.2,0.6,0.1c0-0.2-0.1-0.4-0.3-0.5
		c0.5-0.7,1-1.4,1.4-2.1c0.3-0.1,0.4,0.5,0.7,0.2c0.1-0.2,0-0.6-0.3-0.6c0.2-0.3,0.4-0.6,0.6-0.9c0-0.1,0.1-0.1,0.1-0.2c0,0,0,0,0,0
		c0.1,0,0.2-0.2,0.2-0.3c0.1-0.2,0.1-0.5,0.5-0.4c0.1,0,0.1,0.1,0.2,0.1c0.2,0.1,0.3,0.2,0.4,0.3c0.1,0,0.1,0.1,0.2,0.1
		c0,0,0.1,0,0.1,0.1c0,0.2,0.2,0.2,0.3,0.2c0.3,0.2,0.6,0.4,0.9,0.6c-0.2,0.1-0.3,0.3-0.1,0.4c0.2,0.1,0.3-0.1,0.4-0.2
		c0.2,0.1,0.4,0.2,0.6,0.3c0,0.1,0,0.2,0,0.3c-0.2,0-0.4-0.3-0.8,0c0.3,0.1,0.5,0.5,0.8,0c0.3,0.3,0.7,0.4,1.1,0.3
		c0.6,0.3,1.2,0.5,1.8,0.8c0,0.1,0.1,0.1,0.1,0c0.8,0.2,1.5,0.4,2.3,0.6c0.1,0.2,0.1,0.3,0.3,0.1c0.1,0,0.2,0,0.3,0
		c0.1,0.1,0.3,0.1,0.4,0.1c1.2,0,2.5,0.1,3.7,0c0.1,0,0.2-0.1,0.3-0.1c0.1,0,0.1,0,0.2,0c0.2,0.2,0.4,0.2,0.5-0.1
		c0.2-0.1,0.5-0.1,0.7-0.2c0.4,0,0.9,0.1,1-0.5c0.6-0.5,1-1,1.1-1.8c0.2-0.2,0.2-0.3,0-0.5c-0.2-0.5-0.7-0.8-1.2-1.1
		c-0.1-0.1-0.2-0.1-0.3-0.1l-0.1,0l-0.1,0c-0.1-0.1-0.2-0.1-0.4-0.1c-0.1,0-0.1,0-0.2,0c-0.2-0.2-0.4-0.1-0.7-0.1
		c-0.8,0-1.6-0.2-2.4-0.3c-0.1,0-0.2-0.1-0.3-0.1c-0.3,0.1-0.5,0-0.8-0.1c-0.1-0.1-0.2-0.1-0.4-0.1c-0.2,0-0.3,0-0.5,0
		c-0.1,0-0.2-0.1-0.3-0.1c-0.2,0.1-0.4,0-0.7-0.1c-0.1-0.3-0.2-0.3-0.3-0.1c-0.1,0-0.3-0.1-0.4-0.1c-0.1,0-0.2-0.1-0.3-0.1
		c-1-0.1-1.9-0.4-2.8-0.8c-0.1,0-0.1-0.1-0.2-0.1c0,0,0,0,0,0c0-0.2,0.2-0.5-0.1-0.6c-0.3,0-0.1,0.3-0.2,0.5
		c-0.7-0.2-1.3-0.5-1.8-0.9c-0.1,0-0.1-0.1-0.2-0.1c0,0,0,0,0,0c0-0.6-0.3-0.8-0.9-0.6c-0.1-0.1-0.3-0.2-0.4-0.3
		c0-0.4-0.1-0.6-0.6-0.5l0,0c0-0.4,0-0.7-0.5-0.6c-0.2-0.2-0.3-0.4-0.4-0.6c0.5-0.5,0.1-0.5-0.3-0.5c-0.1-0.1-0.1-0.2-0.1-0.3
		c0-0.1-0.1-0.1-0.1-0.2c0,0-0.1-0.1,0-0.1c0-0.2,0-0.4-0.2-0.5c0-0.1-0.1-0.2-0.1-0.4c0-0.1-0.1-0.1-0.1-0.2
		c-0.1-0.3-0.1-0.5-0.2-0.8c-0.2,2.1-0.6,4.2-1.2,6.2c-2,5.6-5.7,9.8-10.7,12.9c-5.1,3.2-10.8,4.8-16.8,5.3
		c-5.1,0.4-10.1,0.1-15-1.4c-3.8-1.2-7.2-3-9.8-6.1c-2.8-3.3-3.9-7.2-3.4-11.5c0.9-8.6,5.8-14.5,13-18.7c7.2-4.1,15-5.5,23.2-4.9
		c3.8,0.3,7.6,1.2,11,3c5.4,2.8,8.9,7.1,9.6,13.3c-0.1,0.1-0.2,0.2,0,0.2c0.2,0.1,0.2-0.1,0.2-0.2c0,0,0-0.1,0-0.1
		c0.5-0.1,0.1-0.4,0.1-0.6c0-0.4,0.1-0.8,0.2-1.1c0.2-0.1,0.4,0.5,0.6,0.1c0.1-0.3-0.2-0.4-0.5-0.4c0-0.3,0.1-0.5,0.2-0.7
		c0-0.1,0.1-0.2,0.1-0.2c0.2-0.7,0.5-1.4,0.9-2c0.6,0,0.5-0.4,0.5-0.8c0,0,0-0.1,0-0.1c0.2,0,0.4,0,0.5-0.2c0,0-0.2-0.1-0.2-0.1
		c0.3-0.6,0.8-1.2,1.3-1.7c0.5,0,0.8-0.3,0.7-0.8c0.1-0.1,0.2-0.2,0.3-0.3c0.9,0.4,0.7-0.3,0.8-0.7c0.1-0.1,0.2-0.1,0.2-0.2
		c0.2,0,0.4-0.1,0.4-0.3c0,0,0,0,0,0c0.2,0,0.5,0,0.4-0.3c0,0,0,0,0,0c0.1-0.1,0.1-0.1,0.2-0.2c0.1,0,0.1-0.1,0.2-0.1
		c0.1,0,0.2,0,0.3,0c0,0,0,0,0.1,0c0,0,0,0-0.1,0c0-0.1,0-0.1,0-0.2c1.4-1.1,3-2,4.6-2.6c0.3,0,0.5,0,0.7-0.3c0,0,0,0,0,0
		c0.1,0,0.1-0.1,0.2-0.1c0.1,0,0.1,0,0.2-0.1c0.1,0,0.2-0.1,0.2-0.1c0.5-0.2,0.9-0.4,1.5-0.5c0.2,0,0.4,0.1,0.5-0.2c0,0,0,0,0,0
		c0.1,0,0.2,0,0.3-0.1c0,0,0.1,0,0.1,0c0.1,0,0.1-0.1,0.2-0.1c1-0.3,2-0.6,3.1-0.7c0.2,0,0.4,0.1,0.7,0.1c0.3,0.1,0.6,0,0.7-0.4
		c0.9-0.2,1.8-0.3,2.7-0.3c0.1,0.1,0.1,0.1,0.1,0c1.1-0.1,2.1-0.1,3.2,0c0,0.1,0,0.3,0.2,0.2c0.1,0,0.1-0.1,0.1-0.2
		c0.4,0,0.8,0,1.2,0c0,0.1,0.1,0.1,0.1,0c0.5,0,1,0.1,1.5,0.1c0.3,0.2,0.5,0.8,0.9,0.1c0.2,0,0.4,0,0.6,0.1c0.2,0.8,0.7,0.1,1,0.2
		c0.1,0,0.2,0,0.4,0c0.1,0.2,0.3,0.1,0.5,0.1c0.4,0,0.7,0.1,1,0.2c0.1,0,0.1,0.1,0.2,0.1c0.1,0,0.2,0,0.2,0c0,0.2,0.1,0.4,0.3,0.1
		c0.4,0,0.7,0.1,1.1,0.3c0.1,0.2,0.3,0.2,0.5,0.2c0.1,0,0.2,0,0.3,0.1c0.1,0,0.1,0.1,0.2,0.1c0.9,0.2,1.8,0.6,2.6,1.1
		c0.1,0.1,0.2,0.2,0.3,0.2c0.3,0,0.5,0.2,0.7,0.4c0,0.2,0,0.4,0,0.6c0,0,0,0.1-0.1,0.1c-0.3-0.1-0.6,0-0.8,0.2
		c-0.1,0.2,0.1,0.4,0.3,0.5c-0.1,0.3-0.3,0.5-0.5,0.7c0,0.1-0.1,0.2-0.1,0.2c0,0,0,0.1,0,0.1c-0.1,0-0.3,0-0.4,0.1
		c0,0.1,0.1,0.2,0.1,0.2c-0.1,0.1-0.1,0.2-0.2,0.3c-0.1,0.1-0.1,0.2-0.2,0.2c-0.2,0.4-0.4,0.8-0.8,1.1c-0.2,0.1-0.3,0.2-0.3,0.5
		c-0.1,0.2-0.2,0.4-0.4,0.6c0,0-0.1,0.1-0.1,0.1c-0.2,0.4-0.4,0.8-0.7,1.1c-0.1,0-0.2,0.2-0.2,0.3l0,0c-0.3,0-0.3,0.2-0.3,0.5
		c0,0,0,0,0,0c-0.1,0-0.1,0-0.2,0.1c0,0,0.1,0.1,0.1,0.1c0,0.2-0.1,0.3-0.3,0.5c-0.3,0-0.3,0.2-0.3,0.5c0,0,0,0,0,0
		c-0.4,0-0.3,0.2-0.3,0.5c-0.2,0.3-0.4,0.7-0.7,1c-0.5-0.1-0.2,0.2-0.3,0.4c0,0,0,0.1-0.1,0.1c-0.1,0-0.2,0-0.3,0
		c-0.1,0-0.2,0-0.3-0.2c-0.1,0-0.2-0.1-0.2-0.1c-0.6-0.3-1.3-0.6-1.9-1c-0.1,0-0.1-0.1-0.2-0.1c-0.2,0-0.3-0.1-0.4-0.2
		c-0.1,0-0.2-0.1-0.2-0.1c-0.3,0-0.6-0.1-0.8-0.3c-0.1-0.2-0.2-0.2-0.4-0.1c-0.1,0-0.1,0-0.2,0c-0.1,0-0.2-0.1-0.2-0.1
		c-0.3,0-0.6-0.1-0.8-0.2c-0.1-0.2-0.1-0.4-0.3-0.1c-0.2,0-0.4-0.1-0.6-0.1c-0.1,0-0.1,0-0.2-0.1c-0.7-0.1-1.5-0.1-2.2-0.2
		c0,0-0.1,0-0.1,0c-0.5,0-0.9,0-1.4,0c-0.1-0.1-0.1-0.1-0.1,0c-0.2,0-0.4,0-0.6,0.1c-0.1-0.2-0.3-0.3-0.5-0.3
		c-0.2,0-0.1,0.3-0.2,0.4c-0.8,0.3-1.6,0.6-2.1,1.4c-0.1,0.1-0.2,0.2-0.2,0.3c0,0,0,0.1,0,0.1c0,0-0.1,0-0.1,0c0,0,0,0.1,0,0.1
		c0,0.1,0,0.2,0,0.3c-0.4,0.2-0.1,0.3,0.1,0.5c0,0,0,0,0,0c0,0.1,0,0.3,0.2,0.3c0.1,0.1,0.3,0.2,0.4,0.3c0.1,0,0.1,0.1,0.2,0.1
		c0.9,0.2,1.8,0.4,2.7,0.6c0,0.1,0.1,0.1,0.1,0c0.3,0,0.5,0.1,0.8,0.1c0.1,0.2,0.1,0.4,0.3,0.1c0.1,0,0.2,0,0.3,0.1
		c0,0.1,0.1,0.1,0.1,0c0.3,0,0.5,0.1,0.8,0.1c0.1,0.2,0.3,0.1,0.5,0.1c0,0,0.1,0,0.1,0c0,0.1,0,0.3,0.1,0.4c0.2,0.1,0.3-0.2,0.3-0.3
		c1,0.2,2,0.4,3,0.7c0.1,0,0.2,0.1,0.2,0.1c0.1,0,0.1,0,0.2,0c0.1,0,0.1,0,0.2,0.1c0,0,0,0,0,0c0,0.2-0.1,0.3,0.1,0.3
		c0.4,0,0.8,0.3,1.2,0.2c0.5,0.1,1,0.4,1.5,0.6c0.1,0,0.1,0.1,0.2,0.1c0,0,0,0,0,0c-0.1,0.4,0.1,0.2,0.3,0.2c0.4,0.1,0.7,0.4,1,0.6
		c0,0.2,0.2,0.3,0.4,0.3c0,0,0.1,0,0.1,0.1c0,0,0.1,0.1,0.1,0.1c0.3,0.2,0.6,0.4,0.8,0.7c0,0.2,0.1,0.3,0.3,0.3
		c0.7,0.6,1.1,1.4,1.4,2.2c0.1,0.3-0.5,0.8,0.3,0.8c0.5,1.5,0.4,3,0,4.6c0,0-0.1,0-0.1,0c0,0,0,0.1,0,0.1c0,0.4-0.2,0.8-0.3,1.2
		c-1,0-0.5,0.6-0.4,1c-0.1,0.4-0.3,0.8-0.5,1.1c0,0.1-0.1,0.1-0.1,0.2c0,0.1-0.1,0.2-0.1,0.3c-0.4,0-0.3,0.3-0.3,0.5
		c0,0,0,0.1,0,0.1c-0.1,0-0.2-0.3-0.3-0.2c-0.1,0.1,0,0.2,0,0.3c0,0.1,0,0.2,0,0.4c-0.3,0.6-0.7,1.1-1.2,1.5c-0.4,0-0.5,0.1-0.5,0.5
		c-0.2,0.3-0.4,0.5-0.7,0.7c-0.1,0.1-0.1,0.1-0.2,0.2c-0.3,0.4-0.7,0.6-1.1,0.9c-1-0.3-1.2-0.1-1.2,0.9c-0.8,0.6-1.7,1.2-2.7,1.5
		c-0.4,0-0.8-0.1-1,0.5c-0.2,0.2-0.4,0.3-0.7,0.3c-0.3,0.1-0.8-0.5-0.8,0.3c-0.3,0.2-0.7,0.3-1.1,0.4c0-0.1,0-0.3-0.2-0.2
		c-0.2,0-0.2,0.2-0.3,0.4c-0.1,0-0.2,0.1-0.3,0.1c-0.2-0.3-0.3-0.2-0.3,0.1c-0.4,0.2-0.7,0.3-1.2,0.3c-0.1,0-0.1,0.1-0.2,0.1
		c-0.3,0.1-0.7,0.2-1,0.2c-0.1,0-0.2,0-0.3,0c-0.2,0.2-0.5,0.2-0.8,0.2c-0.3-0.4-0.6-0.2-0.8,0.1c-0.2,0-0.4,0-0.7,0.1
		c-0.2,0-0.4-0.1-0.5,0.1c-0.4,0-0.7,0.1-1.1,0.1c-0.1-0.1-0.1-0.1-0.1,0c-0.3,0-0.5,0-0.8,0.1c-0.2-0.2-0.4-0.3-0.5,0.1
		c-1.6,0.1-3.1,0.1-4.7,0c-0.3-0.5-0.6-0.4-0.9-0.1c-0.4,0-0.9-0.1-1.3-0.1c0-0.1-0.1-0.1-0.1,0c-0.4,0-0.8-0.1-1.2-0.1
		c-0.1,0-0.2-0.1-0.3-0.1c-0.7,0.1-1.4-0.1-2-0.2c-0.1-0.1-0.2-0.1-0.4-0.1l-0.1,0l0,0c-0.2-0.6-0.5-0.7-0.9-0.2c-0.1,0-0.2,0-0.3,0
		c0-0.2-0.1-0.3-0.3-0.1c-0.3,0-0.6-0.1-0.9-0.2c-0.1-0.1-0.2-0.1-0.4-0.1c-0.1,0-0.1,0-0.2,0c0-0.1-0.1-0.1-0.1,0
		c-0.6-0.1-1.1-0.2-1.7-0.4c-0.1-0.1-0.2-0.1-0.4-0.1c-0.4,0-0.7-0.1-1-0.3c0-0.2,0.1-0.4-0.2-0.4C125.3,122,125.1,122.1,125,122.3z
		 M100.7,95.5c-0.9,0.1-1.7,0.1-2.6,0.3c-4,0.9-7,3.1-8.3,7.1c-1.2,3.9,0.6,7.1,4.5,8.3c1.8,0.5,3.6,0.6,5.4,0.3
		c3.7-0.6,6.7-2.4,8.3-6c2-4.4-0.1-8.5-4.6-9.6C102.5,95.6,101.6,95.6,100.7,95.5z M148,93c0-0.2-0.1-0.3-0.3-0.2
		c-0.1,0.1-0.4,0-0.4,0.3c0,0.2,0.2,0.2,0.4,0.2C147.9,93.4,148,93.3,148,93z M156.5,93.1c-0.1,0.1-0.3,0-0.2,0.2
		c0,0.1,0.1,0.1,0.2,0.1c0.1,0,0.2,0,0.2-0.2C156.7,93.1,156.6,93.1,156.5,93.1z M129.6,94.4c0.1-0.1,0.1-0.1,0.1-0.2
		c0-0.1,0-0.2-0.2-0.2c-0.1,0-0.1,0.2-0.1,0.2C129.5,94.3,129.5,94.4,129.6,94.4z M135.4,113c-0.1-0.1-0.1-0.1-0.2-0.1
		c-0.1,0-0.2,0-0.2,0.1c0,0.1,0.1,0.2,0.2,0.2C135.2,113.1,135.3,113.1,135.4,113z M138.5,114.1c0,0,0-0.1-0.1-0.1c0,0-0.1,0-0.1,0
		c0,0,0,0.1,0.1,0.1C138.4,114.2,138.5,114.1,138.5,114.1z M163.2,102.9c0,0-0.1,0.1,0,0.1c0,0,0.1,0,0.1,0.1c0,0,0.1-0.1,0-0.1
		C163.3,102.9,163.2,102.9,163.2,102.9z M124.8,116.9c0,0-0.1,0.1,0,0.1c0,0,0.1,0,0.1,0.1c0,0,0.1-0.1,0-0.1
		C124.9,116.9,124.9,116.9,124.8,116.9z M162,102c0,0-0.1,0.1,0,0.1c0,0,0.1,0,0.1,0.1c0,0,0.1-0.1,0-0.1C162.1,102,162,102,162,102
		z"/>
	<path class="st2" d="M72.6,93.3c-1-0.8-2.1-1.6-3.2-2.3c-6.3-3.9-14-3.6-19.6,0.8c-1.7,1.3-3,2.8-3.7,4.8c-1.3,3.3-0.4,6.6,2.3,8.7
		c2.7,2.1,5.8,2.7,9.1,2.6c4.5-0.2,8.6-1.7,12.4-4.1c0.2-0.1,0.4-0.2,0.6-0.4c0,0,0.1,0,0.2,0c-0.8,3.3-1.6,6.6-2.3,9.9
		c-0.6,2.7-1.3,5.4-1.9,8.1c-0.1,0.6-0.4,0.8-0.9,0.9c-2.7,0.7-5.4,1.1-8.1,1.3c-3.6,0.3-7.1,0.6-10.7,0.3c-6.1-0.4-11.9-2-16.9-5.8
		c-7.2-5.5-9.7-13.9-6.7-22.5c2-5.8,5.6-10.4,10.3-14.1c7.1-5.6,15.2-8.6,24.1-9.2c5.9-0.4,11.8,0.2,17.6,1.7
		c0.5,0.1,0.7,0.3,0.6,0.9c-1,6-2,12-3,18C72.7,93,72.7,93.1,72.6,93.3z"/>
	<path class="st2" d="M274.3,81.9c5,0,10,0.9,14.7,3.3c4.2,2.2,7.4,5.4,8.8,10.2c1.2,4.1,0.7,8.1-0.9,12.1
		c-2.3,5.6-6.3,9.6-11.6,12.6c-4.9,2.7-10.1,4.2-15.7,4.6c-4.8,0.4-9.6,0.1-14.3-1.2c-3.1-0.9-6-2.2-8.4-4.4
		c-4.7-4.1-6.2-9.3-5.1-15.3c1.2-6.7,5.1-11.7,10.7-15.5c4.9-3.4,10.5-5.2,16.4-6C270.6,82,272.3,81.9,274.3,81.9z M271,95.5
		c-0.5,0.1-1.3,0.1-2.1,0.3c-4.1,0.9-7.2,3.1-8.4,7.4c-1.1,3.8,0.8,6.9,4.5,8c1.8,0.5,3.7,0.6,5.5,0.3c3.8-0.7,6.8-2.5,8.3-6.1
		c1.7-3.8,0.3-7.5-3.3-9.1C274.2,95.7,272.7,95.6,271,95.5z"/>
	<path class="st3" d="M138.8,148.3c1.1-5.7,2.1-11.3,3.2-16.9c-0.4,0.2-0.5,0.6-0.7,0.8c-3.2,5.2-6.3,10.3-9.5,15.5
		c-0.3,0.4-0.5,0.6-1.1,0.6c-1.9,0-3.8,0-5.7,0c-0.6,0-0.8-0.1-0.8-0.7c-0.1-3-0.4-5.9-0.5-8.9c0-0.2-0.1-0.3-0.1-0.5
		c-0.3,0-0.3,0.3-0.3,0.4c-1,3.3-2.9,6.2-4.3,9.4c-0.1,0.3-0.3,0.3-0.6,0.3c-2,0-4,0-6,0c-0.5,0-0.5-0.2-0.6-0.6
		c-1.3-5.8-2.7-11.6-4-17.5c-0.1-0.4-0.1-0.7,0.5-0.7c2.4,0,4.8,0,7.2,0c0.5,0,0.6,0.2,0.6,0.7c0.2,3.3,0.4,6.6,0.6,9.9
		c0,0.2,0,0.4,0.2,0.5c0.5-1.8,1.4-3.5,2.2-5.1c0.9-1.8,1.8-3.6,2.7-5.4c0.2-0.4,0.4-0.5,0.9-0.5c1.6,0,3.3,0,4.9,0
		c0.5,0,0.7,0.1,0.8,0.7c0.3,3.4,0.6,6.7,0.9,10.1c0,0.1,0,0.2,0.1,0.4c0.1-0.2,0.2-0.2,0.2-0.3c1.1-3.7,3.1-7,4.7-10.5
		c0.1-0.3,0.4-0.4,0.7-0.4c4.9,0,9.8,0,14.7,0c0.4,0,0.6,0.1,0.5,0.6c-0.4,1.7-0.6,3.3-1,5c-0.1,0.5-0.1,0.8,0.6,0.8
		c1.2-0.1,2.4,0,3.7,0c0.5,0,0.6-0.2,0.7-0.6c0.3-1.7,0.6-3.3,0.9-5c0.1-0.5,0.2-0.7,0.8-0.7c2.2,0,4.3,0,6.5,0
		c0.6,0,0.7,0.2,0.6,0.7c-0.5,2.3-0.9,4.7-1.3,7c0.9-2.1,2.3-3.8,4.2-5.1c4.4-2.9,9.1-3.7,14.2-2.3c3.7,1,6.2,3.4,6.4,7.6
		c0.5-2.4,1-4.9,1.4-7.3c0.1-0.5,0.2-0.6,0.7-0.6c2.3,0,4.6,0,6.9,0c0.5,0,0.6,0.1,0.5,0.6c-0.7,3.8-1.4,7.5-2.2,11.3
		c-0.1,0.7,0,0.9,0.7,0.9c1.8-0.1,3.6,0,5.3,0c0.5,0,0.7,0,0.6,0.7c-0.4,1.6-0.6,3.2-0.9,4.8c-0.1,0.3-0.1,0.5-0.5,0.5
		c-4.8,0-9.6,0-14.5,0c0,0,0,0-0.1,0c0.5-2.4,0.9-4.9,1.4-7.3c-0.1,0-0.2,0-0.2,0c-1.8,4-5.1,6.1-9.2,7.1c-3.3,0.8-6.7,0.9-10-0.4
		c-2.9-1.1-4.9-3-5.3-6.2c0-0.1-0.1-0.2-0.3-0.3c-0.4,1.9-0.7,3.8-1.1,5.7c-0.3,1.4-0.3,1.4-1.7,1.4c-1.9,0-3.9,0-5.8,0
		c-0.5,0-0.6-0.2-0.5-0.6c0.4-1.7,0.7-3.4,1-5.1c0.1-0.6,0-0.8-0.6-0.7c-1.2,0-2.4,0-3.6,0c-0.6,0-0.7,0.2-0.8,0.7
		c-0.3,1.8-0.7,3.5-1,5.3c0,0.2,0,0.5-0.4,0.5C143.8,148.3,141.3,148.3,138.8,148.3z M172.9,142.7c2.4,0,4.4-1.4,4.9-3.4
		c0.4-1.6-0.4-3.1-1.9-3.5c-2-0.6-3.9-0.2-5.4,1.4c-0.6,0.7-1,1.5-1.1,2.4C169.1,141.4,170.6,142.7,172.9,142.7z"/>
	<path class="st4" d="M241.9,99.4c-1.7-1.5-3.4-2.6-5.4-3.3c-5.2-1.9-11.5-0.2-14.6,4c-2.5,3.3-2.1,7.2,1,9.6c1.4,1,3,1.6,4.7,1.8
		c4.4,0.5,8.3-0.8,11.9-3.1c0.3-0.2,0.5-0.3,1-0.6c-0.4,1.6-0.7,3-1,4.4c-0.8,3.5-1.6,7-2.4,10.4c-0.1,0.5-0.4,0.8-0.9,0.9
		c-2.6,0.7-5.2,1-7.8,1.2c-2.9,0.2-5.7,0.4-8.6,0c-5.7-0.7-10.8-2.6-14.6-7.1c-3.9-4.5-4.7-9.7-3.1-15.3c1.6-6,5.4-10.5,10.4-13.9
		c7.2-5,15.2-7,23.8-6.2c2.6,0.2,5.2,0.7,7.7,1.4c0.4,0.1,0.6,0.2,0.5,0.7c-0.8,5-1.6,9.9-2.4,14.9C242,99.1,242,99.2,241.9,99.4z"
		/>
	<path class="st2" d="M167.2,124.1c1.3-4.1,2.5-8.2,3.7-12.2c1.6-5.2,3.2-10.4,4.8-15.6c0.2-0.6,0-0.7-0.5-0.7
		c-2.9,0.1-5.9,0.2-8.8,0.4c-0.6,0-0.7-0.1-0.5-0.7c1.3-4.1,2.5-8.1,3.7-12.2c0.1-0.4,0.3-0.6,0.8-0.6c12.5,0,25.1,0,37.6,0
		c0.5,0,0.7,0.1,0.5,0.6c-1.3,4.1-2.5,8.2-3.8,12.4c-0.1,0.5-0.4,0.5-0.8,0.5c-2.9-0.1-5.8-0.2-8.7-0.4c-0.5,0-0.7,0.1-0.9,0.6
		c-2.7,9-5.5,18.1-8.2,27.1c-0.2,0.5-0.4,0.7-1,0.7c-5.7,0-11.4,0-17,0C167.7,124.1,167.5,124.1,167.2,124.1z"/>
	<path class="st3" d="M233.4,145.7c-5.1,3.8-10.6,3.5-16.2,1.6c-0.6-0.2-1-0.2-1,0.5c0,0.5-0.3,0.5-0.6,0.5c-4.7,0-9.5,0-14.2,0
		c-0.5,0-0.5-0.1-0.5-0.6c0.9-4.8,1.8-9.6,2.8-14.4c0.2-1,0.4-2.1,0.6-3.1c0.1-0.4,0.2-0.6,0.7-0.6c4.6,0,9.2,0,13.9,0
		c0.5,0,0.7,0.1,0.5,0.6c-0.3,1.3-0.5,2.6-0.8,4c-0.1,0.4-0.3,0.6-0.7,0.6c-1.9,0-3.8,0-5.6,0c-0.2,0-0.6-0.1-0.7,0.2
		c-0.1,0.5-0.3,1-0.2,1.5c0.1,0.2,0.4,0.1,0.5,0.1c1.6,0,3.3,0,4.9,0c0.6,0,0.7,0.2,0.6,0.7c-0.2,1.1-0.5,2.3-0.6,3.4
		c-0.1,0.6-0.4,0.8-0.9,0.7c-1.6,0-3.1,0-4.7,0c-0.6,0-0.8,0.2-0.9,0.7c-0.2,1.1-0.2,1.1,0.9,1.1c1.8,0,3.6,0,5.3,0
		c0.5,0,0.7,0.1,0.5,0.6c-0.2,0.8-0.3,1.6-0.4,2.4c0.9-1.3,1.8-2.6,2.6-4c0.3-0.5,0.5-0.7,1.1-0.2c1.4,1,2.9,1.6,4.7,1.5
		c0.6,0,1.1-0.1,1.6-0.4c0.3-0.2,0.6-0.5,0.5-0.9c0-0.4-0.4-0.6-0.7-0.7c-0.9-0.2-1.8-0.3-2.8-0.5c-1.1-0.2-2.1-0.5-3-1.1
		c-1.4-0.9-1.9-2.3-1.6-3.9c0.4-2,1.6-3.5,3.4-4.6c4.4-2.7,9-2.9,13.8-0.9c0.6,0.2,0.7,0.5,0.3,1c-0.8,1.1-1.5,2.3-2.3,3.5
		c-0.3,0.5-0.5,0.6-1,0.3c-1-0.6-2.1-0.9-3.2-1c-0.7-0.1-1.3,0-1.9,0.3c-0.4,0.2-0.7,0.4-0.6,0.9c0,0.4,0.4,0.5,0.8,0.6
		c1,0.2,2,0.4,3.1,0.6c0.7,0.2,1.4,0.4,2.1,0.7c1.9,1,2.7,2.5,2.3,4.6c0,0.1-0.1,0.3,0,0.5c0.4-0.6,0.7-1.2,1.1-1.8
		c2.1-3.5,4.3-7.1,6.4-10.6c0.3-0.4,0.5-0.6,1-0.6c2.5,0,5,0,7.5,0c0.7,0,0.9,0.2,1.1,0.9c1.2,5.2,2.4,10.3,3.7,15.4
		c0,0.2,0.1,0.4,0.2,0.7c1.1-5.5,2.1-10.9,3.1-16.3c0.1-0.5,0.3-0.7,0.8-0.7c2.3,0,4.6,0,6.9,0c0.5,0,0.6,0.1,0.5,0.7
		c-0.7,3.8-1.5,7.6-2.2,11.3c-0.1,0.5,0,0.8,0.6,0.7c1.8,0,3.7,0,5.5,0c0.5,0,0.6,0.1,0.5,0.6c-0.3,1.6-0.6,3.1-0.9,4.7
		c-0.1,0.5-0.2,0.7-0.8,0.7c-7.2,0-14.5,0-21.7,0c-0.5,0-0.7-0.2-0.7-0.7c-0.2-1.7-0.3-1.7-2-1.7c-1.3,0-2.5,0-3.8,0
		c-0.4,0-0.7,0.1-0.9,0.5c-0.4,1.5-1.3,2-2.9,1.8c-2.1-0.2-4.3,0-6.6,0c0.5-0.9,1-1.7,1.5-2.5c0-0.1,0-0.1,0-0.2
		C233.5,145.7,233.5,145.7,233.4,145.7z M246.1,141.6c0.3,0,0.7,0,1,0c0.6,0.1,0.7-0.2,0.6-0.7c-0.2-1.5-0.3-3-0.4-4.5
		c0-0.2,0.1-0.5-0.2-0.5c-0.3,0-0.3,0.3-0.3,0.4c-0.6,1.2-1.1,2.5-1.7,3.7C244.5,141.6,244.5,141.6,246.1,141.6z"/>
	<path class="st5" d="M106.9,134.8c-0.3,0-0.6,0-0.9,0c-27.1,0-54.3,0-81.4,0c-0.7,0-1-0.1-1-0.9c0.1-1.2,0-2.4,0-3.6
		c0-0.5,0.1-0.7,0.6-0.6c0.1,0,0.2,0,0.3,0c26.8,0,53.5,0,80.3,0c0.8,0,1.1,0.2,1.2,1C106.2,132,106.6,133.4,106.9,134.8z"/>
	<path class="st6" d="M66,141.6c-13.8,0-27.7,0-41.5,0c-0.8,0-1-0.2-1-1c0.1-1.1,0-2.2,0-3.3c0-0.4,0.1-0.6,0.6-0.6
		c0.3,0,0.5,0,0.8,0c27.2,0,54.4,0,81.6,0c0.7,0,1,0.2,1.1,0.9c0.2,1.1,0.5,2.2,0.8,3.3c0.2,0.5,0,0.6-0.5,0.6c-2.9,0-5.7,0-8.6,0
		C88.2,141.6,77.1,141.6,66,141.6z"/>
	<path class="st7" d="M66.8,148.4c-14.1,0-28.2,0-42.3,0c-0.7,0-0.9-0.2-0.9-0.9c0.1-1,0.1-2.1,0-3.1c-0.1-0.7,0.2-0.9,0.8-0.8
		c0,0,0.1,0,0.1,0c27.8,0,55.7,0,83.5,0c0.8,0,1.1,0.2,1.2,0.9c0.2,1.1,0.5,2.2,0.7,3.3c0.1,0.4,0,0.6-0.4,0.6c-0.2,0-0.4,0-0.6,0
		C94.8,148.4,80.8,148.4,66.8,148.4z"/>
	<path class="st3" d="M280.4,148.3c-2.4,0-4.7,0-7.1,0c-0.5,0-0.6-0.1-0.5-0.6c1.1-5.8,2.2-11.6,3.3-17.4c0.1-0.6,0.3-0.8,0.9-0.8
		c4.5,0,9,0,13.5,0c0.7,0,0.8,0.2,0.6,0.8c-0.3,1.2-0.5,2.5-0.7,3.7c-0.1,0.4-0.2,0.6-0.7,0.6c-1.9,0-3.8,0-5.6,0
		c-0.2,0-0.6-0.1-0.7,0.2c-0.1,0.5-0.3,1-0.2,1.5c0.1,0.2,0.4,0.1,0.6,0.1c1.6,0,3.3,0,4.9,0c0.5,0,0.7,0.1,0.6,0.6
		c-0.3,1.2-0.5,2.4-0.7,3.7c-0.1,0.4-0.2,0.6-0.7,0.6c-1.7,0-3.4,0-5.1,0c-0.2,0-0.6-0.1-0.6,0.2c-0.1,0.5-0.3,1-0.2,1.5
		c0.1,0.2,0.4,0.1,0.6,0.1c1.9,0,3.8,0,5.6,0c0.6,0,0.8,0.2,0.6,0.8c-0.3,1.3-0.5,2.5-0.7,3.8c-0.1,0.5-0.3,0.5-0.7,0.5
		C285.1,148.3,282.7,148.3,280.4,148.3z"/>
	<path class="st4" d="M289.6,124.7c-1.6,0-2.6-0.6-2.9-1.6c-0.3-1,0.1-2.1,1.1-2.8c1.1-0.8,2.3-1.1,3.7-0.6c1.4,0.5,1.9,2,1.1,3.3
		C291.9,124.2,290.7,124.7,289.6,124.7z M291,123.5c0.7-0.3,1.2-1,1.2-1.8c0-0.8-0.5-1.2-1.2-1.5c-0.8-0.2-1.6-0.1-2.3,0.2
		c-0.8,0.4-1.3,1.1-1.2,2c0,0.7,0.4,1.1,1,1.3C289.3,124.1,290.3,124.3,291,123.5L291,123.5z"/>
	<path class="st4" d="M158.2,119.9c0-1,0.2-1.2,1.2-0.9C159.1,119.3,158.7,119.6,158.2,119.9z"/>
	<path class="st4" d="M133.3,88.5c-0.1,0.5,0.1,1.1-0.8,0.7C132.7,89,132.9,88.7,133.3,88.5z"/>
	<path class="st4" d="M167.4,86.8c-0.2-0.1-0.4-0.3-0.3-0.5c0.2-0.3,0.5-0.3,0.8-0.2C167.8,86.3,167.6,86.6,167.4,86.8z"/>
	<path class="st4" d="M164.5,112.5c-0.1-0.4-0.6-1,0.4-1C164.8,111.8,164.7,112.2,164.5,112.5z"/>
	<path class="st4" d="M131,123.8c0.4-0.6,0.7-0.4,0.9,0.2C131.6,124,131.3,124,131,123.8z"/>
	<path class="st4" d="M158.9,99.4c-0.4,0.1-0.8-0.1-1.2-0.2c-0.2,0-0.2-0.2-0.1-0.3C158,99,158.5,99.2,158.9,99.4z"/>
	<path class="st4" d="M128.2,111.2c0.4,0.1,0.5,0.5,0.3,0.6c-0.2,0.3-0.4-0.3-0.7-0.2C128,111.5,128.1,111.3,128.2,111.2z"/>
	<path class="st4" d="M147.9,82.3c-0.1,0.4-0.3,0.5-0.7,0.4c-0.2,0-0.4-0.1-0.7-0.1C147,82.3,147.4,82.3,147.9,82.3z"/>
	<path class="st4" d="M130.9,105.3c0.6-0.2,0.9,0,0.9,0.6C131.5,105.7,131.2,105.5,130.9,105.3z"/>
	<path class="st4" d="M121.9,121.1c0.2-0.1,0.3-0.5,0.6-0.2c0.2,0.2,0.1,0.3,0,0.5C122.3,121.4,122.1,121.3,121.9,121.1z"/>
	<path class="st4" d="M132.6,111.6c0-0.1,0-0.2,0-0.3c0.4,0.2,0.7,0.4,1.1,0.6C133.3,112,132.9,111.9,132.6,111.6L132.6,111.6z"/>
	<path class="st4" d="M123.8,117.7c0,0.4,0.1,1-0.6,0.9C123.3,118.3,123.5,118,123.8,117.7z"/>
	<path class="st4" d="M132.2,89.5c0,0.5-0.2,0.8-0.7,0.8C131.6,90,131.9,89.7,132.2,89.5z"/>
	<path class="st4" d="M158.1,82.3c-0.4,0.7-0.6,0.1-0.9-0.1C157.5,82.1,157.8,82.2,158.1,82.3z"/>
	<path class="st4" d="M137.3,124.7c0.3-0.3,0.7-0.4,0.9,0.1C138,124.7,137.6,124.8,137.3,124.7z"/>
	<path class="st4" d="M126.5,113.7c0.2,0.1,0.3,0.3,0.3,0.5c-0.2,0.1-0.4-0.1-0.6-0.1C126.3,114.1,126.4,113.9,126.5,113.7z"/>
	<path class="st4" d="M128.2,96.2c0.2,0.1,0.6,0.1,0.5,0.4c-0.2,0.4-0.3-0.2-0.6-0.1c0-0.1,0-0.1,0-0.2
		C128.1,96.3,128.2,96.3,128.2,96.2L128.2,96.2z"/>
	<path class="st4" d="M159.7,82.5c-0.3-0.1-0.8,0.6-1-0.2C159,82.4,159.4,82.3,159.7,82.5z"/>
	<path class="st4" d="M153.1,122.5c0-0.9,0.5-0.2,0.8-0.3C153.6,122.4,153.3,122.5,153.1,122.5z"/>
	<path class="st4" d="M125,122.3c0.1-0.2,0.2-0.3,0.5-0.2c0.2,0.1,0.1,0.3,0.2,0.4C125.4,122.5,125.2,122.4,125,122.3z"/>
	<path class="st4" d="M129.9,92.4c0,0.4,0.1,0.8-0.5,0.8C129.5,92.9,129.6,92.6,129.9,92.4z"/>
	<path class="st4" d="M154.6,121.9c0.1-0.5,0.6-0.5,1-0.5C155.2,121.6,154.9,121.8,154.6,121.9z"/>
	<path class="st4" d="M149.1,93.2c0-0.2-0.1-0.4,0.2-0.4c0.2,0,0.4,0.1,0.5,0.3C149.5,93.2,149.3,93.2,149.1,93.2z"/>
	<path class="st4" d="M145.3,112.7c-0.1,0.6-0.6,0.5-1,0.5C144.6,113,144.9,112.8,145.3,112.7z"/>
	<path class="st4" d="M165.2,105.6c-0.8,0-0.2-0.5-0.3-0.8C165.1,105,165.2,105.3,165.2,105.6z"/>
	<path class="st4" d="M129.4,103.7c0.5-0.1,0.6,0.2,0.5,0.6C129.7,104.2,129.5,104,129.4,103.7z"/>
	<path class="st4" d="M146.6,124.2c0.2-0.3,0.4-0.5,0.8-0.1C147.2,124.2,146.9,124.2,146.6,124.2z"/>
	<path class="st4" d="M132,111c-0.1,0.1-0.2,0.3-0.4,0.2c-0.2-0.1-0.1-0.3,0.1-0.4C131.9,110.9,131.9,111,132,111z"/>
	<path class="st4" d="M128.6,102.7c0.3,0,0.7,0,0.3,0.5C128.8,103,128.7,102.9,128.6,102.7z"/>
	<path class="st4" d="M163.1,115.1c0-0.1,0-0.2,0-0.4c0-0.1-0.1-0.2,0-0.3c0.2-0.1,0.2,0.2,0.3,0.2
		C163.3,114.9,163.3,115,163.1,115.1z"/>
	<path class="st4" d="M133.9,106.9c0-0.2-0.1-0.5,0.2-0.5c0.3,0,0.1,0.4,0.1,0.6C134,107,133.9,106.9,133.9,106.9z"/>
	<path class="st4" d="M153.8,98c-0.1,0.2-0.1,0.4-0.3,0.3c-0.2,0-0.1-0.2-0.1-0.4C153.5,98,153.7,98,153.8,98z"/>
	<path class="st4" d="M124.2,117.1c0,0.3,0.1,0.7-0.4,0.7C123.9,117.5,124,117.3,124.2,117.1z"/>
	<path class="st4" d="M129.9,104.4c0.4-0.1,0.6,0.1,0.6,0.5C130.3,104.8,130.1,104.6,129.9,104.4z"/>
	<path class="st4" d="M151.5,123c0-0.2,0.1-0.3,0.3-0.4c0.2,0,0.2,0.1,0.2,0.2C151.8,122.9,151.7,123,151.5,123z"/>
	<path class="st4" d="M161.4,117.2c-0.1-0.4,0.1-0.5,0.5-0.5C161.8,116.9,161.6,117.1,161.4,117.2z"/>
	<path class="st4" d="M130.1,92c0.1,0,0.2,0.1,0.2,0.1c-0.1,0.3-0.3,0.2-0.5,0.2C130,92.2,130.1,92.1,130.1,92z"/>
	<path class="st4" d="M168,86c0-0.2,0-0.4,0-0.6C168.5,85.5,168.2,85.8,168,86z"/>
	<path class="st4" d="M143,124.7c0.1-0.3,0.3-0.3,0.5-0.1C143.3,124.7,143.2,124.7,143,124.7z"/>
	<path class="st4" d="M166.5,88.2c-0.1,0-0.2-0.1-0.1-0.2c0.1-0.2,0.2-0.1,0.4-0.1C166.7,88,166.6,88.1,166.5,88.2z"/>
	<path class="st4" d="M163.4,114.6c0-0.2-0.1-0.5,0.3-0.5C163.7,114.3,163.6,114.5,163.4,114.6z"/>
	<path class="st4" d="M140.2,84.4c-0.2,0.3-0.4,0.3-0.7,0.3C139.7,84.5,140,84.4,140.2,84.4z"/>
	<path class="st4" d="M146.8,96c-0.2-0.1-0.5-0.2-0.1-0.5C146.7,95.7,146.8,95.8,146.8,96z"/>
	<path class="st4" d="M127.9,97.7c0,0.2,0.4,0.4-0.1,0.6C127.8,98.1,127.7,97.9,127.9,97.7z"/>
	<path class="st4" d="M162.7,94c0-0.2,0-0.5,0.3-0.5C162.9,93.7,162.8,93.9,162.7,94z"/>
	<path class="st4" d="M162.4,94.5c0-0.2-0.1-0.5,0.3-0.5C162.6,94.2,162.5,94.4,162.4,94.5z"/>
	<path class="st4" d="M134.3,87.7c0,0.4-0.2,0.3-0.4,0.3C133.9,87.9,134.1,87.8,134.3,87.7z"/>
	<path class="st4" d="M143.6,113.3c-0.1,0.3-0.2,0.4-0.5,0.1C143.3,113.4,143.4,113.4,143.6,113.3z"/>
	<path class="st4" d="M154.3,81.9c0,0.1-0.1,0.2-0.1,0.2c-0.2,0-0.2-0.1-0.2-0.2C154.1,81.9,154.2,81.9,154.3,81.9z"/>
	<path class="st4" d="M161.4,95.9c0.1-0.1-0.2-0.5,0.3-0.4C161.6,95.6,161.5,95.7,161.4,95.9z"/>
	<path class="st4" d="M162.3,83.1c-0.2,0.3-0.3,0.1-0.3-0.1C162.1,83,162.3,83,162.3,83.1z"/>
	<path class="st4" d="M163.4,92.9c0-0.2,0-0.4,0.3-0.5C163.6,92.6,163.5,92.8,163.4,92.9z"/>
	<path class="st4" d="M123.5,121.7c0.2-0.3,0.3-0.1,0.3,0.1C123.7,121.9,123.6,121.9,123.5,121.7z"/>
	<path class="st4" d="M138.3,113.4c-0.2,0.2-0.3,0.1-0.3-0.1C138.1,113.4,138.2,113.4,138.3,113.4z"/>
	<path class="st4" d="M127.8,98.4c0,0.1,0,0.3-0.2,0.2c-0.1,0-0.1-0.2,0-0.2C127.7,98.4,127.7,98.4,127.8,98.4z"/>
	<path class="st4" d="M165.1,90.4c0-0.2,0.1-0.4,0.3-0.5C165.4,90.1,165.2,90.2,165.1,90.4z"/>
	<path class="st4" d="M150.9,123.2c0.1-0.3,0.1-0.4,0.3-0.1C151.1,123.2,151,123.2,150.9,123.2z"/>
	<path class="st4" d="M151.5,97.6c-0.2,0.3-0.3,0.2-0.3-0.1C151.3,97.5,151.4,97.6,151.5,97.6z"/>
	<path class="st4" d="M143.4,108.9c0.2,0,0.5-0.1,0.7,0.1C143.8,109.1,143.6,109.1,143.4,108.9z"/>
	<path class="st4" d="M137.8,108c0.2-0.3,0.3-0.2,0.3,0.1C138,108.1,137.9,108.1,137.8,108z"/>
	<path class="st4" d="M130.3,123.7c0.2-0.2,0.3-0.1,0.3,0.1C130.5,123.8,130.4,123.8,130.3,123.7z"/>
	<path class="st4" d="M155,93.4c0.2-0.3,0.3-0.2,0.3,0.1C155.2,93.5,155.1,93.4,155,93.4z"/>
	<path class="st4" d="M160.5,82.7c-0.2,0-0.4,0.1-0.5-0.1C160.2,82.6,160.4,82.6,160.5,82.7z"/>
	<path class="st4" d="M163.6,102.5c-0.2,0-0.3-0.1-0.3-0.3C163.4,102.2,163.5,102.3,163.6,102.5z"/>
	<path class="st4" d="M142.8,83.4c-0.1,0.2-0.3,0.2-0.5,0.2C142.5,83.5,142.6,83.5,142.8,83.4z"/>
	<path class="st4" d="M146.3,110.4c0.2,0.1,0.2,0.3,0,0.5C146.4,110.7,146.3,110.6,146.3,110.4z"/>
	<path class="st4" d="M128.1,101.6c0.2,0.1,0.2,0.3,0.2,0.5C128.2,102,128.2,101.8,128.1,101.6z"/>
	<path class="st4" d="M153.2,97.9c-0.2,0-0.4,0-0.5-0.1C152.9,97.8,153.1,97.8,153.2,97.9z"/>
	<path class="st4" d="M160.9,100.4c-0.2,0.1-0.4,0.2-0.3-0.2C160.6,100.2,160.7,100.3,160.9,100.4z"/>
	<path class="st4" d="M145.4,124.4c0.2-0.2,0.4-0.1,0.5-0.1C145.8,124.5,145.6,124.4,145.4,124.4z"/>
	<path class="st4" d="M163.9,83.6c-0.2,0-0.4,0-0.5-0.2C163.6,83.5,163.8,83.5,163.9,83.6z"/>
	<path class="st4" d="M133.8,88c0,0.2-0.1,0.3-0.4,0.3C133.6,88.2,133.7,88.1,133.8,88z"/>
	<path class="st4" d="M124.2,122c0.2,0,0.4,0,0.5,0.2C124.5,122.2,124.4,122.2,124.2,122z"/>
	<path class="st4" d="M162.3,101.3c-0.2,0-0.4,0-0.4-0.3C162,101,162.2,101.1,162.3,101.3z"/>
	<path class="st4" d="M143.1,83.3c-0.1,0.1-0.2,0.1-0.3,0.1C142.9,83.3,143,83.3,143.1,83.3z"/>
	<path class="st4" d="M139.6,108.3c0.1,0,0.3,0,0.4,0.1C139.8,108.4,139.7,108.4,139.6,108.3z"/>
	<path class="st4" d="M167.2,85c-0.1,0-0.3,0-0.3-0.2C167,84.8,167.1,84.9,167.2,85z"/>
	<path class="st4" d="M144.8,109.2c0.1,0,0.2,0,0.3,0.1C145,109.4,144.9,109.3,144.8,109.2z"/>
	<path class="st4" d="M130.8,110.3c-0.2,0-0.3,0-0.3-0.2C130.6,110.1,130.7,110.2,130.8,110.3z"/>
	<path class="st4" d="M129,123.4c0.1,0,0.3,0,0.4,0.1C129.3,123.5,129.1,123.5,129,123.4z"/>
	<path class="st4" d="M163.7,92.5c0-0.1,0-0.2,0.2-0.3C163.8,92.3,163.8,92.4,163.7,92.5z"/>
	<path class="st4" d="M132,124c0.1,0,0.3,0,0.4,0.1C132.2,124.1,132.1,124,132,124z"/>
	<path class="st4" d="M129.1,109.8c0,0.1,0,0.2-0.2,0.3C129,110,129.1,109.9,129.1,109.8z"/>
	<path class="st4" d="M144.3,109.1c0.1,0,0.3,0,0.4,0.1C144.5,109.2,144.4,109.2,144.3,109.1z"/>
	<path class="st4" d="M161.1,96c0.1,0,0.2,0,0.3,0C161.3,96.2,161.2,96.1,161.1,96z"/>
	<path class="st4" d="M147,96.3c-0.2,0-0.2-0.2-0.2-0.3C146.9,96.1,146.9,96.2,147,96.3z"/>
	<path class="st4" d="M126.6,122.8c0.1,0,0.3,0,0.4,0.1C126.9,122.9,126.7,122.9,126.6,122.8z"/>
	<path class="st4" d="M146.8,94.9c0-0.1,0-0.3,0.2-0.3C146.9,94.7,146.9,94.8,146.8,94.9z"/>
	<path class="st4" d="M139,113.6c-0.2,0-0.3,0-0.4-0.1C138.7,113.5,138.9,113.4,139,113.6z"/>
	<path class="st4" d="M156.6,93.9c0.2,0,0.3,0,0.4,0.1C156.9,94,156.7,94,156.6,93.9z"/>
	<path class="st4" d="M163.3,93.1c0,0-0.1-0.1-0.1-0.1c0.1,0,0.1,0,0.2-0.1C163.4,93,163.3,93,163.3,93.1z"/>
	<path class="st4" d="M134.9,87.2c0,0.1,0,0.1,0,0.2l0,0c-0.1,0-0.2,0-0.3,0C134.7,87.4,134.8,87.3,134.9,87.2z"/>
	<path class="st4" d="M164.6,91.1c0,0,0.1-0.1,0.1-0.1C164.7,91,164.6,91,164.6,91.1z"/>
	<path class="st4" d="M128,101c0,0.1,0.1,0.1,0.1,0.2C128,101.1,128,101.1,128,101z"/>
	<path class="st4" d="M150.3,93c0-0.1,0.1-0.1,0.1,0L150.3,93L150.3,93z"/>
	<path class="st4" d="M160.5,100.2c-0.1,0-0.1-0.1-0.2-0.1C160.4,100.1,160.5,100.2,160.5,100.2z"/>
	<path class="st4" d="M157.5,98.9c-0.1,0-0.1,0-0.2-0.1C157.4,98.9,157.4,98.9,157.5,98.9z"/>
	<path class="st4" d="M122,120.4c0,0.1-0.1,0.1-0.1,0.2C121.9,120.6,121.9,120.5,122,120.4z"/>
	<path class="st4" d="M157.1,98.8c-0.1,0-0.2-0.1-0.2-0.1C156.9,98.8,157,98.8,157.1,98.8z"/>
	<path class="st4" d="M151.8,93c0,0,0.1,0,0.1,0L151.8,93L151.8,93z"/>
	<path class="st4" d="M123.2,121.6c0.1-0.1,0.1,0,0.1,0C123.3,121.7,123.3,121.7,123.2,121.6z"/>
	<path class="st4" d="M154.2,93.2c0.1,0,0.1,0,0.2,0.1C154.3,93.3,154.3,93.3,154.2,93.2z"/>
	<path class="st4" d="M131.9,105.9c0.1,0,0.1,0.1,0.2,0.1C132,105.9,131.9,105.9,131.9,105.9z"/>
	<path class="st4" d="M134.1,107c0.1,0,0.1,0.1,0.2,0.1C134.2,107,134.2,107,134.1,107z"/>
	<path class="st4" d="M137.1,107.9c0.1,0,0.2,0.1,0.3,0.1C137.3,107.9,137.2,107.9,137.1,107.9z"/>
	<path class="st4" d="M138.8,108.2c0.1,0,0.2,0.1,0.3,0.1C138.9,108.2,138.9,108.2,138.8,108.2z"/>
	<path class="st4" d="M152,97.7c-0.1,0.1-0.1,0.1-0.1,0C151.9,97.7,151.9,97.7,152,97.7z"/>
	<path class="st4" d="M140.7,108.5c0.1,0,0.2,0.1,0.3,0.1C140.9,108.5,140.8,108.5,140.7,108.5z"/>
	<path class="st4" d="M129.8,109.5c-0.1,0-0.1-0.1-0.2-0.1C129.7,109.4,129.7,109.5,129.8,109.5z"/>
	<path class="st4" d="M130.4,110c-0.1,0-0.1-0.1-0.2-0.1C130.3,109.9,130.3,109.9,130.4,110z"/>
	<path class="st4" d="M129,110.1c0,0.1-0.1,0.1-0.1,0.2C128.9,110.2,128.9,110.2,129,110.1z"/>
	<path class="st4" d="M128.7,123.3c0.1-0.1,0.1-0.1,0.1,0C128.8,123.4,128.7,123.3,128.7,123.3z"/>
	<path class="st4" d="M165.2,110.3c0,0,0-0.1,0-0.1c0,0,0,0,0.1,0C165.2,110.2,165.2,110.2,165.2,110.3z"/>
	<path class="st4" d="M128.4,102.2c0,0.1,0.1,0.1,0.1,0.2C128.5,102.3,128.4,102.3,128.4,102.2z"/>
	<path class="st4" d="M150.5,97.4c-0.1,0.1-0.1,0.1-0.1,0C150.4,97.3,150.4,97.3,150.5,97.4z"/>
	<path class="st4" d="M149.5,123.6c0.1,0,0.1-0.1,0.2-0.1C149.7,123.6,149.6,123.6,149.5,123.6z"/>
	<path class="st4" d="M135.7,112.7c-0.1,0.1-0.1,0-0.1,0C135.6,112.7,135.6,112.7,135.7,112.7z"/>
	<path class="st4" d="M148.2,123.9c0.1,0,0.2,0,0.3,0C148.4,123.9,148.3,124,148.2,123.9z"/>
	<path class="st4" d="M150.8,82c0,0.1-0.1,0.1-0.1,0C150.7,82,150.7,82,150.8,82z"/>
	<path class="st4" d="M143,113.5c-0.1,0-0.2,0.1-0.3,0.1C142.8,113.5,142.9,113.5,143,113.5z"/>
	<path class="st4" d="M163.9,113.8c0-0.1,0.1-0.1,0.1-0.2C163.9,113.7,163.9,113.8,163.9,113.8z"/>
	<path class="st4" d="M135.8,124.5c0.1-0.1,0.1-0.1,0.1,0L135.8,124.5L135.8,124.5z"/>
	<path class="st4" d="M155.6,82c-0.1,0.1-0.1,0.1-0.1,0C155.5,82,155.6,82,155.6,82z"/>
	<path class="st4" d="M161.8,83c-0.1,0-0.1-0.1-0.2-0.1C161.7,82.9,161.7,83,161.8,83z"/>
	<path class="st4" d="M144.2,124.6c0-0.1,0.1-0.1,0.1,0L144.2,124.6L144.2,124.6z"/>
	<path class="st4" d="M147.6,96.7c-0.1,0-0.1-0.1-0.2-0.1C147.5,96.6,147.6,96.7,147.6,96.7z"/>
	<path class="st4" d="M143.4,83.2c-0.1,0-0.1,0.1-0.2,0.1C143.3,83.3,143.4,83.3,143.4,83.2z"/>
	<path class="st2" d="M128.2,96.2c0,0.1-0.1,0.1-0.1,0.2C128.1,96.3,128.2,96.3,128.2,96.2z"/>
	<path class="st4" d="M126.1,114.4c0,0.1-0.1,0.1-0.1,0.2C126,114.5,126,114.4,126.1,114.4z"/>
	<path class="st4" d="M164.3,83.8c-0.1,0-0.1-0.1-0.2-0.1C164.2,83.7,164.3,83.7,164.3,83.8z"/>
	<path class="st4" d="M160.6,95.7c0.1,0,0.2,0.1,0.2,0.1C160.7,95.8,160.6,95.7,160.6,95.7z"/>
	<path class="st4" d="M140.9,84.1c-0.1,0-0.2,0.1-0.2,0.1C140.7,84.2,140.8,84.1,140.9,84.1z"/>
	<path class="st4" d="M140.4,84.3c-0.1,0-0.1,0.1-0.2,0.1C140.3,84.3,140.3,84.3,140.4,84.3z"/>
	<path class="st4" d="M128.5,95.3c0,0.1-0.1,0.2-0.1,0.2C128.4,95.4,128.5,95.3,128.5,95.3z"/>
	<path class="st4" d="M146.8,95.2c0,0,0-0.1,0-0.1c0,0,0,0,0.1,0C146.8,95.1,146.8,95.1,146.8,95.2z"/>
	<path class="st4" d="M158.5,94.6c0.1,0,0.1,0.1,0.2,0.1C158.6,94.7,158.5,94.6,158.5,94.6z"/>
	<path class="st4" d="M134.5,87.6c-0.1,0.1-0.1,0.1-0.2,0.2C134.3,87.7,134.4,87.6,134.5,87.6z"/>
	<path class="st4" d="M157.8,94.3c0.1,0,0.2,0.1,0.2,0.1C158,94.4,157.9,94.3,157.8,94.3z"/>
	<path class="st4" d="M166.8,87.8c0-0.1,0.1-0.2,0.1-0.2C166.9,87.7,166.8,87.7,166.8,87.8z"/>
	<path class="st4" d="M160.5,118.1c0.1-0.1,0.1-0.1,0.2-0.2C160.6,118,160.6,118,160.5,118.1z"/>
	<path class="st4" d="M156.1,93.7c0.1,0,0.2,0.1,0.2,0.1C156.3,93.8,156.2,93.7,156.1,93.7z"/>
	<path class="st4" d="M166.2,88.7c0.1-0.1,0.1-0.2,0.2-0.2C166.3,88.6,166.2,88.7,166.2,88.7z"/>
	<path class="st4" d="M162.5,101.4c0,0-0.1-0.1-0.1-0.1C162.4,101.4,162.4,101.4,162.5,101.4z"/>
	<path class="st4" d="M134.4,124.3c0.1,0,0.2,0.1,0.3,0.1C134.5,124.4,134.4,124.4,134.4,124.3z"/>
	<path class="st8" d="M100.7,95.5c0.9,0.1,1.9,0.1,2.8,0.3c4.6,1.1,6.6,5.3,4.6,9.6c-1.6,3.6-4.6,5.4-8.3,6
		c-1.8,0.3-3.6,0.3-5.4-0.3c-3.9-1.2-5.7-4.4-4.5-8.3c1.2-4.1,4.3-6.2,8.3-7.1C98.9,95.6,99.8,95.6,100.7,95.5z M100.8,99
		c-0.7,0-1.3,0-2,0.2c-2.8,0.7-5,2.1-5.8,5.1c-0.5,1.8,0.2,3.1,2,3.6c2.9,0.9,5.6,0.4,8.1-1.3c1-0.7,1.7-1.7,2.1-2.9
		c0.7-2.2-0.2-3.9-2.5-4.4C102,99,101.4,99,100.8,99z"/>
	<path class="st4" d="M148,93c0,0.2-0.1,0.3-0.3,0.3c-0.2,0-0.3-0.1-0.4-0.2c0-0.3,0.2-0.2,0.4-0.3C147.9,92.8,148,92.8,148,93z"/>
	<path class="st4" d="M132.6,111.6c-0.2,0.5-0.5,0.1-0.8,0C132.2,111.4,132.4,111.7,132.6,111.6L132.6,111.6z"/>
	<path class="st4" d="M156.5,93.1c0.1,0,0.2,0.1,0.2,0.1c0,0.1-0.1,0.1-0.2,0.2c-0.1,0-0.2,0-0.2-0.1
		C156.3,93.1,156.4,93.1,156.5,93.1z"/>
	<path class="st4" d="M129.6,94.4c-0.1,0-0.2-0.1-0.2-0.2c0-0.1,0.1-0.2,0.1-0.2c0.1,0,0.1,0.1,0.2,0.2
		C129.7,94.2,129.7,94.3,129.6,94.4z"/>
	<path class="st4" d="M135.4,113c-0.1,0.1-0.1,0.1-0.2,0.1c-0.1,0-0.2,0-0.2-0.2c0,0,0.1-0.1,0.2-0.1
		C135.2,112.9,135.3,113,135.4,113z"/>
	<path class="st4" d="M138.5,114.1c0,0-0.1,0.1-0.1,0c0,0,0-0.1-0.1-0.1c0,0,0.1-0.1,0.1,0C138.5,114,138.5,114.1,138.5,114.1z"/>
	<path class="st4" d="M163.2,102.9c0,0,0.1,0,0.1,0.1c0,0,0,0.1,0,0.1c0,0-0.1,0-0.1-0.1C163.1,103,163.2,102.9,163.2,102.9z"/>
	<path class="st4" d="M124.8,116.9c0,0,0.1,0,0.1,0.1c0,0,0,0.1,0,0.1c0,0-0.1,0-0.1-0.1C124.8,117,124.8,116.9,124.8,116.9z"/>
	<path class="st4" d="M162,102c0,0,0.1,0,0.1,0.1c0,0,0,0.1,0,0.1c0,0-0.1,0-0.1-0.1C161.9,102.1,162,102,162,102z"/>
	<path class="st4" d="M134.9,87.4C134.9,87.4,135,87.5,134.9,87.4C135,87.5,134.9,87.4,134.9,87.4C134.9,87.4,134.9,87.4,134.9,87.4
		z"/>
	<path class="st8" d="M271,95.5c1.8,0,3.2,0.2,4.6,0.8c3.5,1.5,4.9,5.2,3.3,9.1c-1.6,3.6-4.6,5.4-8.3,6.1c-1.8,0.3-3.7,0.3-5.5-0.3
		c-3.8-1.1-5.6-4.2-4.5-8c1.2-4.2,4.2-6.4,8.4-7.4C269.6,95.7,270.4,95.6,271,95.5z M268.3,108.3c0.8,0,1.7-0.1,2.5-0.3
		c2.5-0.7,4.5-2,5.2-4.7c0.5-2-0.3-3.3-2.2-3.9c-1.4-0.4-2.9-0.4-4.3-0.1c-3.1,0.6-5.4,2.7-5.8,5.5c-0.2,1.4,0.3,2.4,1.6,3
		C266.2,108.1,267.3,108.2,268.3,108.3z"/>
	<path class="st9" d="M172.9,142.7c-2.3,0-3.8-1.3-3.6-3.3c0.1-0.9,0.5-1.7,1.1-2.4c1.5-1.5,3.4-1.9,5.4-1.4
		c1.6,0.4,2.3,1.9,1.9,3.5C177.3,141.4,175.4,142.7,172.9,142.7z"/>
	<path class="st10" d="M246.1,141.6c-1.6,0-1.6,0-1-1.5c0.6-1.2,1.1-2.5,1.7-3.7c0.1-0.2,0.1-0.5,0.3-0.4c0.3,0,0.2,0.3,0.2,0.5
		c0,1.5,0.2,3,0.4,4.5c0.1,0.5,0,0.8-0.6,0.7C246.8,141.6,246.5,141.6,246.1,141.6z"/>
	<path class="st1" d="M233.4,145.7c0,0,0.1-0.1,0.1-0.1c0,0.1,0,0.1,0,0.2C233.5,145.8,233.5,145.8,233.4,145.7z"/>
	<path class="st10" d="M291,123.5c-0.8,0.8-1.7,0.6-2.6,0.3c-0.6-0.2-1-0.6-1-1.3c0-0.9,0.4-1.6,1.2-2c0.7-0.4,1.5-0.5,2.3-0.2
		c0.7,0.2,1.2,0.7,1.2,1.5C292.2,122.5,291.7,123.3,291,123.5c-0.1-0.1-0.1-0.2-0.1-0.3c-0.3-0.4-0.5-0.8,0.2-1.1
		c0.3-0.1,0.3-0.5,0.2-0.8c-0.1-0.3-0.3-0.4-0.6-0.4c-1.7-0.2-1.9-0.2-2.2,1.5c-0.1,0.3-0.1,0.5-0.2,0.8c0,0.1-0.1,0.3,0.1,0.4
		c0.2,0,0.4,0.1,0.5-0.2c0.1-0.1,0-0.3,0.1-0.4c0.1-0.2,0-0.5,0.4-0.6c0.4,0,0.4,0.3,0.5,0.5C290.1,123.4,290.4,123.6,291,123.5z"/>
	<path class="st4" d="M291,123.5c-0.6,0.1-1-0.1-1.1-0.7c-0.1-0.2-0.1-0.5-0.5-0.5c-0.4,0-0.3,0.4-0.4,0.6c-0.1,0.1,0,0.3-0.1,0.4
		c-0.1,0.2-0.3,0.2-0.5,0.2c-0.2,0-0.1-0.2-0.1-0.4c0-0.3,0.1-0.5,0.2-0.8c0.3-1.7,0.5-1.8,2.2-1.5c0.3,0,0.6,0.1,0.6,0.4
		c0.1,0.3,0,0.7-0.2,0.8c-0.7,0.3-0.5,0.7-0.2,1.1C290.9,123.3,291,123.4,291,123.5C291,123.5,291,123.5,291,123.5z M290,121.2
		c-0.2,0.1-0.6-0.2-0.7,0.3c0,0.4,0.3,0.3,0.5,0.3c0.3,0,0.8,0.1,0.8-0.3C290.7,121.1,290.3,121.3,290,121.2z"/>
	<path class="st10" d="M290,121.2c0.3,0.1,0.7-0.1,0.7,0.3c-0.1,0.4-0.5,0.3-0.8,0.3c-0.2,0-0.5,0.1-0.5-0.3
		C289.4,121,289.8,121.4,290,121.2z"/>
</g>
</svg>
