<svg id="Layer_1" data-name="Layer 1" xmlns="http://www.w3.org/2000/svg" viewBox="0 0 320.25 220.25"><defs><style>.cls-1{fill:none;stroke:#fff;stroke-miterlimit:10;stroke-width:0.25px;}.cls-2{fill:#e21837;}.cls-3{fill:#005da9;}.cls-4{fill:#ec697d;}.cls-5{fill:#3d83be;}.cls-6{fill:#4588c0;}.cls-7{fill:#f7c7ce;}.cls-8{fill:#95bbdb;}.cls-9{fill:#79aad2;}.cls-10{fill:#c6daec;}.cls-11{fill:#2f7bb9;}.cls-12{fill:#e31c3a;}</style></defs><title>tab-costco</title><rect class="cls-1" x="0.13" y="0.13" width="320" height="220"/><path class="cls-2" d="M74.55,88.39a35.21,35.21,0,0,0-3.95-2.74,17.09,17.09,0,0,0-19.7,1.8A10.33,10.33,0,0,0,47.44,93c-.76,3.48.85,6.64,4.32,8.46,4,2.11,8.21,1.85,12.43.79a25.53,25.53,0,0,0,7.17-3.16l1.18-.69-2.79,11.89c-.47,2-1,4-1.4,6a1.42,1.42,0,0,1-1.2,1.23A61,61,0,0,1,57.37,119c-6.11.51-12.17.44-18.05-1.58-5.63-1.93-10.41-5-13.34-10.36-3.78-6.87-2.95-13.74.59-20.4,4-7.48,10.33-12.41,17.94-15.76,10.47-4.61,21.27-4.77,32.23-2,.83.21.95.52.81,1.3C76.53,76.2,75.56,82.2,74.55,88.39Z" transform="translate(0.02 0.02)"/><path class="cls-2" d="M129.83,93.83v-.5c-.25-.45.19-.79.2-1.19a15.78,15.78,0,0,1,7.68-10.35c10.23-6.05,20.86-6.55,31.76-1.86,1,.42,1.11.75.47,1.67-2,2.91-4,5.87-5.87,8.85-.43.66-.72.69-1.37.31a17.87,17.87,0,0,0-9.64-2.68,6,6,0,0,0-3.08.81,1.83,1.83,0,0,0-1,1.75c.08.82.75,1.11,1.41,1.25,2.33.51,4.67.95,7,1.44a20.25,20.25,0,0,1,5.49,1.93c4.13,2.24,5.68,5.72,4.59,10.3s-3.9,7.67-7.74,10a32.4,32.4,0,0,1-17.1,4.45A47.79,47.79,0,0,1,125,116.77c-.33-.13-.66-.27-1-.42a3,3,0,0,1-.34-.22c2.52-3.73,5.05-7.44,7.53-11.19.45-.68.74-.31,1.11,0a19.9,19.9,0,0,0,7.85,3.6,11.26,11.26,0,0,0,5.78-.09,7.5,7.5,0,0,0,1.21-.49,2.06,2.06,0,0,0,1.32-2.19c-.14-1-1-1.23-1.75-1.37-2.38-.45-4.79-.78-7.17-1.24a15.65,15.65,0,0,1-6.15-2.47A7.53,7.53,0,0,1,130,95.8,2.55,2.55,0,0,1,129.83,93.83Z" transform="translate(0.02 0.02)"/><path class="cls-2" d="M243,102.74c-.74,3.3-1.42,6.32-2.1,9.33-.42,1.86-.89,3.71-1.28,5.57a1,1,0,0,1-.87,1c-7.79,1.57-15.6,2.52-23.27-.45-5.87-2.27-10-6.23-11.41-12.6a18.11,18.11,0,0,1,2.15-12.67c4-7.32,10.31-11.75,18-14.31,7.29-2.41,14.64-2.12,22-.25.63.16.87.36.75,1.12-.79,4.7-1.52,9.42-2.23,14.13-.17,1.11-.57.59-1,.23-4.43-3.5-9.26-4.6-14.61-2.37a11.07,11.07,0,0,0-5,4c-2.76,4-1.43,8.51,3.09,10.36,3.09,1.26,6.23,1,9.36.1A22.46,22.46,0,0,0,243,102.74Z" transform="translate(0.02 0.02)"/><path class="cls-2" d="M169.51,119.37l8.65-28.56c-.82,0-1.55,0-2.27,0-2.43.09-4.85.18-7.28.31-.64,0-.74-.13-.56-.72,1.24-4.06,2.48-8.13,3.68-12.2.23-.78.75-.66,1.29-.66H191.4c6.09,0,12.18,0,18.27,0,1,0,1.33.07,1,1.2-1.22,3.78-2.34,7.59-3.45,11.4-.23.78-.54,1.06-1.4,1-2.66-.18-5.33-.21-8-.39-.86-.06-1.14.25-1.37,1q-4,13.29-8,26.56c-.15.49-.11,1.08-1,1.07C181.48,119.35,175.55,119.37,169.51,119.37Z" transform="translate(0.02 0.02)"/><path class="cls-3" d="M67,130.07q-20.24,0-40.48,0c-1.07,0-1.41-.27-1.31-1.33a21.5,21.5,0,0,0,0-3c0-.69.24-.95.9-.86a3.78,3.78,0,0,0,.48,0q39.89,0,79.77,0c1.12,0,1.54.34,1.68,1.39a24,24,0,0,0,.65,2.91c.19.7,0,1-.74.89a7.62,7.62,0,0,0-.84,0Z" transform="translate(0.02 0.02)"/><path class="cls-3" d="M112.08,143.75H110.7q-42,0-84.06,0c-1,0-1.52-.17-1.39-1.33s-.34-2.57.22-3.23,2.16-.24,3.29-.25q40.42,0,80.84,0c1.07,0,1.57.21,1.7,1.35A32.63,32.63,0,0,0,112.08,143.75Z" transform="translate(0.02 0.02)"/><path class="cls-3" d="M67.85,136.9q-20.6,0-41.2,0c-1,0-1.54-.19-1.39-1.35s-.45-2.54.22-3.23,2.18-.24,3.32-.24q39.65,0,79.29,0c1,0,1.54.23,1.64,1.29s1.11,2.59.5,3.35-2.17.18-3.32.19Z" transform="translate(0.02 0.02)"/><path class="cls-3" d="M283.08,143.73c-2.23,0-4.46,0-6.68,0-.77,0-1-.19-.82-.94q1.67-8.59,3.28-17.2c.1-.55.31-.71.84-.71q6.86,0,13.72,0c.66,0,.7.24.58.78-.24,1.09-.46,2.18-.6,3.28-.11.87-.44,1.19-1.36,1.14-1.63-.08-3.27,0-4.89,0-1.07-.07-1,.6-1.11,1.27-.09,1,.66.48,1,.49,1.43.06,2.86.05,4.29,0,.66,0,1,.11.75.84-.09.26-.09.55-.16.82-.27,1.07,0,2.57-.81,3.11s-2.15.16-3.26.17c-.72,0-1.43,0-2.15,0-.54,0-.71.19-.85.72-.27.94,0,1.15.93,1.12,1.71-.07,3.42,0,5.13,0,.62,0,1,.06.74.84a9.16,9.16,0,0,0-.2,1.05c-.25,1.07,0,2.57-.8,3.11s-2.15.16-3.26.17C285.95,143.74,284.52,143.73,283.08,143.73Z" transform="translate(0.02 0.02)"/><path class="cls-4" d="M129.83,93.83l.19,2-.4.92C129.65,95.75,129.37,94.76,129.83,93.83Z" transform="translate(0.02 0.02)"/><path class="cls-5" d="M163.07,136.38l.27-1.71.14,0q0,1.33,0,2.67C163.19,137.1,163.43,136.62,163.07,136.38Z" transform="translate(0.02 0.02)"/><path class="cls-6" d="M188.82,132.47c.12.46-.12.82-.43,1.47V131.3C188.71,131.63,188.45,132.17,188.82,132.47Z" transform="translate(0.02 0.02)"/><path class="cls-7" d="M130,92.14a2.84,2.84,0,0,1-.2,1.19c-.34-.16-.23-.46-.21-.73Z" transform="translate(0.02 0.02)"/><path class="cls-8" d="M188.15,135.87a1.26,1.26,0,0,1-.23,1l-.22-.22c.13-.31.09-.7.42-.91.07,0,.1.06.09.1S188.17,135.87,188.15,135.87Z" transform="translate(0.02 0.02)"/><path class="cls-9" d="M164.18,132.22c-.06.24-.07.51-.35.65A.67.67,0,0,1,164,132Z" transform="translate(0.02 0.02)"/><path class="cls-10" d="M235.39,141.56c.16-.21.35-.58.61-.35s-.12.45-.32.63Z" transform="translate(0.02 0.02)"/><path class="cls-2" d="M129.63,96.71c-.65,6.47-3.8,11.55-8.75,15.59a34.7,34.7,0,0,1-17,7.19,37.69,37.69,0,0,1-19.29-1.56c-5.91-2.22-10.38-5.94-11.68-12.45a19.24,19.24,0,0,1,2.84-14.06c3.6-5.93,9-9.69,15.42-12,8.81-3.18,17.74-3.69,26.62-.37,5.54,2.07,9.75,5.64,11.46,11.58.19.65.29,1.32.43,2a1.49,1.49,0,0,1,.39.82,1.75,1.75,0,0,1,0,.57C129.92,94.91,129.79,95.81,129.63,96.71Zm-28.42,10a10.39,10.39,0,0,0,9.41-7.7,6.41,6.41,0,0,0-4.22-7.8,12.22,12.22,0,0,0-5.18-.5,10.76,10.76,0,0,0-9.47,7.38c-1.1,3.9.63,7.08,4.51,8.27a12.34,12.34,0,0,0,3.49.44C100.09,106.78,100.65,106.76,101.21,106.71Z" transform="translate(0.02 0.02)"/><path class="cls-2" d="M268.52,120.05a36.49,36.49,0,0,1-13-2.28c-10.45-4.17-14.3-13.64-9.68-23.92a25.39,25.39,0,0,1,11.92-12.26c10.27-5.32,21-6.5,31.92-2.32,6.08,2.32,10.4,6.55,11.33,13.3.81,5.9-1.06,11.18-4.75,15.77-4.61,5.74-10.83,8.82-17.83,10.54A45.41,45.41,0,0,1,268.52,120.05Zm4.16-13.34a10.52,10.52,0,0,0,9.21-7c1.3-4.21-.77-7.78-5.06-8.77a13.61,13.61,0,0,0-4.15-.21,10.78,10.78,0,0,0-9.36,7c-1.37,4.19.6,7.71,4.86,8.74a14.49,14.49,0,0,0,3,.31C271.56,106.78,272.12,106.76,272.68,106.71Z" transform="translate(0.02 0.02)"/><path class="cls-3" d="M187.7,136.61c-2.08,4.3-5.81,6.26-10.26,7.1a15.75,15.75,0,0,1-8.92-.68c-2.6-1-4.57-2.71-5-5.67a11.82,11.82,0,0,1-.13-2.53c-.09-.15-.2.1-.07,0a1.64,1.64,0,0,1-.21,1.54c-.41,2.23-.83,4.45-1.2,6.68-.1.6-.4.67-.9.67-2.11,0-4.22,0-6.33,0-.75,0-.76-.32-.66-.87.28-1.44.55-2.89.84-4.33s.27-1.35-1.15-1.35c-.92,0-1.83,0-2.75,0-.71,0-1,.22-1.06.92-.24,1.61-.64,3.2-.89,4.81-.1.67-.38.84-1,.83-1.95,0-3.9-.07-5.85,0-1,0-1.19-.27-1-1.19,1-5.19,2-10.38,3-15.57a1.89,1.89,0,0,0,0-.36c-.39.62-.74,1.14-1.07,1.68-3,4.85-6,9.69-8.89,14.55a1.57,1.57,0,0,1-1.61.88c-1.67-.06-3.35-.09-5,0-.93.05-1.14-.32-1.18-1.13-.15-3-.35-6-.73-9.07-.32.87-.57,1.76-1,2.59-1.11,2.33-2.29,4.63-3.41,7a1,1,0,0,1-1.11.64c-1.79,0-3.58,0-5.37,0-.66,0-.87-.23-1-.84q-1.94-8.54-3.94-17.07c-.16-.68-.11-1,.74-1,2.23.06,4.46.05,6.69,0,.76,0,.91.26.95,1,.18,3.37.42,6.74.73,10.13,1.29-3.47,3.19-6.63,4.73-10a1.58,1.58,0,0,1,1.77-1.14,31.58,31.58,0,0,0,4.06,0c.82,0,1.08.21,1.13,1,.2,3.14.49,6.27.75,9.4a1.18,1.18,0,0,0,.21.59c.57-1.45,1.12-2.89,1.81-4.27q1.48-3,2.87-6a1.08,1.08,0,0,1,1.17-.74c4.7,0,9.39,0,14.09,0,.85,0,.89.32.75,1-.32,1.52-.58,3-.89,4.56-.13.63.06.91.71.83h.12c1.31-.05,2.91.5,3.84-.2s.65-2.35.9-3.58c.52-2.58.51-2.58,3.13-2.58,1.31,0,2.63.06,3.94,0,1.06-.07,1.39.15,1.12,1.29-.46,1.93-.74,3.9-1.1,5.86a.41.41,0,0,0,0,.44,1.5,1.5,0,0,1,.2-.25c2.12-4.41,5.93-6.44,10.49-7.31a15,15,0,0,1,8.55.68c2.64,1.06,4.62,2.75,5.17,5.71a14.66,14.66,0,0,1,.19,1.84c.06-.13,0-.46.24-.67.42-2.3.85-4.61,1.24-6.92.1-.57.41-.67.92-.66,2.19,0,4.38,0,6.56,0,.69,0,.86.13.71.86-.74,3.66-1.36,7.34-2.11,11-.18.89.09,1,.85,1,1.67,0,3.34,0,5,0,.66,0,.83.21.7.83-.31,1.52-.62,3-.88,4.56-.08.49-.28.65-.77.64q-6.86,0-13.72,0c-.71,0-.65-.33-.55-.82.39-2,.76-4.06,1.14-6.09.11-.31,0-.65.14-1,.31-.29.13-.71.22-1-.08.19,0,.47-.07.72C187.92,135.88,188.08,136.39,187.7,136.61Zm-7.59-2a2.77,2.77,0,0,0-1.9-3.49,5,5,0,0,0-5.38,1.29,3.6,3.6,0,0,0-.94,3.94,3.06,3.06,0,0,0,2.88,1.75C177.74,138,179.61,136.68,180.11,134.58Z" transform="translate(0.02 0.02)"/><path class="cls-11" d="M188.15,135.87a.17.17,0,0,1,0-.16q0-.39,0-.78C188.42,135.25,188.47,135.57,188.15,135.87Z" transform="translate(0.02 0.02)"/><path class="cls-3" d="M235.39,141.56c-4.89,3.18-10.07,2.94-15.36,1.24-.65-.21-1.3-.62-1.35.59,0,.45-.47.33-.77.33-4.62,0-9.24,0-13.86,0-.82,0-.77-.32-.65-.91.93-4.84,1.84-9.68,2.75-14.53.09-.47.18-.94.28-1.4.41-2,.41-2,2.51-2,4,0,8,0,11.95,0,.91,0,1.13.29.89,1.09,0,.15-.08.31-.11.46-.24,1.16-.11,2.73-.82,3.38s-2.43.19-3.69.25c-.79,0-1.59,0-2.39,0-.55,0-.74.2-.85.73-.17.8-.05,1.11.87,1.06,1.47-.09,2.95,0,4.42,0,.68,0,.85.23.7.84-.06.23-.1.47-.15.7-.26,1.11,0,2.67-.83,3.22s-2.23.17-3.38.19c-.68,0-1.35,0-2,0-.44,0-.69.07-.82.6-.22.87-.2,1.3.9,1.24,1.67-.09,3.35,0,5,0,.86,0,1,.26.83,1a4.45,4.45,0,0,0-.14,1.85c.73-1.09,1.52-2.15,2.17-3.29.5-.88.88-1.17,1.84-.45a6.44,6.44,0,0,0,4.26,1.28,4.77,4.77,0,0,0,1.16-.22c.51-.16,1-.45,1-1.06s-.63-.67-1.07-.76a33.79,33.79,0,0,1-3.74-.74c-3.39-1.09-4.39-3.66-2.52-6.71,1.63-2.66,4.25-3.89,7.16-4.51a14.74,14.74,0,0,1,9,.83c.82.35.88.67.38,1.37-.77,1.06-1.47,2.17-2.14,3.3-.32.54-.59.55-1.11.25a7.38,7.38,0,0,0-3.87-1,2.68,2.68,0,0,0-1.37.35.82.82,0,0,0-.48.77c0,.39.32.53.64.6l3,.66a8.29,8.29,0,0,1,3,1.19c1.59,1.1,1.84,2.66,1.65,4.46.39-.63.79-1.26,1.18-1.9,2-3.37,4.09-6.72,6.11-10.11a1.41,1.41,0,0,1,1.41-.8c2.35,0,4.7.06,7,0,.84,0,1.15.22,1.34,1,1.14,5,2.34,9.9,3.53,14.84.07.3,0,.65.41.82,1-5.2,2-10.38,2.93-15.58.16-.89.47-1.17,1.37-1.14,2.07.07,4.14,0,6.21,0,.73,0,.84.2.7.89-.74,3.7-1.4,7.42-2.13,11.13-.13.67,0,.83.65.82,1.75,0,3.5,0,5.26,0,.64,0,.82.15.67.81-.32,1.44-.57,2.89-.8,4.34-.11.66-.36.89-1.08.89q-10.57,0-21.14,0c-.79,0-1.21-.18-1.15-1,.07-1-.35-1.47-1.46-1.37a20,20,0,0,1-3.7,0,1.42,1.42,0,0,0-1.73,1.16c-.27,1-.87,1.3-1.91,1.26-2.37-.09-4.74,0-7.27,0l1-1.89C235.82,141.51,235.63,141.5,235.39,141.56Zm14.38-4.67c.29,0,.58,0,.55-.43q-.2-2.6-.41-5.2l-.23,0-2.56,5.66Z" transform="translate(0.02 0.02)"/><path class="cls-12" d="M292.08,119.95a2.42,2.42,0,0,1-2.55-1.58,2.46,2.46,0,0,1,1.1-2.8,3.81,3.81,0,0,1,3.25-.77,2.19,2.19,0,0,1,1.34,3.72A3.83,3.83,0,0,1,292.08,119.95Zm1.38-3.74c.39.22.49.51.13.83a.89.89,0,0,0,0,1.42.79.79,0,0,0,.43.23,1.76,1.76,0,0,0,.86-2.32c-.37-.94-1.3-1.06-2.21-1a4.19,4.19,0,0,0-.8.22C292.16,116.39,293,115.92,293.46,116.21Zm-2.81,2.44a.56.56,0,0,0,.64-.28c.23-1.29.73-2.3,2.29-2.21.06,0,.11-.1.16-.17-.56-.47-1.33.07-1.9-.38C290.28,116.38,289.9,117.35,290.65,118.65Zm3.34,0-.24-.27a.72.72,0,0,1-.44-.13c-1.1-1-1.1-1-2.13.1,0,0-.07,0-.11,0l-.42.23A2.5,2.5,0,0,0,294,118.69Zm-.15-1.46c.48-.33.5-.87-.1-1.24-2.09-.05-2.09-.05-2.56,2l-.11.47c.54.5.71.2.77-.35,0-.24.11-.49.39-.52s.36.25.48.44c.42.65.42.65,1,.43C293.42,118,293.2,117.67,293.84,117.23Zm-1.81-.36a1.47,1.47,0,0,0,1.59-.22C293,116.5,292.51,116.29,292,116.87Z" transform="translate(0.02 0.02)"/></svg>