<?xml version="1.0" encoding="utf-8"?>
<!-- Generator: Adobe Illustrator 22.1.0, SVG Export Plug-In . SVG Version: 6.00 Build 0)  -->
<svg version="1.1" id="Layer_1" xmlns="http://www.w3.org/2000/svg" xmlns:xlink="http://www.w3.org/1999/xlink" x="0px" y="0px"
	 viewBox="0 0 320.3 220.3" style="enable-background:new 0 0 320.3 220.3;" xml:space="preserve">
<style type="text/css">
	.st0{fill:#E85126;}
	.st1{fill:#F9A51D;}
	.st2{fill:#DD244D;}
	.st3{fill:#6E7072;}
	.st4{fill:#44BBD3;}
	.st5{fill:#1582C4;}
	.st6{fill:#782B8F;}
	.st7{fill:#0C509D;}
	.st8{fill:#069F83;}
	.st9{fill:#8EC646;}
	.st10{fill:#363641;}
	.st11{fill:#7F3236;}
	.st12{fill:#B72569;}
	.st13{fill:#CA2233;}
	.st14{fill:#70323E;}
	.st15{fill:#FEFEFE;}
	.st16{fill:none;stroke:#FFFFFF;stroke-width:0.25;stroke-miterlimit:10;}
</style>
<title>logo-cgm-en</title>
<g>
	<path class="st0" d="M17.6,106.1c0-5,0-10,0-15c0-0.6,0.1-0.8,0.8-0.7c3.1,0.2,6,1.2,8.5,3c0.2,0.1,0.4,0.3,0.6,0.4
		c0,0,0,0.1,0,0.1c-0.2,2.6,0,5.2-0.1,7.9c0,0.4,0.2,0.4,0.5,0.4h4.9h0.1c0.3,1.1,0.4,2.2,0.4,3.3c0,0.5,0.2,0.6,0.6,0.6
		c1.7,0,3.4,0,5.2,0h9.8c-0.1,0.1-0.2,0.3-0.3,0.4c-2.4,2.4-4.7,4.8-7.1,7.1c-0.7,0.8-1.5,1.6-2.4,2.3h-5.7l-0.1-0.1
		c0-3.1,0-6.2,0-9.3c0-0.4-0.1-0.5-0.5-0.5c-1.1,0-2.2,0-3.3,0l-1,0L17.6,106.1z"/>
	<path class="st1" d="M39.3,90.4c-0.1-0.2-0.1-0.5-0.1-0.8c0-4.8,0-9.5,0-14.2c0-0.7,0.2-0.9,0.9-0.8c1.9,0.1,3.8,0.6,5.6,1.4
		c-0.5,0.5-1,1-1.4,1.5c-0.3,0.3-0.3,0.5,0,0.8c2.4,2.2,5.4,3.6,8.6,4c0.8,1.5,1.4,3,1.8,4.6c0,0.5,0.1,0.9,0.4,1.3v2
		c0,0,0,0.1,0,0.1c-1.2,0-2.5,0-3.7,0h-10h-1.8C39.4,90.4,39.3,90.4,39.3,90.4z"/>
	<path class="st2" d="M55,90.3v-2c0.1-0.1,0.1-0.2,0.2-0.2c0.3-2,1-3.9,2-5.7l0.2-0.2c0.3,0,0.6,0,1-0.1c2.7-0.6,5.2-1.9,7.3-3.7
		c0.4-0.3,0.4-0.6,0-1c-0.4-0.4-1-1-1.4-1.4c1.9-0.8,3.9-1.3,5.9-1.4c0.4,0,0.5,0.1,0.5,0.5c0,5,0,10,0,14.9c0,0.1,0,0.3-0.1,0.4
		c0,0-0.1,0-0.1,0H56.9C56.3,90.3,55.6,90.2,55,90.3z"/>
	<path class="st0" d="M57.3,82.2l-0.2,0.2c-1.4,0.1-2.9,0.1-4.3,0c-3.2-0.4-6.2-1.9-8.6-4c-0.3-0.3-0.3-0.5,0-0.8
		c0.5-0.5,1-1,1.4-1.5l5.6-5.5l3.3-3.3c0.2-0.2,0.4-0.4,0.7-0.1l8.9,8.9l-1.5,1C60.4,78.2,58.6,80,57.3,82.2z"/>
	<path class="st1" d="M82.5,93.8c2.6-2.1,5.7-3.3,9-3.4c0.6,0,0.8,0.2,0.8,0.8c0,5,0,10,0,14.9H91H80.5h-4c0-1.3,0.2-2.6,0.6-3.8
		h0.1c1.5,0,3,0,4.6,0c0.7,0,0.8-0.2,0.8-0.8C82.5,98.9,82.5,96.3,82.5,93.8z"/>
	<path class="st3" d="M117.6,90.1c5.1,0,9.2,4.2,9.2,9.3c0,5.1-4.2,9.2-9.3,9.2c-5.1,0-9.2-4.1-9.2-9.2
		C108.4,94.2,112.5,90.1,117.6,90.1C117.6,90.1,117.6,90.1,117.6,90.1z M111.7,99.3c0,3.2,2.6,5.8,5.8,5.8c3.2,0.1,5.9-2.4,6-5.6
		c0.1-3.2-2.4-5.9-5.6-6c-0.2,0-0.3,0-0.5,0C114.3,93.5,111.7,96.1,111.7,99.3z"/>
	<path class="st3" d="M225.7,99.2c0.6,0.3,1.1,0.6,1.6,1c1.8,1.7,2,4.5,0.3,6.3c-0.4,0.5-1,0.9-1.6,1.1c-0.8,0.4-1.7,0.6-2.6,0.6
		c-2,0-4,0-6,0c-0.7,0-0.9-0.2-0.9-1c0-5.4,0-10.7,0-16.1c0-0.5,0-1,0.6-1c2.2,0,4.4-0.1,6.7,0.1c2.3,0.2,4.1,1.9,4.4,4.2
		c0.2,1.6-0.6,3.2-2,4.1l-0.4,0.3C225.8,98.9,225.8,99.1,225.7,99.2z M219.8,102.7c0,0.7,0,1.4,0,2c0,0.3,0.1,0.5,0.4,0.5
		c1,0,1.9,0,2.9,0c0.9-0.1,1.7-0.7,1.9-1.7c0.3-0.9-0.1-1.8-0.9-2.3c-0.7-0.4-1.4-0.6-2.2-0.5c-0.7,0-1.6-0.3-2,0.1
		C219.6,101.2,219.9,102.2,219.8,102.7z M219.8,95.5c0,0.7,0,1.3,0,1.9c0,0.3,0,0.5,0.4,0.5c0.9,0,1.8,0,2.6-0.1
		c1.2-0.2,2-1.3,1.9-2.5c0-0.1,0-0.2-0.1-0.3c-0.3-1.2-1.1-1.7-2.6-1.7c-0.7,0-1.6-0.3-2.1,0.1S219.9,94.9,219.8,95.5L219.8,95.5z"
		/>
	<path class="st3" d="M198.5,123.2v-8c0-1,0.1-1,1-1c2.3,0,4.5,0,6.7,0c2.2-0.1,4.1,1.2,5.1,3.1c1,1.8,0.8,4-0.5,5.6
		c-0.5,0.7-1.2,1.3-2,1.7c-0.7,0.3-0.6,0.6-0.3,1.1c1,1.7,1.9,3.5,2.9,5.3c0.5,0.9,0.3,1.2-0.7,1.2c-0.6,0-1.2,0-1.9,0
		c-0.5,0.1-0.9-0.2-1.1-0.7c-1-1.9-1.9-3.8-2.8-5.7c-0.1-0.4-0.6-0.7-1.1-0.6c-0.5,0-1,0-1.5,0c-0.5,0-0.6,0.1-0.6,0.6
		c0,1.8,0,3.7,0,5.5c0,0.6-0.2,1-0.9,0.9c-0.5,0-1,0-1.5,0c-1,0-1.1-0.1-1.1-1.1L198.5,123.2z M204.2,122.3h1.6
		c1.4,0.1,2.6-1.1,2.7-2.5c0,0,0,0,0,0c0-1.4-1.1-2.5-2.5-2.5c0,0,0,0,0,0c-1.2,0-2.4,0-3.6,0c-0.4,0-0.5,0.2-0.5,0.5
		c0,1.3,0,2.7,0,4c0,0.4,0.2,0.5,0.6,0.5C203,122.3,203.6,122.3,204.2,122.3z"/>
	<path class="st3" d="M256.7,101.2c0-3.3,0-6.6,0-9.9c0-0.8,0.2-1.1,1-1c0.5,0,1,0,1.5,0c0.7,0,0.9,0.2,0.9,1c0,3.4,0,6.7,0,10.1
		v6.3c0,0.3,0.1,0.8-0.4,1c-0.4,0.1-0.8,0-1.1-0.4c-3.2-3.6-6.5-7.1-9.7-10.7l-0.4-0.4c-0.3,0.2-0.1,0.4-0.1,0.7c0,3.2,0,6.4,0,9.7
		c0,0.7-0.2,1-1,1c-0.6,0-1.1,0-1.7,0c-0.5,0-0.7-0.2-0.7-0.7c0-1.1,0-2.3,0-3.4c0-4.3,0-8.6,0-12.9c0-0.4-0.2-0.9,0.3-1.1
		c0.5-0.1,1,0,1.3,0.4c3.2,3.5,6.5,6.9,9.7,10.3C256.3,101,256.4,101.2,256.7,101.2z"/>
	<path class="st3" d="M261.5,123.1c0.3,0.2,0.5,0.4,0.8,0.5c1.6,1.1,2.6,2.6,2.2,4.6c-0.3,1.8-1.7,3.3-3.5,3.7
		c-1.8,0.6-3.8,0.6-5.6-0.2c-2.9-1.2-4.4-4.9-1.3-7.6c0.4-0.3,1.1-0.6,1.1-1c0-0.4-0.7-0.6-1-1c-1.7-1.6-1.8-4.3-0.3-6
		c0.4-0.4,0.8-0.7,1.3-0.9c2.2-1.3,5-1.1,7,0.4c1.9,1.3,2.4,3.9,1.1,5.8c-0.2,0.4-0.5,0.7-0.9,0.9
		C262.2,122.6,261.8,122.8,261.5,123.1z M261.1,127.4c-0.1-1.4-1.2-2.5-2.6-2.6c-1.2-0.1-2.7,1.5-2.7,2.7c0.1,1.4,1.3,2.4,2.7,2.3
		C259.9,129.8,261,128.7,261.1,127.4L261.1,127.4z M258.4,117.1c-1.2,0-2.2,1-2.3,2.2c-0.1,1.3,0.9,2.4,2.1,2.4
		c1.3,0.1,2.4-0.9,2.4-2.1c0-0.1,0-0.2,0-0.3C260.7,118,259.7,117.1,258.4,117.1C258.4,117.1,258.4,117.1,258.4,117.1L258.4,117.1z"
		/>
	<path class="st3" d="M136.2,120.5c0,1.7,0,3.3,0,5c0,3.9-3.2,7.1-7.1,7.1c-3.9,0-7.1-3.2-7.1-7.1c0-3.4,0-6.8,0-10.2
		c0-1,0.1-1,1.1-1.1c0.5,0,1,0,1.4,0c0.8-0.1,1,0.3,1,1c0,3.3,0,6.6,0,9.9c-0.1,2,1.5,3.7,3.5,3.8c2,0.1,3.7-1.5,3.8-3.5
		c0.1-3.3,0-6.7,0-10c0-1.2,0-1.2,1.2-1.2c0.5,0,1,0,1.4,0c0.4,0,0.8,0.2,0.8,0.8C136.1,116.8,136.2,118.6,136.2,120.5z"/>
	<path class="st3" d="M184.7,123.1v-7.9c0-1,0.1-1,1-1c3.2,0,6.3,0,9.4,0c0.8,0,1,0.3,1,1c0,2.1,0,2.1-2.1,2.1c-1.8,0-3.6,0-5.3,0
		c-0.5,0-0.7,0.1-0.6,0.6c0,1,0,1.9,0,2.9c0,0.6,0.2,0.7,0.7,0.7c1.7,0,3.4,0,5.1,0c0.7,0,1,0.2,1,1c-0.1,2.5,0.3,2.1-2.1,2.1
		c-1.3,0-2.6,0-3.9,0c-0.7,0-0.9,0.2-0.8,0.9c0.1,0.9,0.1,1.9,0,2.8c0,0.6,0.1,0.8,0.8,0.8c2.1,0,4.2,0,6.4,0c0.7,0,1,0.2,0.9,0.9
		c0,2.6,0.3,2.2-2.2,2.2c-2.8,0-5.5,0-8.3,0c-0.7,0-1-0.2-1-1C184.7,128.5,184.7,125.8,184.7,123.1z"/>
	<path class="st3" d="M243.2,123.6c0,1.7-0.3,3.4-1,5c-0.8,2.3-3.1,3.8-5.5,3.7c-2.4,0.1-4.6-1.3-5.4-3.5c-1.6-3.6-1.5-7.6,0.2-11.2
		c0.9-2,2.8-3.2,5-3.2c2.3-0.2,4.4,1,5.4,3C242.9,119.4,243.4,121.5,243.2,123.6z M233.8,123.4c-0.1,1.5,0.2,2.9,0.7,4.2
		c0.3,1,1.3,1.6,2.3,1.7c1.1,0,2-0.7,2.4-1.7c1-2.6,1-5.6,0.1-8.2c-0.3-1.1-1.3-1.9-2.5-1.8c-1.1,0.1-2.1,0.8-2.4,1.9
		C233.9,120.7,233.7,122,233.8,123.4L233.8,123.4z"/>
	<path class="st3" d="M231.2,99.3c0-2.7,0-5.3,0-8c0-0.7,0.2-1,1-1c3.2,0,6.4,0,9.6,0c0.7,0,1,0.2,1,1c-0.1,2.5,0.4,2.1-2.1,2.1
		c-1.7,0-3.5,0-5.2,0c-0.6,0-0.8,0.2-0.7,0.8c0,0.9,0,1.8,0,2.7c0,0.5,0.1,0.7,0.7,0.7c1.7,0,3.5,0,5.2,0c0.6,0,1,0.2,1,0.9
		c-0.1,2.6,0.4,2.2-2.3,2.3c-1.3,0-2.6,0-3.9,0c-0.4,0-0.6,0.1-0.6,0.6c0,1.1,0,2.2,0,3.3c0,0.5,0.2,0.6,0.6,0.6c2.2,0,4.3,0,6.5,0
		c0.7,0,1,0.2,1,1c0,2.2,0,2.2-2.2,2.2c-2.8,0-5.5,0-8.3,0c-0.7,0-1-0.2-1-1C231.2,104.6,231.2,101.9,231.2,99.3z"/>
	<path class="st3" d="M263.3,99.2c0-2.7,0-5.3,0-8c0-0.7,0.2-1,1-1c3.2,0,6.4,0,9.6,0c0.7,0,1,0.2,1,1c-0.1,2.5,0.3,2.1-2.1,2.1
		c-1.8,0-3.6,0-5.3,0c-0.5,0-0.6,0.1-0.6,0.6c0,1,0,1.9,0,2.9c0,0.5,0.1,0.6,0.6,0.6c1.8,0,3.5,0,5.3,0c0.7,0,1,0.2,1,1
		c0,0.5,0,0.9,0,1.4c0,0.6-0.2,0.8-0.8,0.8c-1.8,0-3.5,0-5.3,0c-0.6,0-0.8,0.1-0.7,0.7c0.1,1,0,2.1,0,3.1c0,0.5,0.2,0.6,0.6,0.6
		c2.1,0,4.3,0,6.4,0c0.7,0,1,0.2,1,1c-0.1,2.5,0.3,2.1-2.1,2.1c-2.7,0-5.5,0-8.2,0c-1,0-1.1,0-1.1-1.1L263.3,99.2z"/>
	<path class="st3" d="M197.1,108.2c-0.3,0-0.6,0-0.9,0c-0.5,0.1-1-0.2-1.1-0.7c0-0.1-0.1-0.1-0.1-0.2c-0.4-0.8-0.5-1.9-1.2-2.3
		c-0.7-0.4-1.7-0.1-2.6-0.1c-1.4,0-2.9,0-4.3,0c-0.4-0.1-0.7,0.2-0.8,0.5c-0.3,0.7-0.6,1.4-1,2.1c-0.1,0.3-0.3,0.6-0.7,0.6
		c-0.8,0-1.6,0.1-2.3,0c-0.8-0.1-0.5-0.5-0.3-1c0.8-1.6,1.5-3.3,2.3-4.9l5.3-11.6c0.2-0.3,0.2-0.7,0.8-0.7s0.7,0.4,0.8,0.8
		c2.5,5.4,4.9,10.8,7.4,16.2c0.5,1.1,0.4,1.2-0.8,1.2L197.1,108.2z M190.2,96.5c-0.8,1.9-1.6,3.5-2.3,5.2c-0.2,0.3-0.1,0.5,0.3,0.5
		h4.2c0.3,0,0.4-0.1,0.2-0.4L190.2,96.5z"/>
	<path class="st3" d="M152.9,123.1c0-2.7,0-5.3,0-8c0-0.7,0.2-1,1-1c2.2-0.1,4.3,0,6.5,0.1c3,0.4,5.1,3.2,4.8,6.2
		c-0.3,2.9-2.7,5.1-5.6,5.2c-0.8,0-1.6,0-2.4,0c-0.7-0.1-0.9,0.2-0.8,0.9c0,1.5,0,3,0,4.5c0,1.1,0,1.1-1.2,1.1c-0.4,0-0.9,0-1.3,0
		c-0.7,0-0.9-0.3-0.9-1C152.9,128.5,152.9,125.8,152.9,123.1z M156.3,119.9v2.1c0,0.3,0,0.5,0.4,0.5c1,0,1.9,0.1,2.8,0
		c1.4-0.1,2.4-1.3,2.4-2.7c-0.1-1.4-1.3-2.4-2.6-2.4c-0.8,0-1.6,0-2.4,0c-0.4,0-0.5,0.1-0.5,0.5
		C156.3,118.6,156.3,119.2,156.3,119.9z"/>
	<path class="st3" d="M139.3,123.1v-7.9c0-1,0.1-1.1,1-1.1c2.1-0.1,4.3-0.1,6.4,0.1c3,0.4,5.1,3.2,4.8,6.2c-0.3,2.9-2.7,5.1-5.6,5.2
		c-0.9,0-1.8,0-2.6,0c-0.5,0-0.6,0.1-0.6,0.6c0,1.7,0,3.3,0,5c0,0.7-0.2,1-1,1c-0.5,0-1,0-1.5,0c-0.7,0-1-0.2-1-1
		C139.3,128.5,139.3,125.8,139.3,123.1z M144.5,117.4c-0.5,0-1,0-1.4,0s-0.4,0.1-0.4,0.4c0,1.4,0,2.8,0,4.2c0,0.3,0.1,0.4,0.4,0.4
		c1,0,1.9,0.1,2.8,0c1.4-0.1,2.4-1.3,2.4-2.7c-0.1-1.4-1.3-2.4-2.6-2.4C145.2,117.4,144.8,117.4,144.5,117.4L144.5,117.4z"/>
	<path class="st3" d="M169.3,90.1c2.1,0,4.2,0.7,5.8,2.1c0.4,0.4,0.5,0.7,0.1,1.1c-0.4,0.4-0.8,0.8-1.1,1.2
		c-0.4,0.5-0.7,0.4-1.2,0.1c-2.1-1.8-5.2-1.8-7.3,0c-2.4,2.1-2.7,5.7-0.9,8.2c1.8,2.5,5.4,3,7.9,1.2c1-0.6,1-0.6,1.7,0.2l0.3,0.3
		c1.1,1.2,1.5,1.1-0.3,2.4c-4.2,2.9-9.9,1.8-12.8-2.3c-1.5-2.1-2-4.7-1.4-7.2c0.8-3.6,3.7-6.4,7.3-7.1
		C168.1,90.2,168.7,90.1,169.3,90.1z"/>
	<path class="st3" d="M114.3,114c1.7,0,3.4,0.5,4.9,1.5c0.4,0.2,0.6,0.6,0.4,1c0,0.1-0.1,0.2-0.1,0.2c-1.1,1.8-1.1,1.8-3,0.9
		c-0.8-0.4-1.6-0.7-2.5-0.7c-0.8,0-1.6,0.5-1.9,1.3c-0.2,0.8,0.1,1.6,0.8,2.1c0.6,0.5,1.3,0.9,2,1.1c1.1,0.4,2.2,1,3.2,1.7
		c2.3,1.5,2.9,4.6,1.3,6.8c-0.7,1-1.7,1.7-2.9,2c-2.6,0.8-5.4,0.2-7.5-1.4c-0.4-0.2-0.6-0.7-0.4-1.1c0-0.1,0.1-0.1,0.1-0.2
		c1.1-1.8,1-1.8,2.8-0.8c0.8,0.5,1.8,0.8,2.8,0.9c0.9,0.1,1.8-0.5,2.1-1.4c0.3-0.8,0-1.8-0.8-2.3c-0.7-0.6-1.5-1.1-2.4-1.4
		c-0.9-0.4-1.7-0.8-2.5-1.4c-1.8-1.2-2.6-3.4-2.1-5.5c0.6-2,2.4-3.4,4.5-3.5C113.6,113.9,114,114,114.3,114z"/>
	<path class="st3" d="M141.7,99.3c0-2.7,0-5.4,0-8.1c0-0.7,0.2-1,0.9-1c3.2,0,6.4,0,9.6,0c0.7,0,1,0.2,1,0.9c0,2.6,0.3,2.2-2.2,2.2
		c-1.7,0-3.4,0-5.1,0c-0.5,0-0.7,0.1-0.7,0.7c0,1.2,0,2.3,0,3.5c0,0.5,0.2,0.6,0.6,0.6c1.8,0,3.5,0,5.3,0c0.7,0,1,0.3,1,1
		c0,2.6,0.2,2.2-2.1,2.2c-1.3,0-2.5,0-3.8,0c-0.7,0-1,0.1-0.9,0.9c0.1,1.7,0,3.4,0,5.1c0,0.7-0.2,1.1-1,1c-0.5,0-1,0-1.5,0
		c-0.7,0.1-1-0.2-1-1C141.7,104.7,141.7,102,141.7,99.3z"/>
	<path class="st3" d="M128.9,99.3c0-2.7,0-5.4,0-8.1c0-0.7,0.3-1,1-1c3.2,0,6.4,0,9.6,0c0.6,0,0.9,0.2,0.9,0.9c0,0.5,0,0.9,0,1.4
		c0,0.7-0.3,0.9-1,0.9c-2.1,0-4.2,0-6.4,0c-0.6,0-0.8,0.2-0.8,0.8c0,1.1,0,2.2,0,3.3c0,0.5,0.2,0.6,0.7,0.6c1.8,0,3.5,0,5.3,0
		c0.6,0,0.9,0.3,0.9,0.9c0,2.7,0.3,2.2-2.2,2.2c-1.3,0-2.6,0-4,0c-0.5,0-0.7,0.1-0.7,0.6c0,1.8,0,3.6,0,5.3c0,0.7-0.2,1-1,1
		c-0.5,0-1.1,0-1.6,0c-0.6,0-0.8-0.3-0.8-0.9C128.9,104.7,128.9,102,128.9,99.3z"/>
	<path class="st4" d="M17.6,106.1h10.9l1,0c0,3.2,0,6.5,0,9.7c-1.5,0-2.9,0-4.4,0c-0.5-0.1-1,0-1.4,0.1c-0.1-0.1-0.2-0.2-0.3-0.2
		c-3.2-3.2-6.4-6.3-9.7-9.7L17.6,106.1z"/>
	<path class="st5" d="M70.5,90.4C70.5,90.4,70.5,90.4,70.5,90.4c0.2,1.3,0.2,2.6,0.2,3.9c0,1.3,0,2.5,0,3.8l-0.1,0.2l-3.8,3.8h3.8
		h0.1v3.8h-7.8c-0.1-0.6,0.3-1.5-0.2-1.9c-0.5-0.4-1.3-0.1-1.9-0.1c-1.9,0-1.9,0-1.9,1.9c0,0.1,0,0.1,0,0.2H57c0-0.7,0-1.4,0-2.1
		l10-10C68.2,92.8,69.3,91.6,70.5,90.4z"/>
	<path class="st0" d="M80.4,106.1H91H96c0,0.1,0,0.2,0,0.2l-9.8,9.7c-0.1-0.1-0.3-0.2-0.4-0.2h-5.3v0
		C80.5,112.6,80.5,109.4,80.4,106.1z"/>
	<path class="st3" d="M277.1,99.3c0-2.7,0-5.3,0-8c0-0.7,0.2-1,1-1c3.2,0,6.4,0,9.6,0c0.6,0,0.9,0.2,0.9,0.8
		c-0.1,2.6,0.4,2.2-2.2,2.2c-1.7,0-3.4,0-5,0c-0.7,0-0.9,0.2-0.8,0.9c0,1.1,0,2.1,0,3.2c0,0.6,0.1,0.8,0.7,0.7c1.7,0,3.4,0,5.1,0
		c0.7,0,1,0.3,1,1c0,0.4,0,0.8,0,1.2c0,0.7-0.3,0.9-1,0.9c-1.7,0-3.5,0-5.2,0c-0.5,0-0.7,0.1-0.7,0.7c0,1.8,0,3.6,0,5.3
		c0,0.7-0.2,1-1,1c-2.4,0-2.4,0-2.4-2.4L277.1,99.3z"/>
	<path class="st2" d="M39.3,90.4c0,0,0.1,0,0.1,0c0.4,0.4,0.7,0.8,1.1,1.2L51,102.1c-0.4,0-0.9,0.1-1.3,0c-0.4-0.1-0.7,0.2-0.6,0.7
		c0,1.1,0,2.1,0,3.2h-0.1h-9.8c0-1.3,0-2.6,0-3.8h0.1H43l-3.7-3.9L39.1,98c0-2.2,0-4.5,0.1-6.7C39.1,91,39.2,90.7,39.3,90.4z"/>
	<path class="st3" d="M222.9,129.3c1.8,0,3.4,0,5.1,0c0.7,0,1,0.2,0.9,1c0,2.1,0.2,1.9-1.9,1.9h-8.3c-0.3,0-0.7,0.1-0.9-0.3
		c-0.1-0.4-0.1-0.8,0.2-1.1c2.2-2.8,4.3-5.5,6.4-8.3c0.3-0.4,0.6-0.9,0.9-1.4c0.6-0.9,0.5-2-0.2-2.8c-0.7-0.8-1.8-1.1-2.9-0.8
		c-0.7,0.2-1.4,0.6-1.9,1.2c-0.4,0.4-0.7,0.4-1.1,0c-1.5-1.5-1.5-1.6,0.2-2.9c2.3-1.8,5.6-1.8,7.9,0c1.7,1.5,2.1,4,1.1,6
		c-1.2,2-2.5,3.8-4,5.5C224,128,223.5,128.6,222.9,129.3z"/>
	<path class="st6" d="M70.6,98.3l0.1-0.2l10.9-10.9c0.2-0.2,0.4-0.5,0.6-0.7l0.2,0.1v7.1c-0.4,0.6-0.9,1.1-1.4,1.6
		c-1.9,1.9-3.2,4.3-3.8,6.9H77h-6.4h-0.1C70.6,100.9,70.6,99.6,70.6,98.3z"/>
	<path class="st6" d="M39.1,98l0.1,0.3c0,1.3,0,2.6,0,3.9h-0.1h-6.2h-0.1c0-0.2,0-0.3-0.1-0.4c-0.9-3.1-2.8-5.8-5.3-7.8
		c0,0,0-0.1,0-0.1v-7.3c0.3,0.3,0.5,0.5,0.7,0.7l10.3,10.3C38.7,97.7,38.9,97.9,39.1,98z"/>
	<path class="st3" d="M302.3,100.7v6.5c0,1-0.1,1-1,1h-1.3c-1,0-1.1,0-1.1-1c0-4.3,0-8.6,0-12.9c0-0.7-0.2-1-1-1
		c-0.9,0.1-1.8,0-2.7,0c-0.5,0-0.8-0.2-0.7-0.7s0-1.1,0-1.7s0.2-0.6,0.7-0.6h10.8c0.5,0,0.7,0.2,0.7,0.7c-0.1,2.9,0.4,2.3-2.3,2.4
		c-0.7,0-1.6-0.3-2,0.2c-0.4,0.5-0.1,1.3-0.1,1.9C302.3,97.3,302.3,99,302.3,100.7z"/>
	<path class="st3" d="M166.5,123.1v-7.9c0-1,0.1-1,1-1c0.5,0,1,0,1.4,0c0.7-0.1,1,0.2,1,1c0,4.3,0,8.6,0,12.9c0,0.8,0.2,1,1,1
		c1.6-0.1,3.2,0,4.8,0c1.3,0,1.3,0,1.3,1.3c0,0.4,0,0.8,0,1.2s-0.2,0.6-0.7,0.6c-3,0-6,0-9,0c-0.7,0-0.7-0.4-0.7-1L166.5,123.1z"/>
	<path class="st3" d="M199.8,99.3c0-2.7,0-5.4,0-8.1c0-0.7,0.2-1,1-1c2.4,0,2.4,0,2.4,2.4c0,3.8,0,7.6,0,11.5c0,0.7,0.1,1,0.9,1
		c1.7-0.1,3.5,0,5.2,0c0.7,0,1,0.2,0.9,0.9c-0.1,2.6,0.4,2.2-2.2,2.2c-2.4,0-4.8,0-7.2,0c-0.7,0-1-0.2-1-1
		C199.8,104.7,199.8,102,199.8,99.3z"/>
	<path class="st2" d="M47.1,131.6h-7.8v-0.2v-9.6H47L47.1,131.6z"/>
	<path class="st1" d="M70.6,131.6h-7.8v-9.8h7.7L70.6,131.6z"/>
	<path class="st7" d="M23.6,116c0.5-0.2,1-0.2,1.4-0.1c1.5,0,2.9,0,4.4,0c1.3,0.1,2.6,0,3.8,0l0.1,0.1v5.7l5.7-5.6l0,3.5
		c0,0,0,0.1,0,0.1c-1.1,0.8-2,1.8-2.8,2.9c-0.8,1.2-1.6,2.6-2.1,4c-1.7-1.7-3.4-3.4-5.1-5.1L23.6,116z"/>
	<path class="st3" d="M250.1,123.4c0,2.6,0,5.2,0,7.8c0,0.6-0.2,0.9-0.8,0.9c-2.8-0.1-2.3,0.4-2.3-2.3c0-3.2,0-6.4,0-9.7
		c0-0.6-0.2-0.8-0.7-0.6c-0.2,0.1-0.4,0.1-0.7,0.1c-0.4,0-1,0.5-1.3-0.1c-0.4-0.7-0.2-1.6,0.4-2.1c0.8-0.7,1.6-1.3,2.4-2
		c0.6-0.6,1.5-0.9,2.3-0.8c0.6,0,0.9,0.2,0.9,0.9C250,118.2,250.1,120.8,250.1,123.4z"/>
	<path class="st3" d="M158,99.3v8c0,1-0.1,1-1,1c-0.5,0-1,0-1.5,0c-0.7,0.1-1-0.3-1-1c0-3.8,0-7.6,0-11.4c0-1.6,0-3.2,0-4.7
		c0-0.6,0.2-1,0.9-0.9c0.5,0,1.1,0,1.6,0c0.7,0,1,0.3,1,1C157.9,93.9,158,96.6,158,99.3z"/>
	<path class="st3" d="M181.4,123.2c0,2.7,0,5.3,0,8c0,0.7-0.2,1-1,1c-0.5,0-1,0-1.5,0c-0.7,0.1-1-0.3-1-1c0-1.9,0-3.7,0-5.6
		c0-3.4,0-6.9,0-10.4c0-1,0.1-1,1-1c0.5,0,1,0,1.5,0s0.8,0.2,0.8,0.8C181.4,117.7,181.4,120.4,181.4,123.2z"/>
	<path class="st3" d="M293.3,99.3c0,2.7,0,5.3,0,8c0,0.7-0.2,1-1,1c-0.5,0-1.1,0-1.6,0c-0.6,0-0.8-0.2-0.8-0.8c0-2.6,0-5.3,0-7.9
		c0-2.6,0-5.5,0-8.3c0-0.7,0.2-1,0.9-1c0.5,0,1.1,0,1.6,0c0.6,0,0.9,0.2,0.9,0.9C293.3,93.9,293.3,96.6,293.3,99.3z"/>
	<path class="st3" d="M180.7,99.3c0,2.6,0,5.3,0,7.9c0,1-0.1,1-1,1c-0.5,0-1.1,0-1.6,0c-0.5,0-0.7-0.2-0.7-0.7c0-1.1,0-2.2,0-3.3
		V91.4c0-1,0-1,1-1.1c2.3,0,2.3,0,2.3,2.3L180.7,99.3z"/>
	<path class="st8" d="M58.8,139.5c0,0.2,0.1,0.4,0.1,0.7c0,4.1,0,8.3,0,12.4c0,0.6-0.1,0.8-0.7,0.7c-1.1-0.1-2.2,0-3.2,0
		c0-4.6,0-9.2,0-13.7L58.8,139.5z"/>
	<path class="st9" d="M54.9,139.5c0,4.6,0,9.2,0,13.7c-1.1,0-2.2,0-3.3,0c-0.6,0-0.7-0.1-0.7-0.7c0-3.5,0-7.1,0-10.6
		c-0.1-0.8,0-1.6,0.1-2.5L54.9,139.5L54.9,139.5z"/>
	<path class="st10" d="M62.9,121.9v9.8h-0.2l-1.8-1.8l-0.1-0.2c0-3.3,0.1-6.5,0-9.8c0-0.3,0-0.6,0-1c0-4,0-8,0-12
		c0-0.2-0.1-0.5,0.1-0.6s0.4,0.2,0.6,0.4c0.4,0.4,0.9,0.8,1.3,1.2v0.2L62.9,121.9z"/>
	<path class="st2" d="M80.5,121.8c-1.6,1.7-3.2,3.2-4.8,4.8c-0.3-0.7-0.7-1.4-1-2.2c-0.4-0.9-1.1-1.6-1.5-2.5c0.4,0,0.9,0,1.3,0
		c0.7-0.1,1.3,0.2,1.9-0.2c0.2-0.2,0.1-0.5,0.1-0.8c0-1.7,0-3.3,0-5c1.3-0.1,2.6,0.1,3.8-0.1v0C80.5,117.8,80.5,119.8,80.5,121.8z"
		/>
	<path class="st10" d="M34.1,126.5c0.6-1.4,1.3-2.7,2.1-4c0.8-1.1,1.7-2.1,2.8-2.9c0.1,0.7-0.2,1.5,0.2,2.2v9.6c0,0-0.1,0-0.1,0
		c-0.2-0.2-0.5-0.4-0.7-0.6l-4.3-4.2C34.2,126.6,34.1,126.6,34.1,126.5z"/>
	<path class="st9" d="M50.9,131.7H49c0-3.3,0-6.5,0-9.8c0.1-1.3-0.1-2.6,0.1-3.9l5.7,5.7c-1.1,0-2.1,0-3.2,0c-0.5,0-0.6,0.1-0.6,0.6
		C51,126.8,51,129.2,50.9,131.7L50.9,131.7z"/>
	<path class="st0" d="M73.2,121.9c0.4,0.9,1.1,1.6,1.5,2.5c0.3,0.7,0.7,1.5,1,2.2c0,0,0,0.1,0,0.1c-1.7,1.6-3.3,3.3-4.9,4.9h-0.1
		h-0.1c0-3.2,0-6.5,0-9.7l0,0H73.2z"/>
	<path class="st11" d="M77.1,102.2c0.7-2.6,2-4.9,3.8-6.9c0.6-0.4,1-1,1.4-1.5c0,0,0.1,0,0.1,0.1c0,2.5,0,5.1,0,7.6
		c0,0.6-0.1,0.9-0.8,0.8C80.2,102.2,78.6,102.2,77.1,102.2z"/>
	<path class="st2" d="M50.9,131.7l0.1-0.1h3.9c0,2,0,3.9,0,5.9l0,0H51c-0.1-1.7,0-3.3-0.1-5C51,132.3,51,132,50.9,131.7z"/>
	<path class="st12" d="M54.9,137.5c0-1.9,0-3.9,0-5.9h3.9c0,0,0.1,0,0.1,0.1c0,1.7,0,3.3,0,4.9c0,0.3,0,0.6-0.1,1L54.9,137.5z"/>
	<path class="st13" d="M57.3,82.2c1.3-2.2,3.2-4,5.3-5.3l1.5-1c0.1,0,0.1,0,0.1,0.1c0.5,0.5,0.9,1,1.4,1.4c0.5,0.5,0.4,0.6,0,1
		c-2.1,1.8-4.7,3.1-7.4,3.7C57.9,82.2,57.6,82.2,57.3,82.2z"/>
	<path class="st14" d="M49,121.9c0,3.2,0,6.5,0,9.8h-2v-9.8h0L49,121.9z"/>
	<path class="st13" d="M80.5,121.8c0-1.9,0-3.9,0-5.9h5.3c0.2,0,0.3,0,0.4,0.2C84.4,118,82.5,119.9,80.5,121.8z"/>
	<path class="st1" d="M70.7,131.6c1.6-1.7,3.2-3.4,4.9-4.9c0.5,1.4,0.8,2.9,0.9,4.4c0,0.4-0.1,0.5-0.5,0.5
		C74.3,131.6,72.5,131.6,70.7,131.6z"/>
	<path class="st2" d="M34.2,126.7l4.3,4.2c0.2,0.2,0.4,0.4,0.7,0.6c0,0,0,0.1,0,0.1h-5.3c-0.3,0-0.5,0-0.5-0.4
		C33.3,129.7,33.6,128.2,34.2,126.7z"/>
	<path class="st10" d="M54.9,137.5h3.9c0.1,0.7,0.1,1.3,0,2H55v-0.1C55,138.8,55,138.2,54.9,137.5L54.9,137.5z"/>
	<path class="st11" d="M54.9,137.6c0,0.6,0,1.3,0,1.9H51c-0.1-0.7-0.1-1.3,0-2L54.9,137.6z"/>
	<path class="st10" d="M74.7,152.1l1.1-2.2c0.3,1,0.5,2.1,0.6,3.2c0,0.2-0.1,0.2-0.3,0.2c-0.2,0-0.3-0.1-0.4-0.3c0,0,0,0,0,0
		c0-0.4-0.1-0.8-0.2-1.2l-0.8,1.6c-0.5-0.4-0.5-1.1-1-1.5c-0.1,0.4-0.1,0.8-0.2,1.2c-0.1,0.4-0.2,0.3-0.4,0.2
		c-0.1,0-0.2-0.1-0.2-0.2c0,0,0,0,0-0.1c0.2-1,0.4-1.9,0.5-3C73.9,150.7,74.3,151.4,74.7,152.1z"/>
	<path class="st9" d="M60.8,129.6l0.1,0.2c0,0.6,0,1.2,0,1.8l-1.9,0.1c0,0-0.1,0-0.1-0.1c0-1.3,0-2.6,0-3.8H59L60.8,129.6z"/>
	<path class="st10" d="M71.9,150.1h0.5c0.2,0,0.4,0,0.5,0.3s-0.2,0.3-0.4,0.3c-0.2,0-0.4,0.2-0.4,0.4c0,0.6,0,1.1,0,1.7
		c0,0.2,0,0.4-0.3,0.4c-0.3,0-0.4-0.2-0.4-0.4c0-0.5,0-1,0-1.4c0-0.4,0.1-0.8-0.5-0.7c-0.2,0-0.2-0.1-0.2-0.2s0.1-0.3,0.3-0.3
		C71.3,150.1,71.6,150.1,71.9,150.1L71.9,150.1z"/>
	<path class="st11" d="M60.9,131.6c0-0.6,0-1.2,0-1.8l1.8,1.8L60.9,131.6z"/>
	<path class="st14" d="M39.1,131.6c0,0,0-0.1,0-0.1c0,0,0.1,0,0.1,0v0.2L39.1,131.6z"/>
	<path class="st6" d="M39.1,119.6v-3.4c0-0.1,0-0.1,0-0.2c0.8-0.7,1.6-1.5,2.4-2.3c2.4-2.4,4.7-4.8,7.1-7.1c0.1-0.1,0.2-0.3,0.3-0.4
		h0.1c0,1,0,2,0,3l0.1,6.9c-0.7,0.2-1.4-0.1-2.1,0.2C44.1,116.6,41.4,117.7,39.1,119.6z"/>
	<path class="st15" d="M33.3,115.9c-1.3,0-2.6,0.1-3.8,0c0-3.2,0-6.5,0-9.7c1.1,0,2.2,0,3.3,0c0.4,0,0.5,0.1,0.5,0.5
		C33.3,109.7,33.3,112.8,33.3,115.9z"/>
	<path class="st11" d="M27.4,93.9c2.5,2,4.3,4.8,5.3,7.8c0,0.1,0.1,0.3,0.1,0.4h-4.9c-0.3,0-0.5,0-0.5-0.4
		C27.4,99.1,27.3,96.5,27.4,93.9z"/>
	<path class="st15" d="M32.9,102.2h6.2c0,1.3,0,2.6,0,3.8c-1.7,0-3.4,0-5.2,0c-0.4,0-0.6-0.1-0.6-0.6
		C33.3,104.4,33.2,103.3,32.9,102.2z"/>
	<path class="st10" d="M39.1,116c0,0.1,0,0.1,0,0.2l-5.7,5.6V116L39.1,116z"/>
	<path class="st4" d="M41.2,90.4h10c1.2,0,2.5,0,3.7,0v11.8l0,0h-1.9l-0.2-0.1c-3.7-3.7-7.4-7.4-11-11.1
		C41.6,90.9,41.5,90.6,41.2,90.4z"/>
	<path class="st11" d="M54.9,102.2V90.4c0,0,0-0.1,0-0.1c0.7-0.1,1.3,0,2,0.1c0,1.2,0,2.4,0,3.5c0,2.8,0,5.5,0,8.3L54.9,102.2z"/>
	<path class="st15" d="M41.2,90.4c0.2,0.2,0.4,0.5,0.6,0.7c3.7,3.7,7.4,7.4,11,11.1v0.1h-1.7l-0.2-0.1L40.5,91.6
		c-0.4-0.4-0.7-0.8-1.1-1.2L41.2,90.4z"/>
	<path class="st15" d="M52.8,82.4c1.4,0.1,2.9,0.1,4.3,0c-1,1.8-1.7,3.7-2,5.7c0,0.1-0.1,0.2-0.2,0.2c-0.2-0.4-0.4-0.8-0.4-1.3
		C54.2,85.4,53.6,83.8,52.8,82.4z"/>
	<path class="st0" d="M56.9,102.2c0-2.8,0-5.5,0-8.3c0-1.2,0-2.4,0-3.5h13.6c-1.2,1.2-2.4,2.4-3.5,3.6l-10,10L56.9,102.2z"/>
	<path class="st15" d="M80.5,115.8c-1.3,0.2-2.6,0-3.8,0.1l-0.1-0.1c0-1.3,0-2.5,0-3.8c0-2,0-4-0.1-6l0,0h4
		C80.5,109.4,80.5,112.6,80.5,115.8z"/>
	<path class="st15" d="M70.7,102.2H77c-0.3,1.2-0.5,2.5-0.6,3.8h-5.8V102.2z"/>
	<path class="st1" d="M70.7,106.1h5.8c0,2,0,4,0.1,6c0,1.3,0,2.5,0,3.8h-4.7c-0.3,0-0.7-0.1-1,0.1h-0.3c0-0.1-0.1-0.2-0.1-0.3
		l-7.6-7.6v-0.2v-1.8L70.7,106.1z"/>
	<path class="st8" d="M62.8,106.1v1.8c-0.4-0.4-0.9-0.8-1.3-1.2c-0.2-0.2-0.3-0.5-0.6-0.4c-0.3,0.1-0.1,0.4-0.1,0.6c0,4,0,8,0,12
		c0,0.3,0,0.6,0,1h-1c-1.1,0-1.1,0-1.1-1V116v-9.9c0,0,0-0.1,0-0.2c0-1.9,0-1.9,1.9-1.9c0.7,0,1.5-0.3,1.9,0.1
		C63.1,104.5,62.7,105.5,62.8,106.1z"/>
	<path class="st15" d="M58.8,106.1c0,3.3,0,6.5,0,9.8H57v-0.1v-9.7l0,0L58.8,106.1z"/>
	<path class="st7" d="M70.6,98.3c0,1.3,0,2.6,0,3.8h-3.8L70.6,98.3z"/>
	<path class="st10" d="M56.9,102.2l0.1,1.8c0,0.7,0,1.4,0,2.1l0,0l-2-0.1v-0.1c1.1-1,1.1-0.7,0-1.7V104v-1.9l0,0L56.9,102.2z"/>
	<path class="st13" d="M51,102.2l0.2,0.1c0.5,0.6,1.1,1.2,1.7,1.7c0.1,0.1,0.1,0.2,0.2,0.3c-0.2,0.6-0.2,1.2-0.1,1.8l0,0h-3.8
		c0-1.1,0-2.1,0-3.2c0-0.5,0.1-0.7,0.6-0.7C50.3,102.2,50.6,102.2,51,102.2z"/>
	<path class="st14" d="M39.3,102.2c0-1.3,0-2.6,0-3.9c1.2,1.3,2.5,2.6,3.7,3.9H39.3z"/>
	<path class="st14" d="M39.1,119.6c2.3-1.8,5-3,7.9-3.4c0,1.9,0,3.8,0,5.7h0h-7.8c-0.3-0.7,0-1.5-0.2-2.2
		C39.1,119.7,39.1,119.6,39.1,119.6z"/>
	<path class="st0" d="M62.9,108.1l7.6,7.6c0.1,0.1,0.1,0.2,0.1,0.3c0,2,0,3.9,0,5.9l0,0h-7.7L62.9,108.1z"/>
	<path class="st5" d="M57,116h1.8v2.9c0,1,0,1,1.1,1h1c0.1,3.2,0.1,6.5,0,9.8l-1.9-1.9c0-1.2,0-2.3,0-3.5c0-0.4-0.1-0.6-0.5-0.5
		c-1.1,0-2.2,0-3.3,0l-0.3-0.1l-5.7-5.7c0.2-0.3,0.5-0.2,0.8-0.2c1.7,0,3.4,0,5.1,0c0.6,0,1.4,0.3,1.8-0.1
		C57.2,117.3,56.8,116.6,57,116L57,116z"/>
	<path class="st13" d="M70.6,121.9c0-2,0-3.9,0-5.9h0.3c0.2,0.2,0.4,0.5,0.6,0.7c1.7,1.7,3.3,3.4,5,5c-0.6,0.4-1.3,0.1-1.9,0.2
		c-0.4,0-0.9,0-1.3,0L70.6,121.9z"/>
	<path class="st0" d="M76.5,121.7c-1.7-1.7-3.3-3.4-5-5c-0.2-0.2-0.4-0.5-0.6-0.7c0.3-0.2,0.6-0.1,1-0.1h4.7l0.1,0.1
		c0,1.7,0,3.3,0,5C76.6,121.2,76.7,121.5,76.5,121.7z"/>
	<path class="st11" d="M54.8,123.7l0.3,0.1l3.2,3.3c0.2,0.2,0.5,0.4,0.5,0.7c0,1.3,0,2.6,0,3.8h-3.9h-3.9c0-2.4,0-4.8,0-7.3
		c0-0.5,0.2-0.6,0.6-0.6C52.7,123.8,53.8,123.7,54.8,123.7z"/>
	<path class="st10" d="M57,116L57,116c-0.1,0.7,0.2,1.4-0.2,1.8c-0.4,0.4-1.2,0.1-1.8,0.1c-1.7,0-3.4,0-5.1,0
		c-0.3,0-0.6-0.1-0.8,0.2c-0.2,1.3,0,2.6-0.1,3.9l-1.9,0c0-1.9,0-3.8,0-5.7c0.7-0.3,1.4,0,2.1-0.2H53C54.3,116,55.7,116,57,116
		L57,116z"/>
	<path class="st10" d="M58.8,127.8c0-0.3-0.3-0.5-0.5-0.7l-3.2-3.3c1.1,0,2.2,0,3.3,0c0.4,0,0.5,0.2,0.5,0.5c0,1.2,0,2.3,0,3.5
		L58.8,127.8z"/>
	<path class="st2" d="M52.9,115.9h-3.8l0-6.9c0-1,0-2,0-3h3.8C52.9,109.3,52.9,112.6,52.9,115.9z"/>
	<path class="st12" d="M53.1,104.2c0-0.1-0.1-0.2-0.2-0.3c0-0.6,0-1.1,0-1.7v-0.1l0.2,0.1c0.6,0.7,1.2,1.3,1.8,1.8v0.1v1.7
		L53.1,104.2z"/>
	<path class="st14" d="M54.9,104.1c-0.7-0.6-1.3-1.2-1.8-1.8h1.9C54.9,102.8,54.9,103.4,54.9,104.1z"/>
	<path class="st2" d="M52.9,102.2c0,0.6,0,1.1,0,1.7c-0.6-0.5-1.2-1.1-1.7-1.7L52.9,102.2z"/>
	<path class="st12" d="M52.9,115.9c0-3.3,0-6.6,0-9.8l0,0h2l2,0.1v9.8C55.5,116,54.2,116,52.9,115.9z"/>
	<path class="st11" d="M54.9,106h-2c-0.1-0.6,0-1.2,0.1-1.8l1.9,1.7L54.9,106z"/>
	<path class="st11" d="M54.9,105.9v-1.7C56,105.2,56.1,104.9,54.9,105.9z"/>
</g>
<rect x="0.1" y="0.1" class="st16" width="320" height="220"/>
</svg>
