<?xml version="1.0" encoding="utf-8"?>
<!-- Generator: Adobe Illustrator 22.1.0, SVG Export Plug-In . SVG Version: 6.00 Build 0)  -->
<svg version="1.1" id="Layer_1" xmlns="http://www.w3.org/2000/svg" xmlns:xlink="http://www.w3.org/1999/xlink" x="0px" y="0px"
	 viewBox="0 0 320.3 220.3" style="enable-background:new 0 0 320.3 220.3;" xml:space="preserve">
<style type="text/css">
	.st0{fill:none;stroke:#FFFFFF;stroke-width:0.25;stroke-miterlimit:10;}
	.st1{fill:#D21145;}
	.st2{fill:#D41D4E;}
	.st3{fill:#D41C4D;}
	.st4{fill:#D21245;}
	.st5{fill:#D21246;}
	.st6{fill:#D93461;}
</style>
<title>logo-cgm-en</title>
<rect x="0.1" y="0.1" class="st0" width="320" height="220"/>
<g>
	<path class="st1" d="M177.7,37.3c1.6,0.3,3.2,0.6,4.8,1c2.6,0.6,5.1,1.4,7.5,2.6c0.5,0.2,0.8,0.5,0.7,1.1c-1,5.4-2,10.9-3,16.5
		c-0.7-1.2-1.3-2.2-2.1-3.1c-3-3.1-6.7-4.5-10.8-4.9c-7.2-0.8-13.7,0.9-19.4,5.5c-1.2,1-2.2,2.2-3.1,3.5c-2.9,4.6-2.2,9.6,1.9,13.1
		c0.6,0.6,0.7,0.9,0.2,1.5c-2.3,2.9-4.5,5.8-6.8,8.7c-0.2,0.3-0.4,0.6-0.5,1c1.3-0.8,2.6-1.6,3.9-2.4c2.8-1.7,5.6-3.4,8.4-5.1
		c0.6-0.4,1.2-0.4,1.9-0.3c8.4,1.7,16.1,0.1,22.7-5.5c0.3-0.3,0.6-0.6,0.9-0.9c0.2-0.3,0.5-0.5,0.9-0.9c0,1.4-0.3,2.5-0.5,3.6
		c-0.5,3.3-1.2,6.6-1.7,9.9c-0.1,0.8-0.4,1.3-1.2,1.7c-6.2,3-12.7,4.8-19.6,4.6c-3.5-0.1-6.9-0.8-10.2-1.9c-0.8-0.3-1.4-0.2-2.2,0.1
		c-4.5,2.3-9,4.6-13.6,6.8c-0.3,0.2-0.7,0.5-1.2,0.4c2.3-3.9,4.6-7.8,7-11.6c0.4-0.7,0.4-1.1-0.2-1.6c-4.7-4.5-6.1-10.2-5.3-16.4
		c1.3-10,7.3-16.6,15.7-21.4c4.9-2.8,10.3-4.4,15.9-5.2c0.3,0,0.6,0.1,0.7-0.3C172.2,37.3,175,37.3,177.7,37.3z"/>
	<path class="st1" d="M163,183c-0.2-0.5-1.1-0.1-1-0.8c0.1-0.8,0.4-1.5,0.7-2.2c0.1-0.3,0.4,0,0.7,0c2.5,0.4,3.8-1.2,3.1-3.6
		c-0.8-2.8-1.6-5.6-2.5-8.3c-0.2-0.7-0.1-0.9,0.7-0.9c2.6,0,2.6-0.1,3.3,2.5c0.3,1.3,0.7,2.7,1.1,4.3c0.9-2,1.8-3.7,2.6-5.5
		c0.4-1.1,1-1.6,2.2-1.4c0.6,0.1,1.1,0,1.7,0c0.2,0.4-0.1,0.7-0.3,0.9c-2.1,4-4.2,8-6.4,12c-0.7,1.4-1.6,2.5-3.3,2.6
		c-0.7,0.3-1.5-0.1-2.2,0.2C163.2,183,163.1,183,163,183z"/>
	<path class="st2" d="M310.3,177.1c-0.9,0.1-0.5-0.8-0.8-1.1c-0.3,0.3,0,1-0.6,1.1c-0.6,0-0.4-0.7-0.6-1c-0.3,0.2-0.1,0.5-0.2,0.7
		c0,0.2-0.2,0.4-0.4,0.4c-0.3,0-0.3-0.2-0.3-0.4c0-0.7,0-1.4,0-2.1c0-0.2,0-0.5,0.3-0.5c0.3,0,0.6,0,0.7,0.3
		c0.1,0.4,0.2,0.8,0.5,1.5c0.4-1,0.3-2,1.5-1.9C310.3,175,310.3,176.1,310.3,177.1z"/>
	<path class="st1" d="M230.8,57.1c-3,3.7-5.9,7-8.7,10.5c-0.4,0.5-0.8,0.4-1.3,0.4c-4.5,0-8.9,0-13.4,0c-1,0-1.2,0.3-1.4,1.2
		c-1,5.8-2,11.6-3,17.4c-0.1,0.8-0.4,1.2-1.4,1.2c-3.9-0.1-7.9,0-11.8,0c-0.8,0-1-0.2-0.8-1c2.4-13.4,4.8-26.8,7.1-40.2
		c0.4-2.5,0.9-5.1,1.3-7.6c0.1-0.8,0.4-1.1,1.3-1.1c11.8,0,23.7,0,35.5,0c0.9,0,1.2,0.1,1,1.1c-0.5,2.7-1,5.5-1.5,8.2
		c-0.2,1-0.5,1.4-1.7,1.4c-7-0.1-14.1,0-21.1-0.1c-1,0-1.4,0.2-1.5,1.2c-0.3,2.1-0.6,4.1-1.1,6.2c-0.3,1.1,0.2,1.2,1.1,1.2
		c6.6,0,13.2,0,19.8,0C229.7,57.1,230.1,57.1,230.8,57.1z"/>
	<path class="st1" d="M239.2,87.8c-1.9,0-3.8,0-5.7,0c-0.9,0-1.1-0.2-1-1.1c0.9-4.7,1.7-9.5,2.5-14.3c1.9-11,3.9-22,5.8-33
		c0.2-1.2,0.6-1.7,1.9-1.6c3.6,0.1,7.3,0.1,10.9,0c1,0,1,0.3,0.9,1.1c-2.8,15.8-5.6,31.6-8.3,47.4c-0.2,1.1-0.5,1.5-1.7,1.4
		C242.8,87.7,241,87.8,239.2,87.8C239.2,87.8,239.2,87.8,239.2,87.8z"/>
	<path class="st3" d="M157.1,152.3c48.1,0,96.3,0,144.4,0c0.5,0,1.5-0.5,1.5,0.5c0,0.9-1,0.4-1.5,0.4c-96.3,0-192.7,0-289,0
		c-0.5,0-1.5,0.5-1.5-0.5c0-1,1-0.5,1.5-0.5C60.7,152.3,108.9,152.3,157.1,152.3z"/>
	<path class="st1" d="M126.5,134c0,2.1-0.1,3.9,0,5.7c0,1-0.2,1.4-1.2,1.3c-2.6-0.1-2.6,0-2.6-2.6c0-3,0-6.1,0-9.1
		c0-0.7,0.1-1,1-1.1c1.7-0.2,3,0.3,4.1,1.7c1.4,1.7,3,3.3,4.8,5.2c0-2.1,0-3.9,0-5.8c0-0.9,0.2-1.2,1.1-1.2c2.8,0,2.8,0,2.8,2.8
		c0,3,0,6,0,9c0,0.8-0.3,0.9-1,1c-1.8,0.2-3-0.4-4.1-1.8C129.9,137.5,128.3,135.9,126.5,134z"/>
	<path class="st1" d="M82.6,111.6c0,2.2,0,4,0,5.9c0,0.8-0.1,1.1-1,1.1c-2.9,0-2.9,0-2.9-2.9c0-2.9,0-5.8,0-8.7c0-0.8,0.1-1.1,1-1.2
		c1.7-0.2,3,0.4,4.1,1.8c1.4,1.7,3,3.3,4.8,5.2c0-2.1,0-3.9,0-5.7c0-0.9,0.1-1.3,1.2-1.3c2.7,0.1,2.7,0,2.7,2.8c0,3,0,6,0,9
		c0,0.7-0.2,0.9-1,1c-1.7,0.1-3-0.2-4.1-1.7C86,115.1,84.3,113.5,82.6,111.6z"/>
	<path class="st1" d="M57,134c0,2.2,0,4.2,0,6.1c0,0.7-0.2,0.9-0.9,0.9c-2.9,0.1-2.9,0.1-2.9-2.8c0-3,0-6,0-9c0-0.8,0.3-1,1-1
		c1.7-0.2,2.9,0.3,4,1.7c1.4,1.8,3.1,3.4,4.9,5.3c0-2.2,0-4.1,0-6c0-0.7,0.1-0.9,0.9-0.9c3-0.1,3-0.1,3,2.8c0,2.9,0,5.9,0,8.8
		c0,0.9-0.3,1-1.1,1.1c-1.7,0.2-2.9-0.4-4-1.7C60.5,137.5,58.8,135.9,57,134z"/>
	<path class="st1" d="M170.9,134c0,2.2,0,4.1,0,6c0,0.8-0.3,1-1,1c-2.9,0-2.9,0-2.9-2.9c0-3,0-6,0-9c0-0.8,0.2-0.9,1-1
		c1.8-0.2,3.1,0.3,4.2,1.8c1.4,1.8,3.1,3.3,4.9,5.2c0-2.2,0-4.1,0-6c0-0.7,0.1-1,0.9-1c2.9,0,2.9-0.1,2.9,2.8c0,3,0,6,0,9
		c0,0.7-0.2,0.9-0.9,1c-1.7,0.2-3-0.3-4.1-1.7C174.3,137.5,172.6,135.9,170.9,134z"/>
	<path class="st1" d="M255.9,134c0,2.2,0,4.1,0,6c0,0.9-0.3,1.1-1.1,1.1c-2.7,0-2.7,0-2.7-2.8c0-3,0-6.1,0-9.1c0-0.8,0.2-0.9,1-1
		c1.7-0.2,3,0.3,4.1,1.7c1.4,1.8,3.1,3.3,4.9,5.2c0-2.2,0-4.1,0-6c0-0.7,0.1-1,0.9-1c2.9,0,2.9-0.1,2.9,2.9c0,2.9,0,5.9,0,8.8
		c0,0.8-0.2,1-1,1.1c-1.7,0.2-2.9-0.3-4-1.7C259.4,137.5,257.7,135.9,255.9,134z"/>
	<path class="st1" d="M297,112.8c0-2.2,0-4.1,0-6.1c0-0.7,0.2-0.9,0.9-0.9c3,0,3-0.1,3,2.9c0,2.9,0,5.8,0,8.7c0,0.9-0.3,1-1.1,1.1
		c-1.7,0.2-2.9-0.4-4-1.7c-1.4-1.7-3.1-3.3-4.8-5.3c0,2.2,0,4.1,0,6.1c0,0.7-0.2,0.9-0.9,0.9c-3,0-3,0-3-2.9c0-2.9,0-5.8,0-8.7
		c0-0.9,0.3-1,1.1-1.1c1.8-0.2,3,0.4,4.1,1.8C293.6,109.3,295.2,110.9,297,112.8z"/>
	<path class="st1" d="M158.8,112.8c0-2.3,0-4.2,0-6.1c0-0.6,0.2-0.8,0.8-0.8c3-0.1,3-0.1,3,2.9c0,2.9,0,5.8,0,8.7c0,0.8-0.2,1-1,1.1
		c-1.7,0.1-3-0.3-4.1-1.7c-1.4-1.8-3.1-3.3-4.8-5.2c0,2.2,0,4,0,5.9c0,0.8-0.2,1.1-1,1.1c-2.9,0-2.9,0.1-2.9-2.8c0-2.9,0-5.8,0-8.7
		c0-0.8,0.1-1.1,1-1.1c1.8-0.1,3.1,0.4,4.2,1.8C155.4,109.4,157,110.9,158.8,112.8z"/>
	<path class="st1" d="M217.3,132.3c0-1.1,0-2.2,0-3.3c0-0.7,0.2-0.8,0.8-0.8c3.1-0.1,3.1-0.1,3.1,3c0,1.2,0,2.5,0,3.7
		c0.1,1.8,1,2.8,2.5,3c1.7,0.1,2.8-0.7,3-2.6c0.2-2,0.1-4,0.1-6c0-0.8,0.3-1,1-1c2.8,0,2.8,0,2.8,2.7c0,1.2-0.1,2.4,0,3.6
		c0.3,4.9-3.1,6.6-6.8,6.6c-1.4,0-2.7-0.2-3.9-0.9c-1.7-1-2.7-2.5-2.7-4.5C217.3,134.6,217.3,133.4,217.3,132.3z"/>
	<path class="st1" d="M269,134.5c0-1.8,0-3.6,0-5.4c0-0.7,0.2-0.9,0.9-0.9c2.6,0,5.2,0,7.7,0c0.7,0,0.8,0.2,0.8,0.8
		c0,2.2,0.2,1.8-1.8,1.8c-0.8,0-1.6,0-2.3,0c-0.7,0-1.5-0.3-1.5,1.1c0,1.4,0.7,1.2,1.5,1.1c0.9,0,1.9,0.1,2.8,0
		c1.3-0.1,0.9,0.8,1,1.4c0,0.7,0.1,1.3-0.9,1.2c-1.1-0.1-2.3,0-3.4,0c-0.7,0-0.9,0.1-0.9,0.9c0,1.8,0,1.8,1.7,1.8c0.9,0,1.7,0,2.6,0
		c1.3,0,1.9,1.1,1.4,2.3c-0.2,0.4-0.5,0.3-0.7,0.3c-2.7,0-5.4,0-8.1,0c-0.6,0-0.7-0.3-0.7-0.8C269,138.3,269,136.4,269,134.5z"/>
	<path class="st1" d="M154.9,134.5c0-1.8,0-3.5,0-5.3c0-0.8,0.3-1,1-1c2.5,0,5,0,7.5,0c0.6,0,0.9,0.1,0.9,0.8
		c-0.1,2.2,0.2,1.8-1.8,1.8c-0.9,0-1.9,0.1-2.8,0c-1-0.1-1,0.4-0.9,1.1c0,0.6-0.1,1.2,0.9,1.2c1.2-0.1,2.4,0,3.6,0
		c1.3-0.1,0.8,0.9,0.8,1.4c0.1,0.6,0.2,1.3-0.8,1.2c-1.2-0.1-2.4,0-3.6,0c-0.7,0-0.9,0.2-0.9,0.9c0,1.8,0,1.8,1.7,1.8
		c0.9,0,1.7,0,2.6,0c1.2,0,1.9,1.2,1.4,2.3c-0.1,0.3-0.4,0.3-0.6,0.3c-2.7,0-5.5,0-8.2,0c-0.6,0-0.7-0.3-0.7-0.8
		C154.9,138.3,154.9,136.4,154.9,134.5z"/>
	<path class="st1" d="M110.6,134.5c0-1.8,0-3.6,0-5.4c0-0.8,0.2-1,1-0.9c2.5,0,5.1,0.1,7.6,0c1.2,0,0.9,0.7,0.8,1.3
		c0,0.6,0.4,1.5-0.8,1.4c-1.3-0.1-2.5,0.1-3.8,0c-1-0.1-0.9,0.5-0.9,1.2c0,0.7,0,1.2,0.9,1.1c1.2-0.1,2.4,0,3.6,0
		c1.1-0.1,0.8,0.6,0.8,1.2c0,0.6,0.4,1.5-0.8,1.5c-1.2,0-2.5,0-3.7,0c-1.2-0.1-0.8,0.8-0.8,1.3c0,0.6-0.3,1.4,0.8,1.3
		c1.3-0.1,2.7,0,4,0c1.2-0.1,0.8,0.8,0.8,1.3c0,0.6,0.3,1.3-0.8,1.3c-2.6-0.1-5.2,0-7.9,0c-0.7,0-0.9-0.2-0.9-0.9
		C110.6,138.2,110.6,136.4,110.6,134.5z"/>
	<path class="st1" d="M85.4,134.5c0-1.8,0-3.7,0-5.5c0-0.6,0.1-0.8,0.7-0.8c2.7,0,5.3,0,8,0c0.6,0,0.8,0.2,0.7,0.8
		c0,0.4,0,0.8,0,1.2c0,0.6-0.2,0.7-0.7,0.7c-1.3,0-2.6,0-3.9,0c-0.9-0.1-1,0.4-1,1.1c0,0.8,0.1,1.2,1,1.2c1.1-0.1,2.3,0,3.4,0
		c0.6,0,0.9,0.1,0.9,0.8c0,1.8,0,1.8-1.7,1.8c-0.9,0-1.9,0.1-2.8,0c-1.3-0.1-0.8,0.8-0.8,1.4c0,0.6-0.2,1.3,0.8,1.2
		c1.3-0.1,2.7,0,4.1,0c1.2-0.1,0.8,0.8,0.8,1.3c0,0.6,0.3,1.4-0.8,1.3c-2.6-0.1-5.2,0-7.9,0c-0.7,0-0.9-0.3-0.9-0.9
		C85.4,138.2,85.4,136.4,85.4,134.5C85.4,134.5,85.4,134.5,85.4,134.5z"/>
	<path class="st1" d="M60.7,114.5c0,0.8,0,1.7,0,2.5c0,0.4-0.1,0.6-0.5,0.8c-3.1,1.1-6.3,1.5-9.2-0.4c-2.4-1.6-2.9-4.1-2.4-6.9
		c0.5-2.6,2.3-4,4.8-4.6c2.2-0.5,4.4-0.1,6.5,0.5c0.5,0.1,0.6,0.4,0.6,0.9c0,0.9,0,1.7,0,2.7c-1.2-0.5-2.2-1.2-3.4-1.2
		c-0.6,0-1.2,0-1.8,0.1c-1.9,0.4-3.1,1.9-3,3.6c0.1,1.7,1.6,3,3.5,3.2c1.3,0.1,2.5-0.2,3.7-0.8C59.9,114.8,60.1,114.4,60.7,114.5z"
		/>
	<path class="st1" d="M182.9,112.1c0-1.8,0-3.6,0-5.4c0-0.7,0.2-0.8,0.8-0.8c2.6,0,5.2,0.1,7.7,0c1.2,0,0.8,0.8,0.8,1.3
		c0,0.6,0.3,1.4-0.9,1.3c-1.3-0.1-2.5,0-3.8-0.1c-1.1-0.1-0.9,0.7-0.9,1.3c-0.1,0.6,0,1.1,0.9,1.1c1.1-0.1,2.2,0.1,3.3,0
		c1.2-0.1,1.1,0.5,1.2,1.4c0.1,1-0.3,1.3-1.2,1.2c-1.1-0.1-2.1,0-3.2,0c-0.6,0-0.9,0.1-0.9,0.9c0,1.8,0,1.8,1.8,1.8
		c0.9,0,1.8,0,2.7,0c0.4,0,1.1-0.3,1.2,0.2c0.2,0.7,0.1,1.5,0,2.2c0,0.2-0.3,0.1-0.5,0.1c-2.7,0-5.5,0-8.2,0c-0.6,0-0.8-0.2-0.8-0.8
		C182.9,115.8,182.9,113.9,182.9,112.1z"/>
	<path class="st1" d="M210.3,112.1c0-1.8,0-3.7,0-5.5c0-0.6,0.2-0.8,0.8-0.8c2.6,0,5.2,0.1,7.9,0c1,0,0.9,0.5,0.8,1.1
		c-0.1,0.6,0.5,1.5-0.8,1.5c-1.1,0-2.3,0-3.4,0c-0.9,0-1.4,0-1.4,1.2c0,1.1,0.5,1.2,1.3,1.1c1.1,0,2.1,0,3.2,0
		c1.3-0.1,0.8,0.8,0.8,1.4c0.1,0.6,0.1,1.2-0.9,1.1c-1.2-0.1-2.4,0-3.6,0c-1.3-0.1-0.8,0.8-0.9,1.4c0,0.6-0.3,1.3,0.9,1.3
		c1.3-0.1,2.7,0,4.1,0c0.9,0,0.9,0.5,0.8,1.1c-0.1,0.6,0.5,1.5-0.8,1.5c-2.7,0-5.3,0-8,0c-0.7,0-0.8-0.2-0.8-0.9
		C210.4,115.8,210.3,114,210.3,112.1z"/>
	<path class="st1" d="M292.2,137c1.3,0.6,2.5,1.4,3.9,1.3c0.6,0,1.2-0.1,1.3-0.8c0.2-0.7-0.4-0.9-0.8-1.2c-0.9-0.5-1.9-0.8-2.7-1.4
		c-1.5-0.9-2.1-2.3-1.8-4c0.3-1.5,1.5-2.5,3.2-2.8c0.9-0.2,1.7-0.1,2.6,0c3,0.4,3.3,0.8,2.9,3.9c-0.9-0.3-1.7-1-2.7-1.1
		c-0.4-0.1-0.9-0.1-1.3-0.1c-0.5,0-0.9,0.2-1,0.8c-0.1,0.5,0.2,0.8,0.6,1c0.7,0.4,1.5,0.7,2.2,1.1c2.5,1.4,3.3,2.7,2.7,4.7
		c-0.5,1.8-2.5,2.9-4.9,2.8c-0.4,0-0.7,0-1.1-0.1C292.2,140.6,291.9,140.2,292.2,137z"/>
	<path class="st1" d="M233.3,137c1.4,0.7,2.6,1.4,4,1.3c0.6,0,1.2-0.1,1.3-0.8c0.2-0.7-0.4-0.9-0.8-1.2c-0.6-0.3-1.3-0.6-1.9-0.9
		c-2.3-1.2-3.1-2.7-2.6-4.7c0.4-1.7,2.3-2.8,4.6-2.7c0.3,0,0.7,0.1,1,0.1c3,0.3,3.4,0.8,3.1,3.9c-0.8-0.3-1.5-1-2.4-1.1
		c-0.5-0.1-1-0.2-1.4-0.2c-0.5,0-1,0.1-1.1,0.8c-0.1,0.5,0.3,0.8,0.7,1c0.9,0.5,1.8,0.9,2.6,1.3c2,1.1,2.6,2.4,2.2,4.3
		c-0.4,1.6-1.8,2.6-3.7,2.8c-1.5,0.2-2.9-0.1-4.3-0.5c-0.8-0.2-1.2-0.7-1.1-1.6C233.3,138.4,233.3,137.8,233.3,137z"/>
	<path class="st1" d="M280.7,137c1.4,0.7,2.5,1.4,4,1.3c0.6,0,1.2-0.1,1.4-0.8c0.2-0.7-0.4-0.9-0.8-1.2c-0.9-0.5-1.8-0.8-2.6-1.3
		c-1.6-1-2.3-2.4-1.9-4c0.4-1.6,1.5-2.6,3.4-2.9c0.8-0.1,1.5-0.1,2.3,0c3,0.4,3.3,0.8,2.9,3.9c-0.9-0.4-1.8-1.1-2.8-1.2
		c-0.4,0-0.8-0.1-1.2-0.1c-0.4,0-0.8,0.2-0.9,0.7c-0.1,0.5,0.2,0.8,0.5,1c0.9,0.5,1.9,1,2.8,1.5c1.9,1.1,2.6,2.4,2.1,4.2
		c-0.3,1.6-1.8,2.7-3.7,2.9c-1.4,0.2-2.8-0.1-4.2-0.4c-0.9-0.3-1.4-0.7-1.2-1.7C280.8,138.3,280.7,137.8,280.7,137z"/>
	<path class="st1" d="M189.5,128.2c1.8,0,3.7,0,5.5,0c0.8,0,1,0.3,1,1c0,2.1,0.1,2.1-2.1,2.1c-2.5,0-2.5,0-2.5,2.5c0,2,0,4,0,6
		c0,0.8-0.1,1.1-1.1,1.1c-2.9,0-2.9,0-2.9-2.9c0-1.9,0-3.8,0-5.8c0-0.8-0.3-1.1-1-1c-0.4,0.1-0.9,0-1.3,0c-2.4,0-2.3,0-2.3-2.3
		c0-0.6,0.2-0.8,0.8-0.8C185.7,128.2,187.6,128.2,189.5,128.2z"/>
	<path class="st1" d="M255.8,105.8c1.8,0,3.7,0,5.5,0c0.8,0,1,0.3,1,1c0,2.1,0,2.1-2.1,2.1c-2.6,0-2.6,0-2.6,2.6c0,2,0,3.9,0,5.9
		c0,0.7-0.1,1-0.9,1c-3,0-3,0-3-3c0-1.9,0-3.8,0-5.6c0-0.7-0.2-1-0.9-0.9c-1,0.1-2,0-2.9,0c-0.7,0-0.8-0.2-0.8-0.8
		c-0.1-2.3-0.1-2.3,2.2-2.3C252.7,105.8,254.3,105.8,255.8,105.8z"/>
	<path class="st1" d="M29,134.5c0-1.8,0-3.6,0-5.4c0-0.7,0.1-0.9,0.9-0.9c2.5,0,5,0,7.5,0c0.7,0,0.8,0.2,0.8,0.8
		c0,1.8,0.1,1.8-1.8,1.8c-0.7,0-1.4,0-2.1,0c-1.4,0-1.7,0.5-1.4,1.9c0.1,0.5,0.4,0.4,0.7,0.4c1.2,0,2.4,0,3.6,0c0.7,0,1,0.2,1,1
		c0,1.7,0,1.7-1.6,1.7c-0.9,0-1.7,0.1-2.6,0c-0.9-0.1-1.1,0.3-1.1,1.1c0.1,0.9-0.1,1.9,0,2.8c0.2,1.6-0.9,1.3-1.7,1.2
		c-0.8-0.2-2.3,1-2.2-1.1C29.1,138.1,29,136.3,29,134.5z"/>
	<path class="st1" d="M20.9,168.1c0.6-0.5,1.2-0.8,1.9-1c2.8-0.5,4.3,0.7,4.2,3.6c-0.1,2.2-0.5,4.3-0.8,6.4
		c-0.1,0.5-0.3,0.6-0.8,0.7c-2.6,0.2-2.6,0.2-2.3-2.3c0.1-1.2,0.3-2.4,0.5-3.6c0.1-0.8,0.1-1.6-0.9-1.9c-1-0.2-1.9,0.1-2.3,1.2
		c-0.5,1.1-0.4,2.4-0.7,3.6c0,0.2,0,0.4-0.1,0.6c-0.3,2.6-0.4,2.6-3,2.4c-0.6,0-0.7-0.2-0.6-0.7c0.4-3,0.9-5.9,1.2-8.9
		c0.1-0.7,0.3-1,1.1-0.9c0.7,0.1,1.5-0.3,2.2,0.3C20.5,167.8,20.4,168.1,20.9,168.1z"/>
	<path class="st1" d="M80.6,168.5c0.7-0.6,1.3-1.1,2-1.3c2.8-0.9,4.8,0.6,4.6,3.5c-0.2,2.1-0.6,4.2-0.8,6.3c-0.1,0.7-0.4,0.7-1,0.7
		c-2.4,0.1-2.4,0.1-2.1-2.3c0.1-1.2,0.3-2.3,0.5-3.5c0.1-0.8,0.1-1.6-0.9-1.9c-1-0.3-1.9,0.1-2.3,1.1c-0.2,0.4-0.3,0.8-0.4,1.3
		c-0.2,1.3-0.4,2.6-0.5,3.9c-0.1,1.1-0.4,1.7-1.7,1.6c-1.8-0.1-1.8,0-1.6-1.8c0.3-2.6,0.7-5.1,1-7.7c0.1-0.8,0.4-1.2,1.2-1.1
		c0.3,0,0.6,0,0.9,0C80.3,167.2,81,167.2,80.6,168.5z"/>
	<path class="st1" d="M261.8,168.4c1.1-1,2.2-1.5,3.6-1.4c2,0.1,3.1,1,3,3c0,2.4-0.6,4.8-0.9,7.2c-0.1,0.4-0.3,0.5-0.7,0.5
		c-2.6,0.3-2.7,0.2-2.4-2.3c0.1-1.2,0.3-2.3,0.5-3.5c0.1-0.8,0.1-1.7-0.9-2c-1.1-0.2-1.8,0.2-2.3,1.2c-0.5,1-0.4,2.2-0.6,3.2
		c-0.1,0.8-0.2,1.6-0.3,2.4c-0.1,0.7-0.3,1-1.1,1c-2.3,0-2.3,0.1-2.1-2.1c0.3-2.5,0.7-5,1-7.5c0.1-0.7,0.4-0.9,1-0.8
		c0.4,0,0.8,0,1.2,0C261.7,167.2,262.2,167.3,261.8,168.4z"/>
	<path class="st1" d="M195.4,176.6c-1.1,1.1-2.1,1.5-3.5,1.4c-2.1-0.1-3.1-1-3.1-3.1c0.1-2.4,0.6-4.7,0.9-7.1
		c0.1-0.4,0.3-0.5,0.7-0.5c0.9,0,1.8,0,2.7,0c-0.3,2-0.5,3.9-0.8,5.7c-0.1,0.9-0.1,1.8,0.9,2.1c0.9,0.3,2-0.3,2.3-1.3
		c0.5-1.4,0.5-2.8,0.7-4.2c0.4-2.5,0.3-2.5,2.9-2.3c0.4,0,0.7,0.1,0.6,0.6c-0.4,3.1-0.9,6.2-1.3,9.4c-0.1,0.5-0.3,0.5-0.7,0.5
		c-0.5,0-0.9,0-1.3,0C195.8,177.8,195.2,177.8,195.4,176.6z"/>
	<path class="st1" d="M55.2,176.7c-0.9,0.9-2,1.4-3.3,1.3c-2.2,0-3.4-1.1-3.2-3.3c0.2-2.3,0.6-4.6,0.9-6.9c0.1-0.4,0.2-0.5,0.6-0.6
		c2.6-0.3,2.8-0.2,2.4,2.3c-0.2,1.1-0.3,2.2-0.5,3.3c-0.1,0.9-0.2,1.9,1,2.2c1,0.3,2.1-0.3,2.4-1.5c0.4-1.4,0.5-2.9,0.8-4.3
		c0.1-0.7-0.1-1.7,0.5-1.9c0.8-0.3,1.8-0.1,2.7-0.1c0.5,0,0.4,0.4,0.3,0.6c-0.4,3.1-0.9,6.2-1.3,9.3c0,0.3-0.2,0.5-0.6,0.5
		c-0.7,0-1.4,0-2.1,0C55,177.8,55.4,177.1,55.2,176.7z"/>
	<path class="st1" d="M236.4,176.7c-0.9,0.9-1.9,1.3-3.2,1.3c-2.3,0-3.5-1.1-3.3-3.4c0.2-2.2,0.6-4.5,0.9-6.7
		c0.1-0.5,0.2-0.6,0.7-0.6c2.7-0.3,2.7-0.2,2.3,2.4c-0.2,1.1-0.3,2.2-0.5,3.3c-0.1,0.9-0.1,1.8,0.9,2.1c0.9,0.3,2-0.3,2.4-1.3
		c0.5-1.4,0.5-3,0.8-4.5c0.1-0.7-0.1-1.7,0.5-1.9c0.8-0.3,1.8-0.1,2.7-0.1c0.4,0,0.4,0.3,0.3,0.6c-0.4,3.1-0.9,6.2-1.3,9.4
		c0,0.3-0.2,0.5-0.6,0.5c-0.7,0-1.4,0-2.1,0C236.2,177.8,236.6,177.1,236.4,176.7z"/>
	<path class="st1" d="M171.3,112.1c0-1.8,0-3.6,0-5.4c0-0.6,0.2-0.8,0.8-0.8c2.5,0,5,0.1,7.5,0c1,0,0.8,0.6,0.8,1.1
		c-0.1,0.6,0.5,1.5-0.8,1.5c-1.2,0-2.5,0-3.7,0c-1.2,0-0.8,0.8-0.8,1.4c-0.1,0.6,0,1.1,0.9,1.1c1.2-0.1,2.5,0,3.7,0
		c1.1,0,0.8,0.7,0.8,1.3c0,0.5,0.4,1.4-0.8,1.4c-1.2,0-2.4,0-3.6,0c-0.8-0.1-1,0.3-1,1.1c0.1,1.1,0,2.2,0,3.3c0,0.5-0.2,0.8-0.7,0.7
		c-0.1,0-0.2,0-0.2,0c-2.8,0.1-2.8,0.1-2.8-2.7C171.3,114.5,171.3,113.3,171.3,112.1z"/>
	<path class="st1" d="M129.9,177.8c-1.7,0-1.6,0-1.4-1.7c0.3-1.7,0.4-3.5,0.7-5.2c0.1-0.7,0-1-0.8-1c-0.5,0-1.3,0.3-1.1-0.7
		c0.2-0.7-0.4-2,1.2-1.9c0.9,0.1,1.4-0.1,1.3-1.1c0-0.4,0.1-0.9,0.2-1.3c0.5-2.8,3.2-4.4,5.9-3.5c0.4,0.1,0.6,0.2,0.5,0.7
		c-0.1,0.5-0.2,1-0.3,1.4c0,0.6-0.2,0.7-0.8,0.6c-1.5-0.2-2.7,1.5-2.3,2.9c0.2,0.6,0.7,0.2,1,0.3c0.4,0.2,1.1-0.4,1.2,0.5
		c0.1,1.6-0.2,2.2-1.3,2.1c-1.1-0.1-1.5,0.3-1.6,1.4c-0.1,1.6-0.5,3.2-0.7,4.9C131.6,177.8,131.6,177.8,129.9,177.8z"/>
	<path class="st1" d="M245.3,178c-1.2,0-2.3-0.1-3.3-0.8c-0.6-0.4-0.9-0.7-0.1-1.3c0.2-0.2,0.4-0.4,0.6-0.6c0.6-0.7,1.2-1.3,2-0.2
		c0.1,0.1,0.3,0.2,0.4,0.2c0.8,0.1,2,0.5,2.2-0.6c0.2-0.9-1-0.8-1.6-1.1c-0.3-0.1-0.6-0.2-0.9-0.2c-2.3-0.7-3-2.7-1.5-4.7
		c1.4-2,5.4-2.5,7.4-1c0.5,0.4,0.7,0.7,0.1,1.1c-0.4,0.3-0.7,0.6-1,0.9c-0.4,0.4-0.8,0.6-1.3,0.1c-0.3-0.3-0.7-0.4-1.1-0.4
		c-0.6,0-1.1,0.1-1.2,0.8c-0.1,0.7,0.6,0.7,1,0.8c0.5,0.2,1,0.2,1.4,0.4c1.1,0.3,2.1,0.7,2.3,2c0.2,1.3-0.2,2.5-1.3,3.4
		C248.1,177.8,246.7,178,245.3,178z"/>
	<path class="st1" d="M295.5,178c-1.2,0-2.4-0.2-3.5-0.9c-0.5-0.3-0.6-0.6-0.1-1c0.3-0.2,0.5-0.4,0.7-0.7c0.6-0.6,1.1-1.4,2-0.3
		c0.1,0.2,0.5,0.3,0.8,0.3c0.7,0.1,1.7,0.3,1.9-0.6c0.2-1-0.9-0.8-1.5-1.1c-0.3-0.1-0.6-0.1-1-0.2c-2.6-0.7-3.3-3.2-1.3-5.2
		c1.5-1.5,5.1-1.9,6.9-0.7c0.6,0.4,0.8,0.7,0.1,1.2c-0.3,0.2-0.6,0.5-0.9,0.8c-0.4,0.4-0.8,0.7-1.3,0.1c-0.3-0.3-0.7-0.4-1.1-0.4
		c-0.6,0-1.1,0.1-1.2,0.8c-0.1,0.7,0.6,0.7,1,0.9c0.5,0.2,1,0.2,1.4,0.4c1.1,0.3,2.1,0.7,2.3,2c0.2,1.3-0.2,2.4-1.2,3.3
		C298.4,177.8,297,178,295.5,178z"/>
	<path class="st1" d="M114.3,178c-1.2,0-2.4-0.2-3.5-0.9c-0.4-0.3-0.5-0.6-0.1-1c0.3-0.2,0.5-0.4,0.7-0.7c0.6-0.6,1.2-1.4,2.1-0.3
		c0.1,0.1,0.3,0.2,0.4,0.2c0.8,0.1,2,0.5,2.2-0.6c0.2-0.9-1-0.8-1.6-1.1c-0.2-0.1-0.5-0.1-0.7-0.2c-2.7-0.7-3.4-3.1-1.4-5.1
		c1.5-1.6,5.2-2,7-0.7c0.5,0.4,0.8,0.7,0.1,1.2c-0.3,0.2-0.5,0.4-0.7,0.7c-0.5,0.5-1,0.9-1.7,0.2c-0.3-0.3-0.7-0.3-1.2-0.3
		c-0.5,0.1-1,0.2-1.1,0.8c-0.1,0.6,0.5,0.7,0.9,0.8c0.5,0.2,1,0.3,1.5,0.4c1.1,0.3,2.1,0.8,2.3,2.1c0.2,1.2-0.2,2.4-1.1,3.2
		C117.3,177.8,115.8,178,114.3,178z"/>
	<path class="st1" d="M64.1,178c-1.2,0-2.3-0.1-3.3-0.8c-0.6-0.4-0.8-0.7-0.1-1.2c0.3-0.2,0.5-0.5,0.8-0.8c0.5-0.6,1-1.1,1.7-0.2
		c0.2,0.2,0.6,0.3,0.9,0.4c0.8,0.1,1.8,0.3,2-0.7c0.1-0.8-0.9-0.7-1.5-0.9c-0.4-0.1-0.8-0.2-1.2-0.3c-2.2-0.7-2.9-2.5-1.6-4.5
		c1.4-2.1,5.6-2.7,7.5-1.2c0.4,0.3,0.6,0.6,0.1,1c-0.4,0.3-0.7,0.6-1,0.9c-0.5,0.5-0.9,0.6-1.4,0.1c-0.3-0.3-0.8-0.4-1.3-0.3
		c-0.5,0.1-1,0.2-1.1,0.8c0,0.5,0.4,0.6,0.8,0.7c0.5,0.2,1.1,0.3,1.7,0.4c1,0.3,2,0.7,2.3,2c0.2,1.3-0.1,2.4-1.1,3.3
		C67,177.8,65.6,178,64.1,178z"/>
	<path class="st1" d="M104.3,178c-1.2,0-2.4-0.1-3.4-0.9c-0.5-0.4-0.6-0.7-0.1-1.1c0.3-0.2,0.6-0.5,0.8-0.7c0.6-0.7,1.1-1,1.8-0.2
		c0.1,0.2,0.4,0.3,0.7,0.3c0.8,0.1,1.8,0.4,2.1-0.5c0.3-1.1-0.9-0.8-1.5-1.1c-0.2-0.1-0.6-0.1-0.8-0.2c-2.6-0.7-3.3-3.2-1.3-5.2
		c1.5-1.6,5-1.9,6.9-0.7c0.7,0.5,0.8,0.8,0,1.3c-0.3,0.2-0.6,0.4-0.8,0.7c-0.5,0.5-0.9,0.6-1.4,0.1c-0.3-0.3-0.7-0.4-1.2-0.3
		c-0.6,0-1.1,0.2-1.2,0.8c-0.1,0.6,0.5,0.6,0.9,0.8c0.5,0.2,1,0.3,1.5,0.4c1,0.3,2,0.7,2.3,1.8c0.3,1.3,0,2.4-1,3.4
		C107.6,177.6,106.3,178,104.3,178z"/>
	<path class="st1" d="M285.5,178c-1.2,0-2.3-0.1-3.3-0.8c-0.6-0.4-0.8-0.7-0.1-1.2c0.3-0.2,0.6-0.5,0.8-0.7c0.5-0.6,0.9-1.1,1.7-0.2
		c0.5,0.6,1.4,0.5,2.2,0.3c0.3-0.1,0.6-0.3,0.7-0.6c0-0.4-0.2-0.6-0.6-0.7c-0.6-0.2-1.3-0.3-1.9-0.5c-2.5-0.7-3.2-2.9-1.5-4.9
		c1.5-1.8,5.4-2.3,7.2-0.9c0.5,0.4,0.7,0.6,0.1,1.1c-0.4,0.3-0.7,0.6-1,0.9c-0.4,0.4-0.8,0.7-1.3,0.1c-0.2-0.3-0.6-0.4-1-0.4
		c-0.6,0-1.3,0.1-1.4,0.7c-0.2,0.8,0.6,0.7,1.1,0.9c0.5,0.2,1,0.2,1.4,0.4c1,0.3,2,0.7,2.2,1.9c0.3,1.2,0,2.4-1,3.3
		C288.9,177.6,287.5,178,285.5,178z"/>
	<path class="st1" d="M13.5,177.6c-0.9,0.3-1.9,0.1-2.8,0.1c-0.4,0-0.6-0.2-0.6-0.6c0.7-4.6,1.3-9.1,1.9-13.7c0.1-0.8,0.3-1,1.1-1
		c2.4,0,2.5,0,2.1,2.4C14.6,169.1,14.1,173.3,13.5,177.6z"/>
	<path class="st4" d="M245.1,134.6c0-1.8,0-3.7,0-5.5c0-0.7,0.2-0.9,0.9-0.9c3,0,3-0.1,3,2.9c0,2.9,0,5.9,0,8.8c0,0.8-0.2,1-1,1
		c-2.9,0-2.9,0-2.9-2.8C245.1,137,245.1,135.8,245.1,134.6z"/>
	<path class="st4" d="M46.2,134.6c0-1.8,0-3.7,0-5.5c0-0.7,0.2-0.9,0.9-0.9c3,0,3-0.1,3,2.9c0,2.9,0,5.9,0,8.8c0,0.8-0.2,1-1,1
		c-2.9,0-2.9,0-2.9-2.8C46.2,137,46.2,135.8,46.2,134.6z"/>
	<path class="st5" d="M264.4,112.1c0-1.8,0-3.6,0-5.4c0-0.7,0.2-0.9,0.9-0.9c3-0.1,3-0.1,3,2.9c0,2.9,0,5.8,0,8.7
		c0,0.8-0.2,1.1-1,1.1c-2.9,0-2.9,0-2.9-2.9C264.4,114.5,264.4,113.3,264.4,112.1z"/>
	<path class="st5" d="M130.1,112.3c0,1.7,0,3.4,0,5.1c0,0.8-0.2,1.1-1.1,1.1c-2.8,0-2.8,0.1-2.8-2.8c0-3,0-6,0-8.9
		c0-0.7,0.1-1,0.9-1c2.9,0,2.9-0.1,2.9,2.9C130.1,109.9,130.1,111.1,130.1,112.3z"/>
	<path class="st4" d="M205.8,168.3c0.4-0.5,0.9-0.9,1.5-1.1c0.8-0.3,1.9-0.6,2.3,0.1c0.3,0.6-0.1,1.6-0.3,2.5
		c-0.1,0.5-0.5,0.2-0.8,0.2c-2.4-0.1-3.3,0.5-3.7,2.9c-0.2,1.2-0.4,2.5-0.5,3.8c-0.1,0.8-0.4,1.1-1.3,1.1c-2.2,0-2.2,0-1.9-2.1
		c0.3-2.5,0.7-5.1,1-7.7c0.1-0.5,0.2-0.8,0.8-0.8c0.7,0,1.4,0,2.1,0c0.4,0,0.5,0.1,0.5,0.5C205.4,168,205.2,168.4,205.8,168.3z"/>
	<path class="st1" d="M152.7,168.5c1.1-0.9,2.2-1.7,3.6-1.5c0.6,0.1,0.9,0.2,0.7,0.9c-0.1,0.2-0.1,0.5-0.1,0.7
		c0,1.1-0.3,1.5-1.6,1.4c-1.6-0.2-2.6,0.5-2.9,2.1c-0.3,1.5-0.6,3-0.7,4.5c-0.1,0.9-0.4,1.3-1.3,1.2c-2.1-0.1-2.1,0-1.9-2.1
		c0.3-2.5,0.7-4.9,1-7.4c0.1-0.7,0.3-1.1,1.1-1c0.4,0.1,0.8,0,1.2,0C152.8,167.2,153.3,167.4,152.7,168.5z"/>
	<path class="st1" d="M73.7,167.3c0.3,0,0.6,0,0.9,0c0.7-0.1,0.8,0.2,0.7,0.8c-0.4,3-0.9,6.1-1.3,9.1c-0.1,0.5-0.3,0.6-0.7,0.6
		c-2.7,0.2-2.7,0.2-2.3-2.5c0.3-2.1,0.6-4.2,0.9-6.3C72,167.3,72,167.3,73.7,167.3z"/>
	<path class="st1" d="M254.9,167.3c1.7,0,1.7,0,1.4,1.7c-0.4,2.6-0.8,5.3-1.1,7.9c-0.1,0.7-0.3,1-1,1c-2.5,0-2.5,0.1-2.1-2.3
		c0.3-2.1,0.6-4.3,0.9-6.4C253.2,167.3,253.2,167.3,254.9,167.3z"/>
	<path class="st5" d="M257.3,163.8c0,1.2-1.1,2.2-2.2,2.1c-1,0-1.5-0.6-1.6-1.6c0-1.1,1.1-2.2,2.2-2.1
		C256.6,162.1,257.3,162.8,257.3,163.8z"/>
	<path class="st5" d="M76.1,163.7c0,1.1-1,2.2-2.2,2.2c-1,0-1.6-0.6-1.6-1.6c-0.1-1.1,1-2.2,2.2-2.2
		C75.4,162.1,76.1,162.8,76.1,163.7z"/>
	<path class="st6" d="M307.1,174.3c-0.1,0.1-0.2,0.3-0.2,0.3c-1,0.1-0.5,0.9-0.6,1.4c-0.1,0.4,0.2,1-0.4,1c-0.6,0-0.3-0.6-0.4-1
		c-0.1-0.6,0.3-1.5-0.8-1.5c0,0-0.1-0.1-0.1-0.2c0-0.4,0.4-0.4,0.6-0.3C305.9,174.1,306.5,173.8,307.1,174.3z"/>
	<path class="st1" d="M294.3,60.4c3.8,1.8,6.2,4.5,6.6,8.6c0.3,3-0.3,5.8-1.5,8.5c-2.4,5.5-7,8.1-12.5,9.4c-2.6,0.6-5.3,0.9-8,0.9
		c-8.4,0-16.7,0-25.1,0c-0.9,0-1.1-0.1-1-1.1c2.2-12.4,4.4-24.8,6.6-37.2c0.6-3.5,1.2-7,1.8-10.5c0.1-0.7,0.3-1.1,1.1-1.1
		c8.3,0.1,16.5-0.1,24.8,0.1c2.3,0.1,4.6,0.5,6.8,1.3c6.1,2.2,8.6,7,6.7,13.2C299.6,55.9,297.4,58.4,294.3,60.4z M277.1,77.1
		c2,0,4-0.1,5.9-0.8c2.2-0.8,3.4-2.9,3.2-5.5c-0.1-1.7-1.4-2.7-3.8-3.2c-0.2,0-0.4-0.1-0.6-0.1c-3.6-0.4-7.3-0.1-10.9-0.2
		c-0.7,0-0.8,0.4-0.9,0.9c-0.5,2.7-0.9,5.4-1.4,8.1c-0.2,0.8,0.2,0.9,0.8,0.9c1.6,0,3.3,0,4.9,0C275.2,77.1,276.1,77.1,277.1,77.1z
		 M274.3,48.3c-0.6,0-0.9,0.1-1,0.8c-0.4,2.3-0.8,4.5-1.2,6.7c-0.1,0.7,0,1,0.8,1c2.6-0.1,5.2,0,7.8,0c1.1,0,2.3-0.2,3.3-0.7
		c1.8-0.8,2.9-3.1,2.5-5.3c-0.3-1.5-1.7-2.5-3.9-2.5c-1.4,0-2.8,0-4.2,0C277.2,48.3,275.7,48.3,274.3,48.3z"/>
	<path class="st1" d="M277.8,118.7c-3.5,0-5.9-1.5-6.9-4.3c-1.5-4.4,1.4-8.4,6.2-8.7c3.7-0.2,6.6,1.4,7.5,4.4
		C286.2,114.7,283,118.7,277.8,118.7z M274.6,112.1c0,2,1.2,3.2,3.2,3.3c2,0,3.3-1.2,3.3-3.2c0-2-1.2-3.2-3.2-3.2
		C275.8,109,274.6,110.1,274.6,112.1z"/>
	<path class="st1" d="M19.5,141.1c-5.6,0-8.9-5-6.4-9.7c1.3-2.4,3.6-3.2,6.1-3.4c3.8-0.2,6.7,1.8,7.4,5.3c0.8,4-1.8,7.4-5.9,7.7
		C20.3,141.1,19.9,141.1,19.5,141.1z M16.3,134.5c0,1.9,1.3,3.2,3.2,3.3c2,0,3.4-1.3,3.4-3.2c0-1.9-1.3-3.2-3.3-3.2
		C17.6,131.4,16.3,132.6,16.3,134.5z"/>
	<path class="st1" d="M70.1,134.5c0-1.8,0-3.6,0-5.4c0-0.5-0.1-0.9,0.6-0.9c2.4,0.1,4.8-0.2,7.2,0.2c4.8,0.9,6.9,6.7,3.8,10.5
		c-1.1,1.4-2.6,1.9-4.3,2c-2.2,0.1-4.3,0-6.5,0c-0.8,0-0.9-0.3-0.8-1C70.1,138.2,70.1,136.3,70.1,134.5z M74,131.6c0,2,0,3.9,0,5.9
		c0,0.3-0.1,0.6,0.3,0.7c1.1,0.5,3.9-0.3,4.5-1.4c0.7-1.4,0.7-2.9,0-4.3c-0.6-1.3-1.9-1.8-3.4-1.7C75,131.2,74,130.3,74,131.6z"/>
	<path class="st1" d="M195,112.1c0-1.8,0-3.7,0-5.5c0-0.4-0.1-0.8,0.5-0.8c2.6,0.1,5.3-0.3,7.9,0.3c2.5,0.6,4,2.3,4.5,4.8
		c0.5,2.5-0.1,4.8-2.2,6.5c-1,0.8-2.1,1-3.3,1c-2.2,0-4.3,0-6.5,0c-0.7,0-0.9-0.2-0.9-0.9C195,115.8,195,114,195,112.1z
		 M198.9,115.1c0,0.3-0.1,0.6,0.3,0.8c1.2,0.7,4.2-0.6,4.7-1.9c1.1-3.1-0.6-5.5-3.9-5.5c-0.8,0-1.2,0.1-1.1,1.1c0.1,0.9,0,1.7,0,2.6
		C198.9,113.1,198.8,114.1,198.9,115.1z"/>
	<path class="st1" d="M213,134c1.2,0.7,2.3,1.4,2.4,2.9c0.2,2.3-1.2,3.9-3.7,4c-2.4,0.1-4.7,0-7.1,0c-0.5,0-0.7-0.2-0.7-0.7
		c0-3.8,0-7.6,0-11.4c0-0.4,0-0.7,0.5-0.6c2.4,0.1,4.7-0.2,7.1,0.1c1.3,0.2,2.5,0.6,3,2C214.8,131.7,214.3,132.8,213,134z
		 M208.9,138.8c1.8-0.2,2.5-0.5,2.5-1.6c0-1.1-0.8-1.5-2.5-1.6c-1.4-0.1-1.3,0.7-1.2,1.6C207.7,137.9,207.3,138.9,208.9,138.8z
		 M208.7,133.4c1.5-0.1,2.2-0.5,2.2-1.5c0-1-0.8-1.4-2.3-1.5c-1.4-0.1-0.7,0.9-0.9,1.4C207.8,132.6,207.3,133.5,208.7,133.4z"/>
	<path class="st1" d="M110.9,112.1c0-1.8,0-3.6,0-5.4c0-0.4-0.2-0.9,0.5-0.9c2.5,0.1,5.1-0.3,7.6,0.3c4.7,1,6.7,6.8,3.6,10.4
		c-1.1,1.3-2.5,1.9-4.2,2c-2.2,0-4.4,0-6.6,0c-0.7,0-0.9-0.2-0.9-0.9C110.9,115.8,110.9,113.9,110.9,112.1z M114.8,115.1
		c0,0.3-0.1,0.6,0.3,0.7c1.6,0.8,4.6-0.7,4.9-2.5c0.5-3.2-1-5-4.3-4.9c-0.6,0-0.9,0.2-0.9,0.8c0,1,0,2,0,2.9
		C114.8,113.2,114.8,114.1,114.8,115.1z"/>
	<path class="st1" d="M139.6,134.5c0-1.8,0-3.6,0-5.4c0-0.4-0.1-0.9,0.6-0.9c2.4,0.1,4.8-0.2,7.2,0.3c2.5,0.5,4.2,1.9,4.9,4.3
		c0.7,2.5,0.4,4.8-1.6,6.7c-1.1,1.1-2.5,1.5-3.9,1.5c-2.1,0.1-4.3,0-6.4,0c-0.8,0-0.9-0.3-0.9-1
		C139.6,138.2,139.6,136.3,139.6,134.5z M143.4,137.5c0,0.3-0.1,0.6,0.3,0.7c1.4,0.7,4.3-0.5,4.8-2c1-3.3-0.7-5.5-4.2-5.4
		c-0.6,0-0.9,0.2-0.9,0.8c0,0.9,0,1.9,0,2.8C143.4,135.5,143.4,136.5,143.4,137.5z"/>
	<path class="st1" d="M222.4,112.1c0-1.8,0-3.6,0-5.4c0-0.7,0.2-0.9,0.9-0.9c2,0,4.1,0,6.1,0c1.8,0,3.3,1.1,3.8,2.6
		c0.5,1.6,0.3,3.1-1.2,4.1c-0.4,0.3-0.3,0.4,0,0.7c1.3,1.3,1.7,3,2.5,4.6c0.2,0.4,0.1,0.6-0.4,0.6c-1,0-2,0-2.9,0
		c-0.5,0-0.7-0.3-0.9-0.7c-0.4-0.8-0.7-1.6-1.1-2.4c-0.2-0.5-0.6-1-1-1.4c-0.5-0.4-1.1-0.5-1.6-0.4c-0.5,0.2-0.2,0.8-0.3,1.2
		c0,0.9,0,1.7,0,2.6c0,0.2,0.1,0.5,0,0.6c-0.9,1-2.1,0.2-3.1,0.4c-0.7,0.1-0.7-0.3-0.7-0.8C222.4,115.8,222.4,114,222.4,112.1z
		 M227.2,111.3c1.7-0.1,2.2-0.4,2.2-1.5c0-1.1-0.7-1.5-2.3-1.6c-1.4-0.1-0.7,0.9-0.9,1.5C226.3,110.4,225.8,111.4,227.2,111.3z"/>
	<path class="st1" d="M221.3,167.8c1.8-1,3.7-1.3,5.4,0c1.7,1.3,1.9,3.2,1.5,5.2c-0.7,3.2-2.9,5-5.9,5c-1.1,0-2-0.5-2.8-1.3
		c-0.3,0.9-2.5,1.5-3.1,1c-0.3-0.3-0.1-0.7-0.1-1c0.5-3.8,1.1-7.6,1.6-11.4c0.1-0.9,0.3-1.9,0.4-2.8c0.1-0.7,0.3-1,1.1-1
		c2.4,0,2.4-0.1,2.1,2.3c-0.2,1.2-0.3,2.3-0.5,3.5C220.9,167.6,220.7,167.9,221.3,167.8z M221,167.3c-0.2,0.3-0.3,0.6-0.1,0.8
		c0.1,0.1,0.3-0.1,0.4-0.3C221,167.7,221.1,167.5,221,167.3z M222.9,169.9c-1.7-0.1-3,1.2-3,3c0,1.3,0.8,2.2,2.2,2.2
		c1.7,0,2.9-1.3,2.9-3.1C225.1,170.7,224.3,170,222.9,169.9z"/>
	<path class="st1" d="M40.1,167.8c1.8-1,3.7-1.3,5.4,0c1.7,1.3,1.9,3.2,1.5,5.2c-0.4,1.9-1.4,3.4-3.1,4.3c-1.9,1-3.8,0.8-5.7-0.6
		c-0.3,0.8-2.5,1.5-3.1,0.9c-0.3-0.2-0.1-0.5-0.1-0.8c0.7-4.9,1.4-9.8,2-14.7c0.1-0.5,0.2-0.7,0.8-0.7c2.6-0.2,2.7-0.2,2.3,2.4
		c-0.2,1.1-0.3,2.3-0.5,3.4C39.7,167.6,39.5,167.9,40.1,167.8z M43.9,172.1c0-1.3-0.9-2.2-2.3-2.2c-1.6,0-2.9,1.4-2.9,3.1
		c0,1.3,0.9,2.1,2.2,2.1C42.6,175.2,43.9,173.8,43.9,172.1z"/>
	<path class="st1" d="M61.7,118.5c1.8-4.2,3.5-8.2,5.5-12.2c0.6-1.2,2.4-0.3,3.6-0.5c0.5-0.1,0.8,0,1.1,0.6c1.6,3.8,3.3,7.5,5,11.3
		c0.3,0.7,0.1,0.8-0.5,0.8c-0.3,0-0.7-0.1-1,0c-1.6,0.3-2.6-0.2-2.9-1.8c-0.1-0.6-0.5-0.7-1.1-0.7c-0.8,0-1.6,0.1-2.3,0
		c-1.6-0.2-2.8,0.1-3.1,1.9c-0.1,0.4-0.3,0.6-0.8,0.6C64,118.5,62.9,118.5,61.7,118.5z M67.6,113.7c1,0,1.9,0,2.7,0
		c0.7,0,0.8-0.2,0.5-0.8c-0.5-1.1-0.9-2.3-1.5-3.7C68.8,110.9,68.2,112.2,67.6,113.7z"/>
	<path class="st1" d="M139.8,105.8c1.4-0.4,2.1,0.4,2.7,1.8c1.3,3.3,2.8,6.5,4.3,9.8c0.3,0.8,0.3,1.2-0.6,1c-0.2,0-0.5,0-0.7,0
		c-1.5,0.3-2.6-0.2-2.9-1.8c-0.1-0.6-0.5-0.7-1.1-0.7c-0.7,0-1.5,0.1-2.2,0c-1.6-0.2-2.9,0-3.2,1.9c-0.1,0.4-0.4,0.6-0.8,0.6
		c-0.9,0-1.8,0-2.7,0c-0.7,0-0.7-0.3-0.4-0.7c1.7-3.8,3.4-7.5,5-11.3c0.2-0.5,0.5-0.7,1-0.6C138.6,105.9,139.1,105.8,139.8,105.8z
		 M138.7,111.2c-1.1,2.8-1.1,2.8,1.9,2.5c0.5,0,0.7-0.1,0.5-0.6c-0.5-1.2-1-2.5-1.6-3.8C139.2,110,139,110.6,138.7,111.2z"/>
	<path class="st1" d="M93.9,118.5c1.6-3.7,3.3-7.2,4.7-10.8c0.6-1.5,1.4-1.9,2.9-1.9c1.8,0,2.6,0.5,3.2,2.1c1.2,3.2,2.7,6.3,4.1,9.4
		c0.5,1.1,0.2,1.3-0.8,1.2c-0.2,0-0.3,0-0.5,0c-1.5,0.3-2.6-0.1-2.9-1.8c-0.1-0.6-0.5-0.7-1.1-0.7c-0.8,0-1.6,0.1-2.3,0
		c-1.6-0.2-2.8,0.1-3.1,1.9c-0.1,0.4-0.3,0.6-0.8,0.6C96.2,118.5,95.1,118.5,93.9,118.5z M100,113.2c-0.1,0.1-0.2,0.3,0,0.5
		c0.8,0,1.7,0,2.5,0c0.8,0,0.8-0.2,0.5-0.9c-0.5-1.1-0.9-2.3-1.5-3.6C101,110.7,100.5,112,100,113.2z"/>
	<path class="st1" d="M248.1,118.5c-1.3,0.4-2.2-0.3-2.5-1.8c-0.1-0.6-0.5-0.8-1.1-0.7c-0.7,0.1-1.4,0.1-2.1,0
		c-1.7-0.2-3.1-0.1-3.4,2c-0.1,0.4-0.4,0.5-0.8,0.5c-0.9,0-1.7,0-2.6,0c-0.6,0-0.7-0.1-0.5-0.7c1.7-3.8,3.4-7.6,5.1-11.4
		c0,0,0-0.1,0-0.1c1.2-0.9,2.6-0.2,3.9-0.4c0.6-0.1,0.8,0.3,0.9,0.7c1.6,3.6,3.1,7.2,4.8,10.7c0.5,1.1,0.3,1.3-0.8,1.2
		C248.8,118.5,248.5,118.5,248.1,118.5z M241,113.1c-0.2,0.5,0,0.6,0.5,0.6c0.9,0,1.9,0,2.9,0c-0.6-1.5-1.1-2.8-1.8-4.5
		C242,110.7,241.5,111.9,241,113.1z"/>
	<path class="st1" d="M97.6,134.6c0-1.8,0-3.7,0-5.5c0-0.6,0.2-0.8,0.8-0.8c2,0,3.9,0,5.9,0c2,0.1,3.5,1.1,4.1,2.6
		c0.8,2.4-0.6,4.8-3.2,5.2c-0.8,0.1-1.7,0.1-2.6,0.1c-0.9-0.1-1.3,0.2-1.2,1.1c0.1,0.9,0,1.9,0,2.8c0,0.6-0.2,0.8-0.9,0.8
		c-3,0.1-3,0.1-3-2.9C97.6,136.9,97.6,135.8,97.6,134.6z M102.5,133.7c1.6-0.1,2.1-0.4,2.2-1.4c0-1.1-0.7-1.5-2.2-1.6
		c-1.3-0.1-1,0.7-1,1.4C101.5,132.8,101,133.8,102.5,133.7z"/>
	<path class="st1" d="M180.5,178c-3.7,0-5.9-3.1-4.5-6.8c1.3-3.4,5.5-5.2,8.8-3.7c2.9,1.3,3.5,5.4,1.1,8.2
		C184.5,177.3,182.8,178,180.5,178z M181,175.1c1.7,0,3-1.3,3.1-3c0-1.3-0.9-2.2-2.2-2.2c-1.7,0-2.9,1.2-2.9,3
		C178.9,174.3,179.7,175.1,181,175.1z"/>
	<path class="st1" d="M135.4,173.3c-0.1-4.8,5.2-7.7,9.4-5.7c2.3,1.1,3,4.1,1.7,6.7c-1.4,3-5.4,4.5-8.5,3.2
		C136.4,176.9,135.4,175.4,135.4,173.3z M141.6,169.9c-1.6,0-2.9,1.3-2.9,3c0,1.4,0.8,2.2,2.1,2.3c1.7,0,3-1.3,3-3
		C143.9,170.7,143,169.9,141.6,169.9z"/>
	<path class="st1" d="M277,173.6c-1,0-2,0-2.9,0c-0.9,0-0.9,0.4-0.5,1c0.6,1.1,2.2,1.3,3.5,0.4c0.3-0.2,0.6-0.8,1-0.6
		c0.6,0.4,1.2,0.9,1.7,1.4c0.2,0.2-0.1,0.4-0.3,0.6c-1.7,1.9-5.5,2.2-7.6,0.7c-1.9-1.3-2.3-4.3-1.1-6.7c1.3-2.4,4.4-3.9,7.1-3.3
		c2.4,0.5,3.9,3.8,2.9,6.1c-0.2,0.4-0.5,0.3-0.8,0.4C279,173.6,278,173.6,277,173.6C277,173.6,277,173.6,277,173.6z M277,171.3
		c0.9,0,0.8-0.4,0.6-1c-0.3-0.7-1-1-1.7-0.9c-1.1,0.1-1.8,0.7-2.3,1.9C274.8,171.3,275.9,171.3,277,171.3z"/>
	<path class="st1" d="M95.9,173.6c-1,0-2,0-2.9,0c-0.9,0-0.9,0.4-0.5,1c0.7,1.1,2.2,1.2,3.5,0.4c0.3-0.2,0.5-0.8,1-0.5
		c0.6,0.4,1.2,0.9,1.7,1.4c0.2,0.2-0.2,0.4-0.3,0.6c-1.8,1.9-5.7,2.1-7.7,0.5c-1.4-1.1-2-3.3-1.4-5.4c0.9-3.2,4.4-5.2,7.6-4.5
		c2.4,0.6,4,4.1,2.8,6.2c-0.2,0.3-0.5,0.3-0.7,0.3C97.8,173.6,96.9,173.6,95.9,173.6z M92.8,171.3c0.9,0,1.7,0,2.6,0
		c0.4,0,1,0.3,1.1-0.3c0.1-0.6-0.3-1.2-0.9-1.4c-1.2-0.5-2.4,0.2-3.1,1.7C92.6,171.2,92.7,171.3,92.8,171.3z"/>
</g>
</svg>
